<svg version="1.2" xmlns="http://www.w3.org/2000/svg" viewBox="0 0 1190 1190" width="1190" height="1190">
	<title>OMUNMO1-ai</title>
	<style>
		.s0 { fill: #a5dcf0 } 
		.s1 { fill: #d8edee } 
		.s2 { fill: #ffffff } 
		.s3 { fill: #f05a2a } 
		.s4 { fill: #f8ec3a } 
		.s5 { fill: #e8af2e } 
		.s6 { fill: none;stroke: #403f41;stroke-linecap: round;stroke-miterlimit:10;stroke-width: 9.8 } 
		.s7 { fill: #a6a8ab } 
		.s8 { fill: #221f1f } 
		.s9 { fill: none;stroke: #403f41;stroke-linecap: round;stroke-miterlimit:10;stroke-width: 8.2 } 
		.s10 { fill: #fde039 } 
		.s11 { fill: #403f41 } 
	</style>
	<g id="_Artboards_">
	</g>
	<g id="Capa 1">
		<g id="&lt;Group&gt;">
			<g id="&lt;Group&gt;">
				<path id="&lt;Path&gt;" class="s0" d="m601.6 177.4c-257.2 0-465.7 208.5-465.7 465.7 0 257.2 208.5 465.7 465.7 465.7 257.2 0 465.8-208.5 465.8-465.7 0-257.2-208.6-465.7-465.8-465.7z"/>
				<path id="&lt;Path&gt;" class="s1" d="m975.4 920.9c-0.5-31.9-23.2-60.3-55.8-66.9-32.1-6.4-63.4 10.4-76.6 38.8-7.6-6.8-17.2-11.8-28-13.9-23.7-4.8-46.8 5.2-60.1 23.5q-5.8-2.4-12.1-3.6c-36.6-7.4-72.2 16.4-79.5 53-7.3 36.6 16.4 72.2 53 79.5 12.6 2.5 25.1 1.3 36.3-2.7q-0.1 0.3-0.2 0.7c-3.6 18.4 0.9 36.5 11 50.6 85.3-31.5 158.7-87.3 212-159z"/>
				<path id="&lt;Compound Path&gt;" fill-rule="evenodd" class="s1" d="m272.6 936c-6.8 5.8-15 9.6-23.7 11.2-53.4-61.9-90.8-138-105.7-221.9 5.7 0.7 11.4 2.5 16.8 5.3 5.5 2.9 10.1 6.7 13.9 11.1 15.1-11.4 36-13.9 53.8-4.4 11.7 6.1 19.9 16.3 23.8 27.8 15.5-6.9 34-7 50.1 1.6 27.9 14.8 38.5 49.3 23.7 77.1q-0.6 1.1-1.2 2.1c5.3 1 10.5 2.8 15.5 5.5 26.7 14.2 37 47.4 22.8 74.1-14.2 26.8-47.4 37-74.2 22.8-6.1-3.2-11.3-7.4-15.6-12.3zm-44-85.6c-0.9-1.4-1.9-2.7-2.7-4.2q0.2 2.4 0.3 4.9 1.2-0.4 2.4-0.7z"/>
				<path id="&lt;Path&gt;" class="s1" d="m580.4 650l-60.6 343.1 187.7-11.4-71.4-335.3z"/>
				<path id="&lt;Path&gt;" class="s1" d="m741 960.2c5.4-14.9-1.3-31.3-15.1-38.4 3.8-4.1 6.8-9.1 8.8-14.7 8.6-23.7-3.6-49.9-27.3-58.5-23.7-8.6-49.9 3.6-58.5 27.3q-1.4 4-2.1 8-2.9-1.6-6.2-2.8c-25.3-9.1-53.2 3.9-62.4 29.2-7.8 21.5 0.5 45 18.8 57.1-5.6 4.6-10 10.7-12.7 18-5.7 15.9-1.3 33 10 44.1-1.5 2.5-2.8 5.2-3.8 8-8.9 24.6 3.7 51.8 28.3 60.7 24.6 8.9 51.8-3.8 60.7-28.3 3.1-8.5 3.6-17.2 2-25.5q0.2 0.1 0.5 0.2c23.6 8.6 49.6-3.6 58.2-27.1 5.7-15.8 2.2-32.6-7.8-44.7 3.7-3.3 6.7-7.6 8.6-12.6z"/>
				<path id="&lt;Path&gt;" class="s1" d="m1006.9 743.3q-2.5 3.3-4.3 7-2.3-2.4-5.1-4.5c-21.2-16-51.4-11.7-67.4 9.6-13.6 18.1-12.5 42.7 1.3 59.5-6.6 2.8-12.6 7.2-17.2 13.4-10 13.3-10.8 30.8-3.3 44.6q-3.2 2.9-5.9 6.5c-15.5 20.7-11.4 50.1 9.3 65.6 10.2 7.6 22.4 10.5 34.1 9 55.9-62.3 95.3-139.8 111.1-225.6-18.4-7.3-40.1-1.7-52.6 14.9z"/>
				<path id="&lt;Path&gt;" class="s1" d="m559.3 907.1c2.3-3.4 4.2-7.2 5.5-11.4 6-20.1-3.4-40.7-21.2-46.1-16.1-4.8-33.4 4.4-41.1 21.1-14.9-0.5-29.4 10.4-34.5 27.1-4.2 13.6-0.9 27.5 7.3 36.4-7.3 2.8-13.5 9.3-16.1 17.9-4.3 14 2.3 28.3 14.7 32.1q1.6 0.5 3.3 0.7-0.1 0.1-0.1 0.3c-4.6 15 2.5 30.4 15.9 34.5 13.3 4 27.8-4.9 32.3-19.9 0.9-2.7 1.3-5.5 1.4-8.1q0.5 0.2 1 0.3c21.3 6.5 44.5-7.8 51.8-31.8 6.6-21.9-2.3-44.5-20.2-53.1z"/>
				<path id="&lt;Path&gt;" class="s1" d="m499.2 1044.9c4 0.7 8.2 1 12.5 0.9 37.3-1 66.8-32.1 65.8-69.4-1-37.3-32.1-66.7-69.4-65.7-12.8 0.3-24.7 4.2-34.7 10.7q0-0.4 0-0.8c-1-35.8-30.8-64-66.6-63.1-23.9 0.7-44.4 14.2-55.1 33.7-6.4-3.2-13.6-4.9-21.3-4.7-22.6 0.6-40.8 18-43 40-7.5-2.8-15.7-4.2-24.2-4-10.3 0.3-19.9 2.9-28.5 7.4 53.4 68.3 125.5 121.2 208.5 151.3 0.8 0 1.7 0 2.5 0 24.2-0.7 44.5-15.5 53.5-36.3z"/>
				<path id="&lt;Path&gt;" class="s2" d="m963.1 936.8c-4.6-3.8-9.7-7-15.4-9.5-29.8-13.4-64.1-4-83.3 20.7-5.9-8.4-14.1-15.4-24.2-19.9-22-9.9-46.8-5.4-63.8 9.5-3.4-2.4-7.1-4.5-11-6.3-34.1-15.3-74.1-0.1-89.4 33.9-15.3 34.1-0.1 74.1 33.9 89.4 11.7 5.2 24.2 6.9 36 5.4q-0.2 0.4-0.3 0.7c-4 8.9-5.8 18.2-5.7 27.3 88.7-27.6 166-80.9 223.2-151.2z"/>
				<path id="&lt;Path&gt;" class="s2" d="m305.4 984.2q0.4-0.2 0.7-0.3c31.5-17.1 43.3-56.4 26.3-87.9-11.4-21-32.7-33.2-55-33.9 0-7.2-1.7-14.4-5.4-21.2-10.7-19.9-34.5-28.3-55.1-20.3-0.9-8-3.3-15.9-7.4-23.4-11.8-22-34.6-34.3-57.9-34.1 28.8 108.3 95.6 201 185.2 263.1-1.3-5.4-3.3-10.7-6.1-15.8-6.1-11.3-14.9-20.1-25.3-26.2z"/>
				<path id="&lt;Path&gt;" class="s2" d="m587.8 715l-47 239.9 145.7-7.9-55.4-234.6z"/>
				<path id="&lt;Path&gt;" class="s2" d="m681.5 1078.7q0.2 0.1 0.5 0.2c23.6 8.6 49.6-3.6 58.2-27.2 5.7-15.7 2.2-32.6-7.8-44.6 3.7-3.3 6.7-7.6 8.6-12.6 5.4-15-1.3-31.3-15.1-38.4 3.8-4.2 6.8-9.1 8.8-14.7 8.6-23.7-3.6-49.9-27.3-58.5-23.7-8.6-49.9 3.6-58.5 27.3q-1.4 4-2.1 8-2.9-1.6-6.2-2.8c-25.3-9.2-53.2 3.9-62.4 29.1-7.8 21.6 0.5 45 18.8 57.2-5.6 4.6-10 10.7-12.7 17.9-5.7 15.9-1.3 33 10 44.2q-2.3 3.7-3.8 8c-4.6 12.5-3.5 25.8 2 36.9q4.5 0.1 9.1 0.1c26.8 0 53-2.3 78.5-6.6 2.5-7.8 2.9-15.9 1.4-23.5z"/>
				<path id="&lt;Path&gt;" class="s2" d="m1042.4 768.4c-22 5.6-36.5 25.4-36.3 47.1-6.9-1.9-14.3-2.2-21.7-0.3-16.3 4.1-27.8 17.2-30.6 32.7q-4.3 0.2-8.7 1.3c-25.1 6.4-40.2 31.9-33.9 57 5.6 22.1 26.1 36.5 48 35.2 42-50.2 73.6-109.5 91.5-174.4q-4.2 0.3-8.3 1.4z"/>
				<path id="&lt;Path&gt;" class="s2" d="m569.6 931.1c0.9-4 1.3-8.2 0.9-12.6-1.5-20.9-17.7-36.7-36.2-35.3-16.8 1.2-29.6 16.1-30.8 34.4-14.1 4.9-23.8 20.3-22.5 37.7 1.1 14.2 9.1 26 19.9 31.4-5.8 5.2-9.2 13.4-8.5 22.5 1 14.5 12.4 25.5 25.3 24.6 1.1-0.1 2.2-0.3 3.3-0.6q0 0.2 0 0.3c1.1 15.7 13.3 27.6 27.2 26.5 13.9-1 24.2-14.5 23-30.2-0.2-2.8-0.7-5.5-1.6-8q0.5-0.1 1.1-0.1c22.2-1.6 38.6-23.2 36.8-48.3-1.7-22.9-18.1-40.7-37.9-42.3z"/>
				<path id="&lt;Path&gt;" class="s2" d="m539.4 1101.8c37.4-1 66.8-32 65.8-69.3-1-37.3-32.1-66.8-69.4-65.8-12.8 0.4-24.7 4.3-34.7 10.7q0-0.4 0-0.7c-1-35.8-30.8-64.1-66.6-63.1-23.9 0.6-44.4 14.1-55.1 33.7-6.4-3.2-13.6-5-21.3-4.8-22.6 0.6-40.8 18.1-43 40-7.5-2.7-15.7-4.2-24.2-3.9-3.7 0.1-7.4 0.5-11 1.2 66.4 63.4 151.5 107.4 246.1 122.9 0.3-0.6 0.6-1.1 0.9-1.7 4.1 0.6 8.3 0.9 12.5 0.8z"/>
				<path id="&lt;Path&gt;" class="s2" d="m754 1048.6c-12.8 0.3-24.7 4.2-34.7 10.7q0-0.4 0-0.8c-1-35.8-30.8-64-66.5-63-23.9 0.6-44.5 14.1-55.2 33.6-6.3-3.2-13.6-4.9-21.2-4.7-22.7 0.6-40.9 18-43.1 40-7.5-2.8-15.7-4.2-24.2-4-20.6 0.6-38.8 10.7-50.3 26.1 45 14.5 93 22.3 142.8 22.3 70.9 0 138-15.8 198.1-44.1-12.3-10.5-28.3-16.6-45.7-16.1z"/>
				<path id="&lt;Compound Path&gt;" fill-rule="evenodd" class="s2" d="m924.8 432.5q0.5 2.5 0.4 4.8h-152.8c2.2-9.8 10-18 20.6-20 3.2-0.7 6.5-0.7 9.5-0.1 1.7-9.4 9-17.2 18.8-19.1 8.2-1.6 16.1 1.2 21.5 6.7 3.7-6.5 10.1-11.4 18-13 14.4-2.8 28.4 6.6 31.2 21q0.3 1.5 0.4 3 2.4-1.1 5.1-1.6c12.6-2.5 24.8 5.8 27.3 18.3zm-77.8 4q-0.8-0.8-1.5-1.7-0.4 0.5-0.8 1 1.2 0.3 2.3 0.7z"/>
				<path id="&lt;Compound Path&gt;" fill-rule="evenodd" class="s2" d="m428.1 529.4q0.4 1.9 0.3 3.8h-119.3c1.7-7.7 7.8-14.1 16.1-15.7 2.5-0.5 5.1-0.5 7.5-0.1 1.3-7.3 6.9-13.3 14.6-14.8 6.4-1.3 12.6 0.9 16.8 5.2 2.9-5.1 7.9-9 14.1-10.2 11.2-2.2 22.1 5.2 24.3 16.4q0.2 1.2 0.3 2.4 1.9-0.9 4-1.3c9.9-1.9 19.4 4.5 21.3 14.3zm-60.7 3.2q-0.7-0.7-1.2-1.4-0.3 0.4-0.6 0.8 0.9 0.2 1.8 0.6z"/>
			</g>
			<g id="&lt;Group&gt;">
				<g id="&lt;Group&gt;">
					<path id="&lt;Path&gt;" class="s3" d="m619.8 814.1c18.5-46.3 60.1-104.7 59.5-130.9-0.7-26.2-31-62.7-64.4-61.9-33.3 0.8-61.8 38.4-61.1 65.1 0.7 26.7 66 127.7 66 127.7z"/>
					<path id="&lt;Path&gt;" class="s4" d="m619 780.8c15.1-37.8 49.1-85.5 48.6-107-0.6-21.4-25.4-51.3-52.6-50.6-27.2 0.7-50.5 31.4-50 53.2 0.6 21.8 54 104.4 54 104.4z"/>
					<path id="&lt;Path&gt;" class="s2" d="m618.1 744.4c11.6-29.1 37.8-65.9 37.4-82.4-0.4-16.5-19.5-39.5-40.5-39-21 0.5-38.9 24.2-38.5 41 0.4 16.8 41.6 80.4 41.6 80.4z"/>
				</g>
				<g id="&lt;Group&gt;">
					<path id="&lt;Path&gt;" class="s3" d="m564.8 761c18.7-27.4 54.2-59.2 57.6-76.3 3.4-17.1-11-45.2-32.7-49.5-21.7-4.4-45.7 15.9-49.1 33.3-3.5 17.4 24.2 92.5 24.2 92.5z"/>
					<path id="&lt;Path&gt;" class="s4" d="m569.1 739.2c15.3-22.3 44.3-48.3 47.1-62.3 2.8-14-9-37-26.8-40.5-17.7-3.5-37.3 13-40.1 27.2-2.8 14.3 19.8 75.6 19.8 75.6z"/>
					<path id="&lt;Path&gt;" class="s2" d="m573.8 715.5c11.8-17.2 34.2-37.3 36.3-48 2.1-10.8-6.9-28.5-20.6-31.2-13.7-2.7-28.8 10-31 21-2.1 10.9 15.3 58.2 15.3 58.2z"/>
				</g>
				<g id="&lt;Group&gt;">
					<path id="&lt;Path&gt;" class="s3" d="m632.1 704.6c-0.1-21 7-50.5 2.6-60.7-4.5-10.1-22.1-19.6-35-14-13 5.6-18.2 24.8-13.7 35.2 4.5 10.3 46.1 39.5 46.1 39.5z"/>
					<path id="&lt;Path&gt;" class="s4" d="m626.5 691.7c-0.1-17.2 5.7-41.3 2.1-49.6-3.6-8.3-18.1-16-28.6-11.5-10.6 4.6-14.8 20.3-11.2 28.8 3.7 8.4 37.7 32.3 37.7 32.3z"/>
					<path id="&lt;Path&gt;" class="s2" d="m620.4 677.6c-0.1-13.2 4.4-31.8 1.6-38.2-2.8-6.4-13.9-12.4-22.1-8.8-8.1 3.5-11.4 15.6-8.5 22.1 2.8 6.5 29 24.9 29 24.9z"/>
				</g>
				<g id="&lt;Group&gt;">
					<path id="&lt;Path&gt;" class="s5" d="m780.3 256.7c-93 123.2-127.2 16.8-178.6 17.1-27 0.3-46.5 111-178.7-17.1 0-98.7 80-178.7 178.7-178.7 98.6 0 178.6 80 178.6 178.7z"/>
					<path id="&lt;Path&gt;" class="s5" d="m423 256.7c19.5 111.5 73.4 125.1 102.8 241.7 63.7 42.4 58.8 32.6 161.5 8.3 14.7-107.2 93-171.9 93-250 4.9-116.7-342.6-93.8-357.3 0z"/>
					<g id="&lt;Group&gt;">
						<path id="&lt;Path&gt;" class="s6" d="m520.9 290.7c0 0 33.9 77.7 44.1 106.6 10.2 28.8 10.5 97.7 10.5 97.7"/>
						<path id="&lt;Path&gt;" class="s6" d="m694.8 290.7c0 0-33.9 77.7-44.1 106.6-10.3 28.8-10.6 97.7-10.6 97.7"/>
					</g>
					<path id="&lt;Path&gt;" class="s7" d="m545.1 552.3v55.1c0 17 11 30.7 24.6 30.7h73.7c13.6 0 24.6-13.7 24.6-30.7v-55.1z"/>
					<path id="&lt;Path&gt;" class="s8" d="m514.5 484.7v89.4c0 16.9 13.8 30.7 30.7 30.7h122.7c17 0 30.7-13.8 30.7-30.7v-89.4z"/>
					<g id="&lt;Group&gt;">
						<path id="&lt;Path&gt;" class="s9" d="m572.2 319.1c0 12.9-8 23.4-17.9 23.4-9.8 0-17.8-10.5-17.8-23.4 0-12.9 8-23.4 17.8-23.4 9.9 0 17.9 10.5 17.9 23.4z"/>
						<path id="&lt;Path&gt;" class="s9" d="m607.8 319.1c0 12.9-8 23.4-17.8 23.4-9.8 0-17.8-10.5-17.8-23.4 0-12.9 8-23.4 17.8-23.4 9.8 0 17.8 10.5 17.8 23.4z"/>
						<path id="&lt;Path&gt;" class="s9" d="m643.5 319.1c0 12.9-8 23.4-17.8 23.4-9.9 0-17.9-10.5-17.9-23.4 0-12.9 8-23.4 17.9-23.4 9.8 0 17.8 10.5 17.8 23.4z"/>
						<path id="&lt;Path&gt;" class="s9" d="m679.1 319.1c0 12.9-7.9 23.4-17.8 23.4-9.8 0-17.8-10.5-17.8-23.4 0-12.9 8-23.4 17.8-23.4 9.9 0 17.8 10.5 17.8 23.4z"/>
					</g>
					<path id="&lt;Path&gt;" class="s10" d="m545.1 110.8c44.1-32.5 122.8-4.8 151.9 16.4 40.6 29.4 70.5 94.4 65.8 136.4-4.7 42-22.5 64.1-39 103.2-5.9 13.9 20.1-42.3-11.5-118.2-23.5-56.6-91.6-71.1-136.8-76.3-31.6-3.6-74.2-29.1-30.4-61.5z"/>
					<path id="&lt;Path&gt;" class="s11" d="m704.8 511.6c0 2.5-1.8 4.4-4.2 4.4h-189c-2.3 0-4.2-1.9-4.2-4.4v-7.7c0-2.4 1.9-4.4 4.2-4.4h189c2.4 0 4.2 2 4.2 4.4z"/>
					<path id="&lt;Path&gt;" class="s11" d="m704.8 538c0 2.4-1.8 4.4-4.2 4.4h-189c-2.3 0-4.2-2-4.2-4.4v-7.7c0-2.4 1.9-4.4 4.2-4.4h189c2.4 0 4.2 2 4.2 4.4z"/>
					<path id="&lt;Path&gt;" class="s11" d="m705.3 564.4c0 2.4-1.9 4.4-4.2 4.4h-189c-2.4 0-4.2-2-4.2-4.4v-7.7c0-2.4 1.8-4.4 4.2-4.4h189c2.3 0 4.2 2 4.2 4.4z"/>
				</g>
			</g>
		</g>
	</g>
</svg>