<svg width="187" height="146" viewBox="0 0 187 146" fill="none" xmlns="http://www.w3.org/2000/svg">
<path fill-rule="evenodd" clip-rule="evenodd" d="M158.785 21.3281C128.632 4.01675 105.122 54.8318 88.046 61.2289C53.6318 74.1211 -10.2896 85.3341 1.90086 110.398C18.6392 144.814 76.8793 148.248 118.528 144.814C172.7 140.347 218.067 55.3639 158.785 21.3281Z" fill="#FF0000"/>
<path fill-rule="evenodd" clip-rule="evenodd" d="M154.412 76.7969C154.723 77.0711 154.829 77.5004 154.906 77.9113L155.379 80.4899C155.444 80.8485 155.745 81.0183 155.861 80.8142C155.984 80.5981 156.311 80.6878 156.53 80.8045L159.268 82.2623C158.337 82.9312 157.238 83.3647 156.1 83.5116C155.54 83.584 155.449 84.3523 155.509 84.9148L155.671 86.4449C155.721 86.9217 154.972 87.0837 154.597 86.7846C154.223 86.4855 154.081 85.9846 153.786 85.6069C153.309 84.9967 152.466 84.7691 151.695 84.8398C150.925 84.9105 150.203 85.2338 149.497 85.5527C149.042 85.7582 148.542 85.2137 148.578 84.7157C148.609 84.2762 148.89 83.9078 149.176 83.5648L149.291 83.4289C149.612 83.047 149.934 82.5944 149.879 82.098C149.834 81.6847 149.539 81.3518 149.243 81.0545L149.07 80.8808C148.796 80.6003 148.535 80.2885 148.487 79.9049C148.432 79.4665 148.832 78.9619 149.253 79.0978C150.871 79.6211 152.819 78.6008 153.312 76.9721C153.44 76.5489 154.081 76.5044 154.412 76.7969Z" fill="white"/>
<path fill-rule="evenodd" clip-rule="evenodd" d="M154.412 76.7969C154.723 77.0711 154.829 77.5004 154.906 77.9113L155.379 80.4899C155.444 80.8485 155.3 81.4036 154.958 81.2781C154.471 80.2446 154.212 79.1042 154.204 77.9614C154.018 77.7828 153.742 78.0486 153.626 78.279L152.471 80.5822C152.267 80.9878 151.66 80.8982 151.259 80.6862L151.044 80.5724C150.696 80.3919 150.317 80.2321 149.987 80.41C149.819 80.9143 150.567 81.1658 150.956 81.5289C151.399 81.9434 151.373 82.6877 151.063 83.2097C150.753 83.7316 150.229 84.0834 149.722 84.4175C150.45 84.5376 151.227 84.3248 151.792 83.8503C152.047 83.6359 152.281 83.3608 152.607 83.2925C153.112 83.1869 153.565 83.6248 153.827 84.0691C154.089 84.5134 154.296 85.0336 154.744 85.2899C154.968 84.9368 154.848 84.4934 154.707 84.085L154.64 83.8946C154.478 83.4382 154.405 82.8334 154.802 82.5564C154.952 82.4522 155.137 82.4217 155.32 82.4019L157.272 82.2063L156.147 81.3861C155.958 81.2479 155.745 81.0183 155.861 80.8142C155.984 80.5981 156.311 80.6878 156.53 80.8045L159.268 82.2623C158.337 82.9312 157.238 83.3647 156.1 83.5116C155.54 83.584 155.449 84.3523 155.509 84.9148L155.671 86.4449C155.721 86.9217 154.972 87.0837 154.597 86.7846C154.223 86.4855 154.081 85.9846 153.786 85.6069C153.309 84.9967 152.466 84.7691 151.695 84.8398C150.925 84.9105 150.203 85.2338 149.497 85.5527C149.042 85.7582 148.542 85.2137 148.578 84.7157C148.609 84.2762 148.89 83.9078 149.176 83.5648L149.291 83.4289C149.612 83.047 149.934 82.5944 149.879 82.098C149.834 81.6847 149.539 81.3518 149.243 81.0545L149.07 80.8808C148.796 80.6003 148.535 80.2885 148.487 79.9049C148.432 79.4665 148.832 78.9619 149.253 79.0978C150.871 79.6211 152.819 78.6008 153.312 76.9721C153.44 76.5489 154.081 76.5044 154.412 76.7969Z" fill="#FFB61D"/>
<path fill-rule="evenodd" clip-rule="evenodd" d="M46.6771 30.5528C45.5054 25.3429 48.6977 16.6947 54.4015 13.2175C60.1053 9.74029 67.4011 9.50209 73.7535 11.567C73.5509 5.42746 79.7742 0.159042 85.8931 0.666285C92.0121 1.17353 97.089 6.66985 97.9112 12.7574C98.5518 17.5008 96.118 23.1507 91.4116 24.0099C93.0752 29.9568 94.0003 36.2139 93.0871 42.3214C92.174 48.4289 89.2689 54.3949 84.3663 58.1468C83.0126 59.9684 84.0351 62.7162 85.817 64.1211C87.599 65.5261 89.9052 66.0199 92.0375 66.7952C100.972 70.0439 107.262 78.8628 108.728 88.2599C110.195 97.6569 107.266 107.402 101.973 115.303C98.3482 120.714 93.4166 125.52 87.2466 127.601C78.5862 130.522 69.0909 127.678 60.6814 124.097C57.4757 122.733 54.2112 121.181 51.9483 118.531C49.5224 115.69 44.9376 117.225 41.6313 118.962C43.8297 119.875 46.0282 120.788 48.2266 121.7C48.699 121.896 49.2116 122.129 49.4306 122.592C49.8918 123.565 48.7558 124.502 47.7942 124.986C46.7609 125.507 45.7276 126.027 44.6944 126.548C38.3519 129.743 31.7465 133.008 24.648 133.205C16.8872 133.421 9.55639 129.951 2.57184 126.559C1.79549 126.182 0.97256 125.762 0.550433 125.009C0.128305 124.256 0.364263 123.082 1.19854 122.861C9.03401 120.788 16.4523 117.149 22.8892 112.222C22.3968 109.155 22.5129 105.991 23.2287 102.968C23.3322 102.531 23.4811 102.051 23.8706 101.827C24.828 101.277 25.6597 102.727 25.8289 103.818C26.2559 106.574 26.6829 109.33 27.1099 112.086C32.2375 111.518 37.2139 109.634 41.4321 106.662C38.1421 104.011 34.8522 101.361 31.5623 98.7098C29.664 97.1803 27.8317 96.2654 26.8065 93.2704C26.1231 91.2738 26.6747 89.2228 28.4614 87.1175C26.4669 77.1727 25.5941 69.6762 25.8433 64.6279C25.9097 63.2803 26.0605 61.8256 26.967 60.8269C28.5673 59.0638 31.7094 59.8241 33.1701 61.7045C34.6307 63.5849 34.8752 66.1084 35.0641 68.4824C40.6256 67.8026 46.1872 67.1228 51.7487 66.4429C53.7835 66.1942 55.8906 65.9512 57.849 66.5571C60.3061 67.3173 62.2794 69.4702 62.824 71.985C65.1709 71.3503 67.7271 70.5688 69.0524 68.5298C70.3777 66.4908 69.2552 62.9445 66.8264 63.0496C59.2291 63.3785 51.799 57.7382 50.0698 50.3293C49.63 48.445 49.4591 46.3511 48.137 44.9389C46.0418 42.701 44.4455 39.816 44.4557 36.7498C44.4659 33.6836 45.75 33.3177 46.6771 30.5528ZM1.32696 124.915C1.49801 125.171 1.79656 125.305 2.07933 125.426C4.98052 126.668 7.88171 127.91 10.7829 129.152C12.103 129.718 13.4274 130.284 14.8079 130.68C18.6579 131.782 22.8065 131.513 26.6345 132.69C27.0988 132.832 27.5972 132.685 28.0595 132.536C31.3982 131.46 34.6976 130.262 37.9489 128.945C41.3505 127.568 44.7213 126.048 47.7415 123.963C48.0162 123.773 48.3014 123.562 48.4267 123.253C48.5521 122.943 48.4366 122.513 48.1154 122.422C46.0773 121.842 44.0686 121.159 42.0998 120.376C41.4669 120.124 40.7544 119.764 40.6202 119.096C38.8858 119.166 37.3691 120.26 36.0898 121.434C34.8105 122.608 33.6087 123.934 32.0324 124.661C30.4561 125.388 28.3404 125.325 27.2483 123.975C27.1317 123.831 27.0146 123.665 26.8353 123.618C26.6559 123.571 26.4256 123.75 26.5091 123.915C26.7256 124.344 26.2606 124.887 25.7813 124.857C25.3021 124.827 24.9274 124.39 24.8094 123.924C24.6914 123.459 24.0511 124.291 23.123 124.429C22.1949 124.568 21.2103 123.972 20.9021 123.085C20.648 122.354 19.6519 122.341 18.8908 122.205C17.1602 121.894 15.8459 120.079 16.0893 118.337C11.1156 119.997 6.23204 121.927 1.46739 124.116C1.18788 124.244 1.1559 124.659 1.32696 124.915Z" fill="white"/>
<path d="M71.1534 53.2348C72.6139 53.2348 73.7978 52.0503 73.7978 50.5892C73.7978 49.128 72.6139 47.9435 71.1534 47.9435C69.693 47.9435 68.509 49.128 68.509 50.5892C68.509 52.0503 69.693 53.2348 71.1534 53.2348Z" fill="#FFB61D"/>
<path d="M52.7983 51.0561C53.5715 51.0561 54.1982 50.429 54.1982 49.6554C54.1982 48.8818 53.5715 48.2547 52.7983 48.2547C52.0251 48.2547 51.3983 48.8818 51.3983 49.6554C51.3983 50.429 52.0251 51.0561 52.7983 51.0561Z" fill="#FFB61D"/>
<path fill-rule="evenodd" clip-rule="evenodd" d="M83.7816 61.2075C84.024 62.4651 84.7438 63.6834 85.7021 64.4389C87.484 65.8438 91.4894 67.2904 93.6217 68.0657C93.8157 68.1363 92.7217 68.7545 91.3094 70.1214C87.4859 73.8221 79.1256 80.4489 70.9581 77.1187C70.0035 76.7294 69.2053 76.2813 68.5551 75.8064C67.956 75.3687 73.4548 75.9991 78.5955 75.0241C83.7642 74.0437 88.5731 71.4535 87.2859 69.4C86.076 67.4697 82.6733 64.2004 82.4079 62.2774C82.0543 59.7154 83.5733 60.1268 83.7816 61.2075Z" fill="#E7EAEE"/>
<path fill-rule="evenodd" clip-rule="evenodd" d="M1.22199 124.188C1.22199 123.161 4.45653 122.331 9.98598 120.25C13.7891 118.819 21.202 114.677 24.8491 114.484C27.276 114.356 36.9747 117.908 43.3042 120.46C46.4868 121.742 48.9418 122.546 48.9418 122.957C48.9418 123.784 42.1843 127.775 35.2777 130.398C31.9066 131.678 28.7438 132.825 25.8432 132.748C17.0001 132.511 1.22199 126.786 1.22199 124.188Z" fill="white"/>
<path fill-rule="evenodd" clip-rule="evenodd" d="M126.151 38.9461C113.47 44.3648 102.877 53.624 92.7832 63.0397L92.1658 63.6164C91.5771 64.167 90.6833 64.7427 90.0479 64.2466L92.0092 62.4603C102.271 53.132 112.882 43.8824 125.579 38.387C135.341 34.1618 135.237 35.0636 126.151 38.9461ZM71.5291 129.206L77.4777 135.688C77.7692 136.006 78.0728 136.347 78.1544 136.77C78.2359 137.194 77.9906 137.711 77.5619 137.756L65.3141 139.037C63.2797 139.25 61.2051 137.839 60.6193 135.878C60.0336 133.917 60.9712 131.621 62.743 130.598C64.5148 129.575 66.9451 129.898 68.4158 131.32C68.7802 131.672 69.42 131.373 69.6786 130.937C69.9372 130.501 69.9931 129.967 70.2604 129.536C70.5276 129.106 71.1864 128.832 71.5291 129.206ZM61.6522 132.947C60.8927 134.389 61.373 136.343 62.673 137.325C63.31 137.807 64.0921 138.065 64.8802 138.192C65.9935 138.372 67.2851 138.236 68.0009 137.364C68.2621 137.046 68.4223 136.656 68.5316 136.259C68.8953 134.937 68.7104 133.473 68.0293 132.283C67.844 131.959 67.5588 131.622 67.1862 131.638C67.0091 131.645 66.8446 131.735 66.6683 131.753C66.3749 131.783 66.1033 131.616 65.8359 131.491C64.3589 130.803 62.4117 131.505 61.6522 132.947ZM71.0006 130.506C70.7668 131.481 70.2828 132.396 69.6078 133.138C69.4177 133.347 69.4643 133.67 69.5028 133.95C69.6905 135.313 69.3802 136.739 68.6434 137.901C69.8509 137.615 71.0856 137.444 72.3255 137.391C74.0249 137.319 75.7981 137.455 77.3557 136.771C76.5235 136.409 75.8172 135.764 75.3802 134.969C75.1232 134.501 74.7677 134.096 74.4151 133.695L71.7065 130.616C71.5108 130.393 71.0697 130.218 71.0006 130.506ZM40.2413 130.447C40.6297 131.661 42.0906 132.077 43.3561 132.295L51.8019 133.706C53.7548 134.032 55.7592 134.358 57.7013 133.973C58.0678 133.9 58.2616 134.482 58.0198 134.767C57.7781 135.052 57.3574 135.086 56.9838 135.087C55.2918 135.093 53.6097 134.868 51.9351 134.616L50.1514 134.344C46.9945 133.859 43.8391 133.342 40.7491 132.537C40.2202 132.4 39.6723 132.242 39.2674 131.875C38.8625 131.508 38.6519 130.866 38.9368 130.4C39.2218 129.933 40.0746 129.927 40.2413 130.447ZM85.8931 0.666285C92.0121 1.17353 97.089 6.66985 97.9112 12.7574C98.5518 17.5008 96.118 23.1507 91.4116 24.0099C93.0752 29.9568 94.0003 36.2139 93.0871 42.3214C92.174 48.4289 89.2689 54.3949 84.3663 58.1468C83.0126 59.9684 84.0351 62.7162 85.817 64.1211C87.599 65.5261 89.9052 66.0199 92.0375 66.7952C100.972 70.0439 107.262 78.8628 108.728 88.2599C110.195 97.6569 107.266 107.402 101.973 115.303C98.3482 120.714 93.4166 125.52 87.2466 127.601C78.6728 130.493 69.2807 127.734 60.934 124.205L60.6814 124.097C57.5425 122.761 54.3472 121.246 52.091 118.696L51.9483 118.531C49.5224 115.69 44.9376 117.225 41.6313 118.962L48.2266 121.7C48.699 121.896 49.2116 122.129 49.4306 122.592C49.8918 123.565 48.7558 124.502 47.7942 124.986L43.9217 126.937C37.8155 130.003 31.4587 133.016 24.648 133.205C16.9775 133.418 9.72693 130.031 2.81563 126.677L2.37704 126.464C1.66112 126.11 0.937383 125.699 0.550433 125.009C0.128305 124.256 0.364263 123.082 1.19854 122.861C9.03401 120.788 16.4523 117.149 22.8892 112.222C22.3968 109.155 22.5129 105.991 23.2287 102.968L23.2652 102.821C23.3683 102.427 23.5244 102.026 23.8706 101.827C24.828 101.277 25.6597 102.727 25.8289 103.818L27.1099 112.086C32.2375 111.518 37.2139 109.634 41.4321 106.662L31.297 98.4956C29.4824 97.0268 27.6452 95.4388 26.8065 93.2704C25.9269 90.9963 26.6346 87.9136 28.9076 87.0336C29.087 78.419 28.6331 69.7914 27.5509 61.2433C26.0545 69.7808 27.2571 78.5338 28.4614 87.1175C26.3965 79.9661 25.5023 72.4778 25.8241 65.041L25.8433 64.6279C25.9097 63.2803 26.0605 61.8256 26.967 60.8269C28.5673 59.0638 31.7094 59.8241 33.1701 61.7045C34.6307 63.5849 34.8752 66.1084 35.0641 68.4824L52.1311 66.3966C54.0463 66.1672 56.013 65.9891 57.849 66.5571C60.3061 67.3173 62.2794 69.4702 62.824 71.985L63.2243 71.8756C65.4563 71.2578 67.8021 70.4534 69.0524 68.5298C70.3636 66.5125 69.2788 63.0198 66.9035 63.0475L66.8264 63.0496C59.2291 63.3785 51.799 57.7382 50.0698 50.3293C49.63 48.445 49.4591 46.3511 48.137 44.9389C46.0418 42.701 44.4455 39.816 44.4557 36.7498C44.4659 33.6836 46.4201 30.5215 49.396 29.7885C52.3718 29.0555 55.8938 31.5396 55.637 34.595C57.0808 34.448 58.5576 34.6359 59.9185 35.1401C59.1424 33.0465 61.1542 30.7357 63.3652 30.4319C65.5762 30.128 67.7307 31.2329 69.5694 32.4985C71.4081 33.7641 73.165 35.254 75.3027 35.8955L75.4013 35.6673C75.8431 34.6353 76.25 33.5331 76.0273 32.4421C75.7882 31.2703 74.4686 30.2569 73.4003 30.7934C72.6503 28.6436 71.4569 26.6497 69.9168 24.9732L65.6366 26.9922C65.0851 26.1659 64.7473 25.1981 64.6647 24.2079C61.8386 25.8238 58.7712 27.0163 55.596 27.7335L55.9209 25.3081L46.4326 30.2389C45.0316 23.705 48.6977 16.6947 54.4015 13.2175C60.1053 9.74029 67.4011 9.50209 73.7535 11.567C73.5509 5.42746 79.7742 0.159042 85.8931 0.666285ZM132.572 107.16C127.106 108.48 121.8 110.461 116.806 113.048L116.445 113.236C113.678 114.695 110.962 116.443 109.227 119.036C110.398 118.833 111.649 119.138 112.595 119.858C113.192 120.313 113.691 120.996 113.656 121.746C113.637 122.135 113.476 122.506 113.258 122.829C112.407 124.09 110.606 124.602 109.219 123.977C107.833 123.352 107.023 121.662 107.404 120.189C101.521 122.199 96.4639 126.522 93.5566 132.018L93.4594 132.204C93.3162 132.48 93.1412 132.79 92.8374 132.859C92.4197 132.953 92.0478 132.487 92.067 132.059C92.0861 131.631 92.3602 131.262 92.6252 130.925C96.0531 126.57 100.059 122.425 105.186 120.323L105.572 120.168C106.782 119.688 108.048 119.217 108.829 118.193C110.723 115.71 113.45 114.006 116.219 112.563C118.698 111.272 121.261 110.145 123.888 109.192C126.524 108.235 129.219 107.455 131.92 106.699L141.07 104.15C138.595 105.89 135.513 106.45 132.572 107.16ZM16.0893 118.337C11.1156 119.997 6.23204 121.927 1.46739 124.116C1.18788 124.244 1.1559 124.659 1.32696 124.915C1.49801 125.171 1.79656 125.305 2.07933 125.426L10.7829 129.152C12.103 129.718 13.4274 130.284 14.8079 130.68C18.6579 131.782 22.8065 131.513 26.6345 132.69C27.0988 132.832 27.5972 132.685 28.0595 132.536C31.3982 131.46 34.6976 130.262 37.9489 128.945C41.3505 127.568 44.7213 126.048 47.7415 123.963C48.0162 123.773 48.3014 123.562 48.4267 123.253C48.5521 122.943 48.4366 122.513 48.1154 122.422C46.0773 121.842 44.0686 121.159 42.0998 120.376L41.9633 120.32C41.3681 120.071 40.7448 119.717 40.6202 119.096C38.8858 119.166 37.3691 120.26 36.0898 121.434C34.8105 122.608 33.6087 123.934 32.0324 124.661C30.4561 125.388 28.3404 125.325 27.2483 123.975L27.1778 123.887C27.0824 123.769 26.9787 123.656 26.8353 123.618C26.6559 123.571 26.4256 123.75 26.5091 123.915C26.7256 124.344 26.2606 124.887 25.7813 124.857C25.3021 124.827 24.9274 124.39 24.8094 123.924C24.7335 123.625 24.7402 123.316 24.7765 123.007L24.7856 122.931C24.5725 123.686 23.9045 124.312 23.123 124.429C22.1949 124.568 21.2103 123.972 20.9021 123.085C20.648 122.354 19.6519 122.341 18.8908 122.205C17.1602 121.894 15.8459 120.079 16.0893 118.337ZM27.8434 89.2568C26.8182 91.0814 27.7705 93.3904 29.0333 95.0593C32.9933 100.292 39.626 102.804 44.1516 107.556C45.2887 108.75 46.2799 110.073 47.2584 111.401L50.334 115.58C50.8992 116.348 51.4665 117.119 52.1261 117.807C53.8461 119.603 56.1107 120.761 58.3507 121.84C62.8956 124.028 67.5711 126.038 72.5056 127.083C77.4401 128.127 82.6831 128.163 87.4308 126.46C91.8745 124.866 95.7035 121.808 98.6784 118.141C101.583 114.561 103.714 110.411 105.423 106.128L105.547 105.814C105.793 105.189 106.034 104.535 105.983 103.866C105.929 103.158 105.552 102.514 105.112 101.957C103.434 99.8334 100.63 98.6322 97.9447 98.9641C95.3012 99.2909 92.8806 101.126 91.9123 103.606L91.8673 103.724C89.7629 109.432 84.5227 113.724 78.6359 115.248C72.7492 116.771 66.3464 115.679 60.9731 112.832C55.5999 109.985 51.2154 105.477 47.9464 100.348L47.7679 100.065C47.1774 99.1162 46.6404 98.1184 46.4325 97.0243C46.2038 95.8207 46.4363 94.4672 47.3051 93.6038C47.8789 93.0335 48.6956 92.6989 49.113 92.0057C49.5304 91.3125 49.0402 90.0881 48.2702 90.3358L47.7565 90.4984C44.2174 91.6002 40.1113 92.4548 37.2641 90.1623L36.9905 89.9433C35.662 88.887 34.2424 87.879 32.5919 87.5157C30.8277 87.1274 28.7287 87.6814 27.8434 89.2568ZM41.9512 107.753C37.6585 110.466 32.8139 112.302 27.8014 113.115C27.1397 113.222 26.9618 114.08 26.9514 114.751C26.9183 116.882 27.0215 119.016 27.2601 121.134C27.803 120.878 28.0251 120.239 28.3953 119.767C28.7654 119.294 29.6102 119.036 29.8963 119.563C30.0962 119.932 29.8294 120.394 29.4888 120.638C29.1482 120.883 28.7293 121.015 28.4255 121.304C27.6698 122.023 28.0648 123.437 28.9855 123.927C29.9063 124.417 31.0709 124.162 31.9536 123.606C32.8363 123.05 33.5183 122.235 34.2668 121.509C35.8675 119.955 37.8255 118.771 39.9452 118.077C42.6361 117.195 45.6325 117.064 47.9999 115.51C48.1594 115.405 48.3244 115.282 48.3846 115.101C48.4667 114.854 48.3277 114.597 48.1802 114.377L45.3477 110.262C44.8965 109.607 44.3773 108.902 43.6043 108.715C43.2508 108.629 42.8739 108.662 42.5271 108.553C42.1802 108.443 41.8534 108.103 41.9512 107.753ZM22.1757 113.73C21.0714 114.246 20.4178 115.459 20.2724 116.67C20.1269 117.88 20.4125 119.099 20.7518 120.27C20.96 120.989 21.191 121.706 21.5354 122.371C21.755 122.794 22.0458 123.217 22.4859 123.401C22.9259 123.585 23.5367 123.42 23.6797 122.964C23.7386 122.777 23.7122 122.574 23.6781 122.38C23.55 121.653 23.32 120.943 22.9973 120.278L22.8618 120.009C22.6677 119.62 22.4848 119.162 22.7344 118.823C22.9728 118.499 23.5586 118.365 23.5026 117.967L22.9557 114.077C22.9397 113.964 22.9209 113.843 22.8471 113.756C22.6917 113.571 22.3945 113.628 22.1757 113.73ZM109.732 119.73C109.367 119.728 108.983 119.778 108.691 119.996C108.519 120.123 108.39 120.301 108.299 120.494C107.914 121.311 108.269 122.36 108.998 122.891C109.727 123.423 110.738 123.473 111.582 123.154C112.227 122.911 112.848 122.359 112.827 121.669C112.81 121.125 112.397 120.67 111.941 120.372C111.29 119.946 110.509 119.733 109.732 119.73ZM24.2478 102.707C24.1545 102.777 24.1083 102.892 24.0689 103.001C23.4946 104.595 23.4243 106.323 23.4402 108.018C23.4799 112.266 24.0254 116.509 25.0616 120.63L25.1131 120.83C25.3249 121.635 25.6145 122.46 26.2704 122.957C26.3924 116.428 25.969 109.889 25.0059 103.43C24.9434 103.011 24.5878 102.455 24.2478 102.707ZM19.0763 116.742C18.9392 116.78 18.8512 116.911 18.7828 117.036C18.2228 118.058 18.1849 119.35 18.6842 120.403C18.908 120.876 19.2919 121.335 19.8111 121.393C20.0227 121.129 19.926 120.749 19.8074 120.426L19.705 120.153C19.3239 119.119 19.0111 118 19.347 116.962C19.3908 116.826 19.2134 116.703 19.0763 116.742ZM17.2081 118.158C16.8154 119.032 16.9904 120.131 17.6349 120.839C17.9009 120.567 17.7839 120.121 17.693 119.751C17.5509 119.173 17.5188 118.568 17.5989 117.977C17.4999 117.832 17.2803 117.997 17.2081 118.158ZM25.4857 87.0243C26.081 87.5373 26.4595 88.6445 25.7526 88.9873C25.2996 89.207 24.7864 88.8858 24.3586 88.6203C22.1361 87.2406 19.2944 87.139 16.7747 87.8408C14.255 88.5427 12.0023 89.9724 9.88809 91.513C7.78268 93.0472 5.75258 94.7307 4.16945 96.8001C2.58632 98.8694 1.46653 101.363 1.37464 103.967C1.26453 107.088 2.61209 110.071 4.17033 112.777C5.16347 114.501 6.28339 116.201 7.82508 117.454L8.14203 117.704C8.57936 118.056 9.02841 118.491 8.91688 119.019C7.40575 118.951 6.30896 117.599 5.47677 116.335C4.29341 114.538 3.21473 112.672 2.24802 110.749C1.44419 109.151 0.709442 107.485 0.465233 105.712C0.00594544 102.379 1.35883 98.9886 3.46163 96.3619C5.56444 93.7351 8.36293 91.7639 11.1934 89.9456C13.3434 88.5643 15.5561 87.2396 17.9696 86.4004C20.4586 85.535 23.4892 85.3038 25.4857 87.0243ZM89.3604 72.3405C85.7813 75.6829 81.0239 77.7361 76.1378 78.0472C73.9783 78.1847 71.7485 77.9781 69.7945 77.048C67.8405 76.1179 66.1946 74.3836 65.7405 72.2669L65.5783 72.317C64.164 72.7647 62.5447 73.5748 62.559 75.0331C62.6194 81.2175 62.4755 87.404 62.1277 93.579C62.061 94.7639 61.61 96.3194 60.4243 96.2846C56.2117 96.1607 51.9715 97.1339 48.2341 99.0824C52.4408 105.683 58.4234 111.454 65.8652 113.871C73.3071 116.289 82.2824 114.778 87.4972 108.942C89.1688 107.071 90.3992 104.86 91.5839 102.644L91.8567 102.133C92.1086 101.66 92.365 101.099 92.1411 100.612C91.9981 100.302 92.3064 99.9792 92.5894 99.7875C96.7508 96.9696 102.947 97.7341 106.299 101.479C106.034 100.959 106.275 100.243 106.801 99.9902C107.219 100.662 107.308 101.53 107.034 102.272C107.215 102.529 107.547 102.116 107.576 101.804C108.023 96.9354 107.988 92.0231 107.472 87.1618C107.285 85.409 107.032 83.6451 106.405 81.9977C105.856 80.553 105.03 79.2288 104.124 77.9761C102.042 75.094 99.5097 72.5375 96.6481 70.4275L96.4403 70.2761C95.9865 69.9512 95.509 69.6517 94.9729 69.5057C92.851 68.9277 90.9681 70.8391 89.3604 72.3405ZM60.4476 69.5401C58.0816 70.3367 55.5196 70.1835 53.0292 70.3557C49.5196 70.5983 46.0576 71.5114 42.8846 73.0313C41.5179 73.6859 40.1959 74.4553 38.7507 74.9106C35.6813 75.8776 32.1628 75.2804 29.5838 73.3548C29.0279 77.6012 29.1919 81.9411 30.0667 86.1334C30.1229 86.4027 30.3001 86.7471 30.563 86.6663C32.3072 86.1304 34.1831 86.8886 35.7339 87.8504C37.2848 88.8122 38.7422 90.0114 40.5037 90.4874C42.5701 91.0458 44.7599 90.5297 46.8053 89.8811L46.9584 89.8322C48.0068 89.4953 49.3629 89.2145 50.0352 90.0871C50.6022 90.823 50.2442 91.9221 49.6438 92.6311C49.0435 93.3401 48.2293 93.8671 47.7395 94.6567C47.1382 95.6261 47.1351 96.9354 47.7318 97.9076C51.638 96.3402 55.819 95.4609 60.0253 95.3222C60.8689 95.2943 61.1648 94.2021 61.2166 93.3593C61.6709 85.9739 61.8103 78.5692 61.6345 71.1719C61.6157 70.3834 61.1947 69.2885 60.4476 69.5401ZM123.691 89.511L123.858 89.5949C124.894 90.1216 125.996 90.8234 126.15 91.9582C126.201 92.332 126.137 92.7118 126.048 93.0784C125.926 93.5859 125.738 94.1066 125.344 94.4487C124.926 94.8113 124.339 94.9143 123.786 94.8928C122.697 94.8505 121.607 94.343 120.976 93.454C120.346 92.565 120.244 91.2934 120.833 90.3759C121.421 89.4583 122.714 89.0269 123.691 89.511ZM122.076 90.7806C121.43 91.05 121.198 91.9233 121.467 92.5689C121.737 93.2146 122.376 93.6395 123.041 93.8573C123.721 94.08 124.596 94.0618 125.001 93.472C125.136 93.2757 125.2 93.0391 125.237 92.8038C125.318 92.2916 125.269 91.7244 124.939 91.3243C124.531 90.8287 123.834 90.7291 123.182 90.6923L123.02 90.6842C122.701 90.6699 122.37 90.6576 122.076 90.7806ZM40.599 77.4318C40.6806 77.7418 40.6179 78.069 40.5621 78.3846C40.1693 80.6078 40.1408 82.8951 40.4775 85.1275L40.5398 85.5227C40.5807 85.8021 40.5975 86.0971 40.4371 86.322C40.2519 86.5815 39.733 86.5554 39.7071 86.2376C39.4861 83.5328 39.3445 80.8214 39.2825 78.1082C39.2707 77.59 39.4058 76.9008 39.9224 76.861C40.2419 76.8364 40.5174 77.1219 40.599 77.4318ZM22.4189 72.0115C22.8009 72.1265 23.1679 72.3882 23.2787 72.7717C23.3894 73.1552 23.1374 73.6399 22.7392 73.665C22.3681 73.6884 22.0849 73.3503 21.7439 73.2019C21.1317 72.9354 20.4449 73.3074 19.8822 73.6667L19.5957 73.8518C19.0554 74.2078 18.532 74.6072 18.2353 75.1748C17.9318 75.7555 17.9064 76.438 17.9158 77.0932C17.9223 77.5487 17.9436 78.0108 18.0844 78.444C18.3898 79.3839 19.2612 80.088 20.2277 80.2918C21.1943 80.4955 22.2281 80.2315 23.0457 79.677L23.2058 79.5681C23.3502 79.473 23.5015 79.39 23.6714 79.3818C23.9049 79.3706 24.1605 79.5908 24.0811 79.8108C24.0573 79.8768 24.0084 79.9302 23.9595 79.9805C22.6231 81.3541 20.3153 81.6481 18.6774 80.6535C18.3852 80.476 18.1128 80.2619 17.892 80.0008C17.2283 79.2163 17.1044 78.1168 17.0862 77.0891C17.0763 76.533 17.09 75.9684 17.248 75.4351C17.5894 74.2828 18.5541 73.427 19.5568 72.7651C20.4081 72.2031 21.4422 71.7175 22.4189 72.0115ZM14.6865 69.6473L18.0184 73.6061C17.8351 73.8045 17.5139 73.8175 17.2663 73.7097C17.0461 73.6139 16.8706 73.4427 16.7051 73.2669L14.7502 71.1633C14.4837 73.2983 13.838 75.3854 12.8524 77.2978C12.7565 77.4839 13.0283 77.6411 13.2365 77.6625C13.745 77.7147 14.2592 77.6566 14.7606 77.5572L15.019 77.505C15.4239 77.4245 15.8391 77.3614 16.2166 77.511C16.6749 77.6927 16.9578 78.3601 16.5902 78.6888C16.3636 78.8915 16.0204 78.8662 15.7188 78.8289L12.4739 78.4274L12.3742 78.4131C12.0538 78.3606 11.7017 78.2351 11.6548 77.9262C11.6265 77.74 11.7298 77.5621 11.8266 77.4005C12.9816 75.472 13.751 73.3135 14.0777 71.0891L14.1269 70.7364C14.1904 70.3034 14.3028 69.8336 14.6865 69.6473ZM128.204 75.867C128.606 76.1517 128.986 76.7105 128.674 77.0922C128.479 77.3311 128.104 77.337 127.824 77.2085C127.543 77.08 127.326 76.8496 127.084 76.6583C126.092 75.8742 124.603 75.7915 123.531 76.4612C123.379 76.5565 123.227 76.6749 123.165 76.8439C123.103 77.013 123.171 77.24 123.344 77.291C124.712 76.7109 126.344 76.792 127.648 77.505C127.836 77.608 128.034 77.7451 128.081 77.955C128.127 78.1648 127.902 78.4165 127.714 78.3115C126.863 77.8349 125.848 77.6595 124.886 77.8232C124.438 77.8995 123.999 78.0469 123.545 78.0614C123.091 78.0758 122.593 77.9241 122.352 77.5385C122.13 77.1826 122.182 76.7024 122.4 76.3432C122.617 75.984 122.972 75.7295 123.345 75.5358C124.86 74.747 126.81 74.8799 128.204 75.867ZM82.8098 56.6211C79.5609 59.3535 75.7431 61.4053 71.6729 62.6085L71.4011 62.6874C70.8727 62.8383 70.2077 63.1731 70.3189 63.7115L70.3873 64.0457C70.5904 65.0503 70.7625 66.0733 70.6177 67.0842C70.4615 68.1743 69.8609 69.2655 68.8668 69.7236L68.7753 69.7635C67.0053 70.4925 66.7565 73.1378 67.9173 74.6606C69.078 76.1835 71.0909 76.7731 72.9924 76.9931C78.5731 77.6388 84.3967 75.7668 88.5571 71.9899C90.0661 70.62 91.4163 68.9802 93.2845 68.1663L88.6126 66.4554C87.3522 65.9938 86.0754 65.5237 84.9784 64.7502C83.8813 63.9767 82.9665 62.8505 82.7422 61.5266C82.4675 59.9049 83.2446 58.2073 82.8098 56.6211ZM28.9174 61.0056C28.8002 61.0577 28.6805 61.1269 28.6241 61.2422C28.5676 61.3577 28.5867 61.4941 28.6066 61.6211L29.677 68.3718C29.9925 70.3612 30.4356 72.5658 32.0756 73.7342C33.872 75.0141 36.3389 74.5127 38.4308 73.7819L38.5425 73.7426C42.4365 72.3589 46.184 70.4327 50.2652 69.7847C53.1954 69.3194 56.2682 69.5185 59.0389 68.4573C58.0255 66.9269 55.8298 66.9349 53.9931 67.1357L38.9879 68.8419C37.8254 68.9741 36.6044 69.1283 35.6603 69.8197C35.2473 70.1222 34.8561 70.5378 34.3447 70.559C33.847 70.5795 33.4144 69.8544 33.8045 69.5877L33.8389 69.5666C34.2666 69.3311 34.2378 68.7167 34.1503 68.2362L33.6965 65.7466C33.467 64.5117 33.1868 63.255 32.4483 62.2468C31.6508 61.1579 30.1504 60.4574 28.9174 61.0056ZM132.508 71.0955C132.87 71.517 132.886 72.1639 132.644 72.6643C132.403 73.1648 131.947 73.5327 131.453 73.7864C130.856 74.0923 130.2 74.252 129.542 74.3883L129.213 74.455C129.084 74.4809 128.949 74.5064 128.824 74.4649C128.72 74.4304 128.636 74.3527 128.568 74.2672C128.229 73.8414 128.241 73.2133 128.47 72.7196C128.7 72.2259 129.111 71.8422 129.533 71.4987C129.965 71.1476 130.434 70.8168 130.975 70.6884C131.517 70.56 132.146 70.6733 132.508 71.0955ZM130.734 71.8363L130.561 71.9528C130.302 72.1303 130.052 72.3241 129.878 72.583C129.666 72.8993 129.592 73.3407 129.802 73.6589L131.193 72.884C131.42 72.7578 131.655 72.6244 131.802 72.4106C131.949 72.1969 131.979 71.8779 131.797 71.6927C131.524 71.4149 131.058 71.6206 130.734 71.8363ZM108.533 56.5966C108.63 56.636 108.695 56.724 108.752 56.8139L110.791 60.146C111.155 60.7415 111.984 60.8078 112.681 60.7588C114.015 60.6648 115.336 60.3923 116.599 59.951C116.811 59.8769 117.011 60.1466 116.966 60.3663C116.92 60.5861 116.731 60.7426 116.554 60.8806L113.492 63.2689C113.116 63.2422 113.223 62.6263 113.528 62.4046L113.618 62.3417C113.912 62.1432 114.268 61.9472 114.25 61.6065L112.48 62.1596C112.142 62.2653 111.766 62.3691 111.445 62.2206C111.231 62.1219 111.082 61.9283 110.946 61.7334L108.698 58.4499L108.659 61.3252C108.656 61.561 108.646 61.8168 108.496 61.999C108.39 62.1283 108.231 62.1978 108.073 62.2563L104.97 63.3701C105.799 64.199 107.349 63.3269 108.341 63.9515C109.02 64.3794 109.136 65.333 108.99 66.1226C108.843 66.9122 108.507 67.6805 108.551 68.4824C109.117 68.0715 109.533 67.4577 109.704 66.7794C109.774 66.506 109.808 66.215 109.96 65.9775C110.379 65.3228 111.38 65.456 112.074 65.8062C112.768 66.1564 113.488 66.6605 114.247 66.494L113.146 64.7322C113.045 64.5715 112.941 64.3975 112.95 64.2081C112.959 64.0187 113.139 63.8273 113.32 63.8823C113.399 63.9064 113.459 63.9693 113.511 64.0351L115.968 67.2216C115.105 67.7908 113.967 67.4322 112.97 67.1575L112.823 67.1188C111.851 66.8781 110.664 66.8543 110.127 67.6783C109.749 68.2592 109.305 68.7972 108.807 69.2788C108.597 69.4818 108.357 69.684 108.067 69.7171C107.777 69.7503 107.444 69.5303 107.47 69.2394L107.755 66.0173C107.774 65.8086 107.788 65.5815 107.672 65.4073C107.549 65.2239 107.319 65.1525 107.106 65.0938L104.422 64.3521C103.838 64.1909 103.834 63.282 104.272 62.8636C104.71 62.4452 105.354 62.3574 105.938 62.1955C106.521 62.0337 107.152 61.69 107.257 61.0936L107.938 57.2332C107.997 56.9031 108.222 56.4708 108.533 56.5966ZM36.3151 2.16997L35.8194 2.573C32.5165 5.26592 29.2618 8.08908 26.8394 11.5897C24.2959 15.2653 22.7344 19.8232 23.4916 24.2291C24.5951 30.6496 30.3353 35.7628 30.5807 42.2729C30.6133 43.1376 31.4935 43.6758 32.2298 44.1298C35.1359 45.9217 37.2894 48.7655 38.7104 51.8708C40.087 54.8791 40.822 58.1388 41.3564 61.4057L41.4075 61.7218C41.4871 62.22 41.5453 62.787 41.224 63.1759C40.9028 63.5648 40.0769 63.4286 40.109 62.9251C40.4859 57.006 38.3358 50.9674 34.3032 46.6198C33.2556 45.4905 32.0387 44.4436 30.5635 44.0014C30.4696 46.2813 29.7023 48.6046 28.0781 50.2066C26.4539 51.8085 23.8916 52.5404 21.789 51.6564C19.6863 50.7724 18.4 48.1032 19.3463 46.027C20.139 44.2877 22.1078 43.4091 23.9822 43.0388C25.8213 42.6755 27.7279 42.6566 29.5739 42.9833C29.8223 43.0272 29.9305 42.6799 29.9255 42.4275C29.792 35.6607 23.5401 30.3629 22.7194 23.6448C22.2709 19.9733 23.523 16.2774 25.3401 13.0562C27.7263 8.82596 31.121 5.16963 35.1619 2.47719L35.2677 2.40852C35.5913 2.20467 35.9687 2.03081 36.3151 2.16997ZM56.9001 36.6348C55.9955 37.217 56.0187 38.5091 55.9438 39.5827C55.8412 41.0553 55.3351 42.5293 54.3481 43.6267C53.3611 44.724 51.8616 45.3981 50.3976 45.2139C50.0188 45.1662 49.9037 45.7145 49.9534 46.0932C50.8044 52.5833 54.7395 58.9551 60.8558 61.279C64.5951 62.6997 68.8187 62.511 72.6309 61.3C76.3524 60.1179 79.7207 58.0155 82.799 55.6088L83.0237 55.4322C83.4701 55.0795 83.9189 54.7119 84.2291 54.2349C84.5437 53.7512 84.6986 53.1789 84.774 52.6067C85.1779 49.5411 83.1303 46.3335 80.1805 45.4108C79.8333 45.3022 79.9136 44.7387 80.2182 44.5398C80.5228 44.341 80.9151 44.3544 81.2629 44.2481C82.2053 43.96 82.6388 42.8862 82.8539 41.9241C83.1494 40.6023 83.2324 39.0948 82.4136 38.016C81.307 36.5582 79.1554 36.56 77.331 36.6997L74.3707 36.9264C73.349 37.0047 72.0339 37.365 71.9859 38.389C71.8827 40.5946 70.9116 42.7917 69.1959 44.1805C67.4801 45.5693 65.0093 46.0495 62.9725 45.1993C60.968 44.3627 59.5519 42.1796 59.7835 40.0241L59.796 39.9198C59.9167 39.0081 59.8502 38.018 59.3163 37.2693C58.7824 36.5206 57.6732 36.1372 56.9001 36.6348ZM81.3505 2.16859C80.0305 2.54404 78.7625 3.14959 77.7204 4.04296C76.2641 5.29147 75.2959 7.09563 75.0603 8.9999C74.9768 9.67463 75.1109 10.5448 75.7659 10.7261C77.3659 11.1689 78.7975 12.1957 79.7303 13.5696C78.2176 12.6691 76.5595 12.0138 74.84 11.6371L82.1077 15.7515C82.529 15.99 82.9664 16.2433 83.2313 16.6486C83.4962 17.0539 83.5239 17.6588 83.16 17.978L82.6519 17.5824C81.3786 16.5965 80.077 15.6408 78.6519 14.8946C77.5682 14.3272 76.4246 13.8871 75.2746 13.4677L74.6471 13.2404C72.5183 12.472 70.3702 11.6988 68.128 11.3918C66.0469 11.1068 63.9104 11.2333 61.8774 11.7619L61.4764 11.8647C58.7301 12.56 55.8666 13.1285 53.5961 14.8085C52.2454 15.8078 51.1877 17.1456 50.1835 18.4928L49.9466 18.8144C47.9512 21.5552 46.128 24.9345 47.2954 28.0791C52.6552 27.4186 56.8308 23.2696 61.6862 20.9045C62.0573 20.7237 62.6693 20.6684 62.7257 21.0775L57.2926 24.2897C57.4434 25.1191 57.3009 25.999 56.8959 26.7383C60.8654 25.6161 64.5766 23.5898 67.6686 20.8583L67.8652 20.683C68.3556 20.2412 69.3007 19.8757 69.5097 20.502L69.2438 20.6506C68.2688 21.1993 67.2989 21.7995 66.6268 22.688C65.8935 23.6574 65.6016 25.0665 66.2515 26.0936L73.1103 22.0532C73.3889 21.8891 73.6928 21.719 74.0144 21.7528C74.3359 21.7866 74.6374 22.1331 74.4985 22.4252L74.2652 22.4738C73.5249 22.6312 72.7741 22.8284 72.1977 23.3109C71.5606 23.8441 71.2306 24.8439 71.7041 25.5267C72.5533 26.7517 73.2424 28.0876 73.7484 29.4897C73.7594 28.8766 74.5947 28.563 75.1455 28.8322C75.6962 29.1014 75.9875 29.709 76.1871 30.2888C76.7579 31.9475 76.9087 33.749 76.6216 35.4796C78.3464 36.0889 80.3693 35.3692 82.0283 36.1399C83.5682 36.8553 84.3216 38.7109 84.2145 40.4061C84.1075 42.1014 83.3069 43.6689 82.4519 45.1364C84.8415 46.9886 86.118 50.1792 85.6659 53.1695C86.0825 53.1015 86.4346 52.7417 86.4937 52.3235L87.4413 52.9218C85.959 53.7601 84.9044 55.3157 84.6742 57.0036C91.1868 50.9063 93.349 41.2426 92.4094 32.3685L92.3727 32.0375C92.0003 28.833 91.1141 25.4926 88.7054 23.37C89.9968 22.6251 91.6532 22.9181 93.035 22.3587C94.3407 21.8302 95.2379 20.6051 95.844 19.3331C97.8702 15.0806 97.1724 9.66999 94.1337 6.07131C91.0951 2.47263 85.8797 0.880379 81.3505 2.16859ZM60.0602 55.5C60.2656 55.534 60.4986 55.6035 60.5791 55.7956C60.7076 56.1024 60.3476 56.3829 60.036 56.499C59.5837 56.6676 59.1088 56.7756 58.628 56.8191C58.2246 56.8556 57.7157 56.7776 57.591 56.3921C57.5089 56.1386 57.6514 55.8538 57.8671 55.6975C58.0827 55.5412 58.3554 55.4884 58.6202 55.4597C59.0991 55.4078 59.585 55.4214 60.0602 55.5ZM52.6929 51.1025C54.1103 52.7689 56.3275 53.6514 58.5145 53.6686C60.7015 53.6859 62.8472 52.8948 64.6629 51.6749L64.8156 51.5723C65.0462 51.419 65.2854 51.275 65.5559 51.2279C65.8865 51.1703 66.2795 51.3092 66.3919 51.6255C64.4928 53.2392 62.1123 54.3049 59.6309 54.5302C57.1494 54.7555 54.5793 54.1185 52.5545 52.6657C52.1892 52.4036 51.8116 52.0587 51.7966 51.6093C51.7815 51.1598 52.4016 50.76 52.6929 51.1025ZM22.9852 44.0437C21.9996 44.3583 21.0078 44.8192 20.386 45.6464C19.4624 46.8752 19.6239 48.7396 20.6215 49.909C21.619 51.0785 23.3059 51.5454 24.8109 51.2346C26.3159 50.9237 27.6225 49.9079 28.4682 48.6242C29.3139 47.3405 29.7279 45.808 29.8534 44.2757C29.8744 44.0188 29.8277 43.6788 29.5745 43.6316C27.3889 43.2248 25.1032 43.3677 22.9852 44.0437ZM57.9081 38.0563C57.9492 38.4097 57.8125 38.7565 57.6869 39.0893C56.9772 40.9702 56.5452 42.9557 56.4092 44.9616C56.3872 45.2865 56.3746 45.6235 56.4937 45.9266C56.6062 46.2128 56.8672 46.4618 57.1699 46.4789L57.2237 46.4795C57.4992 46.4697 57.63 46.8806 57.4567 47.0951C57.2834 47.3097 56.9582 47.3337 56.6939 47.255C56.1514 47.0934 55.7624 46.5881 55.605 46.0441C55.4475 45.5001 55.4878 44.9192 55.5666 44.3584C55.8339 42.4569 56.5278 40.6132 56.5618 38.6933C56.5714 38.1515 56.6821 37.4211 57.222 37.378C57.5765 37.3497 57.867 37.7029 57.9081 38.0563ZM64.6523 31.6388C63.5252 31.8708 62.6647 32.7959 62.0802 33.7876C60.8827 35.8192 60.5415 38.3383 61.1554 40.6155C61.431 41.638 61.9022 42.6262 62.6415 43.3842C63.3808 44.1421 64.4079 44.6509 65.4663 44.6333C66.205 44.6211 66.922 44.3588 67.5638 43.9925C69.7067 42.7692 71.0682 40.2901 70.9511 37.8245C70.834 35.3588 69.2437 33.0201 66.9944 32.0056C66.262 31.6753 65.4393 31.4768 64.6523 31.6388ZM49.0964 30.6279C47.0825 31.3743 45.7825 33.4668 45.5054 35.5975C45.2283 37.7282 45.8257 39.8836 46.6771 41.8562C46.9064 42.3874 47.1671 42.9275 47.6074 43.3028C48.0477 43.678 48.7143 43.8463 49.2146 43.5558C49.4474 43.4206 49.665 43.7368 49.8417 43.94C50.1938 44.3449 50.8132 44.3794 51.3393 44.2743C53.0723 43.9278 54.4041 42.4126 54.9431 40.7288C55.4642 39.101 55.353 37.3392 55.0451 35.6548L55.0126 35.4809C54.6878 33.7822 53.9542 31.8731 52.3011 31.3673C51.4344 31.102 50.3888 31.257 49.7188 30.6463C49.5571 30.4989 49.3016 30.5518 49.0964 30.6279ZM81.1001 37.8303C81.7813 38.5855 81.5024 39.7582 81.1617 40.7271L81.134 40.8052C80.9977 41.1852 80.8564 41.5741 80.5957 41.8822C80.335 42.1904 79.9256 42.4056 79.5305 42.3233C79.1355 42.241 78.8277 41.7827 78.9936 41.4147C79.1996 40.958 79.8996 40.9347 80.1522 40.502L79.4696 40.4376C79.0099 40.3942 78.5149 40.3358 78.1744 40.0238C77.8338 39.7118 77.791 39.0515 78.2051 38.8471C78.4922 38.7053 78.8378 38.8442 79.1035 39.0228C79.3692 39.2014 79.6233 39.4275 79.9397 39.4762C80.2561 39.5248 80.6408 39.2762 80.5756 38.9627C80.4848 38.5263 80.7086 38.0432 81.1001 37.8303ZM65.519 40.7783C65.573 41.0785 65.5928 41.397 65.4805 41.6805C65.3681 41.9641 65.0944 42.2014 64.7898 42.1887C64.318 42.169 64.0653 41.6254 63.9829 41.1603C63.8811 40.5855 64.0402 39.7946 64.622 39.7518C65.1199 39.7152 65.4306 40.2866 65.519 40.7783ZM50.9831 39.5582C51.2181 39.9009 51.1849 40.3587 51.0915 40.7636C50.9721 41.2817 50.6718 41.8598 50.1431 41.9139C49.6657 41.9627 49.258 41.5353 49.1019 41.0813C48.9114 40.5273 49.0039 39.8504 49.4362 39.4552C49.8686 39.06 50.6518 39.0751 50.9831 39.5582ZM51.4232 33.7109C51.6342 33.8079 51.7829 34.074 51.6762 34.2803L51.4721 34.3339C50.3102 34.644 49.0716 35.0757 48.5167 36.1267C48.3838 36.3786 48.2975 36.6565 48.1319 36.8882C47.9663 37.1199 47.6871 37.3041 47.4085 37.2454C47.091 37.1785 46.9073 36.8129 46.9412 36.4901C46.9751 36.1672 47.1714 35.8858 47.3817 35.6386C48.237 34.6332 49.4422 33.9318 50.7385 33.6851C50.9667 33.6417 51.2122 33.6139 51.4232 33.7109ZM66.272 34.2914C66.6194 34.5715 66.8834 34.9447 67.2345 35.2202C67.5311 35.453 67.9059 35.637 68.0406 35.9892C68.1754 36.3414 67.77 36.8388 67.4758 36.603C66.7078 35.9873 65.8552 35.4772 64.9496 35.0916C64.5391 34.9168 64.6323 34.2256 65.0328 34.0289C65.4332 33.8321 65.9246 34.0113 66.272 34.2914ZM61.9689 32.0826C61.2119 32.3323 60.674 33.1293 60.7254 33.9251C61.0149 33.7768 61.2355 33.4998 61.3152 33.1843L61.3038 33.1525C61.6398 32.8868 61.8793 32.5016 61.9689 32.0826Z" fill="#00160A"/>
<path fill-rule="evenodd" clip-rule="evenodd" d="M19.3135 127.459C19.618 127.462 19.8981 127.603 20.1642 127.758L20.308 127.844C21.9389 128.821 23.6599 129.647 25.442 130.309C25.6869 130.4 25.6108 130.811 25.3721 130.917C25.1334 131.024 24.8579 130.929 24.6145 130.834L19.3516 128.785C19.0148 128.654 18.6239 128.454 18.5944 128.094C18.565 127.735 18.9536 127.456 19.3135 127.459Z" fill="#E7EAEE"/>
<path fill-rule="evenodd" clip-rule="evenodd" d="M10.9235 121.723L27.2042 127.501L27.3065 127.539C27.7368 127.707 28.2022 127.995 28.1562 128.44C28.1187 128.802 27.7181 129.035 27.3543 129.023C27.0465 129.013 26.7622 128.876 26.4901 128.725L26.3429 128.642C24.0729 127.354 21.6912 126.292 19.2485 125.373C16.4815 124.333 13.6363 123.479 10.7866 122.692C10.3508 122.572 9.79851 122.182 10.0484 121.805C10.2237 121.541 10.6246 121.616 10.9235 121.723Z" fill="#E7EAEE"/>
</svg>
