<svg width="276" height="152" viewBox="0 0 276 152" fill="none" xmlns="http://www.w3.org/2000/svg">
<path fill-rule="evenodd" clip-rule="evenodd" d="M145.143 120.786C148.996 120.511 149.264 117.294 161.308 119.001C163.456 119.305 167.509 121.491 170.033 122.44C174.858 124.255 183.495 129.756 183.495 129.756C183.495 129.756 187.257 132.827 193.817 133.885C200.377 134.943 204.208 133.659 211.156 134.643C216.222 135.361 220.385 137.649 224.725 138.264C229.065 138.879 235.141 139.176 235.819 135.863C244.95 91.2301 232.775 70.4695 224.851 53.1762C212.285 25.7546 222.129 -11.7353 199.122 3.94994C193.286 7.92875 192.118 11.7269 182.26 15.4676C174.412 18.4453 168.629 18.438 164.422 20.3426C152.776 25.6151 145.826 34.2751 137.751 37.7457C123.651 43.8062 119.847 40.0011 108.819 43.9526C107.363 44.4742 105.718 45.2679 103.951 45.7068C100.436 46.5795 96.4938 47.1304 92.9931 48.9241C90.1638 50.3738 85.4683 55.0403 85.4683 55.0403L59.8833 60.0824C59.8833 60.0824 54.1112 61.8323 55.1052 71.1354C56.0992 80.4385 60.4143 101.323 60.4143 101.323C60.4143 101.323 67.2166 102.188 72.4253 106.407C77.6341 110.627 78.4431 118.355 78.4431 118.355C78.4431 118.355 92.6803 116.165 98.767 114.965C100.438 114.636 104.24 113.745 109.785 114.263C115.863 114.831 119.991 118.468 128.707 120.148C133.604 121.092 141.29 121.06 145.143 120.786Z" fill="#FF0000"/>
<path fill-rule="evenodd" clip-rule="evenodd" d="M244.709 106.572C244.574 106.029 243.666 106.143 243.426 106.648C243.195 107.132 243.359 107.697 243.51 108.216L243.53 108.283C245.11 113.743 242.332 120.135 237.263 122.702C236.755 122.283 236.432 121.692 236.11 121.103C235.751 120.447 235.393 119.794 234.783 119.385C234.25 119.028 233.596 118.912 232.963 118.805L227.322 117.847C226.635 117.731 225.798 117.67 225.378 118.225C224.463 119.436 222.44 119.684 221.391 118.588C220.342 117.491 220.859 115.298 222.335 114.947C222.444 114.921 222.557 114.904 222.67 114.887C222.915 114.85 223.16 114.813 223.369 114.683C223.643 114.514 223.805 114.217 223.956 113.933L227.015 108.155C227.207 107.792 227.403 107.418 227.451 107.01C227.548 106.179 227.019 105.409 226.451 104.794C226.361 104.697 226.269 104.6 226.177 104.503C225.686 103.987 225.188 103.464 224.972 102.794C224.716 101.997 225.084 100.923 225.911 100.796C230.249 100.131 235.039 99.9968 238.633 102.516C238.734 102.587 238.834 102.659 238.934 102.732C239.448 103.106 239.971 103.485 240.59 103.591C241.331 103.717 242.239 103.225 242.207 102.474C242.187 101.994 241.815 101.59 241.459 101.202C241.032 100.737 240.626 100.296 240.879 99.7769C240.978 99.5718 241.168 99.4279 241.351 99.2919L246.971 95.1164C247.271 94.2187 246.003 93.5253 245.088 93.7681C244.635 93.8884 244.226 94.1246 243.818 94.3608C243.401 94.6016 242.985 94.8422 242.522 94.9599C240.667 95.4314 238.979 93.8341 237.774 92.3468C233.461 87.0237 229.796 81.1761 226.885 74.974C226.751 74.6894 226.616 74.3781 226.682 74.0708C226.768 73.676 227.149 73.429 227.498 73.2256L236.611 67.9114C237.345 67.4835 238.448 67.1319 238.901 67.851L251.469 87.8232C251.669 88.1407 251.875 88.4759 251.898 88.8504C251.945 89.62 251.226 90.208 250.534 90.5472C250.426 90.6 250.316 90.6514 250.205 90.7031C249.604 90.9834 248.986 91.2715 248.657 91.8335C248.268 92.4991 248.751 93.6301 249.498 93.4406C253.481 91.3547 257.638 89.2209 262.132 89.0711C262.982 89.0427 263.892 89.1064 264.573 89.6167C266.088 90.7521 265.515 93.1398 264.64 94.8193C263.044 97.8838 260.926 100.675 258.405 103.037C257.902 103.507 257.337 104.078 257.425 104.761C257.548 105.726 258.822 106.023 259.783 105.879C259.936 105.856 260.091 105.828 260.247 105.801C261.079 105.654 261.948 105.501 262.619 105.97C262.972 106.217 263.201 106.599 263.419 106.97L274.503 125.756C271.054 127.757 267.561 129.68 264.025 131.522C263.676 131.704 263.288 131.891 262.904 131.803C262.449 131.7 262.169 131.256 261.938 130.85L251.385 112.297C250.935 111.506 251.605 110.513 252.393 110.058C252.678 109.894 252.984 109.762 253.289 109.63C253.828 109.398 254.364 109.166 254.778 108.759C255.427 108.12 255.471 106.764 254.599 106.502C254.103 106.354 253.588 106.64 253.171 106.947C252.846 107.187 252.531 107.448 252.216 107.71C251.406 108.383 250.597 109.056 249.6 109.357C247.591 109.965 245.213 108.61 244.709 106.572ZM225.137 114.396C225.102 114.457 225.068 114.52 225.059 114.59C225.035 114.787 225.242 114.952 225.441 114.96C225.64 114.967 225.825 114.866 225.999 114.768L230.626 112.151C230.867 112.015 231.135 111.841 231.172 111.567C231.202 111.352 231.078 111.15 230.959 110.97L229.419 108.631C229.339 108.509 229.252 108.382 229.12 108.319C228.759 108.15 228.405 108.555 228.21 108.904L225.137 114.396ZM232.151 113.351C232.264 113.415 232.339 113.53 232.409 113.64L234.486 116.913C234.515 117.157 234.162 117.227 233.918 117.197L227.25 116.384C226.923 116.344 226.58 116.298 226.316 116.1C227.79 114.728 229.636 113.761 231.602 113.331C231.785 113.291 231.988 113.259 232.151 113.351Z" fill="white"/>
<path fill-rule="evenodd" clip-rule="evenodd" d="M100.484 85.5854C100.888 83.6781 102.554 82.1049 104.48 81.8107C105.638 81.6339 106.562 80.6769 106.997 79.5893C107.432 78.5016 107.455 77.2963 107.403 76.1259C107.238 72.3892 106.197 68.4093 103.302 66.0423C100.163 63.4759 95.6539 63.4453 91.6808 64.2489C89.949 64.5992 88.1209 65.1624 87.0395 66.5602C86.3744 67.4201 86.0725 68.4984 85.7852 69.5469C85.1975 71.6911 84.6065 73.8562 84.4973 76.0769C84.3882 78.2975 84.7996 80.6094 86.066 82.4364C86.9479 83.7087 88.4273 84.7553 89.9514 84.4863C91.1458 84.2754 92.0429 85.4857 93.0499 86.162C94.4245 87.0853 96.2085 87.0364 97.862 86.9535C98.9257 86.9001 100.263 86.6277 100.484 85.5854Z" fill="white"/>
<path fill-rule="evenodd" clip-rule="evenodd" d="M134.948 120.183C138.742 120.328 142.536 120.474 146.33 120.62C145.517 121.547 144.133 121.644 142.901 121.657C135.654 121.733 128.221 121.167 121.617 118.181C114.697 115.051 106.847 114.015 99.3525 115.242C99.5364 114.353 100.609 114.014 101.507 113.878C107.555 112.964 113.849 113.743 119.492 116.104C121.989 117.149 124.37 118.499 126.973 119.239C129.555 119.972 132.267 120.08 134.948 120.183Z" fill="white"/>
<path fill-rule="evenodd" clip-rule="evenodd" d="M116.185 41.3006C119.982 40.8912 123.873 41.4126 127.603 40.5932C127.771 40.7645 127.938 40.9359 128.106 41.1073C126.22 42.4817 123.647 42.1349 121.317 42.0025C116.888 41.7507 112.404 42.5187 108.311 44.2301C106.347 45.0512 104.419 46.1005 102.299 46.2938C97.2478 46.7547 92.3601 48.8648 88.5593 52.2256C88.3936 51.8111 88.0665 51.4637 87.6629 51.2734C90.5785 49.3507 93.7152 47.7641 96.9912 46.5547C98.9727 45.8233 101.002 45.2303 103.03 44.6379C104.734 44.1398 106.439 43.6418 108.144 43.1437C110.787 42.3715 113.447 41.5958 116.185 41.3006Z" fill="white"/>
<path fill-rule="evenodd" clip-rule="evenodd" d="M193.81 8.53392C193.047 9.31703 192.32 10.1404 191.478 10.8383C190.364 11.7616 189.075 12.4449 187.79 13.108C183.904 15.1124 179.917 17.0089 175.663 18.0188C173.681 18.4893 171.657 18.7634 169.678 19.2465C163.478 20.76 157.927 24.2812 153.081 28.4351C152.704 28.7582 152.302 29.0991 151.811 29.1734C151.32 29.2478 150.735 28.9217 150.734 28.425C156.303 24.4565 162.023 20.4151 168.614 18.5945C171.551 17.7835 174.6 17.4331 177.528 16.5917C180.441 15.7547 183.193 14.4434 185.899 13.0795C187.699 12.1722 189.5 11.2303 191.071 9.9665C193.544 7.97707 195.439 5.20275 198.301 3.833C198.649 3.66681 199.222 3.63681 199.264 4.0197C197.292 5.32432 195.46 6.84053 193.81 8.53392Z" fill="white"/>
<path fill-rule="evenodd" clip-rule="evenodd" d="M67.8163 9.74066C68.3047 11.1578 69.3753 12.3641 70.724 13.017C70.6945 13.181 70.665 13.345 70.6356 13.5089C69.3155 14.0724 68.4406 15.5379 68.5706 16.9678C68.6106 17.408 67.9594 17.6223 67.5907 17.3788C67.222 17.1354 67.0848 16.6702 66.9547 16.2478C66.7913 15.7177 66.5918 15.1856 66.2388 14.7578C65.8859 14.33 65.3528 14.0181 64.7996 14.0551C64.3943 14.0823 64.0934 13.6121 64.1569 13.2107C64.2205 12.8092 64.5314 12.4933 64.8586 12.2525C65.1858 12.0117 65.5509 11.8107 65.8129 11.5001C66.1192 11.1366 66.2528 10.6602 66.3456 10.1939C66.4035 9.90322 66.4532 9.59945 66.6224 9.35618C66.7916 9.1129 67.1232 8.95227 67.3908 9.07935C67.6345 9.19506 67.7283 9.48556 67.8163 9.74066Z" fill="white"/>
<path fill-rule="evenodd" clip-rule="evenodd" d="M200.492 135.18C195.146 135.147 189.811 133.831 185.062 131.374C184.245 130.951 183.315 130.209 183.567 129.324C188.154 132.154 193.485 133.766 198.871 133.951C202.459 134.075 206.063 133.578 209.634 133.947C213.678 134.364 217.515 135.87 221.425 136.982C225.335 138.093 229.541 138.81 233.434 137.637C233.797 137.528 234.19 137.402 234.547 137.532C234.904 137.661 235.122 138.185 234.831 138.429C234.743 138.504 234.628 138.536 234.516 138.566C231.406 139.401 228.119 139.567 224.94 139.05C219.838 138.22 215.103 135.674 209.963 135.119C206.822 134.78 203.652 135.2 200.492 135.18Z" fill="white"/>
<path fill-rule="evenodd" clip-rule="evenodd" d="M230.376 46.6631C230.363 47.1557 230.387 47.851 229.899 47.9187C229.444 47.9819 229.245 47.3803 229.121 46.9378C228.787 45.7476 227.726 44.7944 226.508 44.5886C226.025 44.5072 226.052 43.7302 226.441 43.4334C226.83 43.1366 227.36 43.1277 227.822 42.9669C228.542 42.7163 229.082 42.0914 229.403 41.3993C229.723 40.7073 229.853 39.9447 229.979 39.1925C230.011 39.0022 230.247 38.902 230.433 38.9537C230.619 39.0054 230.756 39.1625 230.86 39.3251C231.573 40.4396 231.233 42.0443 232.086 43.055C232.483 43.5246 233.099 43.8068 233.379 44.3535C233.059 44.6427 232.571 44.5911 232.144 44.6558C231.187 44.801 230.399 45.6948 230.376 46.6631Z" fill="white"/>
<path fill-rule="evenodd" clip-rule="evenodd" d="M91.0543 23.542C91.6637 24.1414 91.9029 25.0149 92.3643 25.7346C92.853 26.4971 93.6059 27.0867 94.4632 27.3781C93.1189 27.8886 92.1024 29.1764 91.9177 30.603C91.8741 30.94 91.7584 31.3938 91.4194 31.3756C91.332 31.371 91.2508 31.3302 91.1757 31.2853C89.9421 30.5468 89.6734 28.5708 88.2829 28.2055C87.7925 28.0766 87.8097 27.3198 88.1568 26.9501C88.504 26.5804 89.0233 26.4193 89.3956 26.0749C90.1467 25.3803 90.178 24.0697 91.0543 23.542Z" fill="white"/>
<path fill-rule="evenodd" clip-rule="evenodd" d="M125.73 10.6743C125.392 10.8163 125.006 10.561 124.818 10.2455C124.631 9.93006 124.565 9.55582 124.388 9.23415C123.934 8.40557 122.838 8.06062 122.456 7.19626C122.335 6.92167 122.322 6.5497 122.563 6.37012C122.659 6.29858 122.779 6.27036 122.892 6.23212C123.7 5.95936 124.2 5.15224 124.504 4.35506C124.807 3.55788 124.989 2.69837 125.473 1.99604C125.593 1.82123 125.746 1.64894 125.952 1.59973C126.159 1.55052 126.417 1.68757 126.417 1.89986C126.419 2.6728 126.421 3.44573 126.423 4.21867C126.425 4.66593 126.429 5.12953 126.618 5.53496C126.807 5.94039 127.235 6.27094 127.676 6.19752C127.983 6.14645 128.159 6.59423 128.012 6.8686C127.866 7.14297 127.56 7.28192 127.3 7.45352C126.654 7.88121 126.225 8.62082 126.174 9.39434C126.142 9.87249 126.171 10.4889 125.73 10.6743Z" fill="white"/>
<path fill-rule="evenodd" clip-rule="evenodd" d="M67.2483 59.6791C67.6191 59.5291 67.8721 60.1775 67.5982 60.4691C67.3242 60.7607 66.8708 60.7576 66.4709 60.7657C63.9322 60.8173 61.5572 62.1775 59.7818 63.9937C58.8517 64.9453 58.0193 66.1284 58.0082 67.4593C58.0021 68.1819 58.1524 69.0979 57.5247 69.4554C56.9649 68.6594 56.7193 67.6484 56.8513 66.6841C57.0843 64.9829 58.3871 63.645 59.6918 62.5294C61.1907 61.2478 62.9569 60.0243 64.9275 60.0905C65.7185 60.1171 66.5146 59.976 67.2483 59.6791Z" fill="white"/>
<path fill-rule="evenodd" clip-rule="evenodd" d="M181.727 143.383C182.71 142.782 183.456 141.802 183.772 140.693C183.892 140.275 184.581 140.354 184.792 140.733C185.004 141.113 184.901 141.581 184.827 142.009C184.731 142.567 184.695 143.16 184.912 143.683C185.129 144.206 185.659 144.633 186.222 144.572C186.443 144.549 186.609 144.815 186.562 145.032C186.515 145.25 186.33 145.409 186.14 145.525C185.398 145.976 184.369 146.077 183.942 146.833C183.791 147.099 183.744 147.41 183.645 147.7C183.546 147.989 183.367 148.283 183.077 148.379C182.786 148.475 182.399 148.251 182.441 147.948C182.587 146.891 182.208 145.774 181.448 145.025C181.228 144.809 180.96 144.583 180.948 144.274C180.931 143.859 181.372 143.599 181.727 143.383Z" fill="white"/>
<path fill-rule="evenodd" clip-rule="evenodd" d="M67.3362 69.1502C68.2996 70.1123 69.5498 70.7833 70.8838 71.0544C71.1881 71.1163 71.1011 71.5756 70.94 71.8412C70.4798 72.5996 70.0196 73.358 69.5594 74.1164C69.713 74.4255 69.8698 74.7807 69.7472 75.1033C69.6245 75.4259 69.0669 75.5303 68.964 75.2008C68.5654 73.9259 67.2345 73.0098 65.9019 73.0932C66.0317 72.6456 66.3403 72.2764 66.588 71.8816C67.0969 71.0704 67.3606 70.1076 67.3362 69.1502Z" fill="white"/>
<path fill-rule="evenodd" clip-rule="evenodd" d="M129.56 111.284C129.263 110.104 128.218 109.148 127.017 108.959C126.854 107.739 128.407 106.972 128.705 105.778C128.767 105.531 128.772 105.268 128.872 105.032C128.971 104.797 129.209 104.589 129.459 104.641C129.689 105.547 130.216 106.374 130.94 106.965C131.128 107.118 131.336 107.264 131.446 107.48C131.556 107.696 131.522 108.011 131.306 108.119C130.189 108.679 129.816 110.061 129.56 111.284Z" fill="white"/>
<path fill-rule="evenodd" clip-rule="evenodd" d="M86.6376 96.693C86.8154 96.6358 87.0118 96.6384 87.1879 96.7003C87.1558 97.9503 87.9265 99.1846 89.0634 99.704C88.3802 100.7 87.9155 101.844 87.7114 103.035C87.5791 103.114 87.4224 102.985 87.3223 102.868C86.5257 101.933 85.7291 100.998 84.9324 100.063C85.9451 99.2515 86.5833 97.9901 86.6376 96.693Z" fill="white"/>
<path fill-rule="evenodd" clip-rule="evenodd" d="M209.75 103.192C209.613 103.084 209.46 102.978 209.286 102.966C209.129 102.956 208.974 103.025 208.818 103.006C208.662 102.987 208.512 102.798 208.617 102.681C210.222 102.099 211.081 100.395 211.787 98.8394C211.885 98.7057 212.118 98.7797 212.192 98.9282C212.266 99.0767 212.235 99.2531 212.213 99.4176C212.116 100.131 212.222 100.885 212.597 101.5C212.972 102.114 213.635 102.567 214.353 102.605C213.172 103.195 211.871 103.925 211.526 105.2C211.063 104.429 210.458 103.745 209.75 103.192Z" fill="white"/>
<path fill-rule="evenodd" clip-rule="evenodd" d="M88.4114 113.214C90.5485 112.685 92.7718 112.113 94.4387 110.675C94.6403 110.501 94.8514 110.306 95.116 110.276C95.3806 110.245 95.6844 110.49 95.5961 110.741C95.1657 111.966 93.7934 112.535 92.5687 112.964C91.8239 113.224 91.079 113.485 90.3342 113.745C89.9658 113.874 89.5804 114.005 89.1935 113.953C88.8067 113.901 88.4226 113.604 88.4114 113.214Z" fill="white"/>
<path fill-rule="evenodd" clip-rule="evenodd" d="M168.054 122.231C168.378 121.867 168.957 121.942 169.43 122.06C171.649 122.613 173.799 123.446 175.813 124.531C177.428 125.402 178.96 126.439 180.301 127.691C178.753 127.583 177.42 126.622 176.083 125.832C174.251 124.751 172.272 123.945 170.301 123.144C169.552 122.84 168.803 122.535 168.054 122.231Z" fill="white"/>
<path fill-rule="evenodd" clip-rule="evenodd" d="M59.7852 87.4281C59.4517 86.1157 59.1587 84.793 58.9068 83.4625C58.8448 83.1354 58.7854 82.8079 58.7259 82.4803C58.2301 79.749 57.7341 77.0169 57.341 74.2689C57.2951 73.9484 57.4591 73.4587 57.7499 73.6006C57.8694 73.6589 57.912 73.8047 57.9422 73.9342C58.5783 76.6638 59.2144 79.3934 59.8505 82.123C60.2786 83.9601 60.7083 85.8682 60.3221 87.7145C60.293 87.8534 60.0886 87.8845 59.9755 87.799C59.8624 87.7135 59.8201 87.5655 59.7852 87.4281Z" fill="white"/>
<path fill-rule="evenodd" clip-rule="evenodd" d="M96.548 104.477C96.5898 104.938 96.3852 105.615 95.9461 105.47C95.2816 100.369 94.6881 95.2577 94.1659 90.1396C94.1484 89.9675 94.1331 89.7833 94.2155 89.6312C94.2979 89.479 94.519 89.391 94.6492 89.5048C94.7145 89.5619 94.7394 89.6513 94.7607 89.7354C95.4577 92.4849 95.7166 95.3237 95.9732 98.1486C96.1648 100.258 96.3564 102.368 96.548 104.477Z" fill="white"/>
<path fill-rule="evenodd" clip-rule="evenodd" d="M60.1797 48.2125C59.9612 48.3352 59.7427 48.4579 59.5242 48.5806C55.6381 44.7752 50.666 42.0924 45.353 40.934C45.3126 40.6799 45.3276 40.4172 45.3966 40.1693C50.245 40.8942 54.8708 43.0498 58.5452 46.2966C59.178 46.8558 59.7941 47.461 60.1797 48.2125Z" fill="white"/>
<path fill-rule="evenodd" clip-rule="evenodd" d="M61.3443 142.886C67.9604 140.479 73.9854 136.463 78.7541 131.281C79.7081 130.244 80.612 129.163 81.5154 128.082C81.8853 127.639 82.2552 127.197 82.6251 126.754C82.9102 128.361 81.6633 129.796 80.5108 130.951C75.341 136.136 69.7575 141.554 62.6053 143.113C62.1626 143.209 61.6119 143.252 61.3443 142.886Z" fill="white"/>
<path fill-rule="evenodd" clip-rule="evenodd" d="M101.323 71.0468C101.785 70.9352 102.25 71.2016 102.628 71.4914C103.445 72.1186 104.155 72.9528 104.387 73.9566C104.618 74.9604 104.266 76.1401 103.378 76.662C102.917 76.9336 102.298 76.7658 101.897 76.411C101.495 76.0561 101.261 75.5536 101.038 75.0662C100.58 74.0642 100.115 72.9305 100.493 71.8956C100.634 71.5082 100.922 71.1435 101.323 71.0468Z" fill="#FFB61D"/>
<path fill-rule="evenodd" clip-rule="evenodd" d="M19.4116 68.3525C18.6476 68.062 18.0447 67.3797 17.85 66.5856C17.6554 65.7914 17.8746 64.9075 18.4176 64.2963C19.0877 63.5421 20.1402 63.2554 21.1442 63.1583C22.1657 63.0596 23.2023 63.1191 24.2057 63.3341C24.5883 63.416 24.9819 63.5289 25.2703 63.7933C25.4931 63.9976 25.6345 64.277 25.7286 64.5643C26.0461 65.5335 25.8402 66.6576 25.1998 67.4512C24.5594 68.2448 23.5045 68.6831 22.4906 68.5768C21.4616 68.469 20.3787 68.7203 19.4116 68.3525ZM21.0255 66.3115C21.788 66.379 22.5548 66.3988 23.3198 66.3707C23.6306 66.3592 23.9661 66.3302 24.2005 66.1257C24.4349 65.9211 24.4724 65.4774 24.1972 65.3326C23.144 64.7782 21.8306 64.7487 20.7536 65.2552C20.5046 65.3723 20.2342 65.5797 20.2673 65.853C20.306 66.1717 20.7059 66.2832 21.0255 66.3115Z" fill="white"/>
<path fill-rule="evenodd" clip-rule="evenodd" d="M76.7712 52.4896C76.8982 52.516 76.9254 52.7043 76.8455 52.8066C76.7771 52.8943 76.6672 52.9333 76.5577 52.9615L68.778 54.7997C68.4672 54.8731 67.9676 54.7397 68.1012 54.4496C68.1549 54.333 68.2955 54.2897 68.4201 54.2593C71.1848 53.5837 73.9702 52.9935 76.7712 52.4896Z" fill="white"/>
<path fill-rule="evenodd" clip-rule="evenodd" d="M99.2144 65.7909C98.319 65.7092 97.4064 65.8607 96.5751 66.2035C95.9104 66.4776 95.1605 66.1854 94.5022 65.896C93.8661 65.6164 93.23 65.3368 92.5939 65.0571C92.5809 64.8504 92.8396 64.7511 93.044 64.7179C95.0678 64.3892 97.159 64.2546 99.1551 64.7234C101.151 65.1922 103.055 66.3257 104.114 68.0823C102.618 67.0368 101.031 65.9566 99.2144 65.7909Z" fill="white"/>
<path fill-rule="evenodd" clip-rule="evenodd" d="M90.6283 69.7099C90.4864 71.2859 89.6098 72.7801 88.3037 73.6725C87.9625 73.9056 87.5429 74.1055 87.148 73.984C86.7485 73.8612 86.5044 73.4288 86.4875 73.0109C86.4706 72.5931 86.6376 72.19 86.8348 71.8213C87.447 70.6768 88.3885 69.7112 89.5169 69.0705C89.8028 68.9082 90.1835 68.7734 90.4375 68.9822C90.6395 69.1481 90.6518 69.4495 90.6283 69.7099Z" fill="#FFB61D"/>
<path fill-rule="evenodd" clip-rule="evenodd" d="M131.606 142.721C130.014 141.995 128.367 140.541 128.712 138.826C128.952 137.637 130.067 136.852 131.132 136.271C132.594 135.474 134.134 134.82 135.723 134.323C136.803 133.986 138.068 133.573 138.42 132.497C140.476 126.21 146.175 121.278 152.681 120.096C159.187 118.913 166.23 121.505 170.461 126.588C171.3 127.596 172.337 128.819 173.625 128.571C176.212 128.072 179.052 127.887 181.33 129.212C182.171 129.702 182.967 130.57 182.786 131.527C182.701 131.98 182.407 132.363 182.107 132.714C180.244 134.891 177.765 136.534 175.034 137.401C173.683 137.83 172.674 138.978 171.985 140.218C171.296 141.457 170.859 142.821 170.218 144.086C167.672 149.112 161.903 152.097 156.273 151.974C150.642 151.851 145.287 148.909 141.56 144.684C141.134 144.202 140.598 143.653 139.966 143.767C137.159 144.274 134.201 143.903 131.606 142.721ZM140.738 139.037C140.995 139.21 141.314 139.259 141.622 139.299C148.282 140.163 154.996 138.641 161.54 137.129C164.378 136.473 167.216 135.818 170.055 135.162C170.634 135.028 171.281 134.845 171.566 134.323C171.754 133.981 171.739 133.566 171.698 133.177C171.339 129.779 169.376 126.651 166.67 124.567C163.964 122.482 160.571 121.394 157.165 121.154C152.512 120.826 147.644 122.122 144.169 125.234C140.693 128.347 138.846 133.379 140.072 137.882C140.191 138.32 140.361 138.783 140.738 139.037ZM169.972 139.355C161.695 141.935 153.05 143.332 144.382 143.49C143.778 143.501 143.413 144.252 143.566 144.836C143.72 145.421 144.208 145.849 144.683 146.223C147.551 148.483 150.916 150.191 154.522 150.755C158.129 151.32 161.985 150.672 164.999 148.611C168.013 146.55 170.067 143.006 169.972 139.355ZM130.005 139.698C130.122 140.353 130.709 140.813 131.29 141.136C133.569 142.403 136.286 142.545 138.893 142.56C149.413 142.621 159.94 141.079 170.002 138.004C174.033 136.773 178.174 135.171 180.912 131.965C181.149 131.687 181.385 131.371 181.399 131.006C181.429 130.237 180.528 129.804 179.772 129.661C177.9 129.305 175.972 129.461 174.073 129.618C173.411 129.672 172.56 129.908 172.527 130.572C172.491 131.301 173.48 131.579 174.204 131.492C174.929 131.405 175.829 131.272 176.238 131.876C176.797 132.703 175.73 133.659 174.818 134.063C167.923 137.116 160.42 138.474 152.999 139.808C151.248 140.123 149.493 140.438 147.718 140.548C146.194 140.642 144.665 140.585 143.139 140.527C141.711 140.473 140.284 140.419 138.856 140.365C138.133 140.338 137.381 140.303 136.742 139.963C136.103 139.623 135.616 138.881 135.81 138.183C136.024 137.411 136.892 137.069 137.566 136.635C138.24 136.201 138.797 135.21 138.215 134.658C135.888 135.242 133.649 136.175 131.597 137.418C130.751 137.929 129.831 138.725 130.005 139.698ZM173.088 133.8C173.725 133.513 174.362 133.226 175 132.939C175.195 132.851 175.426 132.696 175.379 132.488C175.337 132.305 175.113 132.243 174.928 132.215C174.395 132.135 173.799 132.068 173.361 132.384C172.93 132.693 172.803 133.353 173.088 133.8ZM137.089 138.243C137.039 138.284 136.988 138.327 136.96 138.385C136.842 138.635 137.227 138.831 137.499 138.781C137.77 138.731 138.087 138.606 138.294 138.789C138.592 139.053 139.117 138.668 139.05 138.275C138.983 137.883 138.528 137.654 138.133 137.7C137.738 137.746 137.397 137.991 137.089 138.243Z" fill="white"/>
<path fill-rule="evenodd" clip-rule="evenodd" d="M98.0182 81.8624C97.5601 81.9181 97.0247 81.7949 96.8049 81.3888C96.6337 81.0725 96.7055 80.6764 96.8569 80.3501C97.0796 79.8703 97.4867 79.4574 97.9976 79.3208C98.5084 79.1841 99.1148 79.3726 99.3866 79.8264C99.6363 80.243 99.5613 80.8068 99.2688 81.1945C98.9764 81.5823 98.5002 81.8038 98.0182 81.8624Z" fill="#FFB61D"/>
<path fill-rule="evenodd" clip-rule="evenodd" d="M96.7483 78.2313C96.6156 78.4643 96.3886 78.6659 96.1208 78.6782C95.6762 78.6988 95.3787 78.2197 95.2758 77.7865C95.1773 77.3717 95.1629 76.9371 95.2338 76.5167C95.2548 76.3923 95.3104 76.2429 95.4358 76.2293C95.9249 76.1762 96.4346 76.4169 96.7044 76.8284C96.9742 77.24 96.9918 77.8036 96.7483 78.2313Z" fill="#FFB61D"/>
<path fill-rule="evenodd" clip-rule="evenodd" d="M161.452 149.607C161.15 149.695 160.709 149.672 160.662 149.362C161.757 148.9 162.852 148.439 163.947 147.978C163.3 148.75 162.419 149.325 161.452 149.607Z" fill="#E7EAEE"/>
<path fill-rule="evenodd" clip-rule="evenodd" d="M90.4732 79.4315C90.7132 79.8034 90.9101 80.2284 90.8854 80.6704C90.8607 81.1124 90.554 81.5622 90.1158 81.6235C89.6882 81.6833 89.3003 81.3794 88.9991 81.0699C88.6566 80.7178 88.3377 80.3113 88.2437 79.8291C88.1496 79.3469 88.3457 78.7786 88.796 78.5826C89.4225 78.3098 90.1026 78.8571 90.4732 79.4315Z" fill="#FFB61D"/>
<path fill-rule="evenodd" clip-rule="evenodd" d="M144.903 144.611C145.269 145.142 145.635 145.672 146 146.203C146.059 146.287 145.99 146.426 145.887 146.43C145.095 145.92 144.456 145.175 144.073 144.315C144.269 144.026 144.705 144.324 144.903 144.611Z" fill="#E7EAEE"/>
<path fill-rule="evenodd" clip-rule="evenodd" d="M23.1633 109.69C22.8219 109.165 22.515 108.57 22.5665 107.946C22.5998 107.543 22.7814 107.166 23.0048 106.829C23.8933 105.49 25.4745 104.692 27.0768 104.571C28.6792 104.45 30.2885 104.956 31.6576 105.797C32.155 106.103 32.6416 106.471 32.9126 106.988C33.3363 107.797 33.1337 108.824 32.6236 109.581C32.1135 110.339 31.3429 110.877 30.5694 111.362C29.8568 111.809 29.0935 112.237 28.2549 112.3C27.8037 112.334 27.3521 112.259 26.9057 112.185C26.4582 112.111 26.0073 112.036 25.5832 111.876C24.5497 111.484 23.7662 110.617 23.1633 109.69ZM26.5103 107.36C26.19 106.952 25.6543 106.501 25.2238 106.791C24.8551 107.039 24.5487 107.379 24.3401 107.771C25.0812 107.903 25.8686 107.753 26.5103 107.36ZM27.8367 105.775C27.369 105.82 26.8821 105.871 26.4842 106.121C26.6986 106.411 26.9537 106.693 27.2923 106.817C27.631 106.942 28.0689 106.859 28.252 106.548C28.4351 106.237 28.1958 105.741 27.8367 105.775ZM28.6364 109.041C28.5637 109.308 28.4903 109.587 28.5429 109.859C28.5956 110.131 28.8151 110.392 29.0918 110.394C29.4885 110.397 29.7312 109.911 30.1216 109.84C29.6852 109.48 29.1774 109.207 28.6364 109.041ZM30.7099 107.07C30.9989 107.205 31.3896 106.995 31.4357 106.679C30.7235 106.309 29.7447 106.589 29.3368 107.281C29.7833 107.44 30.3091 107.354 30.6817 107.061M27.6361 109.912C27.6123 109.815 27.5715 109.712 27.4836 109.665C27.1986 109.513 27.0423 110.062 26.7394 110.174C26.4539 110.28 26.428 110.737 26.6708 110.921C26.9135 111.105 27.2925 111.016 27.4856 110.781C27.6787 110.545 27.7088 110.208 27.6361 109.912ZM25.5225 108.906C25.2186 109.099 24.739 108.923 24.5081 109.2C24.3062 109.442 24.5219 109.851 24.8292 109.92C25.1364 109.989 25.4499 109.814 25.671 109.59C25.7922 109.467 25.9022 109.309 25.8871 109.137C25.8721 108.965 25.6682 108.813 25.5225 108.906ZM31.2809 108.713C31.3952 108.627 31.5096 108.54 31.624 108.454C31.3999 108.165 30.9726 108.164 30.6084 108.19C30.4958 108.198 30.3752 108.209 30.2884 108.281C30.0866 108.449 30.2483 108.813 30.5002 108.886C30.7521 108.959 31.0159 108.844 31.2528 108.731L31.2809 108.713Z" fill="white"/>
<path fill-rule="evenodd" clip-rule="evenodd" d="M170.86 71.0298C169.952 69.9385 169.045 68.8473 168.138 67.7561C167.843 67.4005 167.651 66.7031 168.105 66.6176C168.434 67.5288 169.38 68.076 170.317 68.3215C171.253 68.567 172.239 68.5889 173.17 68.8555C174.052 69.108 174.856 69.5713 175.667 70.001C180.138 72.3712 185.048 73.8153 189.556 76.1147C189.821 76.2496 190.118 76.4378 190.137 76.7342C190.158 77.0655 189.816 77.2964 189.506 77.4141C187.914 78.0178 185.956 77.4582 184.923 76.1038C184.425 75.451 183.419 75.7141 182.606 75.823C181.106 76.0236 179.622 75.4593 178.214 74.9053C176.725 74.3189 175.235 73.7326 173.745 73.1462C173.226 72.9419 172.701 72.7347 172.242 72.4168C171.704 72.0437 171.278 71.5335 170.86 71.0298ZM187.767 76.8149C188.028 76.7389 187.798 76.3482 187.558 76.2219C185.194 74.9799 182.788 73.7523 180.192 73.1268C178.845 72.8024 177.541 72.3014 176.324 71.6405C174.692 70.7546 173.079 69.5439 171.223 69.596C171.24 70.6037 172.094 71.4186 173.018 71.8209C173.942 72.2231 174.965 72.3341 175.917 72.6618C177.113 73.0729 178.165 73.8127 179.305 74.3584C180.446 74.9041 181.778 75.2535 182.968 74.8258C183.811 74.5228 184.744 74.9201 185.483 75.4257C186.223 75.9314 186.907 76.5653 187.767 76.8149Z" fill="white"/>
<path fill-rule="evenodd" clip-rule="evenodd" d="M249.691 96.6087C250.564 96.0972 251.437 95.5856 252.31 95.074C252.561 94.9273 252.83 94.7757 253.12 94.7911C253.546 94.8138 253.862 95.1806 254.119 95.5213C255.004 96.696 255.831 97.9155 256.593 99.1736C256.779 99.48 256.441 99.8311 256.143 100.03C255.162 100.684 254.181 101.338 253.2 101.993C252.952 102.158 252.687 102.329 252.389 102.34C251.926 102.357 251.55 101.991 251.234 101.652C250.566 100.934 249.898 100.215 249.229 99.4972C248.829 99.0663 248.399 98.5546 248.465 97.9696C248.536 97.3388 249.144 96.9295 249.691 96.6087ZM253.626 97.265C253.436 96.981 253.211 96.6731 252.875 96.6094C252.614 96.5598 252.353 96.6732 252.111 96.7839C251.68 96.9816 251.248 97.1793 250.817 97.377C250.648 97.4546 250.471 97.5381 250.361 97.6883C250.08 98.0712 250.378 98.5986 250.67 98.9735C251.098 99.5237 251.526 100.074 251.954 100.624C252.085 100.793 252.244 100.977 252.457 100.986C252.608 100.993 252.747 100.908 252.872 100.824C253.35 100.502 253.799 100.136 254.21 99.7318C254.501 99.4459 254.789 99.0033 254.562 98.6641C254.25 98.1978 253.938 97.7314 253.626 97.265Z" fill="#FFB61D"/>
<path fill-rule="evenodd" clip-rule="evenodd" d="M205.184 47.5368C207.431 53.9487 205.487 60.9888 203.538 67.4979C208.955 71.2887 213.348 76.5286 216.136 82.5245C217.003 84.3886 217.711 86.5997 216.801 88.4432C215.697 90.6799 212.809 91.2646 210.318 91.3709C204.081 91.637 197.79 90.5785 191.983 88.2857C189.79 87.4202 187.296 86.3817 185.19 87.4397C175.899 92.1066 164.106 90.9562 155.58 85.005C147.054 79.0538 141.949 68.6835 141.888 58.2825C141.877 56.2965 140.333 54.7061 138.961 53.2707C134.265 48.3576 130.43 42.6232 127.683 36.4061C126.534 33.808 125.602 30.6932 127.026 28.2361C128.673 25.3973 132.568 24.9375 135.832 25.2628C143.085 25.9858 150.089 29.0301 155.567 33.8407C160.452 29.2597 166.979 26.4694 173.665 26.1042C180.35 25.7391 187.142 27.8018 192.496 31.8236C195.156 33.8212 197.449 36.2646 199.609 38.7942C201.867 41.4377 204.034 44.2555 205.184 47.5368ZM205.435 82.7099C203.87 84.5031 201.142 84.6069 198.778 84.3362C191.597 83.5139 184.86 80.5529 178.25 77.6274C173.64 75.5873 169.01 73.5359 164.77 70.8091C162.196 69.1536 159.783 67.2601 157.411 65.326C148.932 58.412 140.452 50.1414 138.481 39.3764C138.096 37.2738 139.768 35.1864 141.806 34.5455C143.845 33.9047 146.084 34.4292 148.015 35.3444C149.017 35.8196 150.01 36.4096 151.117 36.4866C152.224 36.5637 153.487 35.9011 153.609 34.798C153.737 33.637 152.624 32.7551 151.622 32.1559C145.953 28.7663 139.525 26.383 132.921 26.3721C131.523 26.3698 130.016 26.5152 128.954 27.425C127.031 29.0725 127.581 32.151 128.472 34.5223C132.223 44.5033 139.037 53.1247 147.02 60.1894C155.002 67.2542 164.155 72.8632 173.454 78.0743C184.713 84.3842 196.834 90.3114 209.739 90.2422C211.029 90.2353 212.355 90.1597 213.533 89.6337C214.712 89.1077 215.727 88.0412 215.851 86.7559C215.935 85.888 215.615 85.0359 215.274 84.2338C212.644 78.0625 208.318 72.6248 202.897 68.6767C202.459 69.7209 202.02 70.7651 201.581 71.8092C203.201 73.2283 204.86 74.6993 205.814 76.6299C206.768 78.5605 206.85 81.0877 205.435 82.7099ZM201.664 67.5132C202.041 67.2461 202.239 66.7987 202.411 66.3701C204.26 61.7617 205.054 56.7329 204.714 51.7787C202.773 51.9667 200.832 52.1546 198.89 52.3426C197.967 52.432 197.033 52.5212 196.115 52.389C195 52.2284 193.96 51.7493 192.883 51.4176C190.476 50.6761 187.912 50.6782 185.393 50.6867C184.419 50.69 183.533 50.1461 182.755 49.5607C177.286 45.4469 174.323 38.5561 168.612 34.786C168.003 34.3841 167.358 34.0133 166.874 33.4671C165.891 32.3569 165.71 30.6799 164.651 29.642C165.038 33.5077 167.547 36.8263 170.302 39.5638C173.057 42.3013 176.184 44.7248 178.382 47.9274C179.508 49.5681 181.446 50.4518 183.36 50.9937C185.274 51.5356 187.275 51.8206 189.089 52.6376C190.47 53.2596 191.766 54.1948 193.275 54.3301C194.676 54.4558 196.031 53.8679 197.416 53.6256C199.444 53.2711 201.519 53.661 203.54 54.05C203.949 54.1285 204.456 54.319 204.459 54.7349C204.462 55.2336 203.769 55.3637 203.274 55.3C200.876 54.9907 198.3 54.0569 196.162 55.1874C194.51 56.0616 192.468 55.6912 190.741 54.9764C189.013 54.2615 187.409 53.2247 185.599 52.7574C184.314 52.4254 182.96 52.3917 181.693 51.9957C178.154 50.8903 176.103 47.3363 173.606 44.5957C171.686 42.4899 169.373 40.7771 167.414 38.7077C165.456 36.6383 163.813 34.0576 163.719 31.2092C163.695 30.4718 162.575 30.5214 161.902 30.8215C160.251 31.557 158.58 32.3041 157.164 33.4269C155.747 34.5496 154.589 36.1071 154.323 37.8954C153.953 40.3821 155.57 43.0178 157.954 43.8138C159.972 44.4877 159.393 48.3705 161.484 48.7606C162.829 49.0114 163.318 50.6279 163.752 51.9254C164.186 53.2228 165.39 54.6857 166.635 54.1192C167.445 53.7505 168.315 54.4149 169.029 54.9467C169.743 55.4784 170.892 55.8521 171.407 55.1265C169.852 54.6284 169.304 52.2955 170.473 51.1558C171.355 50.297 172.735 50.2487 173.957 50.3901C175.39 50.5559 176.856 50.9375 177.954 51.8729C179.053 52.8084 179.681 54.4084 179.143 55.7472C178.518 57.301 178.57 59.1142 179.282 60.6297C180.084 60.2614 180.885 59.8931 181.687 59.5248C182.762 59.0307 183.876 58.5273 185.059 58.5022C186.242 58.4772 187.523 59.0595 187.944 60.1661C188.366 61.2742 187.833 62.495 187.311 63.5594C189.356 63.1076 191.613 63.7692 193.091 65.2542C195.038 67.2094 197.915 68.1933 200.65 67.8392C201.006 67.7932 201.372 67.7207 201.664 67.5132ZM195.221 36.1757C194.88 35.9118 194.442 35.6424 194.047 35.8136C192.637 36.4239 190.995 36.0253 189.587 35.4101C188.179 34.7948 186.838 33.9636 185.327 33.6847C184.191 33.4748 183.016 33.5907 181.871 33.4289C179.152 33.0444 176.914 31.1671 174.839 29.3666C174.573 29.1355 174.294 28.8859 174.192 28.548C174.091 28.2102 174.257 27.7676 174.605 27.7087C176.577 30.5543 179.952 32.3742 183.412 32.4581C184.362 32.4812 185.326 32.3825 186.255 32.5816C187.579 32.8653 188.697 33.72 189.914 34.3148C191.131 34.9096 192.674 35.2178 193.78 34.4362C186.881 27.4305 175.601 25.1775 166.542 28.9959C166.402 29.055 166.235 29.1637 166.268 29.3125C166.794 31.7173 169.006 33.2955 170.874 34.8974C175.107 38.5267 178.207 43.2802 182.045 47.3257C183.215 48.5598 184.696 49.8163 186.386 49.6285C188.804 49.3599 191.282 49.6384 193.58 50.4373C194.59 50.7887 195.58 51.2424 196.642 51.3742C198.826 51.6454 201.044 50.5237 203.197 50.9796C203.824 51.1122 204.423 50.5315 204.544 49.9022C204.665 49.273 204.441 48.6329 204.201 48.0389C202.319 43.387 199.187 39.2485 195.221 36.1757ZM154.566 75.6771C156.34 77.1277 159.04 76.6567 161.049 77.7578C162.024 78.2919 162.826 79.1914 163.914 79.4211C164.87 79.6231 165.88 79.2624 166.834 79.4729C167.741 79.673 168.451 80.3503 169.166 80.9431C172.006 83.2986 175.654 84.6607 179.342 84.7431C180.312 84.7647 181.099 85.4921 181.971 85.9163C182.844 86.3404 184.188 86.2677 184.449 85.3329C179.446 83.1103 174.713 80.3285 169.993 77.5531C160.222 71.8076 150.307 65.9482 142.545 57.6852C142.823 59.4607 143.101 61.2362 143.379 63.0117C143.726 65.2231 144.074 67.4438 144.737 69.5817C147.361 78.0433 154.774 84.3929 163.019 87.6251C166.662 89.0531 170.637 89.966 174.488 89.2781C172.066 88.7275 170.581 86.2973 168.429 85.056C166.208 83.7747 163.256 83.748 161.507 81.8732C159.38 79.5948 155.092 79.6602 153.92 76.7722C153.701 76.2321 154.115 75.3082 154.566 75.6771ZM152.974 49.0209C152.822 50.2618 153.35 51.5652 154.324 52.3489C154.788 52.7225 155.353 52.9944 155.695 53.4832C156.099 54.0624 156.088 54.8999 155.668 55.468C154.962 56.4231 153.522 56.3833 152.379 56.0617C151.751 55.8848 151.127 55.6459 150.616 55.239C149.938 54.6989 149.515 53.9116 149.02 53.1996C147.952 51.6629 146.48 50.4106 144.792 49.6041C144.738 50.9718 145.685 52.1538 146.604 53.1674C150.606 57.5781 155.091 61.525 159.714 65.2775C161.224 66.5029 162.751 67.7094 164.345 68.8234C170.186 72.9062 176.822 75.6778 183.4 78.4179C185.778 79.4084 188.156 80.399 190.534 81.3895C190.862 81.5263 191.213 81.6659 191.563 81.6039C191.942 81.5369 192.237 81.2502 192.506 80.976C194.429 79.0144 196.283 76.9851 198.064 74.8933C198.15 74.7925 198.24 74.6783 198.236 74.546C198.23 74.3688 198.061 74.2477 197.909 74.1555C195.418 72.638 192.927 71.1205 190.436 69.603C189.988 69.3303 189.522 69.051 189.001 68.9951C188.379 68.9284 187.775 69.1875 187.163 69.3104C183.347 70.0756 180.155 65.6326 176.268 65.7965C174.986 65.8505 173.784 66.4108 172.524 66.649C171.264 66.8871 169.756 66.6941 169.043 65.6282C168.63 65.0108 168.571 64.232 168.379 63.5144C168.187 62.7968 167.748 62.0371 167.018 61.903C166.66 61.8373 166.294 61.9365 165.93 61.9544C164.496 62.0253 163.305 60.8463 162.574 59.6095C161.844 58.3726 161.345 56.9605 160.308 55.9671C159.127 54.8364 157.387 54.3905 156.315 53.1564C155.228 51.9054 155.016 50.0526 153.869 48.8565C153.67 48.649 153.333 48.4628 153.12 48.6549C153.02 48.7446 152.99 48.8876 152.974 49.0209ZM185.786 63.7894C185.643 62.9149 186.731 62.269 186.775 61.384C186.83 60.2939 185.376 59.8211 184.295 59.9638C183.256 60.1007 182.249 60.4774 181.376 61.0561C180.369 61.7229 179.001 62.653 178.146 61.7996C177.922 61.5752 177.804 61.2672 177.708 60.9647C177.097 59.0454 177.107 56.9337 177.735 55.0201C178.047 54.0695 177.43 53.0134 176.576 52.4937C175.721 51.9739 174.688 51.8629 173.693 51.7641C173.061 51.7014 172.374 51.6514 171.842 51.9975C171.31 52.3436 171.135 53.2568 171.679 53.5826C172.471 54.0562 172.791 55.1797 172.368 55.9999C171.254 56.8311 169.689 56.4681 168.358 56.0693C167.327 55.7604 166.295 55.4514 165.264 55.1424C164.511 54.917 163.717 54.6653 163.201 54.0721C162.194 52.9124 162.513 50.7631 161.138 50.0794C160.768 49.8958 160.338 49.8664 159.965 49.6901C158.099 48.8076 158.929 45.2143 156.965 44.582C153.851 43.5798 152.09 39.6144 153.435 36.631C149.934 40.0453 147.008 44.0477 144.816 48.4198C146.818 49.1222 148.598 50.4428 149.852 52.1551C150.48 53.0128 151.009 53.996 151.909 54.561C152.81 55.126 154.251 55.0168 154.658 54.035C153.464 53.7358 152.596 52.6849 152.076 51.5688C151.719 50.803 151.483 49.9454 151.634 49.1142C151.786 48.283 152.401 47.4981 153.233 47.3501C154.339 47.1532 155.338 48.0943 155.84 49.0995C156.343 50.1048 156.572 51.2543 157.245 52.1545C157.925 53.0646 158.973 53.6072 159.905 54.2565C161.316 55.2397 162.517 56.5236 163.404 57.9976C164.022 59.0237 164.605 60.2423 165.745 60.6064C166.79 60.9399 168.073 60.4511 168.943 61.1188C170.236 62.1115 169.396 64.7285 170.877 65.4097C171.528 65.7093 172.281 65.4221 172.963 65.2015C176.144 64.1727 179.796 64.7298 182.526 66.6605C183.249 67.1714 183.94 67.7866 184.8 67.9929C186.188 68.3256 187.603 67.5088 189.029 67.5646C190.675 67.6289 192.024 68.8113 193.341 69.8006C194.805 70.9006 196.398 71.829 198.077 72.5605C198.372 72.689 198.692 72.8139 199.007 72.7503C199.395 72.6721 199.669 72.3322 199.884 72.0004C200.475 71.0915 200.886 70.0669 201.089 69.0021C198.004 69.0607 194.483 68.9337 192.484 66.5824C191.51 65.4368 190.013 64.7549 188.51 64.7722C187.447 64.7844 185.957 64.8388 185.786 63.7894ZM140.948 42.5582C141.675 44.2285 142.401 45.8987 143.127 47.5689C143.216 47.773 143.382 48.0171 143.596 47.9571C143.722 47.9217 143.793 47.7919 143.851 47.6744C145.554 44.2213 147.724 40.999 150.282 38.1226C150.462 37.9203 150.195 37.6312 149.96 37.4967C149.263 37.0975 148.564 36.6975 147.828 36.3742C146.39 35.7423 144.82 35.4127 143.249 35.413C142.151 35.4132 140.914 35.6577 140.32 36.581C140.047 37.0055 139.951 37.52 139.914 38.0235C139.859 38.7701 139.922 39.5253 140.099 40.2526C140.293 41.0495 140.621 41.8061 140.948 42.5582ZM203.856 82.7113C205.047 82.2476 205.611 80.7961 205.443 79.5287C205.276 78.2613 204.543 77.1468 203.784 76.118C202.951 74.9885 202.062 73.9001 201.122 72.8584C198.869 76.0157 196.388 79.0093 193.703 81.8077C193.532 81.9862 193.614 82.3035 193.806 82.4594C193.998 82.6154 194.257 82.6527 194.503 82.6823C197.178 83.0047 199.882 83.0873 202.572 82.9288C203.007 82.9031 203.45 82.8695 203.856 82.7113ZM158.645 78.6106C160.205 78.9657 161.27 80.3648 162.596 81.2594C165.073 82.9304 168.532 82.8638 170.711 84.9082C171.382 85.5375 171.889 86.3357 172.616 86.8999C173.402 87.5107 174.386 87.8013 175.353 88.0361C177.313 88.5118 179.608 88.7363 181.136 87.419C181.222 87.3444 181.307 87.2629 181.354 87.159C181.594 86.6333 180.801 86.2718 180.226 86.2231C175.652 85.836 170.964 84.4604 167.672 81.2588C166.81 80.42 165.387 80.9287 164.193 80.7859C162.962 80.6386 161.962 79.7705 160.9 79.1293C159.421 78.236 157.7 77.7472 155.973 77.7295C156.53 78.5189 157.703 78.3961 158.645 78.6106Z" fill="white"/>
<path fill-rule="evenodd" clip-rule="evenodd" d="M91.6885 60.6439C91.1555 60.0759 91.0363 59.2496 90.7785 58.5144C89.9112 56.0407 87.3232 54.499 84.7314 54.1142C82.1396 53.7294 79.5111 54.2909 76.9511 54.8495C72.8708 55.7398 68.7906 56.63 64.7103 57.5203C60.9074 58.35 56.7041 59.4496 54.6292 62.7443C52.656 65.8775 53.2958 69.9225 54.0046 73.5573C55.7119 82.3126 57.4192 91.0679 59.1266 99.8232C59.3439 100.938 59.8399 102.311 60.9734 102.373C69.5816 102.844 77.1973 110.499 77.6282 119.114C83.1534 118.7 88.6138 117.432 93.7562 115.368C95.1689 114.801 96.6074 114.138 97.592 112.977C99.391 110.856 99.1932 107.744 98.8964 104.978C98.3512 99.8961 97.806 94.8137 97.2608 89.7313C93.9093 89.1376 90.5091 88.219 87.8005 86.1569C82.9239 82.4442 81.3104 75.073 84.1304 69.6299C86.9505 64.1868 93.8427 61.256 99.7357 62.9371C105.629 64.6182 109.928 70.689 109.627 76.8125C109.326 82.936 104.504 88.5311 98.5075 89.796C98.9921 93.8078 99.4767 97.8196 99.9613 101.831C100.307 104.692 100.651 107.604 100.148 110.442C99.3538 114.914 96.5494 118.737 93.7258 122.294C85.2527 132.97 75.0101 143.419 61.7153 146.403C56.8406 147.497 51.7884 147.518 46.7999 147.247C44.196 147.106 41.5653 146.88 39.0951 146.044C36.2871 145.094 33.797 143.392 31.4559 141.573C13.2009 127.39 2.11112 104.411 2.36218 81.2877C2.38863 78.8517 2.53228 76.3996 2.16573 73.9912C1.83225 71.8001 1.08171 69.686 0.795551 67.4882C0.184361 62.794 1.85084 57.8555 5.18086 54.4926C6.95592 52.7 7.62149 50.123 8.77255 47.8778C9.87409 45.7291 11.4658 43.8338 13.3915 42.378C15.5024 40.782 17.9722 39.7314 20.467 38.8498C33.2751 34.3235 47.5137 33.9522 60.5401 37.8047C73.5664 41.6573 85.3148 49.7142 93.6046 60.4802C93.3912 61.2295 92.2215 61.212 91.6885 60.6439ZM66.1493 112.441C65.391 111.21 64.6586 109.923 64.3976 108.501C64.1365 107.079 64.4245 105.479 65.468 104.479C65.0795 103.918 64.2845 103.68 63.6521 103.937C63.0196 104.193 62.6138 104.917 62.7251 105.59C62.9315 106.839 61.9327 108.156 60.6748 108.293C61.6099 106.954 62.0874 105.301 62.0104 103.67C62.0049 103.553 61.9916 103.425 61.9073 103.344C61.7286 103.172 61.4385 103.357 61.2827 103.55C60.3532 104.699 60.164 106.31 60.439 107.763C60.7139 109.215 61.3996 110.553 62.0771 111.867C64.3017 111.475 66.6641 113.268 66.8867 115.516C67.0796 117.465 68.7758 119.027 70.6623 119.548C72.5488 120.07 74.572 119.723 76.4325 119.116C73.3808 118.256 70.17 117.302 67.9981 114.992C67.2776 114.225 66.7012 113.336 66.1493 112.441ZM7.61155 66.5747C6.54094 62.6747 6.27714 58.5918 6.37346 54.5485C3.30146 57.8488 1.62983 62.4137 1.84363 66.9184C2.05743 71.4232 4.15386 75.809 7.5246 78.8032C8.584 79.7443 8.56809 81.3635 8.63461 82.7794C8.79605 86.2156 9.91497 89.5252 11.0234 92.7816C13.1653 99.0739 15.3357 105.428 18.8325 111.08C20.9885 114.564 24.1428 118.019 28.2347 118.208C32.6541 118.413 36.416 114.516 37.5993 110.251C38.7826 105.986 38.0056 101.453 37.2223 97.0962C36.365 92.3286 35.5078 87.561 34.6505 82.7935C34.5483 82.2249 34.4896 81.5321 34.9437 81.1753C37.7489 78.9714 38.9552 75.2024 38.8957 71.6344C38.8362 68.0665 37.6825 64.6182 36.5228 61.2437C35.9311 61.3528 35.8426 62.149 35.8457 62.751C35.8686 67.2547 32.9163 71.471 28.953 73.6066C24.9897 75.7422 20.1911 75.9738 15.812 74.9306C14.1523 74.5353 12.498 73.9462 11.1749 72.8685C9.27509 71.321 8.26037 68.9382 7.61155 66.5747ZM46.9235 128.524C45.2274 126.93 43.9991 124.908 42.8945 122.86C41.1189 119.566 39.6058 116.131 38.3743 112.598C37.1721 114.908 35.3262 116.879 33.1 118.228C30.5494 119.775 27.1718 119.404 24.5683 117.948C21.9647 116.493 20.01 114.113 18.3236 111.652C12.2868 102.843 8.93064 92.3851 7.54193 81.7954C7.4001 80.7139 7.23838 79.5441 6.47268 78.7676C5.70698 77.9911 4.11346 77.9982 3.74417 79.0245C3.66511 79.2443 3.65122 79.4812 3.63807 79.7144C3.41104 83.7417 3.18517 87.8003 3.74991 91.7943C4.02171 93.7164 4.47475 95.6079 4.94396 97.4916C6.66526 104.402 8.64163 111.326 12.0749 117.565C16.6174 125.819 23.4938 132.499 30.2669 139.046C32.7961 141.49 35.8615 144.122 39.3438 143.631C40.76 143.432 42.05 142.719 43.2463 141.935C47.358 139.239 50.7985 135.527 53.175 131.222C50.8487 131.256 48.6196 130.117 46.9235 128.524ZM40.7495 47.7757C37.866 44.8775 34.6378 42.2251 30.8645 40.6535C27.0912 39.0819 22.6999 38.6834 18.9262 40.2541C17.6274 40.7946 16.4277 41.5531 15.3115 42.4094C11.5235 45.3153 8.61289 49.5291 7.87265 54.2469C7.48148 56.74 7.69425 59.2864 7.99453 61.792C8.28389 64.2066 8.66734 66.6563 9.74161 68.8378C10.8159 71.0193 12.6904 72.9252 15.0565 73.482C18.7691 74.3556 22.7512 74.4424 26.3296 73.1222C29.9079 71.8019 33.0202 68.9422 34.0893 65.2793C34.8703 62.6032 34.5425 59.7356 34.9436 56.9768C35.1384 55.6371 35.5065 54.3227 36.0358 53.0768C36.5162 51.9459 37.1554 50.8409 38.133 50.0972C39.1107 49.3534 40.484 49.0368 41.5958 49.5589C41.7517 48.8881 41.2351 48.2638 40.7495 47.7757ZM82.8298 119.401C78.5723 120.086 74.3148 120.772 70.0572 121.458C67.1307 121.929 64.1604 122.401 61.215 122.068C58.2696 121.735 55.3005 120.488 53.5264 118.112C54.2627 120.991 55.8609 123.643 58.0617 125.638C58.6209 126.145 58.244 127.062 57.839 127.699C55.5413 131.312 53.2256 134.949 50.3003 138.075C47.3751 141.202 43.7709 143.822 39.6356 144.927C40.5037 145.444 41.4526 145.826 42.4371 146.053C43.8374 146.376 45.2884 146.386 46.7255 146.395C53.0279 146.433 59.4778 146.447 65.4225 144.353C70.6681 142.505 75.2102 139.121 79.6606 135.784C83.3159 133.044 87.1399 130.086 88.8207 125.836C90.4665 121.676 95.7129 119.581 96.7974 115.24C92.6265 117.795 87.6585 118.623 82.8298 119.401ZM40.0518 68.1876C40.6844 71.5337 40.4845 75.1524 38.8085 78.1164C37.8504 79.8109 36.4112 81.3221 36.1104 83.2456C35.9697 84.1451 36.095 85.0633 36.2411 85.9621C37.494 93.67 40.284 101.332 39.2862 109.078C39.0506 110.907 39.6925 112.726 40.3921 114.433C41.7322 117.701 43.3238 120.866 45.1483 123.89C46.6324 126.35 48.4293 128.848 51.1027 129.898C51.7879 130.167 52.5491 130.331 53.2594 130.138C54.5434 129.79 55.2437 128.443 55.7929 127.231C56.0684 126.623 56.33 125.863 55.9213 125.336C52.9462 121.494 50.9951 116.865 50.3218 112.052C50.1408 110.758 50.0461 109.434 49.5811 108.214C49.304 107.486 48.9018 106.814 48.5855 106.103C47.79 104.314 47.5582 102.335 47.3048 100.394C46.3452 93.0415 44.9447 85.7464 43.1135 78.5613C42.5719 76.4364 42.6228 74.2114 42.6772 72.0192C42.6954 71.285 42.7136 70.5508 42.7319 69.8166C42.8068 66.797 42.9224 63.6283 44.4544 61.0255C45.8085 58.7248 45.2091 55.7668 44.1189 53.3297C43.5127 51.9748 42.5393 50.525 41.0611 50.3967C39.5143 50.2625 38.2794 51.6472 37.5043 52.9932C36.5253 54.6934 35.8255 56.7986 36.6268 58.5896C38.0173 61.6978 39.4192 64.8415 40.0518 68.1876ZM41.8071 47.3172C44.0989 49.8568 45.9822 52.8976 46.5038 56.2791C46.6188 57.0243 47.1241 58.0531 47.788 57.6961C51.3159 55.7984 55.2704 54.8725 59.1721 53.9661C60.8407 53.5784 62.5093 53.1908 64.178 52.8032C69.6785 51.5253 75.2545 50.2395 80.8986 50.4165C77.9607 47.1293 74.1988 44.6733 70.2634 42.6876C60.1291 37.574 48.5351 35.3978 37.2374 36.4885C36.1594 36.5926 35.0826 36.7259 34.0237 36.953C31.716 37.4478 29.4825 38.3881 27.124 38.4744C32.7438 39.8939 37.923 43.013 41.8071 47.3172ZM47.3713 81.3406C48.7714 82.2186 51.2233 80.5488 52.0131 82.0009C50.1368 82.5016 48.217 82.8393 46.2825 83.0088C45.886 83.0436 45.8094 83.5879 45.8521 83.9838C46.1775 87.0053 46.8413 89.9903 47.827 92.8648C49.3809 92.2237 51.2398 92.988 52.3276 94.27C53.4154 95.552 53.8846 97.2391 54.2194 98.887C54.5075 100.305 54.7187 101.739 54.8517 103.18C55.0608 105.444 54.7664 108.249 52.6883 109.17C51.9302 109.505 52.0909 110.616 52.379 111.394C53.0558 113.221 53.7509 115.071 54.8912 116.651C57.9176 120.844 64.1403 122.335 68.737 119.968C65.4669 118.694 62.6938 116.187 61.0966 113.061C59.9943 110.904 59.4515 108.511 58.9307 106.145C56.6602 95.8289 54.6119 85.4643 52.7877 75.0602C52.346 72.5415 51.9159 69.9912 52.0938 67.4402C52.2716 64.8892 53.1182 62.2996 54.9133 60.4792C57.1585 58.2026 60.4842 57.4552 63.6152 56.8101C70.6217 55.3665 77.6283 53.9229 84.6349 52.4793C81.251 50.5127 77.0165 51.19 73.1731 51.927C65.8205 53.3368 58.4463 54.7521 51.3194 57.0455C50.0453 57.4554 48.7595 57.9037 47.6731 58.6856C44.3838 61.0528 43.8153 65.7083 44.1236 69.7503C44.1398 69.963 44.1713 70.2017 44.341 70.3308C44.4824 70.4383 44.6761 70.4347 44.8535 70.4263C46.3251 70.3567 47.7968 70.2871 49.2684 70.2175C50.7123 70.1491 51.5965 71.7701 51.9616 73.1694C52.4792 75.1533 52.6864 77.2178 52.5733 79.265C52.5492 79.7022 52.4844 80.1902 52.1414 80.4623C51.7984 80.7344 51.1282 80.5105 51.1986 80.0783C51.4065 78.802 51.47 77.5023 51.3876 76.2118C51.2925 74.7204 50.9586 73.1533 49.9292 72.0704C48.8998 70.9875 47.001 70.632 45.9166 71.6597C47.9676 74.3735 48.5341 78.1435 47.3713 81.3406ZM100.484 85.5854C100.888 83.6781 102.554 82.1049 104.48 81.8107C105.638 81.6339 106.562 80.6769 106.997 79.5893C107.432 78.5016 107.455 77.2963 107.403 76.1259C107.238 72.3892 106.197 68.4093 103.302 66.0423C100.163 63.4759 95.6539 63.4453 91.6808 64.2489C89.949 64.5992 88.1209 65.1624 87.0395 66.5602C86.3744 67.4201 86.0725 68.4984 85.7852 69.5469C85.1975 71.6911 84.6065 73.8562 84.4973 76.0769C84.3882 78.2975 84.7996 80.6094 86.066 82.4364C86.9479 83.7087 88.4273 84.7553 89.9514 84.4863C91.1458 84.2754 92.0429 85.4857 93.0499 86.162C94.4245 87.0853 96.2085 87.0364 97.862 86.9535C98.9257 86.9001 100.263 86.6277 100.484 85.5854ZM53.3085 102.678C53.1629 101.766 53.0173 100.853 52.8718 99.9396C52.5635 98.0062 52.2077 95.9661 50.9375 94.4767C50.4304 93.882 49.6074 93.3746 48.901 93.7084C48.1835 94.0474 48.0644 95.0039 48.0723 95.7977C48.1035 98.9366 48.5815 102.071 49.4873 105.076C49.7918 106.087 50.1578 107.106 50.8339 107.916C51.0017 108.117 51.1979 108.31 51.4476 108.389C51.9799 108.556 52.5254 108.146 52.8404 107.685C53.8108 106.266 53.5792 104.377 53.3085 102.678ZM75.2123 115.168C72.7358 114.493 70.5799 112.72 69.4383 110.42C69.0108 109.559 68.718 108.611 68.7374 107.65C68.7488 107.082 68.8667 106.498 68.7008 105.955C68.5348 105.412 67.9275 104.941 67.4135 105.183C67.1871 106.715 66.9736 108.348 67.6181 109.756C67.8401 110.241 68.1556 110.676 68.4693 111.108C69.4532 112.461 70.4508 113.82 71.687 114.946C72.9231 116.073 74.4288 116.965 76.0835 117.205C76.1118 116.405 75.9846 115.378 75.2123 115.168ZM66.3716 104.591C65.7628 104.989 65.5506 105.777 65.4784 106.501C65.2343 108.952 66.0766 111.454 67.5901 113.397C69.1036 115.34 71.251 116.74 73.5747 117.553C74.1445 117.753 74.7659 117.919 75.3444 117.747C73.7589 117.3 72.2814 116.474 71.0694 115.358C70.6094 114.934 70.1882 114.471 69.7699 114.006C68.6644 112.778 67.5581 111.511 66.8781 110.005C66.1185 108.322 65.9372 106.385 66.3716 104.591ZM46.3464 79.5348C46.6107 77.1479 46.0739 74.6791 44.8423 72.6179C43.9399 73.2448 43.9271 74.5512 44.0082 75.6473C44.1242 77.2159 44.2763 78.8834 45.2338 80.131C45.335 80.2628 45.4553 80.3954 45.6168 80.4342C46.0439 80.5367 46.298 79.9714 46.3464 79.5348ZM70.3817 110.61C71.3946 112.327 73.0205 113.673 74.8957 114.347C75.0101 114.389 75.1481 114.424 75.2445 114.35C75.3197 114.292 75.3398 114.188 75.3426 114.093C75.361 113.466 74.8662 112.931 74.3163 112.628C73.7663 112.326 73.1417 112.182 72.5868 111.889C71.2422 111.179 70.4526 109.547 70.73 108.052C70.8511 107.399 70.4374 106.688 69.81 106.472C69.2382 107.8 69.647 109.365 70.3817 110.61ZM64.9008 113.376C64.247 112.963 63.4393 112.87 62.7547 112.511C62.4934 112.374 62.1772 112.709 62.2433 112.997C62.3095 113.285 62.609 113.462 62.8992 113.515C63.1893 113.568 63.4892 113.533 63.7815 113.573C64.8276 113.716 65.5497 114.982 65.1405 115.956C64.9834 116.33 65.3569 116.807 65.7573 116.743C66.3807 115.628 65.981 114.057 64.9008 113.376ZM73.3192 110.139C72.791 109.447 72.2581 108.749 71.6041 108.173C71.1839 109.788 72.5038 111.619 74.1681 111.73C74.3418 111.593 74.2166 111.317 74.0824 111.141C73.828 110.807 73.5736 110.473 73.3192 110.139ZM63.8921 114.982C64.0174 115.246 64.527 115.184 64.5105 114.892C64.2141 114.439 63.7236 114.119 63.1903 114.029C63.2057 114.439 63.4774 114.828 63.8565 114.983M60.2904 103.625C60.3027 103.42 60.0882 103.236 59.8879 103.278C59.7528 103.557 59.7793 103.908 59.9548 104.164C60.221 104.205 60.4518 103.855 60.3099 103.626M52.3433 115.302C52.3004 115.604 52.4265 115.924 52.6635 116.114C52.8622 115.836 52.6677 115.376 52.3296 115.325" fill="white"/>
<path fill-rule="evenodd" clip-rule="evenodd" d="M245.237 105.806C245.103 105.263 244.195 105.378 243.954 105.883C243.713 106.388 243.902 106.98 244.058 107.518C245.638 112.977 242.86 119.369 237.792 121.936C236.717 121.05 236.468 119.394 235.311 118.619C234.778 118.262 234.124 118.147 233.492 118.039C231.611 117.72 229.73 117.401 227.85 117.082C227.164 116.966 226.326 116.904 225.907 117.46C224.992 118.671 222.968 118.919 221.92 117.822C220.871 116.725 221.387 114.533 222.863 114.182C223.212 114.099 223.593 114.106 223.898 113.918C224.171 113.749 224.334 113.451 224.484 113.167C225.504 111.241 226.524 109.315 227.544 107.389C227.736 107.026 227.931 106.653 227.979 106.245C228.076 105.413 227.547 104.644 226.98 104.029C226.412 103.414 225.757 102.825 225.501 102.028C225.244 101.231 225.613 100.158 226.44 100.031C230.778 99.3651 235.567 99.2313 239.161 101.751C239.777 102.182 240.378 102.699 241.119 102.825C241.859 102.952 242.767 102.459 242.735 101.709C242.69 100.652 240.944 99.9621 241.407 99.0114C241.507 98.8063 241.697 98.6624 241.88 98.5264C243.753 97.1345 245.626 95.7427 247.499 94.3509C247.8 93.4532 246.531 92.7598 245.617 93.0026C244.702 93.2454 243.967 93.9612 243.05 94.1944C241.195 94.6659 239.507 93.0686 238.302 91.5813C233.99 86.2582 230.325 80.4106 227.413 74.2085C227.28 73.9239 227.144 73.6126 227.211 73.3053C227.296 72.9105 227.678 72.6635 228.026 72.4601C231.064 70.6887 234.102 68.9173 237.139 67.1459C237.873 66.718 238.976 66.3664 239.429 67.0854C243.619 73.7429 247.808 80.4003 251.998 87.0577C252.197 87.3752 252.403 87.7104 252.426 88.0848C252.473 88.8545 251.754 89.4425 251.062 89.7817C250.37 90.121 249.575 90.4024 249.186 91.068C248.796 91.7335 249.28 92.8646 250.027 92.6751C254.01 90.5892 258.167 88.4554 262.66 88.3055C263.51 88.2772 264.421 88.3409 265.102 88.8512C266.617 89.9865 266.043 92.3743 265.168 94.0538C263.572 97.1183 261.454 99.9098 258.933 102.271C258.431 102.742 257.866 103.313 257.953 103.996C258.077 104.961 259.35 105.258 260.312 105.113C261.273 104.968 262.35 104.648 263.148 105.205C263.5 105.451 263.729 105.833 263.948 106.204C267.642 112.466 271.336 118.728 275.031 124.99C271.583 126.992 268.089 128.914 264.553 130.756C264.204 130.938 263.817 131.125 263.433 131.038C262.978 130.935 262.697 130.49 262.466 130.085C258.949 123.9 255.431 117.716 251.913 111.532C251.463 110.74 252.133 109.748 252.921 109.293C253.709 108.838 254.658 108.632 255.307 107.993C255.955 107.354 255.999 105.998 255.127 105.737C254.632 105.588 254.116 105.875 253.7 106.181C252.536 107.039 251.512 108.174 250.129 108.592C248.12 109.199 245.741 107.845 245.237 105.806ZM238.786 120.246C241.843 117.587 244.09 113.595 243.485 109.588C242.979 106.233 240.495 103.367 237.43 101.916C234.364 100.466 230.8 100.313 227.473 100.968C227.174 101.027 226.817 101.149 226.763 101.45C226.729 101.635 226.831 101.814 226.929 101.975C230.608 108.02 234.287 114.065 237.966 120.11C238.057 120.259 238.169 120.423 238.341 120.448C238.508 120.473 238.659 120.357 238.786 120.246ZM263.603 93.2752C261.941 92.8838 260.855 90.9035 261.417 89.2909C254.543 91.2744 248.119 94.8026 242.756 99.5401C244.206 102.195 245.897 104.718 247.801 107.067C247.998 107.31 248.218 107.564 248.521 107.638C248.85 107.718 249.186 107.565 249.488 107.411C255.279 104.467 260.241 99.9121 263.671 94.393C263.903 94.0199 264.03 93.3759 263.603 93.2752ZM240.641 85.0506C241.044 84.8042 241.493 84.4877 241.528 84.016C241.554 83.668 241.34 83.3529 241.135 83.0701C240.224 81.8091 239.313 80.548 238.402 79.287C238.143 78.9285 237.649 78.8061 237.211 78.8729C236.774 78.9396 236.379 79.1622 235.995 79.3809C235.697 79.55 235.361 79.9242 235.599 80.1701C236.883 81.4989 237.993 82.9963 238.891 84.6118C239.055 84.9062 239.24 85.2295 239.559 85.3371C239.925 85.4605 240.311 85.2517 240.641 85.0506ZM243.57 92.1973C243.985 92.3453 244.429 92.1136 244.808 91.8896C245.131 91.6984 245.49 91.4537 245.528 91.0798C245.554 90.8266 245.42 90.5877 245.291 90.3685C244.405 88.8653 243.519 87.362 242.633 85.8588C242.572 85.7547 242.502 85.6432 242.388 85.602C242.275 85.5608 242.149 85.6018 242.036 85.6454C241.57 85.8256 241.121 86.0538 240.701 86.3252C240.53 86.4355 240.354 86.5659 240.288 86.7586C240.212 86.983 240.307 87.2262 240.404 87.4424C241.081 88.9489 241.941 90.3726 242.961 91.6716C243.129 91.8856 243.314 92.1058 243.57 92.1973ZM225.195 113.984C225.161 114.045 225.126 114.108 225.117 114.178C225.093 114.376 225.3 114.54 225.499 114.548C225.698 114.555 225.884 114.454 226.057 114.356C227.6 113.484 229.142 112.611 230.685 111.739C230.926 111.603 231.193 111.429 231.231 111.155C231.26 110.94 231.136 110.739 231.017 110.558C230.504 109.778 229.991 108.999 229.477 108.219C229.397 108.097 229.31 107.97 229.178 107.908C228.817 107.738 228.463 108.144 228.268 108.492C227.244 110.323 226.219 112.154 225.195 113.984ZM232.467 113.228C232.397 113.118 232.323 113.003 232.209 112.939C232.046 112.847 231.844 112.879 231.661 112.919C229.694 113.349 227.848 114.316 226.375 115.688C226.638 115.886 226.981 115.932 227.308 115.972C229.531 116.243 231.754 116.514 233.976 116.785C234.22 116.815 234.574 116.745 234.544 116.501C233.852 115.41 233.159 114.319 232.467 113.228ZM232.305 71.7255C232.133 71.8544 231.948 72.0047 231.915 72.2169C231.893 72.3601 231.946 72.5031 231.997 72.6384C232.576 74.1463 233.155 75.6542 233.734 77.1622C233.859 77.4877 233.99 77.8231 234.234 78.0719C234.478 78.3207 234.868 78.4615 235.184 78.3146C235.624 78.1104 236.064 77.9061 236.503 77.7019C236.828 77.551 237.205 77.1605 236.946 76.9126C235.451 75.4783 234.325 73.6625 233.704 71.6857C233.621 71.4229 233.3 71.2989 233.028 71.3444C232.757 71.3899 232.525 71.5603 232.305 71.7255ZM237.64 86.8769C238.021 86.5932 238.115 86.0414 237.992 85.583C237.868 85.1245 237.569 84.7366 237.277 84.3621C236.48 83.3389 235.683 82.3157 234.886 81.2925C234.664 81.0073 234.433 80.7147 234.119 80.5366C233.804 80.3585 233.381 80.3217 233.097 80.5452C232.569 80.9606 232.888 81.8005 233.245 82.3703C233.936 83.4747 234.627 84.5791 235.318 85.6834C235.579 86.1009 235.852 86.5306 236.258 86.8081C236.665 87.0856 237.245 87.1712 237.64 86.8769ZM240.988 75.3404C241.633 75.4209 242.154 74.714 242.136 74.064C242.117 73.414 241.735 72.8379 241.367 72.3021C240.61 71.2008 239.853 70.0994 239.096 68.998C238.849 68.6382 238.511 68.2347 238.077 68.2883C237.696 68.3355 237.447 68.7479 237.444 69.1323C237.442 69.5168 237.622 69.8759 237.797 70.2179C238.484 71.5562 239.171 72.8944 239.857 74.2327C240.109 74.7224 240.442 75.2723 240.988 75.3404ZM253.328 111.129C253.282 111.274 253.349 111.428 253.414 111.565C254.081 112.965 254.748 114.365 255.415 115.764C255.614 116.182 256.077 116.459 256.538 116.436C257 116.414 257.434 116.094 257.592 115.659C257.819 115.032 257.491 114.352 257.172 113.766C256.599 112.713 256.026 111.66 255.453 110.607C255.275 110.279 254.83 110.177 254.471 110.275C254.111 110.374 253.816 110.626 253.534 110.87C253.449 110.943 253.361 111.022 253.328 111.129ZM259.971 114.884C260.241 114.75 260.526 114.602 260.674 114.34C260.923 113.896 260.677 113.348 260.431 112.902C259.852 111.852 259.266 110.806 258.673 109.764C258.43 109.338 258.149 108.88 257.686 108.717C257.278 108.574 256.785 108.722 256.523 109.066C256.261 109.41 256.249 109.924 256.495 110.279C257.44 111.645 258.17 113.159 258.654 114.748C258.801 115.232 259.518 115.108 259.971 114.884ZM228.678 74.0435C228.705 74.4384 228.922 74.7914 229.133 75.1264C229.983 76.4783 230.834 77.8302 231.684 79.182C231.75 79.2872 231.817 79.3939 231.91 79.4769C232.132 79.6766 232.493 79.7003 232.739 79.5313C232.985 79.3622 233.093 79.0169 232.987 78.7375C232.327 77.002 231.667 75.2665 231.007 73.531C230.804 72.9961 230.18 72.659 229.622 72.782C229.063 72.9049 228.638 73.4725 228.678 74.0435ZM263.814 123.068C263.641 123.212 263.455 123.379 263.429 123.603C263.407 123.794 263.507 123.975 263.604 124.141C264.286 125.305 264.972 126.467 265.663 127.626C265.777 127.819 265.898 128.018 266.087 128.139C266.544 128.432 267.139 128.143 267.601 127.856C267.804 127.73 268.031 127.566 268.042 127.327C268.049 127.185 267.975 127.054 267.904 126.932C267.112 125.568 266.32 124.204 265.528 122.84C265.362 122.554 264.971 122.467 264.652 122.552C264.332 122.637 264.067 122.856 263.814 123.068ZM235.165 71.6075C235.549 73.3928 236.471 75.1383 238.01 76.1209C238.388 76.3626 238.964 76.52 239.226 76.1552C239.491 75.7868 239.157 75.2996 238.873 74.9464C237.742 73.5423 237.201 71.7667 236.685 70.0391C236.524 69.4984 235.656 69.5199 235.322 69.9743C234.987 70.4287 235.046 71.0558 235.165 71.6075ZM262.111 117.203C261.896 116.801 261.669 116.385 261.3 116.118C260.931 115.851 260.375 115.783 260.037 116.088C259.499 116.574 259.888 117.451 260.276 118.063C261.028 119.247 261.689 120.488 262.251 121.772C262.469 122.27 263.217 122.062 263.68 121.778C263.922 121.63 264.196 121.422 264.171 121.139C264.162 121.036 264.112 120.942 264.063 120.851C263.413 119.635 262.762 118.419 262.111 117.203ZM261.355 106.71C261.264 107.11 261.443 107.517 261.617 107.889C262.345 109.439 263.077 110.999 264.058 112.402C264.756 112.456 265.272 111.666 265.227 110.967C265.182 110.269 264.765 109.659 264.397 109.063C263.906 108.266 263.481 107.429 263.127 106.562C262.979 106.198 262.579 105.952 262.187 105.985C261.795 106.018 261.441 106.325 261.355 106.71ZM260.123 123.296C260.396 123.547 260.849 123.573 261.149 123.354C261.474 123.117 261.578 122.663 261.507 122.266C261.436 121.87 261.222 121.516 261.012 121.173C260.404 120.179 259.796 119.186 259.188 118.193C258.962 117.822 258.719 117.436 258.34 117.223C257.961 117.011 257.405 117.048 257.178 117.418C256.938 117.809 257.17 118.309 257.4 118.705C258.213 120.104 259.025 121.503 259.838 122.903C259.92 123.043 260.003 123.186 260.123 123.296ZM269.633 118.316C269.609 118.102 269.488 117.913 269.37 117.732C268.501 116.401 267.631 115.069 266.762 113.737C266.692 113.63 266.616 113.517 266.499 113.464C266.384 113.411 266.25 113.427 266.125 113.443C265.82 113.484 265.5 113.53 265.258 113.719C265.016 113.908 264.895 114.29 265.089 114.528C265.822 115.429 266.451 116.414 266.961 117.458C267.258 118.065 267.556 118.737 268.154 119.051C268.752 119.364 269.708 118.988 269.633 118.316ZM244.187 84.4707C243.858 84.8021 243.965 85.3551 244.133 85.7906C244.635 87.0948 245.466 88.242 246.287 89.3726C246.498 89.6629 246.72 89.9628 247.035 90.133C247.351 90.3033 247.79 90.3024 248.027 90.0328C248.353 89.6619 248.122 89.0877 247.88 88.6572C247.271 87.572 246.662 86.4869 246.053 85.4017C245.855 85.0475 245.644 84.6804 245.309 84.452C244.973 84.2237 244.472 84.1823 244.187 84.4707ZM271.122 124.632C271.393 125.083 271.827 125.604 272.332 125.452C272.771 125.319 273.027 124.705 273.482 124.767C272.83 123.626 272.178 122.485 271.526 121.345C271.264 120.885 270.979 120.404 270.518 120.145C270.056 119.887 269.364 119.962 269.13 120.437C268.915 120.875 269.173 121.389 269.424 121.808C269.99 122.749 270.556 123.69 271.122 124.632ZM246.735 81.6457C246.112 80.277 245.376 78.9594 244.539 77.7101C244.318 77.3815 244.091 77.0576 243.864 76.7338C243.678 76.4689 243.477 76.1917 243.181 76.0619C242.825 75.9061 242.371 76.0187 242.129 76.3227C241.888 76.6267 241.88 77.0945 242.111 77.4064C243.015 78.6248 243.92 79.8431 244.824 81.0614C245.061 81.3812 245.313 81.7135 245.674 81.8822C246.035 82.051 246.536 81.9907 246.735 81.6457ZM250.805 88.3045C250.913 88.2411 251.031 88.1653 251.062 88.0434C251.094 87.9148 251.016 87.7871 250.941 87.6775C249.973 86.2523 249.006 84.8271 248.038 83.4018C247.846 83.1192 247.591 82.8036 247.25 82.824C246.919 82.8438 246.691 83.1988 246.688 83.5302C246.686 83.8616 246.847 84.1693 247.004 84.4611C247.388 85.1734 247.772 85.8858 248.155 86.5982C248.606 87.4346 249.079 88.298 249.837 88.8696C250.16 88.6812 250.482 88.4928 250.805 88.3045ZM264.271 115.465C264.036 115.118 263.714 114.729 263.298 114.778C262.924 114.821 262.68 115.23 262.686 115.607C262.692 115.984 262.879 116.331 263.061 116.661C263.585 117.61 264.109 118.559 264.632 119.508C264.905 120.002 265.308 120.569 265.869 120.511C266.366 120.461 266.678 119.897 266.638 119.399C266.597 118.901 266.308 118.463 266.027 118.05C265.442 117.188 264.856 116.326 264.271 115.465ZM261.187 124.67C260.806 125.117 261.07 125.798 261.36 126.309C261.813 127.108 262.298 127.889 262.813 128.649C263.017 128.95 263.244 129.263 263.581 129.4C263.946 129.548 264.401 129.439 264.658 129.14C264.916 128.841 264.958 128.375 264.757 128.035C264.288 127.24 263.819 126.444 263.349 125.649C263.112 125.247 262.861 124.831 262.467 124.582C262.072 124.333 261.49 124.316 261.187 124.67ZM239.47 77.6184C239.153 77.9664 239.426 78.5156 239.704 78.8964C240.673 80.2265 241.642 81.5566 242.611 82.8867C242.815 83.1679 243.069 83.4763 243.416 83.4895C243.854 83.5061 244.166 83.0055 244.123 82.569C244.08 82.1326 243.797 81.7622 243.526 81.4179C242.664 80.3253 241.803 79.2328 240.941 78.1403C240.757 77.9062 240.564 77.6649 240.298 77.53C240.032 77.3951 239.671 77.3982 239.47 77.6184ZM259.772 107.282C259.396 107.234 259.081 107.625 259.062 108.004C259.043 108.383 259.23 108.738 259.411 109.071C260.065 110.27 260.719 111.468 261.373 112.667C261.5 112.9 261.634 113.142 261.851 113.297C262.067 113.452 262.391 113.491 262.589 113.314C262.874 113.058 262.725 112.593 262.557 112.249C261.859 110.825 261.161 109.401 260.463 107.977C260.312 107.671 260.111 107.325 259.772 107.282ZM270.375 125.769C269.534 124.403 268.694 123.036 267.854 121.67C267.753 121.505 267.641 121.331 267.463 121.256C267.116 121.109 266.719 121.45 266.663 121.823C266.608 122.196 266.783 122.561 266.958 122.894C267.501 123.924 268.106 124.921 268.767 125.879C269.002 126.219 269.275 126.577 269.674 126.685C270.073 126.793 270.591 126.48 270.514 126.074C270.493 125.964 270.433 125.865 270.375 125.769ZM240.746 92.6494C240.963 92.9629 241.221 93.3035 241.597 93.3624C241.973 93.4213 242.384 92.957 242.136 92.6672C241.131 91.4899 240.276 90.1849 239.597 88.7935C239.415 88.4201 239.225 88.0169 238.864 87.8105C238.504 87.6042 237.927 87.7399 237.859 88.1499C237.819 88.3928 237.966 88.6233 238.106 88.8259C238.986 90.1004 239.866 91.3749 240.746 92.6494ZM262.514 90.2389C262.506 91.1342 263.248 91.9739 264.137 92.0756C264.283 92.0923 264.442 92.088 264.561 92.0025C264.678 91.9187 264.733 91.7748 264.781 91.6392C265.008 91.0064 265.142 90.1243 264.544 89.8181C264.297 89.692 263.998 89.7201 263.742 89.6129C263.564 89.538 263.41 89.3979 263.218 89.3713C262.799 89.3134 262.518 89.8164 262.514 90.2389ZM224.789 115.74C224.57 115.426 224.198 115.247 223.822 115.181C223.617 115.145 223.398 115.14 223.207 115.223C223.034 115.298 222.897 115.44 222.798 115.601C222.353 116.33 222.896 117.457 223.747 117.513C224.599 117.569 225.277 116.44 224.789 115.74ZM243.06 104.823C243.424 104.855 243.79 104.583 243.866 104.226C243.903 104.055 243.877 103.872 243.796 103.717C243.554 103.254 242.786 103.214 242.497 103.649C242.207 104.084 242.54 104.777 243.06 104.823ZM248.371 93.4408C248.5 93.5478 248.639 93.6594 248.805 93.6775C248.971 93.6957 249.163 93.5729 249.151 93.4061C248.592 92.7236 248.033 92.0412 247.475 91.3588C247.255 91.7102 247.317 92.1817 247.522 92.542C247.727 92.9022 248.053 93.1756 248.371 93.4408ZM257.031 106.005C257.251 106.257 257.704 105.942 257.682 105.609C257.66 105.275 257.377 105.027 257.115 104.819C256.854 104.611 256.57 104.364 256.545 104.03C256.044 104.583 256.542 105.443 257.031 106.005Z" fill="white"/>
</svg>
