<svg version="1.2" xmlns="http://www.w3.org/2000/svg" viewBox="0 0 1000 1000" width="1000" height="1000">
	<title>9589251-ai</title>
	<style>
		.s0 { fill: #edb9c6 } 
		.s1 { fill: #ecafc4 } 
		.s2 { fill: #eaa9c3 } 
		.s3 { fill: #ff5969 } 
		.s4 { fill: #441440 } 
		.s5 { fill: #7b3b78 } 
		.s6 { fill: #ffffff } 
		.s7 { fill: #ff8092 } 
		.s8 { mix-blend-mode: multiply;fill: #edd6d6 } 
		.s9 { opacity: .5;fill: #441440 } 
		.s10 { fill: #fbfaf6 } 
		.s11 { fill: #ff9493 } 
		.s12 { fill: #ff4242 } 
		.s13 { opacity: .6;fill: #e55757 } 
		.s14 { fill: #fff4f2 } 
	</style>
	<g id="BACKGROUND">
		<g id="&lt;Group&gt;">
		</g>
		<g id="&lt;Group&gt;" style="opacity: .8">
		</g>
		<g id="&lt;Group&gt;">
			<g id="&lt;Group&gt;">
				<path id="&lt;Path&gt;" class="s0" d="m838 676c0 153.1-101.8 282.4-241.4 324h-193.2c-139.6-41.6-241.4-170.9-241.4-324 0-186.7 151.3-338 338-338 186.7 0 338 151.3 338 338z"/>
			</g>
			<g id="&lt;Group&gt;">
				<path id="&lt;Path&gt;" class="s1" d="m754 676c0 140.3-113.7 254-254 254-140.3 0-254-113.7-254-254 0-140.3 113.7-254 254-254 140.3 0 254 113.7 254 254z"/>
			</g>
			<g id="&lt;Group&gt;">
				<path id="&lt;Path&gt;" class="s2" d="m682 676c0 100.5-81.5 182-182 182-100.5 0-182-81.5-182-182 0-100.5 81.5-182 182-182 100.5 0 182 81.5 182 182z"/>
			</g>
		</g>
	</g>
	<g id="OBJECTS">
		<g id="&lt;Group&gt;">
			<g id="&lt;Group&gt;">
				<g id="&lt;Group&gt;">
				</g>
			</g>
			<g id="&lt;Group&gt;">
				<g id="&lt;Group&gt;">
				</g>
			</g>
		</g>
		<g id="&lt;Group&gt;">
			<g id="&lt;Group&gt;">
			</g>
		</g>
		<g id="&lt;Group&gt;">
			<g id="&lt;Group&gt;">
				<g id="&lt;Group&gt;">
					<g id="&lt;Group&gt;">
						<path id="&lt;Path&gt;" class="s3" d="m446.2 310.1c-4.6-4.5-32.2-20.5-36.3-8.9-4.3 12.2 27.4 11.4 36.3 8.9z"/>
					</g>
					<g id="&lt;Group&gt;">
						<path id="&lt;Path&gt;" class="s3" d="m449.5 314.6c-1.2-9.3 2.6-31.2 13.4-28.4 13 3.3-10.1 25.7-13.1 29.3z"/>
					</g>
					<g id="&lt;Group&gt;">
						<path id="&lt;Path&gt;" class="s3" d="m457.6 325.1c-7.6-4.4-30.9-12.5-33.2-1.5-2.4 11.7 28.5 2.9 33.2 1.5z"/>
					</g>
					<g id="&lt;Group&gt;">
						<path id="&lt;Path&gt;" class="s3" d="m493.3 314.1c-1.6-5.9-18.1-19.7-22.5-11-4.7 9.3 16.6 11.6 21.6 11.3z"/>
					</g>
					<g id="&lt;Group&gt;">
						<path id="&lt;Path&gt;" class="s3" d="m496.2 301.4c5-7.8 15.5-22.5 21.5-18 9.1 6.8-12.7 16.4-21.2 18.8z"/>
					</g>
				</g>
				<g id="&lt;Group&gt;">
					<g id="&lt;Group&gt;">
						<path id="&lt;Path&gt;" class="s4" d="m434 273.5c9.2 21.3 9.2 59.8 42 55.5 1-0.2 0.7-1.7-0.3-1.6-31.5 4.2-31.5-34.2-40.3-54.6-0.4-1-1.8-0.2-1.4 0.7z"/>
					</g>
					<g id="&lt;Group&gt;">
						<path id="&lt;Path&gt;" class="s4" d="m486.8 272.2c4.1 9.7 8.7 20.1 8.6 30.7-0.1 12.6-8.8 20.3-19.9 24.6-1 0.4-0.2 1.8 0.7 1.4 10.9-4.2 19.9-11.9 20.7-24.2 0.7-11.5-4.3-22.8-8.7-33.2-0.4-0.9-1.8-0.2-1.4 0.7z"/>
					</g>
					<g id="&lt;Group&gt;">
						<path id="&lt;Path&gt;" class="s4" d="m445.8 309.1c-9.3 0-17.1-6.4-26.3-7.1-1.1-0.1-1.2 1.5-0.2 1.5 9.3 0.7 17 7.2 26.4 7.2 1 0 1.2-1.6 0.1-1.6z"/>
					</g>
					<g id="&lt;Group&gt;">
						<path id="&lt;Path&gt;" class="s4" d="m450.2 315.8c3-7.2 4.4-14.9 10.2-20.7 0.7-0.7-0.4-1.9-1.1-1.2-5.9 6-7.4 13.9-10.6 21.4-0.4 1 1.1 1.5 1.5 0.5z"/>
					</g>
					<g id="&lt;Group&gt;">
						<path id="&lt;Path&gt;" class="s4" d="m456.9 323.5c-7.7 1-15.3-1-23-0.5-1 0.1-1.1 1.6-0.1 1.6 7.8-0.5 15.6 1.5 23.4 0.4 1-0.1 0.7-1.7-0.3-1.5z"/>
					</g>
					<g id="&lt;Group&gt;">
						<path id="&lt;Path&gt;" class="s4" d="m493.7 313.3c-5.2-3.1-11.2-4.8-16.4-8-0.8-0.5-1.7 0.8-0.9 1.3 5.3 3.2 11.2 4.9 16.5 8 0.8 0.5 1.7-0.8 0.8-1.3z"/>
					</g>
					<g id="&lt;Group&gt;">
						<path id="&lt;Path&gt;" class="s4" d="m497 302.9c5.7-4.6 10.7-10.2 17.2-13.7 0.9-0.5 0.2-1.9-0.7-1.4-6.6 3.5-11.7 9.2-17.6 13.9-0.8 0.6 0.3 1.8 1.1 1.2z"/>
					</g>
				</g>
				<g id="&lt;Group&gt;">
					<g id="&lt;Group&gt;">
						<path id="&lt;Path&gt;" class="s5" d="m427.2 271c-3.9-2.5-15.1-9.6-7.4-15 6.8-4.9 11.6 7.2 12.9 11.4-1-5.1-1.1-17.4 7.4-16 7.1 1.3 2.5 10.5-1.8 16 4.4-3 17.4-7.9 17.3-0.1-0.2 5.4-11.8 6.4-15.8 5 6.8 2.3 15.7 7.5 9.7 12.8-4.7 4.1-11.5-3.8-14.3-9.8 3 7.2 3.3 15.6-3.8 16.2-7.4 0.7-5.3-10.2-1.6-15.3-4.3 3.2-14.9 9.9-16.8 2.1-1.5-6.3 8.6-7.6 14.2-7.3z"/>
					</g>
					<g id="&lt;Group&gt;">
						<path id="&lt;Path&gt;" class="s6" d="m434.5 267.7c2.7-0.4 4.5 2.8 3.9 4.8-0.8 2.9-4.1 3.7-6.3 3.1-2.7-0.8-3-4.6-1.6-6.2 1.1-1.3 2.8-1.6 4-1.7z"/>
					</g>
				</g>
				<g id="&lt;Group&gt;">
					<g id="&lt;Group&gt;">
						<path id="&lt;Path&gt;" class="s5" d="m492.3 264.8c1.4-4.3 5.5-16.7-3.9-16.2-8.5 0.4-4.3 12.8-2.6 16.9-2.6-4.6-10.5-14.3-16.1-7.9-4.7 5.4 4.8 9.7 11.6 11.3-5.2 0.4-18.6 4.6-13.4 10.6 3.6 4 13.3-2.3 15.5-5.9-3.8 6-7.4 15.6 0.7 15.9 6.3 0.3 6.5-10 4.8-16.3 2.3 7.4 7.5 14 13.4 10.2 6.2-4.1-2.5-11.2-8.6-13 5.4-0.1 17.9-1.4 14.3-8.7-2.9-5.8-11.5-0.6-15.7 3.1z"/>
					</g>
					<g id="&lt;Group&gt;">
						<path id="&lt;Path&gt;" class="s6" d="m485 267.2c-2 1.2-1.4 4.2 0.1 5.2 2 1.5 4.6 0.3 5.7-1.3 1.3-1.9-0.5-4.5-2.3-4.8-1.4-0.3-2.7 0.4-3.5 0.9z"/>
					</g>
				</g>
			</g>
			<g id="&lt;Group&gt;">
				<g id="&lt;Group&gt;">
					<g id="&lt;Group&gt;">
						<path id="&lt;Path&gt;" class="s7" d="m578.5 368h-71.7c-3.3-8.2-3.2-19 0.8-26.8-1.4-1.9-2.6-3.9-3.3-6.1-0.6-2-0.9-4-0.9-6.1 0.1-4.3 1.9-8.6 4.8-11.9-1.9-4.2-1-9.1 1.7-12.9q0.1-0.2 0.3-0.4c4.1-1.7 9.1-1.3 12.9 1 3.7 2.2 6.1 6 6.5 10.1q0 0.3 0 0.6 0.5-0.2 0.9-0.4c3.9-1.4 9.1-2.1 13.6-0.5 4 1.4 7 5.3 7.8 9.4q0 0.2 0.1 0.3 1-0.3 2-0.5c5.1-1 10.9 0.3 15 3.4 4.5 3.3 7.2 8.7 6.9 14.2q0 0.2 0 0.5 0.4 0.2 0.8 0.5 0 0 0 0 1.9 1.3 3.4 3c2.1 2.6 3.5 5.8 3.8 9 0.5 5-1.5 10.2-5.4 13.6z"/>
						<g id="&lt;Group&gt;">
							<path id="&lt;Path&gt;" class="s3" d="m525 323.3q-0.7 2.1-0.8 4.3c-0.1 0.5-0.9 0.5-0.8 0 0.2-4.8 2.5-9.4 6.2-12.7q0 0.3 0 0.6 0.5-0.2 0.9-0.4c-2.6 2.2-4.5 5.1-5.5 8.2z"/>
							<path id="&lt;Path&gt;" class="s3" d="m546.2 334.3c0 0.5-0.9 0.5-0.8 0 0.2-3.3 1.7-6.4 4.1-8.6q1.1-1 2.4-1.7 0 0.2 0.1 0.3 1-0.3 2-0.5c-1.4 0.6-2.7 1.4-3.9 2.4-2.3 2.1-3.7 5-3.9 8.1z"/>
							<path id="&lt;Path&gt;" class="s3" d="m562.5 341.4c4.4-1.2 9.1-1.3 13.4 0q0 0.2 0 0.5 0.4 0.2 0.8 0.5c-4.5-1.5-9.4-1.6-14-0.2-0.5 0.1-0.7-0.6-0.2-0.8z"/>
							<path id="&lt;Path&gt;" class="s3" d="m510.6 335.8c0.5-0.8 1.3-1.6 2.3-1.9 1.2-0.5 2.5-0.3 3.6 0.1 1.3 0.4 2.6 0.9 3.9 1.2q2 0.5 4.1 0.4c2.6-0.2 5.1-1 7.3-2.4 2.2-1.4 4-3.4 5.1-5.7 0.3-0.5 1-0.1 0.7 0.3-1.6 3.3-4.4 5.9-7.9 7.4 7.5 1.8 15.3 3.5 23 2.1 2.2-0.4 4.2-1.1 6.2-2 0.4-0.3 0.8 0.4 0.4 0.6-7.3 3.6-15.8 3-23.6 1.4-2.4-0.5-4.8-1.1-7.2-1.7q0 0-0.1 0-0.5 0.2-1 0.3c-2.5 0.6-5.1 0.6-7.6 0-1.3-0.3-2.5-0.9-3.7-1.3-1.3-0.3-2.6-0.4-3.7 0.3-2.5 1.8-1.7 5.1-0.5 7.3 0.3 0.4-0.4 0.8-0.7 0.3-1.1-2-1.8-4.5-0.6-6.7z"/>
						</g>
					</g>
					<g id="&lt;Group&gt;">
						<path id="&lt;Path&gt;" class="s7" d="m515.4 335.4c-0.8 2.1-1.9 4-3.3 5.8 4.1 7.8 4.2 18.6 0.9 26.8h-71.7c-1.7-1.4-3-3.2-3.9-5.1-1.3-2.6-1.8-5.6-1.5-8.5 0.5-4.7 3.1-9.3 7.2-12q0 0 0 0 0.3-0.2 0.6-0.4 0.1-0.1 0.2-0.1 0-0.3 0-0.5c-0.3-5.5 2.4-10.9 6.9-14.2 4.1-3.1 9.9-4.4 15-3.4q1 0.2 2 0.5 0-0.1 0.1-0.3c0.8-4.1 3.7-8 7.8-9.4 4.5-1.6 9.7-0.9 13.6 0.5q0.4 0.2 0.9 0.4 0-0.3 0-0.6c0.4-4.1 2.8-7.9 6.4-10.1 3.9-2.3 8.8-2.7 13-1q0.1 0.2 0.3 0.4c2.6 3.8 3.6 8.7 1.7 12.9 2.9 3.3 4.7 7.6 4.8 11.9 0 2.2-0.3 4.3-1 6.4z"/>
						<g id="&lt;Group&gt;">
							<path id="&lt;Path&gt;" class="s3" d="m494.8 323.3q0.7 2.1 0.8 4.3c0 0.5 0.8 0.5 0.8 0-0.2-4.8-2.5-9.4-6.2-12.7q0 0.3 0 0.6-0.5-0.2-0.9-0.4c2.5 2.2 4.5 5.1 5.5 8.2z"/>
							<path id="&lt;Path&gt;" class="s3" d="m473.6 334.3c0 0.5 0.8 0.5 0.8 0-0.2-3.3-1.7-6.4-4.2-8.6q-1-1-2.3-1.7-0.1 0.2-0.1 0.3-1-0.3-2-0.5c1.4 0.6 2.7 1.4 3.9 2.4 2.3 2.1 3.7 5 3.9 8.1z"/>
							<path id="&lt;Path&gt;" class="s3" d="m457.3 341.4c-4.4-1.2-9.1-1.3-13.4 0q0 0.2 0 0.5-0.4 0.2-0.8 0.5c4.5-1.5 9.4-1.6 14-0.2 0.5 0.1 0.7-0.6 0.2-0.8z"/>
							<path id="&lt;Path&gt;" class="s3" d="m509.2 335.8c-0.5-0.8-1.3-1.6-2.3-1.9-1.2-0.5-2.5-0.3-3.7 0.1-1.3 0.4-2.5 0.9-3.8 1.2q-2 0.5-4.1 0.4c-2.6-0.2-5.1-1-7.3-2.4-2.2-1.4-4-3.4-5.2-5.7-0.2-0.5-0.9-0.1-0.7 0.3 1.6 3.3 4.5 5.9 7.9 7.4-7.4 1.8-15.2 3.5-22.9 2.1-2.2-0.4-4.3-1.1-6.2-2-0.5-0.3-0.9 0.4-0.4 0.6 7.3 3.6 15.8 3 23.6 1.4 2.4-0.5 4.8-1.1 7.2-1.7q0 0 0 0 0.6 0.2 1.1 0.3c2.4 0.6 5.1 0.6 7.5 0 1.3-0.3 2.5-0.9 3.8-1.3 1.2-0.3 2.5-0.4 3.6 0.3 2.5 1.8 1.8 5.1 0.6 7.3-0.3 0.4 0.4 0.8 0.7 0.3 1.1-2 1.8-4.5 0.6-6.7z"/>
						</g>
						<path id="&lt;Path&gt;" class="s3" d="m514.9 322q-1.1-2.6-2.8-4.8 0.1-0.1 0.2-0.2c1.2-4.2 0.6-8.7-1.8-12.4-0.3-0.4-1 0-0.7 0.4 2.3 3.5 2.9 7.8 1.7 11.8q0 0.1 0 0.2c-0.2 0.1-0.3 0.2-0.1 0.5 4 5.1 5.2 12.1 3.4 18.3q-0.8 2.6-2.3 5c-0.2 0.4 0.5 0.8 0.7 0.3 3.7-5.7 4.2-12.9 1.7-19.1z"/>
					</g>
				</g>
				<path id="&lt;Path&gt;" class="s8" d="m578.5 368h-92.7q-24.2-2.5-48.4-5.1c-1.3-2.6-1.8-5.6-1.5-8.5 0.5-4.7 3.1-9.3 7.2-12q0 0 0 0 0.3-0.2 0.6-0.4c5.6 1.4 12 0.1 17.9-1.2 14-3 28.4-5.5 42.7-5.7q5.6-0.1 11.1 0.3 5.7 0.4 11.3 1.4c9.5 1.7 18.5 4.8 27.9 6.9 8.3 1.9 17 3 25.5 1.7 2.1 2.6 3.5 5.8 3.8 9 0.5 5-1.5 10.2-5.4 13.6z"/>
			</g>
			<g id="&lt;Group&gt;">
				<g id="&lt;Group&gt;">
					<g id="&lt;Group&gt;">
						<path id="&lt;Path&gt;" class="s5" d="m578 309.1c9.7-2.2 10.2-5.3 19.1-7.4 4.8-1.1 9.8-1.2 14.6 0.1 3.8 1.1 7.1 3 9.4 6.1-6.7 6.3-10.9 11-19.5 12.9-3.9 0.9-8.6 1.1-13.5-0.5-4.8-1.7-9.5-5.7-10.1-11.2z"/>
						<path id="&lt;Path&gt;" class="s5" d="m582.8 300.9c-9.3 1.7-18.4-4.9-21.2-14.6-1.3-4.6-1.1-9.6 0.7-13.8 1.8-4.2 4.9-7.8 9.8-9.5 6.1 14.5 8.8 24.9 10.7 37.9z"/>
						<path id="&lt;Path&gt;" class="s5" d="m549.3 355.5c-14.8-2.3-16.8-16.5-8.1-23.1 10.6 6.6 12.2 15.6 8.1 23.1z"/>
						<path id="&lt;Path&gt;" class="s5" d="m530.2 357.1c-6.2 3.5-14.3 1.8-19.6-5.8-6.9-9.7-3.1-19.5-1.2-27.6 5.4 0.3 9.3 3.3 12 6.6 3.4 4.1 5.8 9.5 6.1 16.1 0.1 2.5 0.9 5.6 2.7 10.7z"/>
						<path id="&lt;Path&gt;" class="s5" d="m528.7 383.8c-11.3 10.7-32.1-7.4-21.4-24.4 13.4 5.9 15.8 16.5 21.4 24.4z"/>
						<path id="&lt;Path&gt;" class="s5" d="m569.8 322.5c13.8-4.9 12.2-4.6 24 2.8-0.4 4-2.6 6.5-5.1 8.1-2.5 1.6-5.4 2.1-8.2 1.8-2.8-0.4-5.5-1.6-7.5-3.7-2.1-2.2-3.6-5.1-3.2-9z"/>
					</g>
				</g>
				<g id="&lt;Group&gt;">
					<g id="&lt;Group&gt;">
						<path id="&lt;Path&gt;" class="s4" d="m598.3 272.4c-23.3 44.2-58.7 82.3-68.3 132.9-0.4 2 2.7 2.8 3.1 0.8 9.5-50.3 44.8-88.1 68.1-132.1 0.9-1.8-1.9-3.4-2.9-1.6z"/>
					</g>
					<g id="&lt;Group&gt;">
						<path id="&lt;Path&gt;" class="s4" d="m538.1 309.6c-8.4 32-14.5 63.4-8.1 96.5 0.4 2 3.5 1.2 3.1-0.8-6.3-32.5-0.1-63.5 8.1-94.9 0.5-2-2.6-2.8-3.1-0.8z"/>
					</g>
					<g id="&lt;Group&gt;">
						<path id="&lt;Path&gt;" class="s4" d="m577.3 310.5c6.9 4.6 15 4 22.7 2.3 2.1-0.5 1.2-3.6-0.8-3.1-7 1.5-14.1 2.2-20.4-2-1.7-1.2-3.3 1.6-1.5 2.8z"/>
					</g>
					<g id="&lt;Group&gt;">
						<path id="&lt;Path&gt;" class="s4" d="m583.6 299.5c-6.2-4.5-10.6-10.6-12.4-18.1-0.4-2-3.5-1.2-3.1 0.8 2 8.4 7 15 13.9 20.1 1.7 1.3 3.2-1.5 1.6-2.8z"/>
					</g>
					<g id="&lt;Group&gt;">
						<path id="&lt;Path&gt;" class="s4" d="m550.7 354.7c-1.9-3.7-4.2-7.3-5.7-11.2-0.8-1.9-3.9-1.1-3.1 0.8 1.7 4.2 4 8 6 12 1 1.8 3.7 0.2 2.8-1.6z"/>
					</g>
					<g id="&lt;Group&gt;">
						<path id="&lt;Path&gt;" class="s4" d="m531 355.7c-8.9-3.8-11.7-11.3-14.2-19.9-0.6-2-3.7-1.2-3.1 0.8 2.7 9.4 6.1 17.8 15.7 21.9 1.9 0.8 3.5-2 1.6-2.8z"/>
					</g>
					<g id="&lt;Group&gt;">
						<path id="&lt;Path&gt;" class="s4" d="m529 382.3c-6.2-0.9-10.9-4.3-14.3-9.6-1.1-1.7-3.9-0.1-2.8 1.6 3.8 5.9 9.3 10.1 16.4 11.1 2 0.3 2.8-2.8 0.7-3.1z"/>
					</g>
					<g id="&lt;Group&gt;">
						<path id="&lt;Path&gt;" class="s4" d="m580.4 328.7c2 0.3 2.8-2.8 0.8-3.1-4-0.7-7.5-2.1-10.7-4.5-1.6-1.3-3.2 1.5-1.5 2.8 1.5 1.4 6.3 3.9 11.4 4.8z"/>
					</g>
				</g>
				<g id="&lt;Group&gt;">
					<path id="&lt;Compound Path&gt;" class="s6" d="m606.9 271c3.3-0.9 14.2-5.5 10.7-10.3-4-5.3-10.3 4.5-13.2 7 1.4-2.5 7.5-11.9 2.4-13.9-5.4-1.7-6.8 9-7.4 12.4 0.6-19.5-16.8-13.2-3.6 1.6-6.3-6.3-11.9-6.9-13.6-3.8-1.8 3.1 4 7.7 10.3 7.8-21.6 1.5-9.7 17.3 3.5 3.8-1.2 2-5.2 6.9-5.5 10.7q0 0 0 0c-0.1 1.4 0.4 2.6 1.7 3.5 5.1 3.6 7.5-5.1 8.5-11.2-0.6 5.1 1.2 16.5 6.6 13.3 4.5-2.9-0.7-11.1-2.7-13.9 3.4 4.2 10.1 10.5 13.7 6.6 3-4.7-6.4-8.6-10.1-9.9 3.7 1 13.2 2.5 12.9-2.1-0.3-6.3-11.3-1.8-14.2-1.6z"/>
					<g id="&lt;Group&gt;">
						<path id="&lt;Path&gt;" class="s3" d="m603.8 268.4c6.3 3.2 0.7 12.9-5.7 8.4-5.6-4-0.3-11.8 5.7-8.4z"/>
					</g>
				</g>
				<g id="&lt;Group&gt;">
					<path id="&lt;Compound Path&gt;" class="s6" d="m547.5 305c0.8-1 2.5-2.6 4-4.5 1.1-1.5 2.1-3 2.6-4.5 0.5-1.6 0.3-3.2-1.2-4.3-3.1-2-6 2.4-7.9 6.1-0.8 1.7-1.4 3.2-1.8 4.1 0.1-0.9 0.4-2.2 0.7-3.7 0.7-2.8 1.3-6.2 0.7-8.5-0.4-1.6-1.4-2.7-3.6-2.7-1 0-1.7 0.3-2.2 0.9-1.1 1.1-1.4 3.1-1.4 5.3 0 0.5 0.1 1.1 0.1 1.7q0.2 1.3 0.5 2.6c0.2 1 0.4 2 0.7 2.8 0.1 0.6 0.3 1.1 0.5 1.5-0.2-0.3-0.5-0.8-0.7-1.4-0.3-0.7-0.7-1.5-1-2.4-0.4-0.8-0.8-1.7-1.2-2.6v-0.1c-0.3-0.4-0.5-0.9-0.8-1.4-1.5-2.6-3.5-4.4-6-2.7-1.4 0.9-1.4 2.4-0.7 4q0 0 0 0c0 0.2 0.2 0.4 0.3 0.6q0 0 0 0.1 0.1 0.2 0.3 0.5 0.3 0.6 0.9 1.3c1.1 1.6 2.6 3 3.8 4.1q0.3 0.3 0.6 0.6c0.3 0.2 0.6 0.5 0.9 0.7q-0.4-0.3-1-0.7-0.3-0.2-0.7-0.4c-1.7-1.1-4.2-2.5-6.4-3.2q-0.1 0-0.2 0c-1.3-0.4-2.5-0.5-3.5-0.3q-0.4 0.2-0.9 0.3-0.9 0.5-1.4 1.7-0.1 0.3-0.1 0.6c0 0.7 0.1 1.3 0.4 1.8 0.9 1.9 3.4 3.1 6.2 3.9 0.4 0.1 0.9 0.2 1.3 0.3 1.4 0.3 2.8 0.5 4.1 0.6q0.9 0.1 1.7 0.1c-0.4 0.1-1.2 0-2 0-1.5 0.2-3.4 0.4-5.3 0.8q0 0 0 0c-3 0.8-5.8 2.3-5.7 5.2 0.1 0.2 0.1 0.4 0.1 0.6q0.2 0.9 0.7 1.4c2.7 2.9 11.1-1.8 14.1-4.8-10.8 10.9-6.1 14.3-2.8 14.1h0.1c1.3 0 2.4-0.9 3.4-2.2q0.3-0.3 0.5-0.7 0.1 0 0 0 0.1-0.1 0.1-0.1c1.8-2.9 2.9-7.1 3.6-8.8-3 18.8 16.6 19 5.2 0.8 3.8 4.9 10.9 6.8 12.3 3.6 1.5-3.2-2.4-7.4-11.2-8.9 19.8 2.1 14.5-15.8-0.7-3.8z"/>
					<g id="&lt;Group&gt;">
						<path id="&lt;Path&gt;" class="s3" d="m543.1 302.8c-6.4-3.2-10.8 7.1-3.4 9.5 3.1 1.1 5.6 0 6.5-3.2 0.9-2.8-0.5-5.1-3.1-6.3z"/>
					</g>
				</g>
			</g>
			<g id="&lt;Group&gt;">
				<path id="&lt;Path&gt;" class="s9" d="m873.8 918.7c0 33.9-167.4 61.3-373.9 61.3-206.6 0-374-27.4-374-61.3 0-33.8 167.4-61.2 374-61.2 206.5 0 373.9 27.4 373.9 61.2z"/>
				<g id="&lt;Group&gt;">
					<g id="&lt;Group&gt;">
						<g id="&lt;Group&gt;">
							<g id="&lt;Group&gt;">
								<path id="&lt;Path&gt;" class="s10" d="m431 774.8c0 0-21.8 24.2-69 39.8-47.2 15.5-143.5 29.2-124.2 95.6 19.2 66.5 154 37.9 154 37.9l152.8-27.9c0 0 198.8 54 236.7 0 37.9-54.1 0.6-86.4-46.6-103.8-47.2-17.4-141.7-39.7-141.7-39.7z"/>
							</g>
						</g>
						<g id="&lt;Group&gt;">
							<g id="&lt;Group&gt;">
								<path id="&lt;Path&gt;" class="s11" d="m507.4 848.4c0 0 3.6 47.4 23.2 74.2 0 0 109.7-24.3 135.1-39.6 25.4-15.3 1.7-16.3-27.1-21.1-28.7-4.8-65.1-12.3-80.2-17.3-10.1-3.4-51 3.8-51 3.8z"/>
							</g>
						</g>
						<g id="&lt;Group&gt;">
							<g id="&lt;Group&gt;">
								<path id="&lt;Path&gt;" class="s11" d="m414.5 854.9c0 0-43.8-41.6-38.5-50.3 5.3-8.7 70.5 11.8 88.2 14.6 17.7 2.8 35.4-0.6 41.9 5.9 6.5 6.5 9.6 22.4 9.6 22.4z"/>
							</g>
						</g>
						<g id="&lt;Group&gt;">
							<g id="&lt;Group&gt;">
								<path id="&lt;Path&gt;" class="s4" d="m530.6 923.5c-0.3 0-0.6-0.1-0.8-0.4-0.1-0.2-10.5-16.7-14.8-29.7-6.1-18.6-8.1-39.3-8.5-44-16.6 1.7-152.2 10.1-153.6 10.2-0.5 0-0.9-0.4-1-0.9 0-0.5 0.4-0.9 0.9-0.9 1.4-0.1 143.3-8.9 154.4-10.3q0.4 0 0.7 0.2c0.2 0.2 0.3 0.4 0.4 0.6 0 0.3 1.6 23.8 8.5 44.5 4.2 12.9 14.5 29.2 14.6 29.3 0.2 0.5 0.1 1-0.3 1.3q-0.2 0.1-0.5 0.1z"/>
							</g>
						</g>
						<g id="&lt;Group&gt;">
							<g id="&lt;Group&gt;">
								<path id="&lt;Path&gt;" class="s4" d="m676.9 874.2c-0.4 0-0.8-0.4-0.9-0.8-0.6-6-20.1-8.7-37.3-11.1-5.8-0.8-11.3-1.5-16.3-2.4-20.4-3.7-59.8-13-68.1-15.9-7.8-2.7-46.4 5.2-46.8 5.3-0.5 0.1-0.9-0.2-1-0.7-0.1-0.5 0.2-1 0.7-1.1 1.6-0.3 39.4-8.1 47.7-5.2 8.3 2.8 47.5 12.1 67.8 15.8 5 0.9 10.5 1.6 16.3 2.4 19.5 2.8 38 5.3 38.8 12.7 0.1 0.5-0.3 0.9-0.8 1q0 0-0.1 0z"/>
							</g>
						</g>
					</g>
					<g id="&lt;Group&gt;">
						<g id="&lt;Group&gt;">
							<g id="&lt;Group&gt;">
								<g id="&lt;Group&gt;">
									<path id="&lt;Path&gt;" class="s11" d="m387.2 560.8c0 0-31.7 82.6-45.4 125.5-13.6 42.9-14.3 54.7-44.1 83.2-29.8 28.6-78.9 58.4-78.9 58.4l29.9 49.7c0 0 86.3-44.1 125.4-88.2 39.2-44.1 62.1-118.6 62.1-118.6z"/>
								</g>
							</g>
							<g id="&lt;Group&gt;">
								<g id="&lt;Group&gt;">
									<g id="&lt;Group&gt;">
										<path id="&lt;Compound Path&gt;" fill-rule="evenodd" class="s11" d="m251.7 875.7q-1.1 0.8-2.5 1.6 0 0 0 0.1c-3.7 2.3-8.2 5.1-13.2 8-21.6 12.9-52 29.2-54.6 26.8-2.3-2.1-1.9-4.9-1.5-6.3 0.1-0.4 0.3-0.7 0.3-0.8-0.1 0-0.4 0.1-0.8 0.4-4 1.9-20.3 10-23.4 7.9-2.7-1.8-0.8-6.2 0.2-8.2 0.3-0.5 0.5-0.9 0.5-0.9 0 0-0.3 0.2-0.9 0.3-2.7 0.7-10.4 2.2-12.4-3.3-2.3-6.8 37.8-22.9 37.8-22.9 0 0-10.7-4.6-16.8-9.9-6.1-5.4-5.3-19.9 2.7-35.1q0.7-1.3 1.4-2.5 0.9-1.4 1.9-2.6c9.2-11.8 21.3-8.1 27.6-5 6.3 3.1 19.3 4 21.7 4.1q0.4 0 0.4 0l25.1 38.2zm-62.5-13.8c3.2 0.4 6.8-1.1 8.4-4 0.9-1.6 1.2-3.6 1-5.5-0.3-4.8-2.9-9.4-6.7-12.2-2.5-1.8-5.6-2.9-8.7-3.1-2.3-0.1-3.8 0-4.8 1.3-0.4 0.4-0.6 0.9-0.9 1.6q0 0.2-0.1 0.4c-1.7 5.7-0.5 12.2 3.4 16.7 2.1 2.5 5.1 4.5 8.4 4.8z"/>
									</g>
								</g>
								<g id="&lt;Group&gt;">
									<g id="&lt;Group&gt;">
										<g id="&lt;Group&gt;">
											<path id="&lt;Path&gt;" class="s4" d="m177.9 839.9q0 0 0 0c-2.8 0-5.5-1.3-7.3-3.5-1.7-2.1-2.4-5-1.9-7.8 0.1-0.5 0.5-0.8 1-0.7 0.5 0.1 0.9 0.6 0.8 1.1-0.5 2.2 0.1 4.5 1.6 6.3 1.4 1.7 3.6 2.8 5.8 2.8 0.5 0 0.9 0.4 0.9 0.9 0 0.5-0.4 0.9-0.9 0.9z"/>
										</g>
									</g>
									<g id="&lt;Group&gt;">
										<g id="&lt;Group&gt;">
											<path id="&lt;Path&gt;" class="s4" d="m180.2 905.9c-0.4 0-0.7-0.1-0.8-0.4-0.3-0.5-0.1-1 0.3-1.3 10.8-6 21.9-12 33-17.7 0.4-0.2 1 0 1.2 0.4 0.2 0.5 0.1 1-0.4 1.2-11.1 5.7-22.1 11.7-32.9 17.7q-0.2 0.2-0.4 0.1z"/>
										</g>
									</g>
									<g id="&lt;Group&gt;">
										<g id="&lt;Group&gt;">
											<path id="&lt;Path&gt;" class="s4" d="m156.7 905.4c-0.3 0-0.6-0.2-0.8-0.5-0.3-0.4-0.1-1 0.3-1.2 13.9-8.1 28.2-16 42.3-23.5 0.4-0.3 1-0.1 1.2 0.4 0.3 0.4 0.1 1-0.3 1.2-14.2 7.5-28.4 15.4-42.3 23.5q-0.2 0.1-0.4 0.1z"/>
										</g>
									</g>
									<g id="&lt;Group&gt;">
										<g id="&lt;Group&gt;">
											<path id="&lt;Path&gt;" class="s4" d="m217.2 888.6q-0.1 0-0.2-0.1c-7.9-2.5-15.7-5.7-23-9.5-0.5-0.2-0.7-0.8-0.4-1.2 0.2-0.5 0.7-0.7 1.2-0.4 7.3 3.7 14.9 6.9 22.7 9.4 0.5 0.1 0.8 0.7 0.6 1.1-0.1 0.4-0.5 0.7-0.9 0.7z"/>
										</g>
									</g>
								</g>
							</g>
						</g>
						<g id="&lt;Group&gt;">
							<g id="&lt;Group&gt;">
								<g id="&lt;Group&gt;">
									<path id="&lt;Path&gt;" class="s11" d="m634 560.8c0 0 31.7 82.6 45.4 125.5 13.7 42.9 14.3 54.7 44.1 83.2 29.8 28.6 78.9 58.4 78.9 58.4l-29.8 49.7c0 0-86.4-44.1-125.5-88.2-39.1-44.1-62.1-118.6-62.1-118.6z"/>
								</g>
							</g>
							<g id="&lt;Group&gt;">
								<g id="&lt;Group&gt;">
									<g id="&lt;Group&gt;">
										<path id="&lt;Compound Path&gt;" fill-rule="evenodd" class="s11" d="m877.8 901.3c-1.9 5.5-9.7 4-12.4 3.3-0.6-0.1-0.9-0.3-0.9-0.3 0 0 0.2 0.4 0.5 0.9 1 2 2.9 6.4 0.2 8.2-3.1 2.1-19.4-6-23.4-7.9-0.4-0.3-0.7-0.4-0.8-0.4 0.1 0.1 0.2 0.4 0.3 0.8 0.4 1.4 0.8 4.2-1.5 6.3-2.2 2-24.6-9.5-44.5-20.9-8.9-5.1-17.3-10.1-23.3-13.9q0-0.1 0-0.1-1.4-0.8-2.5-1.6l17-26 14.6-22.3q0 0 0.4 0c2.5-0.1 15.4-1 21.7-4.1 6.3-3.1 18.4-6.8 27.7 5q0.9 1.2 1.8 2.6 0.7 1.2 1.4 2.5c8.1 15.2 8.8 29.7 2.7 35.1-6.1 5.3-16.8 9.9-16.8 9.9 0 0 40.1 16.1 37.8 22.9zm-54.3-43.4c1.6 2.8 5.2 4.3 8.5 4 3.3-0.4 6.2-2.3 8.3-4.8 3.9-4.6 5.1-11.1 3.4-16.8q0-0.2-0.1-0.4c-0.2-0.7-0.5-1.2-0.8-1.6-1-1.3-2.5-1.4-4.9-1.2-3.1 0.1-6.2 1.2-8.7 3-3.8 2.8-6.4 7.4-6.7 12.2-0.1 1.9 0.1 3.9 1 5.6z"/>
									</g>
								</g>
								<g id="&lt;Group&gt;">
									<g id="&lt;Group&gt;">
										<g id="&lt;Group&gt;">
											<path id="&lt;Path&gt;" class="s4" d="m843.3 839.9c-0.5 0-0.9-0.4-0.9-0.9 0-0.5 0.4-0.9 0.9-0.9 2.2 0 4.4-1.1 5.9-2.8 1.4-1.8 2-4.1 1.5-6.3-0.1-0.5 0.3-1 0.8-1.1 0.5-0.1 0.9 0.2 1 0.7 0.6 2.8-0.2 5.7-1.9 7.8-1.8 2.2-4.5 3.5-7.3 3.5q0 0 0 0z"/>
										</g>
									</g>
									<g id="&lt;Group&gt;">
										<g id="&lt;Group&gt;">
											<path id="&lt;Path&gt;" class="s4" d="m841.1 905.9q-0.3 0.1-0.5-0.1c-10.8-6-21.9-12-32.9-17.7-0.5-0.2-0.6-0.7-0.4-1.2 0.2-0.4 0.8-0.6 1.2-0.4 11.1 5.7 22.2 11.6 33 17.7 0.4 0.3 0.6 0.8 0.4 1.3-0.2 0.3-0.5 0.4-0.8 0.4z"/>
										</g>
									</g>
									<g id="&lt;Group&gt;">
										<g id="&lt;Group&gt;">
											<path id="&lt;Path&gt;" class="s4" d="m864.5 905.4q-0.2 0-0.4-0.1c-13.9-8.1-28.1-16-42.2-23.5-0.5-0.2-0.7-0.8-0.4-1.2 0.2-0.5 0.8-0.7 1.2-0.4 14.2 7.5 28.4 15.4 42.3 23.5 0.4 0.2 0.6 0.8 0.3 1.2-0.1 0.3-0.5 0.5-0.8 0.5z"/>
										</g>
									</g>
									<g id="&lt;Group&gt;">
										<g id="&lt;Group&gt;">
											<path id="&lt;Path&gt;" class="s4" d="m804 888.6c-0.4 0-0.8-0.3-0.9-0.7-0.2-0.4 0.1-1 0.6-1.1 7.8-2.5 15.4-5.7 22.7-9.4 0.5-0.3 1-0.1 1.3 0.4 0.2 0.4 0 1-0.4 1.2-7.4 3.8-15.2 7-23.1 9.5q-0.1 0.1-0.2 0.1z"/>
										</g>
									</g>
								</g>
							</g>
						</g>
					</g>
					<g id="&lt;Group&gt;">
						<g id="&lt;Group&gt;">
							<g id="&lt;Group&gt;">
								<path id="&lt;Path&gt;" class="s11" d="m639 565.5c-1.2 11.8-40.4 117.4-42.9 140.4-2.4 23-3.1 70.8-3.1 70.8l-70.7 8.9h-23l-70.8-8.9c0 0-0.6-47.8-3.1-70.8-2.5-23-41.7-128.6-42.9-140.4-1-9.8 68.2-44.1 92.4-55.7 5.1-2.5 8.2-3.9 8.2-3.9l1.9-21.9 1.2-14.2 13.1-0.9v-1.5l11.5 0.8 11.5-0.8v1.5l13 0.9 1.1 13.4 2 22.7c0 0 3.7 1.7 9.8 4.7 25.6 12.3 91.8 45.4 90.8 54.9z"/>
							</g>
						</g>
						<g id="&lt;Group&gt;" style="opacity: .4">
							<g id="&lt;Group&gt;">
								<path id="&lt;Path&gt;" class="s12" d="m536.4 483.2q-2.6 2.7-5.8 4.9c-8.5 5.9-19.6 8.2-29.6 5.6-6.2-1.7-11.8-5.2-16-9.7l1.2-14.2 13.1-0.9v-1.5l11.5 0.8 11.5-0.8v1.5l13 0.9z"/>
							</g>
						</g>
					</g>
					<g id="&lt;Group&gt;">
						<g id="&lt;Group&gt;">
							<path id="&lt;Path&gt;" class="s4" d="m639 565.5c-1.2 11.8-40.4 117.4-42.9 140.4-2.4 23-3.1 70.8-3.1 70.8l-70.7 8.9-4.8 0.6c-4.5 0.5-9 0.5-13.5 0l-4.7-0.6-70.8-8.9c0 0-0.6-47.8-3.1-70.8-2.5-23-41.7-128.6-42.9-140.4-1-9.8 68.2-44.1 92.4-55.7 7.7 12.9 23.5 20.7 38.7 19.6 13.5-1 26-8.3 34.6-18.8 25.6 12.3 91.8 45.4 90.8 54.9z"/>
						</g>
					</g>
					<g id="&lt;Group&gt;">
						<g id="&lt;Group&gt;">
							<g id="&lt;Group&gt;">
								<g id="&lt;Group&gt;">
									<path id="&lt;Path&gt;" class="s11" d="m607.9 412.6c-2 3.4-4.7 6.5-8 8.6-5.6 3.6-12.7 4-19.3 4.1-1.1 0-2.2 0-3.3-0.1-2.6 12.7-6.9 26.6-10.4 32.6-4.4 7.3-16.4 13.3-31.2 16.8-15.6 3.7-34.3 4.6-50 1.5-9.8-1.8-18.5-5.3-24.6-10.5-8.5-7.2-14.6-19.8-18.9-33.7-1.3 0.1-2.5 0.1-3.7 0.1-6.9-0.1-14.2-0.5-20.1-4.2-3.4-2.3-6.1-5.5-8.2-9-3.3-5.4-5.3-11.7-4.5-17.8 0.4-3.4 1.7-6.7 3.8-9.3q0.5-0.7 1.1-1.4c1.5-1.6 3.4-3 5.5-3.8 4.4-1.7 9.4-1.2 13.9 0.3 1.2 0.4 2.3 0.9 3.4 1.4 0 0 0 0 0-0.1-0.7-5.7-1.2-10.9-1.5-15.2q-0.1-0.9-0.1-1.8c-0.5-6.6-0.5-10.6-0.5-10.6q0-2.6 0.1-5.2c5.3-0.5 11-1 17.2-1.3 7.5-0.5 15.5-0.9 24.1-1.1 9.9-0.3 20.5-0.5 31.5-0.5 23.7 0 45.7 0.8 63.5 2.1 6.2 0.5 11.8 1 16.9 1.5q0.2 2.2 0.2 4.5c0 2.9 0 6.3 0 9.8-0.1 4-0.4 8-1.2 11.1 0 0.5-0.1 1.1-0.1 1.7-0.1 0.4-0.1 0.7-0.1 1.1 1.7-0.9 3.4-1.7 5.4-2.4 4.3-1.5 9.1-1.9 13.4-0.3 5.6 2.2 9.2 8 10 14 0.7 5.9-1.2 11.9-4.3 17.1z"/>
								</g>
							</g>
						</g>
						<path id="&lt;Path&gt;" class="s13" d="m491 416.6c0.7 6.9-4.3 13-11.1 13.8-6.9 0.7-13.1-4.3-13.8-11.2-0.7-6.8 4.3-13 11.1-13.7 6.9-0.7 13.1 4.2 13.8 11.1z"/>
						<path id="&lt;Path&gt;" class="s13" d="m553.3 416.6c0.7 6.9-4.2 13-11.1 13.8-6.9 0.7-13-4.3-13.8-11.2-0.7-6.8 4.3-13 11.2-13.7 6.8-0.7 13 4.2 13.7 11.1z"/>
						<g id="&lt;Group&gt;">
							<g id="&lt;Group&gt;">
								<g id="&lt;Group&gt;">
									<path id="&lt;Path&gt;" class="s4" d="m503.7 406c0.4-1.1 1-2 1.5-2.7q1.9-2.7 4.2-4.9 0.4-0.3 0.8-0.3c0.3 0 0.6 0.1 0.7 0.4q0.3 0.3 0.3 0.8 0 0.5-0.4 0.8-2.1 2.1-3.9 4.5c-0.4 0.7-0.9 1.4-1.3 2.2-0.6 1.7-0.5 3.6 0.3 5.3 0.8 1.6 2.2 2.9 4 3.6q0.4 0.1 0.5 0.6c0.2 0.2 0.2 0.6 0.1 0.8-0.2 0.6-0.7 0.9-1.3 0.8l-0.2-0.1c-2.2-0.9-4-2.5-5-4.6-1.1-2.3-1.3-5-0.3-7.2z"/>
								</g>
							</g>
							<g id="&lt;Group&gt;">
								<g id="&lt;Group&gt;">
									<g id="&lt;Group&gt;">
										<path id="&lt;Path&gt;" class="s4" d="m480.5 399q-0.5-0.1-1-0.2c-4-1.1-7.6-4-9.4-7.7-0.5-0.9-0.1-1.9 0.8-2.4 0.8-0.4 1.9 0 2.3 0.8 1.4 2.9 4.1 5.1 7.2 5.9 3.1 0.8 6.5 0.2 9.1-1.6 0.8-0.5 1.9-0.3 2.5 0.5 0.5 0.8 0.3 1.8-0.5 2.4-3.2 2.2-7.2 3-11 2.3z"/>
									</g>
								</g>
								<g id="&lt;Group&gt;">
									<g id="&lt;Group&gt;">
										<path id="&lt;Path&gt;" class="s4" d="m540.7 399q0.5-0.1 1-0.2c4.1-1.1 7.6-4 9.4-7.7 0.5-0.9 0.1-1.9-0.7-2.4-0.9-0.4-2 0-2.4 0.8-1.4 2.9-4.1 5.1-7.2 5.9-3.1 0.8-6.5 0.2-9.1-1.6-0.8-0.5-1.9-0.3-2.4 0.5-0.6 0.8-0.4 1.8 0.4 2.4 3.2 2.2 7.2 3 11 2.3z"/>
									</g>
								</g>
							</g>
							<g id="&lt;Group&gt;">
								<path id="&lt;Path&gt;" class="s4" d="m510.6 435.6c-6.1 0-13.2-3.6-15.2-11.8-0.1-0.7 0.3-1.4 1-1.6 0.7-0.1 1.4 0.3 1.6 1 1.7 7.3 7.9 9.8 12.6 9.8 4.7 0 10.9-2.5 12.6-9.8 0.2-0.7 0.9-1.2 1.6-1 0.7 0.2 1.1 0.9 1 1.6-2 8.2-9.1 11.8-15.2 11.8z"/>
							</g>
						</g>
						<g id="&lt;Group&gt;">
							<g id="&lt;Group&gt;">
								<g id="&lt;Group&gt;">
									<g id="&lt;Group&gt;">
										<path id="&lt;Path&gt;" class="s4" d="m475.5 368.4c3.8-1.8 8-2.2 11.9-1.3 1 0.2 2 0.5 2.7 1.2 0.8 0.7 1.4 1.8 1.3 2.9 0 1.3-0.8 2.4-1.7 3.1-1 0.7-2.1 1.1-3.1 1.4-4.4 1.5-8.9 2.9-13.3 2.1-0.9-0.2-1.9-0.6-2.4-1.5-1.8-3.2 2.4-6.9 4.6-7.9z"/>
									</g>
								</g>
								<g id="&lt;Group&gt;">
									<g id="&lt;Group&gt;">
										<path id="&lt;Path&gt;" class="s4" d="m542.2 364.8c-3.8-0.9-7.9-0.6-11.6 0.8-0.9 0.4-1.9 0.8-2.6 1.5-0.7 0.7-1.1 1.8-1 2.7 0.2 1.1 1 2 2 2.4 1 0.5 2 0.6 3.1 0.7 4.4 0.6 8.9 1.1 13-0.4 0.9-0.3 1.9-0.8 2.3-1.6 1.5-3.1-2.9-5.6-5.2-6.1z"/>
									</g>
								</g>
							</g>
							<g id="&lt;Group&gt;">
								<g id="&lt;Group&gt;">
									<path id="&lt;Path&gt;" class="s4" d="m579.9 418q0 0-0.1 0c-0.4 0-0.8-0.4-0.8-0.9 0.4-7.5 3.2-14.9 8-20.6 4.8-5.8 11.5-10 18.8-11.7 0.5-0.1 0.9 0.2 1.1 0.7 0.1 0.4-0.2 0.9-0.7 1-6.9 1.6-13.3 5.6-17.9 11.1-4.5 5.5-7.2 12.4-7.5 19.6-0.1 0.4-0.4 0.8-0.9 0.8z"/>
								</g>
							</g>
							<g id="&lt;Group&gt;">
								<g id="&lt;Group&gt;">
									<path id="&lt;Path&gt;" class="s4" d="m434.1 425.4c-0.4 0-0.8-0.3-0.9-0.7-3.1-13.6-11.7-25.7-23.7-33-0.4-0.2-0.5-0.8-0.3-1.2 0.3-0.4 0.8-0.5 1.2-0.3 12.4 7.6 21.3 20 24.5 34.1 0.1 0.5-0.2 1-0.7 1.1q0 0-0.1 0z"/>
								</g>
							</g>
						</g>
						<g id="&lt;Group&gt;">
							<g id="&lt;Group&gt;">
								<path id="&lt;Path&gt;" class="s4" d="m452.3 372.6c-1.2 4-3.5 7.8-6.5 10.7-3.2 3.2-7.2 5.4-11.6 6.3q-0.5-0.7-0.8-1.5c-0.7-5.7-1.2-10.9-1.5-15.2q-0.1-0.9-0.1-1.8c-0.5-6.6-0.5-10.6-0.5-10.6q0-2.6 0.1-5.2c5.3-0.5 11-1 17.2-1.3 2.7 2.8 4.3 6.9 4.5 10.9q0 0.2 0 0.3c0.2 2.5-0.1 5-0.8 7.4z"/>
							</g>
						</g>
						<g id="&lt;Group&gt;">
							<g id="&lt;Group&gt;">
								<path id="&lt;Path&gt;" class="s4" d="m584.8 370.3c-0.1 4-0.4 8-1.2 11.1 0 0.5-0.1 1.1-0.1 1.7q-0.3 0.3-0.6 0.4-0.9 0.6-1.9 1.1c-3.2-2-6.5-4.1-9.3-6.7-1.9-1.7-3.5-3.7-4.8-5.9q-0.1 0-0.1-0.1c-3-5.4-3.3-12.9 0.9-17.4 6.2 0.5 11.8 1 16.9 1.5q0.2 2.2 0.2 4.5c0 2.9 0 6.3 0 9.8z"/>
							</g>
						</g>
						<g id="&lt;Group&gt;">
							<g id="&lt;Group&gt;">
								<g id="&lt;Group&gt;">
									<path id="&lt;Path&gt;" class="s4" d="m434.2 389.6l5.5 19.6 6.8-29z"/>
								</g>
							</g>
							<g id="&lt;Group&gt;">
								<g id="&lt;Group&gt;">
									<path id="&lt;Path&gt;" class="s4" d="m571.5 376.5l4.4 27.9 7.7-23-10.4-5.3-1-1.3z"/>
								</g>
							</g>
						</g>
					</g>
				</g>
			</g>
		</g>
		<g id="&lt;Group&gt;">
			<g id="&lt;Group&gt;">
				<g id="&lt;Group&gt;">
					<g id="&lt;Group&gt;">
					</g>
				</g>
			</g>
			<g id="&lt;Group&gt;">
				<g id="&lt;Group&gt;">
					<g id="&lt;Group&gt;">
					</g>
				</g>
			</g>
		</g>
		<g id="&lt;Group&gt;">
			<g id="&lt;Group&gt;">
				<path id="&lt;Path&gt;" class="s14" d="m401.7 508.9l-8.4 3.3c-3.7 1.4-6.6 4.3-8 7.9l-3.2 8.5-3.3-8.5c-1.4-3.6-4.3-6.5-8-7.9l-8.4-3.3 8.4-3.3c3.7-1.4 6.6-4.3 8-8l3.3-8.4 3.2 8.4c1.4 3.7 4.3 6.6 8 8z"/>
			</g>
			<g id="&lt;Group&gt;">
				<path id="&lt;Path&gt;" class="s14" d="m678.1 389.5l-8.4 3.3c-3.6 1.4-6.4 4.2-7.8 7.8l-3.3 8.4-3.2-8.4c-1.4-3.6-4.3-6.4-7.9-7.8l-8.4-3.3 8.4-3.2c3.6-1.4 6.5-4.3 7.9-7.9l3.2-8.4 3.3 8.4c1.4 3.6 4.2 6.5 7.8 7.9z"/>
			</g>
		</g>
		<g id="&lt;Group&gt;">
			<g id="&lt;Group&gt;">
				<g id="&lt;Group&gt;">
					<g id="&lt;Group&gt;">
						<path id="&lt;Path&gt;" class="s3" d="m114.3 651.6c4.3 0.1 7.7 3.5 10.4 6.8 7.2 8.9 12.9 19.2 21.5 26.7 8.2 7.2 18.9 11.5 29.7 12 7.6 0.4 15.1-0.9 22.5-2.3-5.3-17.8-14.4-34.7-30.5-44-5.6-3.2-12-5.5-18.5-5.7-5.9-0.2-11.8 1.3-17.6 2.9-4.8 1.2-12.8 2.3-17.5 3.6z"/>
					</g>
				</g>
				<g id="&lt;Group&gt;">
					<g id="&lt;Group&gt;">
						<path id="&lt;Path&gt;" class="s4" d="m112.9 652.3q0.3 0.2 0.6 0.2c3.5-0.5 7.1-1 10.6-1.1 13.3-0.5 27.6 3.8 40.3 12 10.9 7 20.8 16.8 30.4 29.8 0.2 0.4 0.7 0.5 1.1 0.2 0.3-0.3 0.4-0.7 0.1-1.1-9.6-13.2-19.7-23.1-30.8-30.2-12.9-8.4-27.5-12.7-41.1-12.2-3.6 0.1-7.2 0.6-10.7 1-0.5 0.1-0.8 0.4-0.7 0.9q0 0.3 0.2 0.5z"/>
					</g>
				</g>
			</g>
			<g id="&lt;Group&gt;">
				<g id="&lt;Group&gt;">
					<g id="&lt;Group&gt;">
						<path id="&lt;Path&gt;" class="s3" d="m112.8 285.4c1.1 4.2 5.3 6.7 9.2 8.4 10.4 4.8 21.8 7.7 31.2 14.2 9 6.2 15.8 15.4 19.1 25.7 2.3 7.2 2.9 14.9 3.4 22.4-18.6-0.7-37.2-5.3-50.3-18.5-4.5-4.7-8.3-10.2-10.1-16.5-1.7-5.7-1.7-11.8-1.6-17.8 0-4.9-1-12.9-0.9-17.9z"/>
					</g>
				</g>
				<g id="&lt;Group&gt;">
					<g id="&lt;Group&gt;">
						<path id="&lt;Path&gt;" class="s4" d="m113.1 284q0.3 0.2 0.3 0.5c0.5 3.5 0.9 7.1 1.7 10.6 2.8 12.9 10.5 25.7 21.6 35.9 9.6 8.8 21.5 16 36.5 22 0.4 0.1 0.6 0.6 0.5 1-0.2 0.4-0.6 0.6-1 0.4-15.2-6-27.3-13.3-37-22.2-11.4-10.5-19.2-23.5-22.1-36.8-0.8-3.5-1.3-7.1-1.7-10.7-0.1-0.4 0.2-0.8 0.6-0.8q0.4-0.1 0.6 0.1z"/>
					</g>
				</g>
			</g>
			<g id="&lt;Group&gt;">
				<g id="&lt;Group&gt;">
					<g id="&lt;Group&gt;">
						<path id="&lt;Path&gt;" class="s3" d="m870.6 645.3c-4.3-0.3-8 2.8-11 5.9-8 8.2-14.6 17.9-23.8 24.6-8.8 6.4-19.8 9.7-30.7 9.3-7.5-0.3-14.9-2.3-22.2-4.3 6.9-17.3 17.5-33.3 34.4-41.1 5.9-2.7 12.4-4.4 18.8-4 6 0.3 11.8 2.4 17.4 4.4 4.6 1.7 12.5 3.5 17.1 5.2z"/>
					</g>
				</g>
				<g id="&lt;Group&gt;">
					<g id="&lt;Group&gt;">
						<path id="&lt;Path&gt;" class="s4" d="m871.9 646.1q-0.3 0.2-0.6 0.1c-3.5-0.7-7-1.5-10.5-2-13.2-1.6-27.8 1.3-41.2 8.3-11.5 6.1-22.2 14.9-32.9 27-0.3 0.4-0.8 0.4-1.1 0.1-0.3-0.3-0.4-0.8-0.1-1.1 10.8-12.3 21.7-21.2 33.4-27.3 13.7-7.2 28.6-10.2 42.1-8.5 3.6 0.4 7.1 1.2 10.6 2 0.4 0.1 0.7 0.5 0.6 0.9q-0.1 0.3-0.3 0.5z"/>
					</g>
				</g>
			</g>
			<g id="&lt;Group&gt;">
				<g id="&lt;Group&gt;">
					<g id="&lt;Group&gt;">
						<path id="&lt;Path&gt;" class="s3" d="m832 292.5c4 1.4 6.2 5.7 7.7 9.8 4 10.7 6.2 22.2 12 32.1 5.5 9.4 14.2 16.8 24.3 20.8 7.1 2.8 14.6 3.9 22.1 5 0.6-18.7-2.7-37.5-15-51.5-4.3-4.9-9.6-9-15.7-11.2-5.6-2.1-11.7-2.5-17.7-2.9-4.9-0.3-12.8-1.8-17.7-2.1z"/>
					</g>
				</g>
				<g id="&lt;Group&gt;">
					<g id="&lt;Group&gt;">
						<path id="&lt;Path&gt;" class="s4" d="m830.5 292.7q0.2 0.3 0.5 0.4c3.5 0.6 7 1.3 10.4 2.3 12.7 3.8 24.9 12.3 34.4 24.1 8.1 10.2 14.4 22.6 19.4 38 0.1 0.4 0.5 0.6 0.9 0.5 0.4-0.2 0.7-0.6 0.5-1-4.9-15.6-11.4-28.2-19.6-38.4-9.6-12.1-22.1-20.8-35.2-24.6-3.4-1.1-7-1.8-10.5-2.5-0.4 0-0.8 0.2-0.9 0.6q-0.1 0.4 0.1 0.6z"/>
					</g>
				</g>
			</g>
			<g id="&lt;Group&gt;">
				<g id="&lt;Group&gt;">
					<g id="&lt;Group&gt;">
						<path id="&lt;Path&gt;" class="s3" d="m339.3 483.1c-4.1-1.2-8.4 1.1-11.9 3.6-9.4 6.5-17.8 14.7-28.2 19.5-9.9 4.6-21.3 5.7-31.8 3.2-7.4-1.8-14.2-5.2-21-8.6 10.2-15.6 23.6-29.2 41.7-33.6 6.3-1.5 13-1.9 19.3-0.3 5.8 1.5 11 4.6 16.2 7.8 4.2 2.5 11.6 5.8 15.7 8.4z"/>
					</g>
				</g>
				<g id="&lt;Group&gt;">
					<g id="&lt;Group&gt;">
						<path id="&lt;Path&gt;" class="s4" d="m340.4 484.1q-0.3 0.1-0.6 0c-3.2-1.4-6.5-2.9-9.9-4-12.6-4.2-27.5-4.1-42 0.1-12.4 3.7-24.7 10.3-37.5 20.1-0.4 0.3-0.9 0.2-1.1-0.1-0.3-0.4-0.2-0.9 0.1-1.1 13-10 25.5-16.6 38.1-20.3 14.8-4.4 30-4.5 42.9-0.2 3.4 1.2 6.8 2.6 10 4.1 0.4 0.1 0.6 0.6 0.4 1q-0.1 0.3-0.4 0.4z"/>
					</g>
				</g>
			</g>
			<g id="&lt;Group&gt;">
				<g id="&lt;Group&gt;">
					<g id="&lt;Group&gt;">
						<path id="&lt;Path&gt;" class="s3" d="m662.8 493.4c1.1 4.2 5.3 6.7 9.2 8.4 10.4 4.8 21.8 7.7 31.2 14.2 9 6.2 15.8 15.4 19.1 25.7 2.3 7.2 2.9 14.9 3.4 22.4-18.6-0.7-37.2-5.3-50.3-18.5-4.5-4.7-8.3-10.2-10.1-16.5-1.7-5.7-1.7-11.8-1.6-17.8 0-4.9-1-12.9-0.9-17.9z"/>
					</g>
				</g>
				<g id="&lt;Group&gt;">
					<g id="&lt;Group&gt;">
						<path id="&lt;Path&gt;" class="s4" d="m663.1 492q0.3 0.2 0.3 0.5c0.5 3.5 0.9 7.1 1.7 10.6 2.8 12.9 10.5 25.7 21.6 35.9 9.6 8.8 21.5 16 36.5 22 0.4 0.1 0.6 0.6 0.5 1-0.2 0.4-0.6 0.6-1 0.4-15.2-6-27.3-13.3-37-22.2-11.4-10.5-19.2-23.5-22.1-36.8-0.8-3.5-1.3-7.1-1.7-10.7-0.1-0.4 0.2-0.8 0.6-0.8q0.4-0.1 0.6 0.1z"/>
					</g>
				</g>
			</g>
		</g>
	</g>
	<g id="TEXT">
	</g>
</svg>