<svg version="1.2" xmlns="http://www.w3.org/2000/svg" viewBox="0 0 2240 2240" width="2240" height="2240">
	<title>Stack of money and gold coins 3d cartoon style icon-ai</title>
	<defs>
		<radialGradient id="g1" cx="0" cy="0" r="1" gradientUnits="userSpaceOnUse" gradientTransform="matrix(0,-642.627,642.627,0,1046.69,1562.925)">
			<stop offset=".114" stop-color="#729eb1"/>
			<stop offset=".942" stop-color="#abc0c3"/>
		</radialGradient>
		<clipPath clipPathUnits="userSpaceOnUse" id="cp1">
			<path d="m635.71 1746.42c5.13-18.7-6.48-37.49-35.24-52.59-61.59-32.34-176.09-41.08-268.89-12.08-52.62 16.45-78.04 38.66-78.97 60.7-0.12 0.32-1.85 4.5-1.71 9.39 0.12 4.83 1.45 42.4 1.72 48.77 0.7 15.95 14.18 31.69 39.48 44.97 61.59 32.34 167.77 43.46 260.57 14.46 58.29-18.22 86.48-44.44 84.14-69.43-0.56-5.97-0.97-31.57-1.1-44.19z"/>
		</clipPath>
		<radialGradient id="g2" cx="0" cy="0" r="1" gradientUnits="userSpaceOnUse" gradientTransform="matrix(392.818,0,0,392.818,443.796,1502.182)">
			<stop offset=".13" stop-color="#f6d246"/>
			<stop offset=".796" stop-color="#f6d246"/>
			<stop offset=".814" stop-color="#f2be39"/>
			<stop offset=".83" stop-color="#efac2d"/>
			<stop offset=".929" stop-color="#dd8523"/>
			<stop offset="1" stop-color="#efac2d"/>
		</radialGradient>
		<clipPath clipPathUnits="userSpaceOnUse" id="cp2">
			<path d="m635.71 1668.16c5.13-18.7-6.48-37.5-35.24-52.6-61.59-32.33-176.09-41.08-268.89-12.07-52.62 16.44-78.04 38.65-78.97 60.69-0.12 0.33-1.85 4.51-1.71 9.39 0.12 4.84 1.45 42.4 1.72 48.78 0.7 15.95 14.18 31.69 39.48 44.97 61.59 32.34 167.77 43.46 260.57 14.45 58.29-18.21 86.48-44.43 84.14-69.43-0.56-5.96-0.97-31.57-1.1-44.18z"/>
		</clipPath>
		<radialGradient id="g3" cx="0" cy="0" r="1" gradientUnits="userSpaceOnUse" gradientTransform="matrix(392.818,0,0,392.818,443.796,1423.917)">
			<stop offset=".13" stop-color="#f6d246"/>
			<stop offset=".796" stop-color="#f6d246"/>
			<stop offset=".814" stop-color="#f2be39"/>
			<stop offset=".83" stop-color="#efac2d"/>
			<stop offset=".929" stop-color="#dd8523"/>
			<stop offset="1" stop-color="#efac2d"/>
		</radialGradient>
		<radialGradient id="g4" cx="0" cy="0" r="1" gradientUnits="userSpaceOnUse" gradientTransform="matrix(419.684,0,0,419.684,405.096,1402.396)">
			<stop offset=".546" stop-color="#efac2d"/>
			<stop offset=".722" stop-color="#f8d54e"/>
			<stop offset=".968" stop-color="#fffda6"/>
		</radialGradient>
		<linearGradient id="g5" x2="1" gradientUnits="userSpaceOnUse" gradientTransform="matrix(-114.957,307.128,-589.562,-220.672,783.246,1610.136)">
			<stop offset=".128" stop-color="#dd8523"/>
			<stop offset=".511" stop-color="#efac2d"/>
			<stop offset="1" stop-color="#f8d54e"/>
		</linearGradient>
		<radialGradient id="g6" cx="0" cy="0" r="1" gradientUnits="userSpaceOnUse" gradientTransform="matrix(121.561,62.172,-62.172,121.561,438.972,1670.771)">
			<stop offset="0" stop-color="#f8d54e"/>
			<stop offset="1" stop-color="#efac2d"/>
		</radialGradient>
		<linearGradient id="g7" x2="1" gradientUnits="userSpaceOnUse" gradientTransform="matrix(8.314,84.328,-180.8,17.825,422.914,1630.331)">
			<stop offset="0" stop-color="#f8d54e"/>
			<stop offset=".746" stop-color="#c46700"/>
			<stop offset="1" stop-color="#dd8523"/>
		</linearGradient>
		<linearGradient id="g8" x2="1" gradientUnits="userSpaceOnUse" gradientTransform="matrix(6.262,63.51,-20.419,2.013,443.802,1635.908)">
			<stop offset="0" stop-color="#f8d54e"/>
			<stop offset=".746" stop-color="#c46700"/>
			<stop offset="1" stop-color="#dd8523"/>
		</linearGradient>
		<linearGradient id="g9" x2="1" gradientUnits="userSpaceOnUse" gradientTransform="matrix(8.705,88.294,-314.018,30.96,427.348,1609.632)">
			<stop offset="0" stop-color="#f8d54e"/>
			<stop offset=".746" stop-color="#c46700"/>
			<stop offset="1" stop-color="#dd8523"/>
		</linearGradient>
		<linearGradient id="g10" x2="1" gradientUnits="userSpaceOnUse" gradientTransform="matrix(7.957,80.708,-143.651,14.163,538.549,1616.296)">
			<stop offset="0" stop-color="#f8d54e"/>
			<stop offset=".746" stop-color="#c46700"/>
			<stop offset="1" stop-color="#dd8523"/>
		</linearGradient>
		<linearGradient id="g11" x2="1" gradientUnits="userSpaceOnUse" gradientTransform="matrix(279.422,-143.702,66.198,128.718,296.05,1697.356)">
			<stop offset="0" stop-color="#fffda6"/>
			<stop offset=".175" stop-color="#f8d54e"/>
			<stop offset=".692" stop-color="#efac2d"/>
			<stop offset="1" stop-color="#dd8523"/>
		</linearGradient>
		<linearGradient id="g12" x2="1" gradientUnits="userSpaceOnUse" gradientTransform="matrix(136.776,371.364,-226.02,83.244,1584.162,177.367)">
			<stop offset="0" stop-color="#fffda6"/>
			<stop offset=".353" stop-color="#f8d54e"/>
			<stop offset=".911" stop-color="#c46700"/>
			<stop offset="1" stop-color="#dd8523"/>
		</linearGradient>
		<radialGradient id="g13" cx="0" cy="0" r="1" gradientUnits="userSpaceOnUse" gradientTransform="matrix(169.209,96.658,-96.658,169.209,1432.659,454.073)">
			<stop offset=".042" stop-color="#efac2d"/>
			<stop offset=".4" stop-color="#f5c642"/>
			<stop offset=".791" stop-color="#f8d54e"/>
			<stop offset=".991" stop-color="#fffda6"/>
		</radialGradient>
		<linearGradient id="g14" x2="1" gradientUnits="userSpaceOnUse" gradientTransform="matrix(99.006,334.615,-160.897,47.607,1604.368,268.168)">
			<stop offset=".128" stop-color="#dd8523"/>
			<stop offset=".511" stop-color="#efac2d"/>
			<stop offset="1" stop-color="#f8d54e"/>
		</linearGradient>
		<radialGradient id="g15" cx="0" cy="0" r="1" gradientUnits="userSpaceOnUse" gradientTransform="matrix(135.478,77.373,-77.373,135.478,1436.391,383.851)">
			<stop offset="0" stop-color="#dd8523"/>
			<stop offset="1" stop-color="#efac2d"/>
		</radialGradient>
		<linearGradient id="g16" x2="1" gradientUnits="userSpaceOnUse" gradientTransform="matrix(-5.404,307.44,-242.224,-4.258,1554.287,354.048)">
			<stop offset="0" stop-color="#f8d54e"/>
			<stop offset=".746" stop-color="#c46700"/>
			<stop offset="1" stop-color="#dd8523"/>
		</linearGradient>
		<linearGradient id="g17" x2="1" gradientUnits="userSpaceOnUse" gradientTransform="matrix(-4.41,250.856,-121.732,-2.14,1633.18,355.478)">
			<stop offset="0" stop-color="#f8d54e"/>
			<stop offset=".746" stop-color="#c46700"/>
			<stop offset="1" stop-color="#dd8523"/>
		</linearGradient>
		<linearGradient id="g18" x2="1" gradientUnits="userSpaceOnUse" gradientTransform="matrix(106.382,183.284,-172.453,100.095,1616.988,274.796)">
			<stop offset="0" stop-color="#fffda6"/>
			<stop offset=".367" stop-color="#f8d54e"/>
			<stop offset=".692" stop-color="#efac2d"/>
			<stop offset="1" stop-color="#dd8523"/>
		</linearGradient>
		<clipPath clipPathUnits="userSpaceOnUse" id="cp3">
			<path d="m1849.98 1634.74c-369.99-0.83-750.54 89.54-1108.73 270.29-23.61 11.28-39.07 1.21-36.32-24.12q28.78-273.28 58.3-545.34c3.26-29.14 29.86-66.21 58.11-79.99 369.83-180.94 760.4-267.9 1137.03-259.86 26.3 0.58 43.82 20.59 40.05 45q-42.88 270.63-85.29 543.47c-4.24 27.99-33.82 51.33-63.15 50.55z"/>
		</clipPath>
		<linearGradient id="g19" x2="1" gradientUnits="userSpaceOnUse" gradientTransform="matrix(-197.695,729.397,-714.535,-193.667,1728.033,1043.766)">
			<stop offset="0" stop-color="#bbe4a7"/>
			<stop offset=".205" stop-color="#78c885"/>
			<stop offset=".525" stop-color="#78c885"/>
			<stop offset=".823" stop-color="#78c885"/>
			<stop offset="1" stop-color="#3d9c6c"/>
		</linearGradient>
		<linearGradient id="g20" x2="1" gradientUnits="userSpaceOnUse" gradientTransform="matrix(-145.459,667.802,-681.067,-148.348,1699.495,998.664)">
			<stop offset="0" stop-color="#bbe4a7"/>
			<stop offset=".139" stop-color="#78c885"/>
			<stop offset=".506" stop-color="#78c885"/>
		</linearGradient>
		<linearGradient id="g21" x2="1" gradientUnits="userSpaceOnUse" gradientTransform="matrix(1304.129,-253.447,126.554,651.195,781.695,1170.631)">
			<stop offset=".019" stop-color="#bbe4a7"/>
			<stop offset=".091" stop-color="#78c885"/>
			<stop offset=".868" stop-color="#78c885"/>
			<stop offset=".972" stop-color="#3d9c6c"/>
		</linearGradient>
		<clipPath clipPathUnits="userSpaceOnUse" id="cp4">
			<path d="m1802.85 1482.14l-1130.72 366.06c-24.94 7.41-43.83-5.15-44.21-29.4l-10.45-524.05c-0.44-28.05 23.8-60.76 52.82-71.28l1139.84-413.15c26.54-9.62 47.38 2.98 47.55 28.72l1.33 571.15c0.19 29.27-26.16 63.04-56.16 71.95z"/>
		</clipPath>
		<linearGradient id="g22" x2="1" gradientUnits="userSpaceOnUse" gradientTransform="matrix(-81.462,726.677,-780.186,-87.461,1521.238,967.895)">
			<stop offset="0" stop-color="#bbe4a7"/>
			<stop offset=".205" stop-color="#78c885"/>
			<stop offset=".525" stop-color="#78c885"/>
			<stop offset=".823" stop-color="#78c885"/>
			<stop offset="1" stop-color="#3d9c6c"/>
		</linearGradient>
		<linearGradient id="g23" x2="1" gradientUnits="userSpaceOnUse" gradientTransform="matrix(-40.296,655.214,-735.243,-45.218,1487.179,933.082)">
			<stop offset="0" stop-color="#bbe4a7"/>
			<stop offset=".139" stop-color="#78c885"/>
			<stop offset=".506" stop-color="#78c885"/>
		</linearGradient>
		<linearGradient id="g24" x2="1" gradientUnits="userSpaceOnUse" gradientTransform="matrix(1323.771,-475.799,219.155,609.736,603.545,1244.96)">
			<stop offset=".019" stop-color="#bbe4a7"/>
			<stop offset=".091" stop-color="#78c885"/>
			<stop offset=".868" stop-color="#78c885"/>
			<stop offset=".972" stop-color="#3d9c6c"/>
		</linearGradient>
		<clipPath clipPathUnits="userSpaceOnUse" id="cp5">
			<path d="m1749.19 1444.26l-1130.73 366.06c-24.93 7.41-43.82-5.15-44.2-29.4l-10.46-524.05c-0.44-28.05 23.81-60.76 52.82-71.28l1139.85-413.15c26.53-9.62 47.38 2.97 47.55 28.72l1.33 571.15c0.19 29.27-26.16 63.04-56.16 71.95z"/>
		</clipPath>
		<linearGradient id="g25" x2="1" gradientUnits="userSpaceOnUse" gradientTransform="matrix(-81.462,726.677,-780.186,-87.461,1467.573,930.013)">
			<stop offset="0" stop-color="#bbe4a7"/>
			<stop offset=".205" stop-color="#78c885"/>
			<stop offset=".525" stop-color="#78c885"/>
			<stop offset=".823" stop-color="#78c885"/>
			<stop offset="1" stop-color="#3d9c6c"/>
		</linearGradient>
		<linearGradient id="g26" x2="1" gradientUnits="userSpaceOnUse" gradientTransform="matrix(-40.296,655.214,-735.243,-45.218,1433.513,895.201)">
			<stop offset="0" stop-color="#bbe4a7"/>
			<stop offset=".139" stop-color="#78c885"/>
			<stop offset=".506" stop-color="#78c885"/>
		</linearGradient>
		<linearGradient id="g27" x2="1" gradientUnits="userSpaceOnUse" gradientTransform="matrix(1323.771,-475.799,219.155,609.736,549.879,1207.079)">
			<stop offset=".019" stop-color="#bbe4a7"/>
			<stop offset=".091" stop-color="#78c885"/>
			<stop offset=".868" stop-color="#78c885"/>
			<stop offset=".972" stop-color="#3d9c6c"/>
		</linearGradient>
		<clipPath clipPathUnits="userSpaceOnUse" id="cp6">
			<path d="m1695.52 1406.38l-1130.72 366.06c-24.94 7.41-43.83-5.15-44.21-29.4l-10.45-524.06c-0.44-28.04 23.8-60.76 52.81-71.27l1139.85-413.15c26.53-9.62 47.38 2.97 47.55 28.72l1.33 571.15c0.19 29.27-26.16 63.03-56.16 71.95z"/>
		</clipPath>
		<linearGradient id="g28" x2="1" gradientUnits="userSpaceOnUse" gradientTransform="matrix(-81.462,726.677,-780.186,-87.461,1413.907,892.132)">
			<stop offset="0" stop-color="#bbe4a7"/>
			<stop offset=".205" stop-color="#78c885"/>
			<stop offset=".525" stop-color="#78c885"/>
			<stop offset=".823" stop-color="#78c885"/>
			<stop offset="1" stop-color="#3d9c6c"/>
		</linearGradient>
		<linearGradient id="g29" x2="1" gradientUnits="userSpaceOnUse" gradientTransform="matrix(-40.296,655.214,-735.243,-45.218,1379.848,857.319)">
			<stop offset="0" stop-color="#bbe4a7"/>
			<stop offset=".139" stop-color="#78c885"/>
			<stop offset=".506" stop-color="#78c885"/>
		</linearGradient>
		<linearGradient id="g30" x2="1" gradientUnits="userSpaceOnUse" gradientTransform="matrix(1323.771,-475.799,219.155,609.736,496.214,1169.197)">
			<stop offset=".019" stop-color="#bbe4a7"/>
			<stop offset=".091" stop-color="#78c885"/>
			<stop offset=".868" stop-color="#78c885"/>
			<stop offset=".972" stop-color="#3d9c6c"/>
		</linearGradient>
		<radialGradient id="g31" cx="0" cy="0" r="1" gradientUnits="userSpaceOnUse" gradientTransform="matrix(1472.428,0,0,1472.428,2127.784,1445.87)">
			<stop offset="0" stop-color="#729eb1"/>
			<stop offset=".801" stop-color="#bed8d9"/>
		</radialGradient>
		<clipPath clipPathUnits="userSpaceOnUse" id="cp7">
			<path d="m1622.51 1307.98c-367.75 180.41-749.73 262.35-1103.01 416.32-23.44 9.56-42.67 1.39-45.2-19.58-18.9-150.76-37.85-303.14-56.84-457.54-2.93-24.85 17.35-54.39 44.45-64.21 354.84-130.82 741.21-248.62 1115.22-564.47 26.13-22.24 48.16-20.27 50.34 6.07 15.35 194.29 30.55 393.36 45.6 597.67 2.42 31.58-21.24 72.33-50.56 85.74z"/>
		</clipPath>
		<linearGradient id="g32" x2="1" gradientUnits="userSpaceOnUse" gradientTransform="matrix(-21.763,754.171,-821.213,-23.697,1309.002,794.889)">
			<stop offset="0" stop-color="#bbe4a7"/>
			<stop offset=".205" stop-color="#78c885"/>
			<stop offset=".525" stop-color="#78c885"/>
			<stop offset=".823" stop-color="#78c885"/>
			<stop offset="1" stop-color="#3d9c6c"/>
		</linearGradient>
		<linearGradient id="g33" x2="1" gradientUnits="userSpaceOnUse" gradientTransform="matrix(14.491,678.32,-774.421,16.544,1270.812,761.264)">
			<stop offset="0" stop-color="#bbe4a7"/>
			<stop offset=".139" stop-color="#78c885"/>
			<stop offset=".506" stop-color="#78c885"/>
		</linearGradient>
		<linearGradient id="g34" x2="1" gradientUnits="userSpaceOnUse" gradientTransform="matrix(1289.528,-588.049,278.694,611.146,397.935,1151.995)">
			<stop offset=".019" stop-color="#bbe4a7"/>
			<stop offset=".091" stop-color="#78c885"/>
			<stop offset=".868" stop-color="#78c885"/>
			<stop offset=".972" stop-color="#3d9c6c"/>
		</linearGradient>
		<linearGradient id="g35" x2="1" gradientUnits="userSpaceOnUse" gradientTransform="matrix(-245.755,-1002.438,632.131,-154.971,1957.368,1574.357)">
			<stop offset="0" stop-color="#a23037"/>
			<stop offset=".36" stop-color="#f16d3e"/>
			<stop offset=".717" stop-color="#f16d3e"/>
			<stop offset=".893" stop-color="#fb793f"/>
			<stop offset="1" stop-color="#f7b69a"/>
		</linearGradient>
		<linearGradient id="g36" x2="1" gradientUnits="userSpaceOnUse" gradientTransform="matrix(206.621,-9.703,18.871,401.866,896.738,1067.322)">
			<stop offset="0" stop-color="#efab26"/>
			<stop offset="1" stop-color="#dd8523"/>
		</linearGradient>
		<linearGradient id="g37" x2="1" gradientUnits="userSpaceOnUse" gradientTransform="matrix(14.004,274.983,-119.543,6.088,1289.021,1106.474)">
			<stop offset="0" stop-color="#f6d246"/>
			<stop offset=".456" stop-color="#fffda6"/>
			<stop offset="1" stop-color="#efac2d"/>
		</linearGradient>
		<linearGradient id="g38" x2="1" gradientUnits="userSpaceOnUse" gradientTransform="matrix(234.897,152.213,-128.857,198.854,1055.639,173.643)">
			<stop offset="0" stop-color="#f8d54e"/>
			<stop offset=".746" stop-color="#c46700"/>
			<stop offset="1" stop-color="#dd8523"/>
		</linearGradient>
		<radialGradient id="g39" cx="0" cy="0" r="1" gradientUnits="userSpaceOnUse" gradientTransform="matrix(99.045,121.158,-121.158,99.045,1113.315,348.249)">
			<stop offset=".546" stop-color="#efac2d"/>
			<stop offset=".722" stop-color="#f8d54e"/>
			<stop offset=".968" stop-color="#fffda6"/>
		</radialGradient>
		<linearGradient id="g40" x2="1" gradientUnits="userSpaceOnUse" gradientTransform="matrix(66.284,250.024,-248.832,65.968,1189.93,191.886)">
			<stop offset=".128" stop-color="#dd8523"/>
			<stop offset=".511" stop-color="#efac2d"/>
			<stop offset="1" stop-color="#f8d54e"/>
		</linearGradient>
		<radialGradient id="g41" cx="0" cy="0" r="1" gradientUnits="userSpaceOnUse" gradientTransform="matrix(85.842,105.007,-105.007,85.842,1109.302,358.987)">
			<stop offset="0" stop-color="#dd8523"/>
			<stop offset="1" stop-color="#efac2d"/>
		</radialGradient>
		<linearGradient id="g42" x2="1" gradientUnits="userSpaceOnUse" gradientTransform="matrix(-149.548,63.91,-13.795,-32.28,1202.455,325.102)">
			<stop offset=".746" stop-color="#c46700"/>
			<stop offset="1" stop-color="#dd8523"/>
		</linearGradient>
		<linearGradient id="g43" x2="1" gradientUnits="userSpaceOnUse" gradientTransform="matrix(-164.902,70.471,-49.909,-116.788,1203.984,303.646)">
			<stop offset=".746" stop-color="#c46700"/>
			<stop offset="1" stop-color="#dd8523"/>
		</linearGradient>
		<linearGradient id="g44" x2="1" gradientUnits="userSpaceOnUse" gradientTransform="matrix(-17.056,7.289,-60.575,-141.746,1127.236,358.195)">
			<stop offset=".746" stop-color="#c46700"/>
			<stop offset="1" stop-color="#dd8523"/>
		</linearGradient>
		<linearGradient id="g45" x2="1" gradientUnits="userSpaceOnUse" gradientTransform="matrix(-186.05,79.509,-53.588,-125.397,1225.275,338.164)">
			<stop offset=".746" stop-color="#c46700"/>
			<stop offset="1" stop-color="#dd8523"/>
		</linearGradient>
		<linearGradient id="g46" x2="1" gradientUnits="userSpaceOnUse" gradientTransform="matrix(-161.641,69.078,-33.971,-79.492,1216.189,323.775)">
			<stop offset=".746" stop-color="#c46700"/>
			<stop offset="1" stop-color="#dd8523"/>
		</linearGradient>
		<linearGradient id="g47" x2="1" gradientUnits="userSpaceOnUse" gradientTransform="matrix(-26.436,11.298,-94.952,-222.188,1090.185,373.467)">
			<stop offset=".746" stop-color="#c46700"/>
			<stop offset="1" stop-color="#dd8523"/>
		</linearGradient>
		<linearGradient id="g48" x2="1" gradientUnits="userSpaceOnUse" gradientTransform="matrix(-153.432,65.569,-33.853,-79.217,1213.143,340.003)">
			<stop offset=".746" stop-color="#c46700"/>
			<stop offset="1" stop-color="#dd8523"/>
		</linearGradient>
		<radialGradient id="g49" cx="0" cy="0" r="1" gradientUnits="userSpaceOnUse" gradientTransform="matrix(121.977,-1.737,1.737,121.977,1074.714,345.893)">
			<stop offset=".013" stop-color="#f8d54e"/>
			<stop offset=".761" stop-color="#efac2d"/>
			<stop offset="1" stop-color="#dd8523"/>
		</radialGradient>
		<clipPath clipPathUnits="userSpaceOnUse" id="cp8">
			<path d="m2174.3 1774.6c5.23-19.06-6.61-38.22-35.92-53.61-62.79-32.97-179.51-41.88-274.11-12.31-53.65 16.77-79.56 39.4-80.51 61.87q-0.04 0.11-0.08 0.21-0.2 0.51-0.37 1c-0.47 1.44-0.75 2.75-0.96 4.01q-0.09 0.56-0.14 1.1-0.16 1.38-0.16 2.68c0 0.19-0.04 0.39-0.03 0.58 0.13 4.92 1.48 43.22 1.76 49.72 0.71 16.25 14.45 32.3 40.24 45.84 62.79 32.97 171.02 44.3 265.63 14.74 59.42-18.57 88.16-45.3 85.77-70.78-0.57-6.08-0.99-32.19-1.12-45.05z"/>
		</clipPath>
		<radialGradient id="g50" cx="0" cy="0" r="1" gradientUnits="userSpaceOnUse" gradientTransform="matrix(400.442,0,0,400.442,1978.661,1525.625)">
			<stop offset=".13" stop-color="#f6d246"/>
			<stop offset=".796" stop-color="#f6d246"/>
			<stop offset=".814" stop-color="#f2be39"/>
			<stop offset=".83" stop-color="#efac2d"/>
			<stop offset=".929" stop-color="#dd8523"/>
			<stop offset="1" stop-color="#efac2d"/>
		</radialGradient>
		<radialGradient id="g51" cx="0" cy="0" r="1" gradientUnits="userSpaceOnUse" gradientTransform="matrix(427.83,0,0,427.83,1939.209,1503.686)">
			<stop offset=".546" stop-color="#efac2d"/>
			<stop offset=".722" stop-color="#f8d54e"/>
			<stop offset=".968" stop-color="#fffda6"/>
		</radialGradient>
		<linearGradient id="g52" x2="1" gradientUnits="userSpaceOnUse" gradientTransform="matrix(-117.188,313.089,-601.004,-224.955,2324.699,1715.457)">
			<stop offset=".128" stop-color="#dd8523"/>
			<stop offset=".511" stop-color="#efac2d"/>
			<stop offset="1" stop-color="#f8d54e"/>
		</linearGradient>
		<radialGradient id="g53" cx="0" cy="0" r="1" gradientUnits="userSpaceOnUse" gradientTransform="matrix(123.921,63.379,-63.379,123.921,1973.743,1777.269)">
			<stop offset="0" stop-color="#f8d54e"/>
			<stop offset="1" stop-color="#efac2d"/>
		</radialGradient>
		<linearGradient id="g54" x2="1" gradientUnits="userSpaceOnUse" gradientTransform="matrix(8.475,85.965,-184.307,18.171,1957.373,1736.044)">
			<stop offset="0" stop-color="#f8d54e"/>
			<stop offset=".746" stop-color="#c46700"/>
			<stop offset="1" stop-color="#dd8523"/>
		</linearGradient>
		<linearGradient id="g55" x2="1" gradientUnits="userSpaceOnUse" gradientTransform="matrix(6.383,64.743,-20.815,2.052,1978.668,1741.73)">
			<stop offset="0" stop-color="#f8d54e"/>
			<stop offset=".746" stop-color="#c46700"/>
			<stop offset="1" stop-color="#dd8523"/>
		</linearGradient>
		<linearGradient id="g56" x2="1" gradientUnits="userSpaceOnUse" gradientTransform="matrix(8.874,90.008,-320.113,31.561,1961.893,1714.944)">
			<stop offset="0" stop-color="#f8d54e"/>
			<stop offset=".746" stop-color="#c46700"/>
			<stop offset="1" stop-color="#dd8523"/>
		</linearGradient>
		<linearGradient id="g57" x2="1" gradientUnits="userSpaceOnUse" gradientTransform="matrix(8.112,82.275,-146.44,14.438,2075.253,1721.737)">
			<stop offset="0" stop-color="#f8d54e"/>
			<stop offset=".746" stop-color="#c46700"/>
			<stop offset="1" stop-color="#dd8523"/>
		</linearGradient>
		<linearGradient id="g58" x2="1" gradientUnits="userSpaceOnUse" gradientTransform="matrix(284.845,-146.491,67.483,131.217,1828.047,1804.37)">
			<stop offset="0" stop-color="#fffda6"/>
			<stop offset=".175" stop-color="#f8d54e"/>
			<stop offset=".692" stop-color="#efac2d"/>
			<stop offset="1" stop-color="#dd8523"/>
		</linearGradient>
		<radialGradient id="g59" cx="0" cy="0" r="1" gradientUnits="userSpaceOnUse" gradientTransform="matrix(247.603,21.222,-21.222,247.603,482.038,761.083)">
			<stop offset=".13" stop-color="#f6d246"/>
			<stop offset=".796" stop-color="#f6d246"/>
			<stop offset=".814" stop-color="#f2be39"/>
			<stop offset=".83" stop-color="#efac2d"/>
			<stop offset=".929" stop-color="#dd8523"/>
			<stop offset="1" stop-color="#efac2d"/>
		</radialGradient>
		<radialGradient id="g60" cx="0" cy="0" r="1" gradientUnits="userSpaceOnUse" gradientTransform="matrix(208.765,0,0,208.765,521.886,775.206)">
			<stop offset=".546" stop-color="#efac2d"/>
			<stop offset=".722" stop-color="#f8d54e"/>
			<stop offset=".968" stop-color="#fffda6"/>
		</radialGradient>
		<linearGradient id="g61" x2="1" gradientUnits="userSpaceOnUse" gradientTransform="matrix(288.891,280.189,-337.491,347.973,524.328,476.209)">
			<stop offset=".128" stop-color="#dd8523"/>
			<stop offset=".511" stop-color="#efac2d"/>
			<stop offset="1" stop-color="#f8d54e"/>
		</linearGradient>
		<radialGradient id="g62" cx="0" cy="0" r="1" gradientUnits="userSpaceOnUse" gradientTransform="matrix(162.881,-60.124,60.124,162.881,536.953,790.753)">
			<stop offset="0" stop-color="#f8d54e"/>
			<stop offset="1" stop-color="#efac2d"/>
		</radialGradient>
		<linearGradient id="g63" x2="1" gradientUnits="userSpaceOnUse" gradientTransform="matrix(66.912,201.182,-111.562,37.105,584.76,656.348)">
			<stop offset="0" stop-color="#f8d54e"/>
			<stop offset=".746" stop-color="#c46700"/>
			<stop offset="1" stop-color="#dd8523"/>
		</linearGradient>
		<linearGradient id="g64" x2="1" gradientUnits="userSpaceOnUse" gradientTransform="matrix(81.473,244.963,-262.175,87.198,520.388,658.787)">
			<stop offset="0" stop-color="#f8d54e"/>
			<stop offset=".746" stop-color="#c46700"/>
			<stop offset="1" stop-color="#dd8523"/>
		</linearGradient>
		<linearGradient id="g65" x2="1" gradientUnits="userSpaceOnUse" gradientTransform="matrix(61.25,184.159,-247.466,82.306,481.559,692.727)">
			<stop offset="0" stop-color="#f8d54e"/>
			<stop offset=".746" stop-color="#c46700"/>
			<stop offset="1" stop-color="#dd8523"/>
		</linearGradient>
		<linearGradient id="g66" x2="1" gradientUnits="userSpaceOnUse" gradientTransform="matrix(91.672,275.628,-388.098,129.079,562.291,630.965)">
			<stop offset="0" stop-color="#f8d54e"/>
			<stop offset=".746" stop-color="#c46700"/>
			<stop offset="1" stop-color="#dd8523"/>
		</linearGradient>
		<linearGradient id="g67" x2="1" gradientUnits="userSpaceOnUse" gradientTransform="matrix(61.365,184.503,-337.51,112.254,447.025,703.942)">
			<stop offset="0" stop-color="#f8d54e"/>
			<stop offset=".746" stop-color="#c46700"/>
			<stop offset="1" stop-color="#dd8523"/>
		</linearGradient>
		<linearGradient id="g68" x2="1" gradientUnits="userSpaceOnUse" gradientTransform="matrix(72.354,217.544,-178.367,59.324,532.787,653.755)">
			<stop offset="0" stop-color="#f8d54e"/>
			<stop offset=".746" stop-color="#c46700"/>
			<stop offset="1" stop-color="#dd8523"/>
		</linearGradient>
		<linearGradient id="g69" x2="1" gradientUnits="userSpaceOnUse" gradientTransform="matrix(82.482,247.997,-261.228,86.883,560.274,611.545)">
			<stop offset="0" stop-color="#f8d54e"/>
			<stop offset=".746" stop-color="#c46700"/>
			<stop offset="1" stop-color="#dd8523"/>
		</linearGradient>
		<linearGradient id="g70" x2="1" gradientUnits="userSpaceOnUse" gradientTransform="matrix(59.331,200.421,-153.885,45.554,675.119,633.489)">
			<stop offset="0" stop-color="#dd8523"/>
			<stop offset=".135" stop-color="#efac2d"/>
			<stop offset=".471" stop-color="#f8d54e"/>
			<stop offset=".966" stop-color="#fffda6"/>
		</linearGradient>
		<linearGradient id="g71" x2="1" gradientUnits="userSpaceOnUse" gradientTransform="matrix(417.086,350.53,-213.339,253.846,1041.78,446.349)">
			<stop offset="0" stop-color="#fffda6"/>
			<stop offset=".353" stop-color="#f8d54e"/>
			<stop offset=".911" stop-color="#c46700"/>
			<stop offset="1" stop-color="#dd8523"/>
		</linearGradient>
		<radialGradient id="g72" cx="0" cy="0" r="1" gradientUnits="userSpaceOnUse" gradientTransform="matrix(602.628,0,0,602.628,1388.13,495.906)">
			<stop offset=".854" stop-color="#efac2d"/>
			<stop offset=".981" stop-color="#dd8523"/>
			<stop offset="1" stop-color="#efac2d"/>
		</radialGradient>
		<radialGradient id="g73" cx="0" cy="0" r="1" gradientUnits="userSpaceOnUse" gradientTransform="matrix(268.268,0,0,268.268,1049.616,880.589)">
			<stop offset=".042" stop-color="#efac2d"/>
			<stop offset=".4" stop-color="#f5c642"/>
			<stop offset=".791" stop-color="#f8d54e"/>
			<stop offset=".991" stop-color="#fffda6"/>
		</radialGradient>
		<linearGradient id="g74" x2="1" gradientUnits="userSpaceOnUse" gradientTransform="matrix(346.843,332.391,-159.826,166.775,1127.94,541.096)">
			<stop offset=".128" stop-color="#dd8523"/>
			<stop offset=".511" stop-color="#efac2d"/>
			<stop offset="1" stop-color="#f8d54e"/>
		</linearGradient>
		<radialGradient id="g75" cx="0" cy="0" r="1" gradientUnits="userSpaceOnUse" gradientTransform="matrix(214.78,0,0,214.78,1006.127,794.084)">
			<stop offset="0" stop-color="#dd8523"/>
			<stop offset="1" stop-color="#efac2d"/>
		</radialGradient>
		<linearGradient id="g76" x2="1" gradientUnits="userSpaceOnUse" gradientTransform="matrix(247.589,242.206,-192.799,197.083,1040.192,671.311)">
			<stop offset="0" stop-color="#f8d54e"/>
			<stop offset=".746" stop-color="#c46700"/>
			<stop offset="1" stop-color="#dd8523"/>
		</linearGradient>
		<linearGradient id="g77" x2="1" gradientUnits="userSpaceOnUse" gradientTransform="matrix(202.925,198.514,-62.991,64.391,1095.469,647.465)">
			<stop offset="0" stop-color="#f8d54e"/>
			<stop offset=".746" stop-color="#c46700"/>
			<stop offset="1" stop-color="#dd8523"/>
		</linearGradient>
		<linearGradient id="g78" x2="1" gradientUnits="userSpaceOnUse" gradientTransform="matrix(216.534,211.827,-109.048,111.472,1020.005,685.252)">
			<stop offset="0" stop-color="#f8d54e"/>
			<stop offset=".746" stop-color="#c46700"/>
			<stop offset="1" stop-color="#dd8523"/>
		</linearGradient>
		<linearGradient id="g79" x2="1" gradientUnits="userSpaceOnUse" gradientTransform="matrix(189.128,188.094,-44.068,44.31,1118.037,614.8)">
			<stop offset="0" stop-color="#efac2d"/>
			<stop offset=".701" stop-color="#f8d54e"/>
			<stop offset="1" stop-color="#e9a02a"/>
		</linearGradient>
		<linearGradient id="g80" x2="1" gradientUnits="userSpaceOnUse" gradientTransform="matrix(421.045,-109.12,92.376,356.438,1479.981,1589.294)">
			<stop offset="0" stop-color="#f8d54e"/>
			<stop offset=".746" stop-color="#c46700"/>
			<stop offset="1" stop-color="#dd8523"/>
		</linearGradient>
		<radialGradient id="g81" cx="0" cy="0" r="1" gradientUnits="userSpaceOnUse" gradientTransform="matrix(217.973,-237.61,237.61,217.973,1700.412,1620.65)">
			<stop offset=".854" stop-color="#efac2d"/>
			<stop offset=".981" stop-color="#dd8523"/>
			<stop offset="1" stop-color="#efac2d"/>
		</radialGradient>
		<radialGradient id="g82" cx="0" cy="0" r="1" gradientUnits="userSpaceOnUse" gradientTransform="matrix(242.783,13.836,-13.836,242.783,1740.52,1706.645)">
			<stop offset=".546" stop-color="#efac2d"/>
			<stop offset=".722" stop-color="#f8d54e"/>
			<stop offset=".968" stop-color="#fffda6"/>
		</radialGradient>
		<linearGradient id="g83" x2="1" gradientUnits="userSpaceOnUse" gradientTransform="matrix(355.949,186.714,-185.82,354.245,1641.929,1454.667)">
			<stop offset=".128" stop-color="#dd8523"/>
			<stop offset=".511" stop-color="#efac2d"/>
			<stop offset="1" stop-color="#f8d54e"/>
		</linearGradient>
		<radialGradient id="g84" cx="0" cy="0" r="1" gradientUnits="userSpaceOnUse" gradientTransform="matrix(210.421,11.992,-11.992,210.421,1748.602,1722.519)">
			<stop offset="0" stop-color="#dd8523"/>
			<stop offset="1" stop-color="#efac2d"/>
		</radialGradient>
		<linearGradient id="g85" x2="1" gradientUnits="userSpaceOnUse" gradientTransform="matrix(260.59,59.225,-185.067,814.293,1623.01,1554)">
			<stop offset="0" stop-color="#f8d54e"/>
			<stop offset=".746" stop-color="#c46700"/>
			<stop offset="1" stop-color="#dd8523"/>
		</linearGradient>
		<linearGradient id="g86" x2="1" gradientUnits="userSpaceOnUse" gradientTransform="matrix(168.485,38.292,-45.066,198.289,1682.988,1624.986)">
			<stop offset="0" stop-color="#f8d54e"/>
			<stop offset=".746" stop-color="#c46700"/>
			<stop offset="1" stop-color="#dd8523"/>
		</linearGradient>
		<linearGradient id="g87" x2="1" gradientUnits="userSpaceOnUse" gradientTransform="matrix(128.334,29.167,-10.78,47.431,1686.624,1673.522)">
			<stop offset="0" stop-color="#f8d54e"/>
			<stop offset=".746" stop-color="#c46700"/>
			<stop offset="1" stop-color="#dd8523"/>
		</linearGradient>
		<linearGradient id="g88" x2="1" gradientUnits="userSpaceOnUse" gradientTransform="matrix(170.744,38.806,-42.206,185.706,1667.801,1606.692)">
			<stop offset="0" stop-color="#f8d54e"/>
			<stop offset=".746" stop-color="#c46700"/>
			<stop offset="1" stop-color="#dd8523"/>
		</linearGradient>
		<linearGradient id="g89" x2="1" gradientUnits="userSpaceOnUse" gradientTransform="matrix(186.03,42.28,-61.081,268.757,1650.462,1675.063)">
			<stop offset="0" stop-color="#f8d54e"/>
			<stop offset=".746" stop-color="#c46700"/>
			<stop offset="1" stop-color="#dd8523"/>
		</linearGradient>
		<linearGradient id="g90" x2="1" gradientUnits="userSpaceOnUse" gradientTransform="matrix(128.334,29.167,-5.252,23.109,1670.539,1744.294)">
			<stop offset="0" stop-color="#f8d54e"/>
			<stop offset=".746" stop-color="#c46700"/>
			<stop offset="1" stop-color="#dd8523"/>
		</linearGradient>
		<linearGradient id="g91" x2="1" gradientUnits="userSpaceOnUse" gradientTransform="matrix(181.77,41.311,-53.759,236.537,1652.303,1675.635)">
			<stop offset="0" stop-color="#f8d54e"/>
			<stop offset=".746" stop-color="#c46700"/>
			<stop offset="1" stop-color="#dd8523"/>
		</linearGradient>
		<linearGradient id="g92" x2="1" gradientUnits="userSpaceOnUse" gradientTransform="matrix(169.641,0,0,199.799,1653.735,1599.314)">
			<stop offset="0" stop-color="#fffda6"/>
			<stop offset=".367" stop-color="#f8d54e"/>
			<stop offset=".692" stop-color="#efac2d"/>
			<stop offset="1" stop-color="#dd8523"/>
		</linearGradient>
	</defs>
	<style>
		.s0 { mix-blend-mode: multiply;fill: url(#g1) } 
		.s1 { fill: url(#g2) } 
		.s2 { fill: url(#g3) } 
		.s3 { fill: url(#g4) } 
		.s4 { fill: url(#g5) } 
		.s5 { fill: url(#g6) } 
		.s6 { fill: url(#g7) } 
		.s7 { fill: url(#g8) } 
		.s8 { fill: url(#g9) } 
		.s9 { fill: url(#g10) } 
		.s10 { fill: url(#g11) } 
		.s11 { fill: url(#g12) } 
		.s12 { fill: url(#g13) } 
		.s13 { fill: url(#g14) } 
		.s14 { fill: url(#g15) } 
		.s15 { fill: url(#g16) } 
		.s16 { fill: url(#g17) } 
		.s17 { fill: url(#g18) } 
		.s18 { fill: url(#g19) } 
		.s19 { fill: url(#g20) } 
		.s20 { fill: url(#g21) } 
		.s21 { fill: url(#g22) } 
		.s22 { fill: url(#g23) } 
		.s23 { fill: url(#g24) } 
		.s24 { fill: url(#g25) } 
		.s25 { fill: url(#g26) } 
		.s26 { fill: url(#g27) } 
		.s27 { fill: url(#g28) } 
		.s28 { fill: url(#g29) } 
		.s29 { fill: url(#g30) } 
		.s30 { mix-blend-mode: multiply;fill: url(#g31) } 
		.s31 { fill: url(#g32) } 
		.s32 { fill: url(#g33) } 
		.s33 { fill: url(#g34) } 
		.s34 { fill: #bbe4a7 } 
		.s35 { opacity: .5;fill: #dfffa8 } 
		.s36 { opacity: .2;fill: #3d9c6c } 
		.s37 { fill: url(#g35) } 
		.s38 { fill: #a23037 } 
		.s39 { opacity: .6;fill: #a23037 } 
		.s40 { fill: url(#g36) } 
		.s41 { fill: url(#g37) } 
		.s42 { fill: url(#g38) } 
		.s43 { fill: url(#g39) } 
		.s44 { fill: url(#g40) } 
		.s45 { fill: url(#g41) } 
		.s46 { fill: url(#g42) } 
		.s47 { fill: url(#g43) } 
		.s48 { fill: url(#g44) } 
		.s49 { fill: url(#g45) } 
		.s50 { fill: url(#g46) } 
		.s51 { fill: url(#g47) } 
		.s52 { fill: url(#g48) } 
		.s53 { fill: url(#g49) } 
		.s54 { fill: url(#g50) } 
		.s55 { fill: url(#g51) } 
		.s56 { fill: url(#g52) } 
		.s57 { fill: url(#g53) } 
		.s58 { fill: url(#g54) } 
		.s59 { fill: url(#g55) } 
		.s60 { fill: url(#g56) } 
		.s61 { fill: url(#g57) } 
		.s62 { fill: url(#g58) } 
		.s63 { fill: url(#g59) } 
		.s64 { fill: url(#g60) } 
		.s65 { fill: url(#g61) } 
		.s66 { fill: url(#g62) } 
		.s67 { fill: url(#g63) } 
		.s68 { fill: url(#g64) } 
		.s69 { fill: url(#g65) } 
		.s70 { fill: url(#g66) } 
		.s71 { fill: url(#g67) } 
		.s72 { fill: url(#g68) } 
		.s73 { fill: url(#g69) } 
		.s74 { fill: url(#g70) } 
		.s75 { fill: url(#g71) } 
		.s76 { fill: url(#g72) } 
		.s77 { fill: url(#g73) } 
		.s78 { fill: url(#g74) } 
		.s79 { fill: url(#g75) } 
		.s80 { fill: url(#g76) } 
		.s81 { fill: url(#g77) } 
		.s82 { fill: url(#g78) } 
		.s83 { fill: url(#g79) } 
		.s84 { fill: url(#g80) } 
		.s85 { fill: url(#g81) } 
		.s86 { fill: url(#g82) } 
		.s87 { fill: url(#g83) } 
		.s88 { fill: url(#g84) } 
		.s89 { fill: url(#g85) } 
		.s90 { fill: url(#g86) } 
		.s91 { fill: url(#g87) } 
		.s92 { fill: url(#g88) } 
		.s93 { fill: url(#g89) } 
		.s94 { fill: url(#g90) } 
		.s95 { fill: url(#g91) } 
		.s96 { fill: url(#g92) } 
	</style>
	<g id="_Artboards_">
	</g>
	<g id="&lt;Layer&gt;">
		<g id="&lt;Group&gt;">
			<path id="&lt;Path&gt;" class="s0" d="m1046.7 920.3c-549.5 0-995 287.7-995 642.6 0 354.9 445.5 642.6 995 642.6 549.5 0 994.9-287.7 994.9-642.6 0-354.9-445.4-642.6-994.9-642.6z"/>
			<g id="&lt;Clip Group&gt;" clip-path="url(#cp1)">
				<path id="&lt;Path&gt;" class="s1" d="m669.7 1770.5c0 119.7-97.1 216.8-216.8 216.8-119.8 0-216.9-97.1-216.9-216.8 0-119.8 97.1-216.9 216.9-216.9 119.7 0 216.8 97.1 216.8 216.9z"/>
			</g>
			<g id="&lt;Clip Group&gt;" clip-path="url(#cp2)">
				<path id="&lt;Path&gt;" class="s2" d="m669.7 1692.2c0 119.8-97.1 216.8-216.8 216.8-119.8 0-216.9-97-216.9-216.8 0-119.8 97.1-216.8 216.9-216.8 119.7 0 216.8 97 216.8 216.8z"/>
				<path id="&lt;Path&gt;" class="s3" d="m552.7 1726.2c-92.8 29-199 17.9-260.6-14.5-61.6-32.3-53.3-79.2 39.5-108.2 92.8-29 207.3-20.3 268.9 12.1 61.6 32.3 45 81.6-47.8 110.6z"/>
				<path id="&lt;Path&gt;" class="s4" d="m326.6 1692.8c-27-14.3-38.2-31.6-30.8-47.4 6.2-13.1 24.2-24.3 53.5-33.4 78-24 169.5-11.5 216 12.4l1.3 0.7c24.9 13.2 34.8 29.9 27.2 46-6.8 14.6-27.1 27.5-58.6 37.2-76.8 23.6-161.1 8.9-207.1-14.7z"/>
				<path id="&lt;Path&gt;" class="s5" d="m330.8 1695.8c-25.5-13.4-35.9-29.6-28.4-44.5 5.9-12 22.9-22.4 50.3-31 75.5-23.6 163.4-12.1 207.8 10.6l1.3 0.6c23.4 12.3 32.4 28 24.9 43.1-6.8 13.6-26.1 25.7-55.8 35-73.8 23.1-154.7 9.4-198.5-13z"/>
				<g id="&lt;Group&gt;">
					<g id="&lt;Group&gt;">
						<path id="&lt;Path&gt;" class="s6" d="m438.4 1647.4q0-0.1 0-0.1l0.3 7.9-45.3 5.2 0.5 11.6 46.7-5.4q0 0.6 0.1 1.2l-0.5-11.7q0-0.5-0.1-1.1l-1.4 0.2-0.2-5.9c0-0.4 0-0.8-0.1-1.3v-1.8q-0.1-0.3-0.1-0.6z"/>
						<path id="&lt;Path&gt;" class="s7" d="m388.9 1660.1c-0.2-5.4 2.4-10.6 6.1-14.5 0 0-0.5-11.6-0.5-11.6-3.6 3.9-6.3 9.1-6.1 14.5q0.3 5.8 0.5 11.6z"/>
						<path id="&lt;Path&gt;" class="s8" d="m459.8 1667.6c0-1.7-0.1-3.2 0-3.2l48.3-5.6q0.9 2.4 1 4.6l-0.4-11.6q-0.1-2.2-1-4.6l-3.2 0.4-0.3-5.9q-0.1-0.2-0.3-0.4c-4.2-4.6-11.1-6.8-17.1-7.4-5.9-0.7-12 0-17.8 1.3-2.6 0.6-5.2 1.3-7.4 2.8-3 2-4.1 5.3-4 8.8l0.5 11.6q-0.1-1.4 0.1-2.6 0.1-0.3 0.1-0.6c0.8-3.7 3.7-6.1 7.2-7.4 3.4-1.1 7.1-1.7 10.6-2.2q2.5-0.2 4.8-0.3 0.1 0 0.2 0c5.4-0.2 10.9 0.6 16 2.7 0.2 0.1 0.4 0.2 0.8 0.4 0 0-38.6 4.4-38.7 4.4 0.2 0 0.2 6.9 0.1 7.6-0.3 2.6-1.3 5-3 7.1-3.4 3.8-8.4 5.7-13.3 7-6.5 1.7-13.2 2.5-19.9 2.7-8.2 0.2-16.5-0.7-24.4-3.1-7.7-2.2-16.1-5.7-21.6-11.8l-3.7 0.4-0.2-5.8q-3-5.3-3.5-10.9-0.1-0.6-0.1-1.2l0.5 11.7q0 0.5 0 1.1 0.3 2.7 1.1 5.4l-34.9 4-3.3-5.5 0.5 11.6 3.3 5.5c0 0 40.7-4.7 40.8-4.7 0.4 0 2.7 2.7 3.2 3.1 1.3 1 2.6 1.9 4 2.8 3.7 2.2 7.7 3.8 11.7 5.2 8.7 2.8 17.9 4 27.1 3.8 5.4-0.2 10.9-0.7 16.2-1.9 5.1-1.2 11-2.8 15.1-6.1 2.6-2.1 4.5-5 5-8.4 0-0.2-0.1-2.6-0.1-4.8z"/>
						<path id="&lt;Path&gt;" class="s9" d="m526.7 1656.7l28.1-3.3-0.4-11.6-30.4 3.6 0.5 11.6 2.1-0.3c0 1.1 0 2.1-0.1 3.1q-0.2 1.9-0.8 3.4l-22.3 2.6-0.4-0.8 0.4 11.6 0.4 0.8 22.3-2.6q0.2-0.3 0.3-0.7 0.4-1.2 0.5-2.7 0 0 0 0 0.3-2 0.2-4.3z"/>
					</g>
					<path id="&lt;Compound Path&gt;" fill-rule="evenodd" class="s10" d="m524 1645.4q2.3 4.4 2.6 9.4 0.3 5-0.9 8.4l-22.3 2.6-0.4-0.8q3.3-4 5-8.5 1.5-4.5-0.3-9.3l-48.5 5.6q0.3 1.7 0.2 3.2 0 1.5 0.1 2.6 0.3 7-6.4 11.6-6.7 4.6-21.8 6.4-16.6 1.9-31.7-2.2-15.2-4.1-22.5-12.1l-40.8 4.7-3.3-5.5 40.2-4.6q-3-5.3-3.5-10.9-0.5-5.6 1.7-10.1l22.7-2.6 0.4 0.7q-4.3 4.6-5.6 9.9c-0.9 3.5-0.6 7.2 1 11l48.6-5.6q-0.1-1.3-0.1-3.1-0.2-1.9 0-3.2c0.2-5.2 2.7-9.2 7.8-12q7.4-4.2 21-5.8 16-1.8 31.1 2.2 0.4 0.1 0.9 0.2c0.5 0.2 0.7 0.2 0.9 0.3 0.5 0.2 0.7 0.2 0.9 0.3 0.5 0.1 0.7 0.2 0.8 0.2 0.6 0.2 0.7 0.3 0.9 0.3 0.5 0.2 0.7 0.3 0.8 0.3 0.6 0.2 0.7 0.3 0.9 0.3 0.5 0.2 0.6 0.3 0.8 0.3 0.5 0.2 0.6 0.3 0.8 0.4 0.5 0.2 0.6 0.2 0.8 0.3 0.4 0.2 0.6 0.3 0.7 0.3 0.5 0.2 0.6 0.3 0.8 0.4 0.5 0.2 0.6 0.2 0.7 0.3q0.2 0.1 0.4 0.2 0.1 0.1 0.3 0.2 0.2 0.1 0.4 0.1 0.2 0.1 0.3 0.2 0.2 0.1 0.4 0.2 0.2 0.1 0.3 0.2 0.2 0.1 0.4 0.2 0.1 0.1 0.3 0.2 0.2 0.1 0.3 0.2 0.2 0.1 0.4 0.2 0.1 0.1 0.3 0.2 0.2 0.1 0.3 0.2 0.2 0.1 0.3 0.2 0.2 0.1 0.4 0.2 0.1 0.1 0.3 0.2 0.1 0.1 0.3 0.2 0.1 0.1 0.3 0.2 0.1 0.1 0.3 0.2 0.1 0.1 0.3 0.3 0.1 0.1 0.2 0.2 0.2 0.1 0.4 0.2 0.1 0.1 0.2 0.2 0.2 0.1 0.3 0.2c0.3 0.3 0.5 0.4 0.6 0.5 0.3 0.3 0.4 0.4 0.5 0.5 0.7 0.6 1.3 1.2 1.9 1.8 0.2 0.2 0.3 0.3 0.4 0.4 0.3 0.4 0.5 0.6 0.6 0.7l30.7-3.5 3.3 5.5zm-66.4 1.8l46.6-5.4q-0.2-0.2-0.4-0.4c-0.1-0.2-0.3-0.3-0.4-0.5q0 0-0.1 0-0.2-0.2-0.4-0.5 0 0 0 0-0.3-0.2-0.5-0.4 0 0-0.1-0.1-0.2-0.2-0.4-0.4c-0.3-0.1-0.4-0.3-0.6-0.4q-0.3-0.2-0.6-0.4-0.3-0.2-0.6-0.4-0.4-0.2-0.7-0.4-0.3-0.2-0.6-0.4c-0.3-0.1-0.5-0.2-0.7-0.3q-0.1-0.1-0.1-0.1-0.3-0.1-0.7-0.3 0 0-0.1 0-0.3-0.2-0.6-0.3-0.1 0-0.1-0.1-0.4-0.1-0.7-0.2-0.1-0.1-0.1-0.1-0.4-0.1-0.7-0.3-0.1 0-0.1 0-0.4-0.1-0.8-0.3-0.5-0.1-0.9-0.2-7.5-2.3-17.6-1.2-10 1.2-14.1 4-4.2 2.8-3.9 9.1zm-20.5 16.5q3.6-2.9 3-8.6l-46.7 5.4q4.3 4.8 11.4 6.7 7.1 1.9 18 0.7 10.6-1.3 14.3-4.2z"/>
				</g>
			</g>
			<g id="&lt;Group&gt;">
				<path id="&lt;Path&gt;" class="s11" d="m1547 588.8c-12.3 5.9-26.7 9.1-38.8 10.7-40 5.1-87.4-51-116.2-126-14.4-37.7-18.3-77.3-9.1-117.1 3.4-14.7 9.2-29.5 19.2-41 11.7-13.5 23.6-20.1 40.3-24.6 5.2-1.4 10.3-2.6 15.5-3.9 39.9-5.9 86.2 45.3 115 120.4 14.8 38.5 21.5 82.5 13 123.3-3.1 15-8.5 30.4-18.2 42.6-5.2 6.5-12.5 11.6-20.7 15.6z"/>
				<path id="&lt;Path&gt;" class="s12" d="m1581.8 404.9c31 80.8 15.9 165.7-25.8 181.7-41.7 16-94.3-42.8-125.4-123.7-31-80.8-14.6-160 27.1-176 41.8-16.1 93 37.1 124.1 118z"/>
				<path id="&lt;Path&gt;" class="s13" d="m1520.7 561.1c-27.4-15.7-52.2-48.1-71.5-101.6-27.5-76.7-15.8-134.8 17.8-148.6 9.9-4 21-2.6 33 4.2 26.7 15.3 49.7 44.7 68.2 96 13 36.3 19.7 68.3 14 102.2-5.1 30.1-14.9 45.5-30.7 51.9-9.1 3.7-19.4 2.3-30.8-4.1z"/>
				<path id="&lt;Path&gt;" class="s14" d="m1510.1 550.3c-16.9-9.5-28.1-26.4-37.8-42.7-12.7-21.4-21.6-45.1-28.6-69-6.2-21.3-9.2-42.9-8.3-65.1 0.8-17.5 4.2-44.7 23.8-50.8 11.9-3.8 22.8 1.7 33.1 8 39.4 24.3 61.6 74.3 69.8 118.3 4.5 24.2 8.2 48.7 0.7 72.6-5.5 17.4-20.5 37.9-41.2 33.3-4-0.9-7.9-2.5-11.5-4.6z"/>
				<g id="&lt;Group&gt;">
					<g id="&lt;Group&gt;">
						<path id="&lt;Path&gt;" class="s15" d="m1525.2 388.1l6.6-18.8-9.4 0.8-6.6 18.8z"/>
						<path id="&lt;Path&gt;" class="s16" d="m1512.9 500.9c-2.9-0.6-5.5-2.5-7.6-4.4-1-0.9-6.6-9.3-7.1-9.3 0 0-8 0.7-8 0.7l3.2-9.3q-2.2-4.3-4.3-9.1-0.1-0.2-0.2-0.5l8.1-0.7 6.1-17.2c0.3 0.9 0.7 1.8 1 2.7 1.1 3.2 2.1 6.6 2.7 10 0.8 4 1 8.3 0.3 12.3-0.5 3.1-2.2 9.5-6.1 9.9 2.4-0.2 5.7-0.1 8.1-0.3 4.2-0.3 5-3 6.4-7.1 1.6-5 1.6-10.2 0.7-15.3-0.2-1.4-3-14.8-4.4-14.8l-8 0.6c0 0 3.7-10.6 3.7-10.6 0.3-0.9-1.3-3.7-1.7-4.7q-1.1-3.2-2.3-6.5 4.1-0.3 8.2-0.6 3-8.7 6-17.3c4.9 11 7.6 22.9 10.3 34.7q4.7-0.4 9.4-0.8c-2.9-12.4-5.7-24.9-11-36.4q-4 0.4-8.1 0.7 1.4-3.8 2.8-7.6c0.2-0.6 0.4-1.3 0.3-1.9-0.1-0.8-0.5-1.4-0.9-2-1.5-2.2-3.3-4.6-5.8-5.5-3.6-1.4-7.6 0.4-11.5 0.1 4.1 0.3 10 5.6 8.5 9.9q-4.4 12.5-8.8 25c-4.6-13.4-7.6-28.2-3.6-41.9 1.2-4.1 3.7-9.8 8.7-10.2 0 0-9.4 0.8-9.4 0.8-5.8 0.5-8.1 7.5-9.2 12.2-2.2 8.9-1.5 18.2 0.5 27.1 1 4.6 2.3 9.1 3.8 13.5q1.1 3.3 2.3 6.5c0.5 1.1 2.5 4.6 2.1 5.6l-9.9 28.2c-1-2.5-2.1-5-3.1-7.7-2.4-6.3-4.5-12.8-6.2-19.4l4.9-14-9.4 0.8c0 0-4.9 14-4.9 14-0.4 1.2 1.4 4.9 1.7 6q1.3 4.3 2.8 8.6c2.8 8.1 6.1 16 10 23.7l-8.7 24.7 4.7 9 9.4-0.8-4.7-9c0 0 4.9-14 5-14-0.5 1.3 5.3 7 6.3 7.9 2.6 2.4 6.2 4.9 10 4.6 0 0 9.3-0.8 9.4-0.8q-1.3 0.1-2.5-0.1z"/>
					</g>
					<path id="&lt;Compound Path&gt;" fill-rule="evenodd" class="s17" d="m1529.9 396.9q3.7 7.4 7.1 16.6c2.3 6.2 4.1 11.5 5.3 16l-4.8 13.7-0.6-1.2q-1.7-8.8-4.2-17.9-2.6-9-6.3-17.1l-10.5 29.7c0.8 2.1 1.6 4 2.2 5.9q1 2.7 1.7 4.8 4.8 12.8 5.9 24.2 1.2 11.3-2.1 20.6-3.6 10.2-10.7 8.6-7.2-1.5-14.7-13.6l-8.8 25.1-4.7-9 8.7-24.7q-4.4-8.6-8.3-18.9-3.9-10.3-6.2-19.4l4.9-14 0.6 1.2c1.2 6.9 2.9 13.7 5 20.7q3.1 10.3 7.6 20.1l10.5-29.8q-0.9-2.4-2.1-5.8-1.3-3.5-2.1-6-5.2-14.7-5.8-25.5-0.6-10.8 2.3-19.2 3.5-9.8 10.6-8.3 0.2 0 0.4 0.1c0.2 0 0.3 0 0.5 0.1 0.2 0.1 0.3 0.1 0.4 0.1 0.2 0.1 0.3 0.2 0.4 0.2 0.3 0.1 0.4 0.1 0.5 0.2 0.2 0.1 0.3 0.2 0.4 0.2 0.3 0.1 0.4 0.2 0.5 0.2 0.2 0.2 0.3 0.2 0.4 0.3 0.3 0.2 0.4 0.2 0.5 0.3 0.2 0.1 0.3 0.2 0.4 0.3 0.3 0.2 0.4 0.2 0.5 0.3 0.2 0.2 0.3 0.3 0.4 0.3 0.3 0.2 0.4 0.3 0.5 0.4 0.2 0.2 0.3 0.3 0.4 0.4 0.3 0.2 0.4 0.3 0.5 0.4 0.3 0.2 0.3 0.3 0.4 0.4 0.3 0.3 0.4 0.4 0.5 0.5 0.3 0.3 0.4 0.4 0.5 0.4 0.2 0.3 0.3 0.4 0.4 0.5 0.3 0.4 0.4 0.5 0.5 0.6 0.3 0.3 0.4 0.4 0.4 0.5 0.3 0.3 0.4 0.4 0.5 0.6 0.3 0.3 0.4 0.4 0.5 0.5 0.3 0.4 0.3 0.5 0.4 0.7 0.3 0.3 0.4 0.4 0.5 0.6q0.1 0.1 0.2 0.2 0.1 0.2 0.3 0.4 0.1 0.1 0.2 0.3 0.1 0.2 0.2 0.4 0.1 0.1 0.2 0.3 0.2 0.2 0.3 0.3 0.1 0.2 0.2 0.4 0.1 0.2 0.3 0.4 0.1 0.1 0.2 0.3 0.1 0.2 0.2 0.4 0.2 0.2 0.3 0.3 0.1 0.2 0.2 0.4 0.1 0.2 0.2 0.4 0.3 0.4 0.5 0.8l6.6-18.8 4.7 9zm-18.3 29.7l10.1-28.6q-0.2-0.3-0.4-0.6 0-0.1-0.1-0.1-0.1-0.2-0.2-0.4-0.1-0.2-0.2-0.4-0.2-0.1-0.3-0.3-0.1-0.2-0.2-0.4-0.1-0.1-0.2-0.3-0.2-0.2-0.3-0.3-0.1-0.2-0.2-0.4-0.1-0.1-0.2-0.3-0.2-0.1-0.3-0.3-0.1-0.1-0.2-0.3-0.1-0.1-0.2-0.2-0.2-0.2-0.3-0.3-0.1-0.1-0.2-0.3-0.1-0.1-0.2-0.2-0.2-0.1-0.3-0.3-0.1-0.1-0.2-0.2-0.1-0.1-0.2-0.2-0.2-0.1-0.3-0.2-0.1-0.1-0.2-0.2-0.1-0.1-0.2-0.2-0.1-0.1-0.3-0.2-0.1-0.1-0.2-0.2-0.1-0.1-0.2-0.1-0.1-0.1-0.3-0.2-0.1-0.1-0.2-0.1-0.1-0.1-0.3-0.2 0 0-0.1-0.1-0.2-0.1-0.4-0.2 0 0-0.1 0-0.2-0.1-0.4-0.2-3.8-1.3-5.9 4.9-2.2 6.2-1.6 13c0.5 4.6 2.1 10.8 5 18.6zm5 39q-0.9-6.8-4.8-17.2l-10.1 28.7q4.4 7.2 7.8 7.9c2.2 0.5 4.1-1.5 5.7-6 1.5-4.3 2-8.8 1.4-13.4z"/>
				</g>
			</g>
			<g id="&lt;Group&gt;">
				<g id="&lt;Clip Group&gt;" clip-path="url(#cp3)">
					<path id="&lt;Path&gt;" class="s18" d="m1835.3 1696.7c-364.9-18-740 52.4-1093.7 210.5-24 10.1-39.3-1-36.4-27.1q28.4-270.8 57.6-540.4c3.5-31.4 32.2-71.3 62.7-86.2 369.1-179.8 758.7-266 1134.4-257.7 28.5 0.6 47.5 22.3 43.3 48.7q-48.7 297.5-96.9 597.9c-4.9 31.1-38.8 56.7-71 54.3z"/>
					<path id="&lt;Path&gt;" class="s19" d="m1834.4 1696.7c-364.6-17.8-739.4 52.5-1092.8 210.6-24.1 10.1-39.3-1.1-36.5-27.2q28.5-270.8 57.7-540.4c3.5-31.4 32.2-71.3 62.7-86.2 368.8-179.6 758.1-265.9 1133.6-257.8 28.5 0.7 47.4 22.4 43.2 48.8q-48.7 297.5-96.9 597.9c-4.8 31.2-38.8 56.7-71 54.3z"/>
					<path id="&lt;Path&gt;" class="s20" d="m1836.9 1696.6c-365.3-18.2-741 52.1-1095.2 210.6-24 10.1-39.3-1-36.5-27.1q28.4-270.8 57.6-540.4c3.5-31.4 32.2-71.4 62.8-86.2 369.6-180 759.8-266.3 1135.9-257.7 28.6 0.7 47.6 22.4 43.4 48.8q-48.7 297.5-96.9 597.8c-4.8 31.1-38.8 56.6-71.1 54.2z"/>
				</g>
				<g id="&lt;Clip Group&gt;" clip-path="url(#cp4)">
					<path id="&lt;Path&gt;" class="s21" d="m1797.7 1548.3l-1124.8 302.1c-25.6 6.2-44.4-7.4-44.8-32.4l-10.6-519.3c-0.5-30.2 25.7-65.4 57.1-76.8l1137.1-412.1c28.8-10.5 51.3 3.2 51.4 31.1l-1.7 629.4c0.1 32.6-30.4 70-63.7 78z"/>
					<path id="&lt;Path&gt;" class="s22" d="m1796.9 1548.6l-1124.1 301.8c-25.6 6.2-44.4-7.4-44.7-32.3l-10.6-519.4c-0.5-30.2 25.7-65.4 57.1-76.8l1136.3-411.8c28.7-10.5 51.3 3.2 51.3 31.1l-1.7 629.4c0.1 32.6-30.4 70-63.6 78z"/>
					<path id="&lt;Path&gt;" class="s23" d="m1799.4 1547.7l-1126.4 302.7c-25.7 6.2-44.5-7.4-44.9-32.4l-10.6-519.3c-0.5-30.2 25.8-65.4 57.2-76.8l1138.6-412.7c28.8-10.5 51.4 3.2 51.5 31l-1.6 629.4c0 32.7-30.5 70.1-63.8 78.1z"/>
				</g>
				<g id="&lt;Clip Group&gt;" clip-path="url(#cp5)">
					<path id="&lt;Path&gt;" class="s24" d="m1744.1 1510.4l-1124.9 302.1c-25.6 6.2-44.4-7.4-44.8-32.3l-10.5-519.4c-0.5-30.2 25.7-65.4 57-76.8l1137.1-412.1c28.8-10.5 51.4 3.2 51.4 31.1l-1.7 629.4c0.1 32.6-30.4 70-63.6 78z"/>
					<path id="&lt;Path&gt;" class="s25" d="m1743.2 1510.7l-1124.1 301.8c-25.5 6.2-44.3-7.3-44.7-32.3l-10.5-519.4c-0.5-30.2 25.7-65.4 57-76.8l1136.3-411.8c28.8-10.4 51.3 3.2 51.4 31.1l-1.7 629.4c0 32.7-30.5 70-63.7 78z"/>
					<path id="&lt;Path&gt;" class="s26" d="m1745.7 1509.8l-1126.4 302.7c-25.6 6.2-44.4-7.4-44.8-32.4l-10.6-519.3c-0.5-30.2 25.7-65.4 57.1-76.8l1138.6-412.7c28.9-10.5 51.5 3.2 51.5 31.1l-1.6 629.4c0.1 32.6-30.5 70-63.8 78z"/>
				</g>
				<g id="&lt;Clip Group&gt;" clip-path="url(#cp6)">
					<path id="&lt;Path&gt;" class="s27" d="m1690.4 1472.6l-1124.9 302c-25.6 6.2-44.4-7.3-44.8-32.3l-10.5-519.4c-0.5-30.2 25.7-65.4 57.1-76.8l1137-412.1c28.8-10.4 51.4 3.2 51.4 31.1l-1.6 629.4c0 32.7-30.5 70-63.7 78.1z"/>
					<path id="&lt;Path&gt;" class="s28" d="m1689.6 1472.9l-1124.1 301.8c-25.6 6.1-44.4-7.4-44.8-32.4l-10.5-519.4c-0.5-30.2 25.7-65.4 57-76.7l1136.3-411.9c28.8-10.4 51.4 3.2 51.4 31.1l-1.7 629.4c0 32.7-30.4 70-63.6 78.1z"/>
					<path id="&lt;Path&gt;" class="s29" d="m1692.1 1472l-1126.5 302.6c-25.6 6.2-44.4-7.4-44.8-32.3l-10.6-519.4c-0.5-30.2 25.7-65.4 57.1-76.8l1138.7-412.7c28.8-10.4 51.4 3.2 51.5 31.1l-1.7 629.4c0.1 32.6-30.4 70-63.7 78.1z"/>
				</g>
				<path id="&lt;Path&gt;" class="s30" d="m2008.6 980c-6.6-23.4-14.7-46.5-24.1-69-57.6-137.6-214.3-209.9-357-224.3-59.8-6-130.8-5.6-187.3 17.3-79.5 32.2-166.3 48.1-248.5 72.4-129.5 38.3-257.3 82.1-384.3 127.9-126.3 45.6-263.4 104.9-319.1 227.1-43.6 95.6-25.2 202.6-18.6 303.5 6.1 92.5-4.9 178.2 6.1 269.8 0.9 7.9 4.2 13.9 9.2 17.9 8.3 7.3 21.4 8.9 36.5 3.6l0.3 16.8c0.1 9.1 2.9 16.6 7.5 21.9 7.8 9.7 21.1 13.7 37.1 9.8l8.6-2.4 0.1 8.6c0.2 9.1 2.9 16.5 7.5 21.9 7.8 9.7 21.1 13.6 37.1 9.7l8.6-2.3 0.1 8.6c0.2 9.1 2.9 16.5 7.6 21.9 7.7 9.7 21 13.6 37 9.7l36.2-9.8c-1.4 13.5-2.8 26.9-4.2 40.3-1.1 9.5 0.4 16.8 3.9 21.7 5.8 8.9 17.9 12.2 32.5 4.7 178.3-92 369.9-161.6 565.3-207 81.1-18.9 163.5-32.6 246.1-41.5 64.4-7 129.3-7.7 194-7.8 33.7-0.1 68.2-2.2 101.8-0.4 25.4 1.3 44.8 4.6 62.9-18.4 10.6-13.5 16.2-30.2 21.5-46.5 63.1-192.8 133.8-401.3 75.6-605.7z"/>
				<g id="&lt;Group&gt;">
					<g id="&lt;Clip Group&gt;" clip-path="url(#cp7)">
						<path id="&lt;Path&gt;" class="s31" d="m1622.5 1378.2c-367.1 144.9-748.8 212.6-1102.1 347.9-24.2 8.6-43.4-0.5-46-22.1-18.8-149.4-37.7-300.4-56.5-453.3-3.2-26.8 18.7-58.6 48-69.2 354.3-130.5 739.7-248.6 1112.7-564.3 28.4-24.2 52.2-22.1 54.5 6.6 15.8 215.2 31.5 435.9 47 662.8 2.5 35.5-25 79.9-57.6 91.6z"/>
						<path id="&lt;Path&gt;" class="s32" d="m1621.7 1378.6c-366.9 144.6-748.3 212.3-1101.4 347.5-24.1 8.6-43.3-0.4-45.9-22-18.8-149.5-37.7-300.5-56.5-453.4-3.2-26.8 18.7-58.6 48-69.2 354-130.3 739.1-248.5 1111.9-563.6 28.4-24.1 52.2-22.1 54.4 6.6 15.9 215.2 31.5 435.8 47 662.5 2.5 35.5-24.9 79.9-57.5 91.6z"/>
						<path id="&lt;Path&gt;" class="s33" d="m1624.1 1377.4c-367.5 145.4-749.8 213.1-1103.6 348.6-24.2 8.7-43.5-0.4-46.1-22-18.8-149.4-37.6-300.4-56.5-453.3-3.2-26.8 18.8-58.6 48.1-69.2 354.7-130.7 740.7-249 1114.3-565.7 28.3-24.2 52.2-22.2 54.4 6.5 15.9 215.4 31.6 436.3 47.1 663.3 2.5 35.5-25 80-57.7 91.8z"/>
					</g>
					<g id="&lt;Group&gt;">
						<path id="&lt;Compound Path&gt;" fill-rule="evenodd" class="s34" d="m1556.2 1047.7c1 11.9-7.8 28.1-19.6 36.2-71.1 49.3-126.9 130.9-131.1 202-0.7 12-10.5 25.6-22.5 30.4-237.9 101.6-477.8 173-708.6 259-10.5 3.6-19.4 0.5-22.1-7.6-13-37.9-55.8-54-104.5-42.6-10.6 2.5-18.6-2.3-19.5-11.9q-6.4-56.5-12.9-113.3c-0.9-10.4 6.7-23.2 18-29.4 55.6-30.4 97.6-88.6 100.6-141.1 0.6-11.1 10.7-23 22.8-27.4 229.9-85.5 469.2-175.7 706.9-322.4 10.5-6.5 19.8-5.2 21.9 3.5 14 57.3 73 74.2 142.5 35.5 10.5-5.9 18.8-2.6 19.5 7.9q4.4 60.4 8.6 121.2zm-824.9 243.1c-40.4 15.4-72.9 60.4-73.8 100.9-1 40.5 38.1 64.9 78.4 49.2 40.3-15.7 66.5-65.6 67.5-105.8 1.1-40.2-31.8-59.8-72.1-44.3zm280.1-158.7c-68.1 29.4-119.7 100.2-121.7 175.5-2.1 75.1 61.9 105.7 129.7 79.3 67.8-26.4 113.8-102.5 116.2-181.1 2.4-78.7-56.1-103.2-124.2-73.7zm305.3-87c-47.2 25.8-79.8 77.2-81.4 127.4-1.6 50.1 43.5 74.9 90.5 52.4 47.1-22.6 78.4-86.9 80.1-140.6 1.7-53.9-42-65.1-89.2-39.2z"/>
						<path id="&lt;Compound Path&gt;" fill-rule="evenodd" class="s35" d="m1375 876.7c-1.9 0.7-3.9 1.7-6 3-237.7 147.2-477 237.8-707.1 323.4-12.1 4.4-22.1 16.3-22.7 27.4-3 52.5-45.1 110.6-100.7 141-11.3 6.2-18.9 19-18 29.4q6.5 56.7 12.9 113.2c0.2 2.9 1.2 5.4 2.7 7.4-9.1 1-15.6-3.7-16.4-12.4q-6.4-56.6-12.9-113.4c-0.9-10.5 6.7-23.3 18-29.5 55.5-30.4 97.5-88.5 100.5-141.1 0.6-11.1 10.6-23 22.7-27.5 229.7-85.1 468.9-174.8 706.7-320.8 8.8-5.4 16.7-5.3 20.3-0.1zm-234.1 329.9c-2.4 78.6-48.4 154.9-116.2 181.2-31.4 12.3-61.9 12.3-85.5 1.3 21 5.5 45.9 3.6 71.2-6.3 67.9-26.4 113.8-102.4 116.2-180.8 1.3-41.7-14.8-68.5-40.4-79.6 33.8 6.5 56.2 34.9 54.7 84.2zm-332.3 129.5c-1 40.2-27.2 90-67.5 105.7-18.7 7.3-37.1 6-51.4-1.5 11.5 2.5 24.4 1.6 37.4-3.5 40.2-15.7 66.4-65.5 67.5-105.8 0.5-20.6-7.8-35.8-21.5-43.6 21.8 4.1 36.2 21.7 35.5 48.7zm602.7-251.4c-1.7 53.8-33.1 118.3-80.2 140.9-22.1 10.8-43.8 10.8-60.4 2.7 14 2.6 30 0.5 46.2-7.4 47-22.5 78.4-86.5 80.1-140.1 0.8-25.5-8.8-41.6-24.2-48.4 23.5 2.1 39.5 19.3 38.5 52.3z"/>
						<path id="&lt;Compound Path&gt;" fill-rule="evenodd" class="s36" d="m1564.2 1050.9c1 11.8-7.8 28.1-19.7 36.2-71 49.5-126.8 131.3-131 202.6-0.7 12-10.5 25.6-22.4 30.5-237.9 101.6-477.9 172.9-708.9 258.7-22.8 8.6-30.3 3.5-34.1-9.4 2.7 3.7 12.4 5.1 19.3 2.6 230.6-86.2 470.5-157.6 708.5-259.2 11.9-4.8 21.7-18.4 22.5-30.4 4.2-70.8 59.9-152.2 131.1-201.5 11.8-8 20.7-24.1 19.7-36q-4.3-60.7-8.6-120.8c-0.3-9.1-4.5-11.1-10.9-10.9 21.7-11.3 25.2 6.4 25.9 15.8q4.3 60.6 8.6 121.8zm-469.8 75.4c-21-5.9-47.2-2.7-74.8 9.2-68.2 29.5-119.9 100.4-121.9 175.7-1 36.8 13.8 62.8 37.1 76.8-31.8-10.8-53.5-39.4-52.3-83.6 2.1-75.3 53.7-146.1 121.8-175.3 34.8-15 67.2-16 90.1-2.8zm284.7-90.8c-15.5-2.6-34.6 1.8-54.4 12.6-47.2 25.9-79.8 77.5-81.3 127.8-0.7 24 9.1 42.1 24.8 52.1-24.2-6.4-41-27.4-40.1-58.4 1.6-50.1 34.2-101.5 81.4-127.2 26.9-14.6 52.8-17.4 69.6-6.9zm-600.2 255.3c-11.4-2.9-25.1-1.9-39.7 3.7-40.4 15.5-72.9 60.4-73.9 100.9-0.4 19.5 8.4 35.4 22.3 44.7-21.9-6.4-37.7-25.8-37.1-51.7 0.9-40.6 33.4-85.5 73.8-100.9 21.7-8.4 41.3-6.5 54.6 3.3z"/>
					</g>
				</g>
			</g>
			<path id="&lt;Compound Path&gt;" class="s37" d="m1484.2 1659.8c-52.2-14-244.7-77.5-271.3-134.1-10.1-21.6-14-46.2-17.7-70.5-7-46.4-12.8-93.1-18.7-139.7-8.6-68-16-136.2-24.2-204.2q-0.3-3.4-0.8-6.7c-3.8-32.4-7.3-64.9-10.9-97.3-1.9-16.7-3.9-33.4-5.9-50.1-1.6-12.7-7.4-30-0.1-41.9 3.2-5.3 9.2-5.4 14.6-7.4 8.9-3.4 18-6.3 27-9.5 0.9-0.3 1.9-0.8 2.3-1.7 0.5-1.3-0.7-2.6-1.7-3.5-9.3-8.5-16.6-15.6-29.2-18.8-11.7-3.1-22.8-1.3-34.4 1.7q-37.3 11.6-74.1 24.6c-48.3 17.1-96 36-142.9 56.7-13.9 6.1-27.9 12.6-39.7 22.4-35.4 29.4-25.2 73.4-22 114.4 4.5 56.6 14.4 112.5 20.9 168.9 11.6 100.3 18.7 199.1 37.3 297.5 5 26.5 11.9 46.9 27.8 67 26 32.7 203 107.6 241.1 116.6 53.1 12.6 103.8 7.2 158-9.8 40.4-10.9 80.4-25.1 120.5-37.5 12.4-3.8 24.8-8.1 35.9-15.1 5.1-3.2 11.3-7.4 14.7-12.6 3.4-5.3-2.2-8.3-6.5-9.4z"/>
			<path id="&lt;Path&gt;" class="s38" d="m1484.2 1659.8c-52.2-14-244.7-77.5-271.3-134.1-10.1-21.6-14-46.2-17.7-70.5-7-46.4-12.8-93.1-18.7-139.7-8.6-68-16-136.2-24.2-204.2q-0.3-3.4-0.8-6.7c-3.8-32.4-7.3-64.9-10.9-97.3-1.9-16.7-3.9-33.4-5.9-50.1-1.5-12-6.7-28-1.3-39.7-4.4 1.2-8.7 2.2-11.3 6.4-7.2 11.8-1.4 29.2 0.1 41.9 2.1 16.7 4 33.4 5.9 50.1 3.7 32.4 7.2 64.9 11 97.3q0.4 3.3 0.8 6.7c8.2 68 15.6 136.2 24.2 204.2 5.9 46.6 11.6 93.2 18.7 139.7 3.7 24.3 7.6 48.9 17.7 70.5 26.6 56.6 219 120 271.3 134 4.3 1.2 9.8 4.2 6.5 9.5-1.4 2-3.1 3.9-5.1 5.6q1.4-0.8 2.8-1.6c5.1-3.2 11.3-7.4 14.7-12.6 3.4-5.3-2.2-8.3-6.5-9.4z"/>
			<path id="&lt;Path&gt;" class="s39" d="m1060.7 1158.2c-0.5-1.3-1.6-2-3.7-2.5-7.9-2-16-3.1-24.1-3.7-1.7-0.2-15.8 0.2-16.1-1.1-2.3-9.6-2.2-20.3-3.1-30.1-0.1-0.8-0.2-1.6-0.6-2.3-0.6-1-1.8-1.4-2.9-1.8-4-1.3-8.4-1.6-12.6-1q0 0 0 0c-7.2 1-14.3 3.1-21.4 4.6-2.7 0.6-2.8 1.6-2.6 3.9q1.5 15.2 3 30.3l0.1 0.3q0.2 2 0.4 3.9-0.1 0-0.2 0.1-0.2 0-0.4 0.1c-14.1 4.5-26.2 14.9-34.3 27.2-6.2 9.5-9.7 20.5-9.4 31.9 0 0 0 0.1 0 0.1 0.3 19 9.8 35.2 28 42.1 4.6 1.8 9.4 2.9 14.3 3.6 1.1 0.2 12.6 1.1 12.6 1.3q2.6 25.3 5.1 50.6c0 0 0.1 0.5 0.1 0.5 0 0.6-13-2.1-14.1-2.4-4.7-1.4-8.8-3.6-13.3-5.6-4.1-1.8-9.4-2.1-13.9-1.7-1.7 0.1-10.9 0.9-10.6 3.3q0.8 8.4 1.7 16.9c0.4 4-0.1 9.7 1.4 13.5q0 0 0 0c1 2.4 6.1 2.9 8.4 3.5q6.6 1.7 13.4 2.8c9.4 1.4 19 1.7 28.5 1.2q0.8 0 1.6-0.1c1 3.5 0.8 7.9 1.2 11.5q0.6 6 1.2 12 0.6 6 1.2 12c0.2 2.7-0.2 7.4 2 9.5 2.2 2.1 5.9 2.4 8.9 2.3 9.4-0.2 18.6-2.6 27.7-5 3.9-1.1 1.8-6 1.5-9q-0.7-6.9-1.3-13.9-1.4-13.8-2.8-27.7 0.3-0.1 0.6-0.2c21.9-7.7 37.9-28.3 42.4-50.3 2.9-14.4-1.1-31.6-11.9-42-9.1-8.8-21.9-12.7-34.3-13.7q-2.3-0.1-4.6-0.2c-2.3-0.1-2.7 0.3-3.1-2-0.8-3.9-0.8-8.1-1.2-12q-1.2-12-2.4-24c-0.1-1.1-0.8-12.4-1.3-12.5 5.4 0.9 10.5 2.9 15.4 5.1 7.3 3.1 15.2 4.9 23.1 3 2.9-0.7 5.4-0.9 5.9-4.2 0.3-2.7-0.7-5.3-0.9-7.9-0.5-5.7-1-11.4-1.9-17.1-0.1-1.3-0.3-2.3-0.7-3.1z"/>
			<path id="&lt;Path&gt;" class="s40" d="m1054 1155.3c-0.6-1.2-1.6-2-3.7-2.5-7.9-2-16-3-24.1-3.7-1.7-0.1-15.9 0.3-16.2-1.1-2.2-9.6-2.1-20.2-3.1-30 0-0.8-0.1-1.7-0.6-2.4-0.6-0.9-1.7-1.4-2.8-1.7-4-1.3-8.4-1.6-12.6-1q0 0 0 0c-7.2 1-14.4 3-21.4 4.5-2.7 0.6-2.9 1.6-2.6 4q1.5 15.1 3 30.2v0.4q0.2 1.9 0.4 3.9 0 0-0.1 0-0.2 0.1-0.4 0.1c-14.2 4.5-26.2 14.9-34.3 27.2-6.2 9.5-9.8 20.6-9.4 31.9 0 0 0 0.2 0 0.2 0.3 18.9 9.7 35.2 28 42.1 4.6 1.7 9.4 2.9 14.2 3.6 1.1 0.2 12.7 1 12.7 1.3q2.5 25.3 5.1 50.6c0 0 0 0.5 0 0.5 0.1 0.5-12.9-2.1-14.1-2.4-4.6-1.5-8.8-3.7-13.2-5.6-4.1-1.9-9.4-2.1-13.9-1.8-1.7 0.2-10.9 1-10.7 3.4q0.9 8.4 1.7 16.8c0.4 4-0.1 9.8 1.4 13.5q0.1 0 0.1 0.1c1 2.3 6.1 2.8 8.3 3.4q6.7 1.8 13.5 2.8c9.4 1.5 19 1.8 28.5 1.2q0.7 0 1.6 0c1 3.4 0.8 7.9 1.1 11.5q0.6 6 1.2 11.9 0.6 6 1.2 12c0.3 2.7-0.1 7.5 2 9.5 2.3 2.2 6 2.4 8.9 2.3 9.4-0.2 18.6-2.6 27.7-5 3.9-1 1.9-5.9 1.6-8.9q-0.7-7-1.4-13.9-1.4-13.9-2.8-27.8 0.4-0.1 0.7-0.2c21.8-7.7 37.9-28.3 42.4-50.3 2.9-14.4-1.2-31.6-12-42-9.1-8.7-21.8-12.7-34.3-13.6q-2.3-0.2-4.5-0.3c-2.3 0-2.7 0.3-3.1-2-0.8-3.9-0.8-8-1.2-12q-1.3-12-2.5-24c-0.1-1.1-0.7-12.4-1.2-12.4 5.3 0.8 10.5 2.9 15.4 5 7.3 3.2 15.2 4.9 23.1 3.1 2.9-0.7 5.4-1 5.8-4.3 0.4-2.6-0.7-5.3-0.9-7.9-0.5-5.7-1-11.4-1.8-17-0.1-1.3-0.3-2.3-0.7-3.2z"/>
			<path id="&lt;Compound Path&gt;" fill-rule="evenodd" class="s41" d="m1036.9 1243.8q10.2 8.8 12 27.2 2.1 20.2-10.3 37.6-12.4 17.5-33.1 24.9 2.5 24.8 5 49.7-7 1.5-14 3-2.5-24.5-5-49-13.2 2.8-27 2.4-13.8-0.4-24.3-3.7-1.4-13.9-2.8-27.7 0.9-0.2 1.8-0.4 10.6 6 23.2 8.4 12.7 2.4 27.1 0.7-3-29.6-5.9-59.2-3.2-0.2-7.7-0.4-4.6-0.2-7.7-0.6-19.1-1.6-28.1-11.3-9.1-9.7-10.7-26.3-2-19.4 10.2-36.8 12.2-17.4 34-24.4-1.9-18.7-3.8-37.4 7-1.5 14-3 1.9 18.5 3.7 37 11.3-2 23.6-1.5c8.2 0.4 20.2 2.6 20.2 2.6l2.8 27.1c0 0-1.3 0.3-1.9 0.4q-9.2-4.7-20-7.4c-7.2-1.8-22.7-1.3-22.7-1.3l6 59c0 0 5.3 0.2 7.7 0.3q3.6 0.3 6.3 0.4 17.1 0.8 27.4 9.7zm-55.7-9.4c0 0-3.8-37.9-5.7-56.8q-10.9 3.5-17.7 12-6.8 8.6-5.6 20.9 1.2 12.2 7.4 17.7 6.1 5.5 21.6 6.2zm40.4 66.7q5.8-8.2 4.5-21.5-1.3-12.9-7.8-17.8-6.6-4.9-20.5-5.1 2.8 28.5 5.7 56.9 12.4-4.3 18.1-12.5z"/>
			<g id="&lt;Group&gt;">
				<path id="&lt;Path&gt;" class="s42" d="m1174.8 475.6c-59.8 37-131.6 11.5-175.1-43-19.8-24.7-32.2-56.1-29.7-88.1 0.9-12.2 4-24.2 9.3-35.2 5.3-11.4 6.7-18.4 14.5-28.2 7.9-10 20.7-22.3 32.6-27.7 6.8-3.1 14-5.5 21.3-7.1 14.7-3.1 29.9-3.2 44.6-0.8 30.9 5 59.8 20.2 83.3 40.6 8.3 7.2 16 15.2 22.9 23.8 26.2 32.8 42.9 64.3 31.9 99-7.3 22.9-31.8 52-55.6 66.7z"/>
				<path id="&lt;Path&gt;" class="s43" d="m1189.4 453c-59.8 37.1-131.6 11.5-175.2-43-43.5-54.5-41.5-125.7 18.3-162.7 59.9-37.1 137-14.5 180.6 40 43.5 54.5 36.1 128.7-23.7 165.7z"/>
				<path id="&lt;Path&gt;" class="s44" d="m1032.9 390.9c-19-23.8-27.4-51.2-23.1-75.3 3.5-19.8 15.2-36 34.7-48.1 51.9-32.3 114.7-7.1 147.4 32.9l0.9 1.1c17.5 22 25 48.5 20.7 72.9-4 22.2-17.2 40.8-38.1 53.8-51 31.7-109.1 3.6-141.4-35.9z"/>
				<path id="&lt;Path&gt;" class="s45" d="m1038.9 388.7c-18-22.5-26.1-48.2-22.3-70.5 3.1-17.9 13.6-32.5 31.3-43.4 48.7-30.1 108.3-5.6 139.6 32.8l0.9 1.1c16.5 20.6 23.8 45.4 19.9 68-3.5 20.3-15.5 37.3-34.7 49.2-47.6 29.4-102.6 2.1-133.6-35.8z"/>
				<g id="&lt;Group&gt;">
					<g id="&lt;Group&gt;">
						<path id="&lt;Path&gt;" class="s46" d="m1166.8 330.5l0.4 4.3 18-7.3-0.4-4.3z"/>
						<path id="&lt;Path&gt;" class="s47" d="m1119.8 327.9c2.3-4.4 8.7-6.4 13.9-5.8 3.5 0.4 7 1.8 10.1 3.7 1.2 0.7 7.1 4.5 7.2 5.7l-0.3-4.4q-0.3-0.2-0.5-0.5-0.1 0-0.1-0.1-0.2-0.2-0.4-0.3c-4.8-4.7-11.3-8.6-18-8.8-5-0.1-9.8 2.1-12.1 6.1-1.4 2.5-0.8 5.4-0.6 8.3q-0.1-1 0.1-1.9 0.2-1.1 0.7-2z"/>
						<path id="&lt;Path&gt;" class="s48" d="m1109.1 343.9q1.4 2.7 2.4 4.5l-0.2-4.6q-1-1.8-2.4-4.5c-0.9-1.9-1.7-3.4-2.2-4.7q-2.7-5.7-3.5-10.3-0.2-1.6-0.3-3 0 0 0 0l0.2 4.7q0.2 5.6 3.8 13.3c0.5 1.3 1.3 2.8 2.2 4.6z"/>
						<path id="&lt;Path&gt;" class="s49" d="m1167.3 359.3c-0.5-3.9-1.5-7.9-3-12.1q-1.2-3.2-3-6.3-1.8-3.2-4.2-6.4l-29 12.3 0.2 4.6 29.1-12.5q4.9 6.4 7.2 12.7c1.6 4.2 2.6 8.2 3.1 12.1l0.8 0.9 13.5-5.8-0.4-4.3-13.4 5.7z"/>
						<path id="&lt;Path&gt;" class="s50" d="m1120.9 367.8l-0.2-4.6q-0.2-3.2-2.5-8-0.7-1.5-1.7-3.3l-28.5 12.9 0.2 4.7 28.5-13q4 7 4.2 11.3z"/>
						<path id="&lt;Path&gt;" class="s51" d="m1071.6 366.5l-0.1-4.8q-5.7-7.6-9.9-16.1-3.1-6.4-4.7-11.9-0.6-1.9-0.9-3.7v4.9q1.6 7.1 5.7 15.6 4.2 8.5 9.9 16z"/>
						<path id="&lt;Path&gt;" class="s52" d="m1135.4 374.9c-2.1 4.5-6.5 7.8-11.8 9.6-8.1 2.7-17.6 1.5-25.8-1.6-3.6-1.5-7.1-3.3-10.4-5.5-1-0.7-9.4-8-9.4-8 0 0-25.2 12-25.2 12l-6.1-8v4.9l6.1 8c0 0 25.3-12.1 25.3-12.1 0.1 0 8.1 7 9 7.6 3.2 2.2 6.7 4.1 10.4 5.6 8.1 3.2 17.7 4.4 25.8 1.8 8-2.5 14.2-8.7 13.8-16.6l-0.3-4.5c0.1 2.5-0.4 4.8-1.4 6.8z"/>
					</g>
					<path id="&lt;Compound Path&gt;" fill-rule="evenodd" class="s53" d="m1166.8 330.5c3.3 3.9 6.3 8.1 9 12.6 2.7 4.5 4.6 8.3 5.8 11.4l-13.4 5.7-0.9-0.9c-0.5-3.9-1.5-7.9-3-12.1q-2.3-6.3-7.2-12.7l-29 12.3q1.3 2.4 2.4 4.5 1.1 2.1 1.9 3.6c3.6 6.6 5 12.2 4.2 17q-1.2 7.3-10.5 11.6c-6.8 3.2-14.7 3.5-23.8 0.9q-13.6-4-24.3-15l-25.2 12-6.1-8 24.8-11.7q-5.7-7.6-9.9-16.1-4.1-8.5-5.6-15.6l13.7-6 0.8 1.1q0.2 7.4 2.9 15.5 2.7 8.1 8.3 16.4l29.6-13.2q-1-1.8-2.4-4.5c-0.9-1.9-1.7-3.4-2.2-4.7-3.6-7.6-4.6-13.8-3.2-18.3q2.1-6.8 10.1-10.1c8.4-3.4 17.7-1.5 25.7 2 4.3 2 8.3 4.4 12 7.2 1 0.7 8.5 8 9 7.8 0 0 18-7.2 18-7.2l6.5 7.2zm-44 8.4c0 0 27.8-11.7 27.8-11.7-6.2-6.4-16-12.4-25-8.7q-6 2.5-6.8 6.9-0.8 4.4 4 13.5zm-2.2 25.7q0.4-4.6-4.1-12.6l-28.5 12.8c4.2 4.4 8.5 7.2 12.7 8.5q6.3 1.9 13-1.2c4.4-2 6.6-4.5 6.9-7.5z"/>
				</g>
			</g>
			<g id="&lt;Clip Group&gt;" clip-path="url(#cp8)">
				<path id="&lt;Path&gt;" class="s54" d="m2208.9 1799.1c0 122.1-98.9 221.1-221 221.1-122.1 0-221-99-221-221.1 0-122.1 98.9-221 221-221 122.1 0 221 98.9 221 221z"/>
				<path id="&lt;Path&gt;" class="s55" d="m2089.6 1833.8c-94.6 29.5-202.8 18.2-265.6-14.8-62.8-32.9-54.3-80.8 40.3-110.3 94.6-29.6 211.3-20.7 274.1 12.3 62.8 33 45.9 83.2-48.8 112.8z"/>
				<path id="&lt;Path&gt;" class="s56" d="m1859.2 1799.7c-27.6-14.6-39-32.2-31.4-48.3 6.3-13.4 24.6-24.8 54.5-34 79.6-24.5 172.8-11.8 220.2 12.6l1.3 0.7c25.4 13.4 35.5 30.5 27.8 46.9-7 14.9-27.7 28-59.8 37.9-78.2 24.1-164.2 9.1-211.1-15z"/>
				<path id="&lt;Path&gt;" class="s57" d="m1863.5 1802.8c-26-13.6-36.6-30.2-29-45.4 6.1-12.2 23.3-22.8 51.3-31.6 77-24 166.6-12.4 211.9 10.8l1.3 0.7c23.8 12.5 33 28.5 25.3 43.9-6.9 13.9-26.5 26.2-56.9 35.7-75.2 23.5-157.6 9.6-202.3-13.3z"/>
				<g id="&lt;Group&gt;">
					<g id="&lt;Group&gt;">
						<path id="&lt;Path&gt;" class="s58" d="m1973.2 1753.4q0 0 0-0.1l0.3 8.1-46.2 5.3 0.5 11.9 47.6-5.5q0 0.5 0.1 1.1l-0.5-11.8q0-0.6-0.1-1.2l-1.4 0.2-0.2-6c-0.1-0.4-0.1-0.9-0.1-1.3l-0.1-1.9q0-0.3 0-0.6z"/>
						<path id="&lt;Path&gt;" class="s59" d="m1922.7 1766.4c-0.2-5.5 2.5-10.8 6.2-14.7 0 0-0.5-11.9-0.5-11.9-3.7 3.9-6.4 9.3-6.2 14.7q0.3 6 0.5 11.9z"/>
						<path id="&lt;Path&gt;" class="s60" d="m1995 1774c-0.1-1.7-0.1-3.2 0-3.2l49.2-5.7q1 2.4 1.1 4.7l-0.5-11.8q-0.1-2.4-1-4.7l-3.3 0.4-0.2-6q-0.2-0.2-0.4-0.4c-4.2-4.8-11.2-7-17.4-7.6-6.1-0.7-12.2 0-18.2 1.3-2.6 0.6-5.3 1.3-7.5 2.8-3.1 2.1-4.2 5.5-4 9.1l0.4 11.8q0-1.5 0.2-2.7 0-0.3 0.1-0.6c0.7-3.8 3.8-6.2 7.3-7.5 3.4-1.2 7.2-1.8 10.8-2.2q2.5-0.3 4.9-0.4 0.1 0 0.2 0c5.5-0.2 11.1 0.6 16.3 2.7 0.2 0.1 0.4 0.2 0.8 0.4 0 0-39.4 4.6-39.4 4.6 0.1 0 0.1 7 0.1 7.7-0.3 2.7-1.3 5.1-3.1 7.2-3.4 3.9-8.6 5.8-13.5 7.1-6.7 1.8-13.5 2.6-20.4 2.8-8.3 0.2-16.7-0.7-24.8-3.1-7.9-2.3-16.4-5.9-22-12l-3.8 0.4-0.2-6q-3.1-5.4-3.6-11.1 0-0.6-0.1-1.2l0.5 11.9q0 0.6 0.1 1.2 0.2 2.7 1.1 5.4l-35.6 4.2-3.4-5.7 0.5 11.9 3.4 5.6c0 0 41.5-4.8 41.5-4.8 0.5-0.1 2.9 2.7 3.4 3.1 1.3 1 2.6 2 4.1 2.8 3.7 2.3 7.7 4 11.9 5.4 8.9 2.8 18.2 4.1 27.6 3.8 5.5-0.1 11-0.7 16.4-1.9 5.3-1.2 11.3-2.8 15.5-6.2 2.6-2.2 4.6-5.2 5-8.5 0.1-0.3 0-2.8 0-5z"/>
						<path id="&lt;Path&gt;" class="s61" d="m2063.2 1762.9l28.6-3.3-0.4-11.8-31 3.6 0.5 11.8 2.2-0.3c0 1.1 0 2.2-0.1 3.1q-0.3 2-0.9 3.5l-22.7 2.7-0.4-0.8 0.5 11.9 0.4 0.7 22.7-2.6q0.1-0.4 0.2-0.7 0.4-1.3 0.6-2.8 0 0 0 0 0.3-2 0.2-4.3z"/>
					</g>
					<path id="&lt;Compound Path&gt;" fill-rule="evenodd" class="s62" d="m2060.4 1751.4q2.4 4.5 2.7 9.6 0.3 5.1-1 8.5l-22.7 2.7-0.4-0.8q3.4-4.1 5.1-8.7 1.6-4.6-0.3-9.4l-49.4 5.7q0.2 1.7 0.2 3.2 0 1.5 0 2.6 0.4 7.2-6.5 11.9-6.8 4.7-22.2 6.5-16.9 2-32.3-2.2-15.5-4.2-22.9-12.3l-41.6 4.8-3.4-5.7 41-4.7q-3.1-5.4-3.6-11.1-0.5-5.7 1.7-10.2l23.2-2.7 0.4 0.7q-4.4 4.7-5.7 10.1c-0.9 3.6-0.6 7.3 1 11.2l49.6-5.7q-0.1-1.3-0.2-3.2-0.1-1.9 0.1-3.2c0.2-5.3 2.8-9.4 7.9-12.3q7.6-4.3 21.4-5.9 16.4-1.8 31.7 2.2 0.4 0.2 0.9 0.3c0.5 0.1 0.7 0.2 0.9 0.3 0.6 0.1 0.7 0.2 0.9 0.2 0.6 0.2 0.8 0.3 0.9 0.3 0.6 0.2 0.7 0.3 0.9 0.3 0.5 0.2 0.7 0.3 0.9 0.3 0.5 0.2 0.6 0.3 0.8 0.3 0.5 0.2 0.7 0.3 0.8 0.3 0.5 0.2 0.7 0.3 0.8 0.4 0.6 0.2 0.7 0.2 0.8 0.3 0.5 0.2 0.7 0.3 0.8 0.3 0.5 0.3 0.7 0.3 0.8 0.4 0.5 0.2 0.6 0.3 0.7 0.3q0.2 0.1 0.4 0.2 0.2 0.1 0.4 0.2 0.2 0.1 0.3 0.2 0.2 0.1 0.4 0.2 0.2 0.1 0.3 0.2 0.2 0.1 0.4 0.2 0.2 0.1 0.3 0.1 0.2 0.2 0.4 0.3 0.2 0.1 0.3 0.1 0.2 0.2 0.4 0.3 0.1 0.1 0.3 0.2 0.2 0.1 0.3 0.2 0.2 0.1 0.3 0.2 0.2 0.1 0.4 0.2 0.1 0.1 0.3 0.2 0.1 0.1 0.3 0.2 0.2 0.1 0.3 0.2 0.2 0.1 0.3 0.2 0.2 0.1 0.3 0.3 0.2 0.1 0.3 0.2 0.2 0.1 0.3 0.2 0.1 0.1 0.3 0.2 0.1 0.1 0.3 0.3c0.3 0.2 0.4 0.3 0.6 0.4 0.3 0.3 0.4 0.4 0.5 0.5 0.7 0.7 1.3 1.2 1.9 1.8 0.2 0.3 0.3 0.4 0.4 0.5 0.3 0.4 0.5 0.6 0.7 0.7l31.2-3.6 3.4 5.7zm-67.7 1.8l47.5-5.5q-0.2-0.2-0.3-0.4c-0.2-0.2-0.4-0.4-0.5-0.5q0-0.1 0-0.1-0.3-0.2-0.5-0.4 0 0 0-0.1-0.3-0.2-0.5-0.4 0 0-0.1 0-0.2-0.2-0.5-0.4c-0.2-0.2-0.4-0.4-0.6-0.5q-0.3-0.2-0.6-0.4-0.3-0.2-0.6-0.4-0.3-0.2-0.6-0.4-0.4-0.2-0.7-0.4c-0.3-0.1-0.5-0.3-0.7-0.4q-0.1 0-0.1 0-0.3-0.2-0.7-0.3 0 0-0.1-0.1-0.3-0.1-0.6-0.3-0.1 0-0.1 0-0.4-0.2-0.8-0.3 0 0-0.1 0-0.3-0.2-0.7-0.3 0 0-0.1 0-0.4-0.2-0.8-0.3-0.5-0.2-0.9-0.3-7.6-2.3-17.9-1.1-10.2 1.1-14.4 4-4.3 2.8-4 9.3zm-20.9 16.8q3.7-3 3.1-8.7l-47.6 5.5q4.4 4.8 11.6 6.8 7.3 1.9 18.4 0.6 10.8-1.2 14.5-4.2z"/>
				</g>
			</g>
			<g id="&lt;Group&gt;">
				<path id="&lt;Path&gt;" class="s63" d="m685 675.9c64.9 79.7 45.9 183-19.4 250-29.7 30.3-70.2 51.2-114.9 51.2-17.1 0-34.4-3.1-50.9-9.2-16.9-6.3-26.9-7.4-42.2-17.2-15.6-10.1-35.5-26.7-45.7-42.7-5.9-9.2-10.8-19-14.7-29.2-7.7-20.1-11.2-41.4-11.3-62.3-0.1-43.8 14.3-86 37.1-121.1 8.1-12.4 17.3-24.1 27.6-34.6 39.4-40.4 79.1-67.2 129.5-55.5 33.3 7.7 79.2 38.8 104.9 70.6z"/>
				<path id="&lt;Path&gt;" class="s64" d="m681.5 734.3c16.2 104.1-44.4 188.7-125.7 217.5-81.4 28.8-162-15-178.2-119.1-16.2-104.1 43.3-197.8 124.7-226.6 81.3-28.9 163 24.1 179.2 128.2z"/>
				<path id="&lt;Path&gt;" class="s65" d="m535.1 906.7c-35.9 12.6-71 8.9-96.5-10-21-15.6-34.1-40.1-39-72.9-13-87.3 44.4-157.8 105-180l1.7-0.6c33-11.5 66.8-7.2 92.5 12 23.5 17.5 38.7 45.3 44 80.5 12.8 85.8-45.8 148.4-105.7 170.3z"/>
				<path id="&lt;Path&gt;" class="s66" d="m540.2 905.2c-33.7 12-66.7 8.4-90.4-9.7-19.1-14.6-31.2-37.6-36-68.4-13.2-84.7 40.9-152.9 98.5-174.2l1.7-0.6c30.8-10.9 62.4-6.6 86.5 11.8 21.7 16.5 35.9 42.9 41.1 76.3 12.9 82.8-42.5 143.1-99.4 164.1z"/>
				<path id="&lt;Path&gt;" class="s67" d="m552.3 681.2l-6.7-4.4-4 28.6 6.7 4.4z"/>
				<path id="&lt;Path&gt;" class="s68" d="m499.8 750.9c0.2 8 6.2 11 12.1 14.9q-1.3-0.8-2.2-1.8c-5.7-6.3-3.3-17.7 1-24 4.7-6.9 12.7-11.2 20.7-13.1 0.4-0.1 0.7-0.2 1.2-0.3q0.4 0 0.8-0.1c-2.7-1.8-5.1-4.2-8.3-4-6.6 0.5-14.1 4.7-18.4 9.6-4.5 5.1-7 11.9-6.9 18.8z"/>
				<path id="&lt;Path&gt;" class="s69" d="m511.6 786.4c1.8 0.3 4 0.7 6.5 1q2 0.3 3.6 0.5 1.7 0.2 3 0.4 0 0 0 0l-6.6-4.3c-1.8-0.3-4-0.6-6.6-0.9-2.6-0.3-4.8-0.7-6.6-1.1q-10.5-1.7-16.6-5.7l6.6 4.3q6.2 4 16.7 5.8z"/>
				<path id="&lt;Path&gt;" class="s70" d="m579.3 709.5l-2.9 20.9-1.7 0.2q-7.1-4.3-15.9-7.2-8.7-2.9-19.3-2.6l-6.4 45.5 6.7 4.3 6.3-45.5q10.6-0.2 19.4 2.7 8.7 2.9 15.9 7.1 0 0 0 0l1.6-0.1 3-21z"/>
				<path id="&lt;Path&gt;" class="s71" d="m516.2 849.7l-6.7-4.4c-8 0.8-16 0.7-23.9-0.2q-11.8-1.3-20.3-4.6l6.7 4.3q8.4 3.3 20.3 4.7 8.9 1 17.8 0.6 3-0.2 6.1-0.4z"/>
				<path id="&lt;Path&gt;" class="s72" d="m524.4 828.2l6.7 4.3 6.1-43.9q10.3 1 15.2 4.2l-6.7-4.3q-4.9-3.2-15.1-4.2z"/>
				<path id="&lt;Path&gt;" class="s73" d="m578.8 793.3c-1.6-9.3-8.9-14.6-16.2-19.5 6.8 3.6 9.8 11.9 9.8 19.6 0.1 11.8-5.8 23.2-14.3 31.5-9.3 9.1-21.8 15.4-34.5 18.3q-0.7 0.2-1.3 0.3l-5.4 38.4-12.7 1.2 6.6 4.3 12.8-1.2c0 0 5.3-38.3 5.3-38.3 12.6-2.7 25.2-8.7 34.7-17.5 9.1-8.4 15.4-20.1 15.5-32.5q0-2.4-0.3-4.6z"/>
				<path id="&lt;Compound Path&gt;" fill-rule="evenodd" class="s74" d="m541.6 705.4q10.1-0.7 20.7 0.6c7 0.9 12.6 2.1 17 3.5l-2.9 20.9-1.7 0.2q-7.1-4.3-15.9-7.2-8.7-2.9-19.3-2.6l-6.4 45.5c2.4 0.2 4.6 0.5 6.6 0.8q3.1 0.5 5.4 0.8 14.6 1.9 21.8 9.4 7.1 7.5 5.1 21.7-2.2 15.6-16.3 28-14.1 12.4-33.4 16.5l-5.4 38.4-12.7 1.2 5.3-37.8c-8 0.8-16 0.7-23.9-0.2q-11.8-1.3-20.3-4.6l3-21.4 1.7-0.2q7.9 5.4 18.4 8.2c7 1.9 14.8 2.7 23.3 2.6l6.4-45.7c-1.8-0.3-4-0.6-6.6-0.9-2.6-0.3-4.8-0.7-6.6-1.1q-16.1-2.6-22-10.7-6-8.1-4.2-20.9c2.6-18.7 19.2-32.8 35.9-39.4 4.1-1.7 8.3-2.8 12.6-3.7 0.7-0.2 1.2-0.3 1.7-0.4l4-28.8 12.7-1.3zm-21 60.6l6.2-43.9q-0.4 0.1-0.8 0.2c-12.1 2.5-24 10.3-25.8 23.3-0.9 6.2 0.1 11 2.9 14 2.8 3.1 8.7 5.2 17.5 6.4zm26.7 23.7c-3.1-2.8-8.7-4.6-16.7-5.4l-6.1 43.9q11.5-2.4 18.1-8.2 6.6-5.9 8-16.1 1.4-10-3.3-14.2z"/>
			</g>
			<g id="&lt;Group&gt;">
				<path id="&lt;Path&gt;" class="s75" d="m1278.3 963.5c-10.7 15.5-25.7 29.2-39.1 39.3-44.4 33.4-139.3-1.3-224.9-71.2-43-35.2-74.7-80-90.9-133.9-5.9-19.8-9.1-41.4-5-62 4.7-24.1 14.5-40.2 31.4-56.9 5.2-5.2 10.5-10.2 15.9-15.2 43.6-34.5 133.9-4.8 219.7 65.3 44 35.9 81.9 84 99.6 138.5 6.6 20.1 10.6 42.1 7.4 63.3-1.8 11.5-7 22.5-14.1 32.8z"/>
				<path id="&lt;Path&gt;" class="s76" d="m1278.3 963.5c-10.7 15.5-25.7 29.2-39.1 39.3-44.4 33.4-139.3-1.3-224.9-71.2-43-35.2-74.7-80-90.9-133.9-5.9-19.8-9.1-41.4-5-62 4.7-24.1 14.5-40.2 31.4-56.9 5.2-5.2 10.5-10.2 15.9-15.2 43.6-34.5 133.9-4.8 219.7 65.3 44 35.9 81.9 84 99.6 138.5 6.6 20.1 10.6 42.1 7.4 63.3-1.8 11.5-7 22.5-14.1 32.8z"/>
				<path id="&lt;Path&gt;" class="s77" d="m1194.3 720c92.3 75.4 132.2 187.1 93.2 234.8-38.9 47.7-142 13.2-234.3-62.2-92.3-75.5-126.7-181.3-87.8-229 39-47.7 136.5-19.1 228.9 56.4z"/>
				<path id="&lt;Path&gt;" class="s78" d="m1227.9 948.4c-43.5 0-95.3-21.8-154.8-72.7-85.3-72.9-110.9-150.3-80.2-189.7 9.1-11.6 23.3-17.5 42.3-17.5 42.4 0 90 19.4 147.1 68.2 40.3 34.5 70.2 68.2 86.4 112.6 14.6 39.5 13.3 64.5-1.1 83-8.3 10.7-21.7 16.1-39.7 16.1z"/>
				<path id="&lt;Path&gt;" class="s79" d="m1207.9 942.8c-26.7 0.1-51.6-12.4-74.3-25.3-29.9-17-56.7-39.2-81.3-63-22-21.2-40.3-44.9-54.4-72.1-11-21.5-25.6-56.3-6.3-77.1 11.7-12.5 28.4-13.5 45.1-12.9 63.7 2.1 124.4 46.7 164.2 93.7 21.9 25.8 43 52.7 50.4 86.4 5.3 24.5 1.4 59.3-26.5 67.9-5.4 1.7-11.1 2.4-16.9 2.4z"/>
				<g id="&lt;Group&gt;">
					<g id="&lt;Group&gt;">
						<path id="&lt;Path&gt;" class="s80" d="m1059.7 764.8q9 8.6 18.1 17.2 8.7 8.2 17.3 16.4 2.7 2.6 5.3 5.1l9.6-11c0 0-36.8-35-36.8-35 4.2-0.9 8.6-0.9 12.9-0.5q3.2 0.3 6.3 0.9c0.9 0.1 4.6 1.3 5.3 0.9l0.9-0.5 8.9-10.2-0.9 0.6q-0.1-0.1-0.2-0.1c-10-2.1-21.3-3.7-30.8 0.8l-5 5.6-1.3-1.2c-3.4 3.4-6.4 7.3-9.6 11z"/>
						<path id="&lt;Path&gt;" class="s81" d="m1169.2 848.9q-17.9-17.1-35.8-34.1c4.3-0.2 8.5 1.2 12.3 3.3 3.7 2 7 4.8 10.2 7.7 6.9 6.2 19.7 19 10.6 28.6 0 0 8.9-10.2 8.9-10.2 3.2-3.6 3.7-8.6 1.9-13-1.4-3.6-4-6.9-6.6-9.7-4.8-5.4-10.6-10.7-17-14-6-3.1-12.7-3.6-19.1-2l-5 5.7c0 0-2.8-2.8-2.9-2.8-13.2 2.9-25.9 2.8-38.1-3.8-9-4.9-17-11.6-23.9-19.2-5.2-5.7-9.8-12.2-12.5-19.4-3.3-8.8-3.4-18.3 3-25.7l-26.7-25.4-8.9 10.2 26.7 25.4-0.8 0.9q-0.1 0.1-0.2 0.2c-0.1 0.2-0.3 0.3-0.4 0.5-3 3.7-4.2 8.6-4 13.2 0.7 13.8 9.8 25.9 19.4 35q0.1 0.1 0.2 0.2c7.7 7.3 16.5 13.8 26.5 17.5 10.4 3.7 20.3 2.9 30.9 0.6l42.4 40.4q4.5-5 8.9-10.1z"/>
						<path id="&lt;Path&gt;" class="s82" d="m1218.9 896.1c0 0-35.1-33.4-35.1-33.4 0 0-5.1 2.8-5.6 3q-3.4 1.5-7 2.5c-6.1 1.6-12.5 2.2-18.8 1.7l-19.9-18.9-8.8 10.2c0 0 19.8 18.9 19.8 18.9 0.4 0.4 2.8 0.2 3.4 0.2q2.2 0 4.3-0.1 4.3-0.3 8.5-1.2c5.3-1.2 10.6-3.1 15.2-6.1l35.1 33.4 6.3-4.4 8.9-10.1z"/>
					</g>
					<path id="&lt;Compound Path&gt;" fill-rule="evenodd" class="s83" d="m1061.3 735.8q5.4-3.2 13-4.8 7.6-1.6 13.7-1.4l19.5 18.5-0.9 0.6q-8.6-1.9-16.8-2.1-8.1-0.1-14.2 2.8l42.3 40.2q2.4-0.6 4.8-1 2.3-0.4 3.9-0.7 10.7-2.2 22.6 2.4 11.9 4.5 25.1 17.1 14.5 13.7 18.6 27.9 4.1 14.1-3.3 22.6l35.6 33.9-6.3 4.3-35.1-33.4q-6.1 4-14.5 6-8.5 1.9-16.9 1.2l-19.9-18.9 0.9-0.5q10.2 2.5 19.3 2.2c6.1-0.3 11.6-1.5 16.5-3.8l-42.4-40.5q-2 0.5-4.9 1-2.8 0.6-5 0.8c-8.2 1.2-16.2 0.1-24.1-3.4q-11.7-5.3-23.6-16.7c-11.6-11-29-34.5-14-49.8l-26.7-25.4 6.3-4.3zm48.7 56.7c0 0-40.7-38.7-40.7-38.7-8.4 8.3 1.6 20.7 7.8 26.7q8.8 8.3 16 11.1 7.3 2.9 16.9 0.9zm40 13.3q-7-2.4-15.5-0.3l40.8 38.8c3-3.4 3.9-7.2 2.5-11.6q-1.9-6.7-11.5-15.7-9.2-8.8-16.3-11.2z"/>
				</g>
			</g>
			<g id="&lt;Group&gt;">
				<path id="&lt;Path&gt;" class="s84" d="m1951 1770c-20.5 107.4-125.1 162.8-233.2 155.4-49.1-3.3-98.1-22-132.1-58.5-13-13.9-23.4-30.1-30.6-47.7-7.4-18.1-14-27-17-46.2-3.1-19.5-3.7-47.1 2.5-66.4 3.6-11.1 8.4-21.8 14.3-31.9 11.8-20.1 27.7-37.6 45.9-51.9 38.2-30.1 86-47.3 134-52.8 17-1.9 34.2-2.4 51.2-1.2 65.2 4.4 118.8 18.3 146.9 67.5 18.6 32.4 26.2 91 18.1 133.7z"/>
				<path id="&lt;Path&gt;" class="s85" d="m1951 1770c-20.5 107.4-125.1 162.8-233.2 155.4-49.1-3.3-98.1-22-132.1-58.5-13-13.9-23.4-30.1-30.6-47.7-7.4-18.1-14-27-17-46.2-3.1-19.5-3.7-47.1 2.5-66.4 3.6-11.1 8.4-21.8 14.3-31.9 11.8-20.1 27.7-37.6 45.9-51.9 38.2-30.1 86-47.3 134-52.8 17-1.9 34.2-2.4 51.2-1.2 65.2 4.4 118.8 18.3 146.9 67.5 18.6 32.4 26.2 91 18.1 133.7z"/>
				<path id="&lt;Path&gt;" class="s86" d="m1940.4 1729.6c-20.4 107.4-150.1 157.4-233.2 155.4-108.1-7.4-187.6-84.5-167.2-191.9 20.5-107.4 127.3-172.1 235.5-164.7 108.2 7.3 185.4 93.8 164.9 201.2z"/>
				<path id="&lt;Path&gt;" class="s87" d="m1705 1843.5c-47.3-3.2-87.6-22.4-110.6-52.6-19-24.9-25.3-55.3-18.7-90.3 17.6-93.3 112.3-138.7 192.6-134.2l2.1 0.2c43.6 2.9 81.9 22.2 105.3 52.8 21.2 27.9 28.7 62.5 21.6 100.2-17.3 91.7-110.5 128.6-189.7 124.1z"/>
				<path id="&lt;Path&gt;" class="s88" d="m1708.8 1834.3c-44.8-3-82.8-20.7-104.3-48.5-17.2-22.3-22.8-49.7-16.8-81.5 16.6-87.3 107.3-129.8 184.2-125.4l2.2 0.1c41 2.8 77 20.6 98.7 48.8 19.6 25.3 26.5 56.9 19.9 91.4-16.2 85.4-105.3 119.6-181.3 115.3z"/>
				<g id="&lt;Group&gt;">
					<g id="&lt;Group&gt;">
						<path id="&lt;Path&gt;" class="s89" d="m1795.4 1609.3l-4.6-8.8-11.9 27.7 4.6 8.8z"/>
						<path id="&lt;Path&gt;" class="s90" d="m1717.2 1669.3q0 0.7 0.1 1.3 0 0 0.1 0 0 0 0 0 0.1 0.6 0.2 1.1 0.2 0.6 0.4 1 0.1 0.4 0.3 0.7l4.6 8.8q-0.6-1.3-0.9-2.7 0 0 0 0-0.3-1.5-0.2-3.1 0-0.2 0-0.4 0.1-1.3 0.5-2.7 0.1-0.5 0.2-0.9c0.3-1.1 0.7-2.2 1.2-3.4 0.6-1.4 1.3-2.6 2.1-3.8 0.3-0.5 0.7-1 1.1-1.5 0.7-0.9 1.4-1.8 2.3-2.7q0.1-0.1 0.2-0.2 1.7-1.6 3.9-3 0.1 0 0.2-0.1 2.1-1.4 4.7-2.5c0.4-0.2 0.8-0.3 1.3-0.5q0.6-0.3 1.2-0.5 0.1 0 0.1 0 0.6-0.2 1.2-0.4 0.1-0.1 0.2-0.1 0.5-0.2 1.1-0.4 0.1 0 0.2 0 0.6-0.2 1.1-0.4 0.1 0 0.3 0 0.5-0.2 1.1-0.3 0.1 0 0.2-0.1 0.6-0.1 1.2-0.3 0.1 0 0.2 0 0.6-0.1 1.2-0.3 0.1 0 0.2 0 0.6-0.1 1.2-0.2 0.1 0 0.2 0c0.4-0.1 0.8-0.2 1.3-0.3 0.5 0 0.9-0.1 1.4-0.2 1-0.1 1.9-0.2 2.9-0.2 0.5-0.1 0.9-0.1 1.5-0.1 0.4-0.1 0.9-0.1 1.5-0.1 0.4 0 0.9 0 1.5 0q0.5 0 1 0l-4.6-8.9q-0.5 0-1 0c-0.6 0.1-1.1 0.1-1.5 0.1-0.6 0-1.1 0-1.5 0-0.6 0.1-1.1 0.1-1.5 0.1q-0.6 0.1-1.1 0.1-0.9 0.1-1.8 0.2c-0.5 0.1-0.9 0.1-1.4 0.2-0.5 0.1-0.9 0.2-1.4 0.2q-0.1 0-0.1 0.1-0.5 0-0.9 0.1-0.2 0-0.4 0.1-0.1 0-0.2 0-0.5 0.1-1.1 0.3-0.1 0-0.3 0-0.5 0.2-1.1 0.3-0.1 0-0.2 0.1-0.4 0-0.7 0.1-0.2 0.1-0.5 0.2-0.1 0-0.2 0-0.6 0.2-1.1 0.4-0.1 0-0.2 0-0.6 0.2-1.2 0.4 0 0 0 0-0.1 0-0.1 0-0.6 0.2-1.2 0.5-0.1 0-0.1 0-0.6 0.2-1.2 0.5-0.1 0-0.3 0.1-0.5 0.2-1 0.4-0.6 0.3-1.3 0.6-0.8 0.4-1.6 0.8-0.8 0.4-1.5 0.9-0.2 0.1-0.4 0.2-0.1 0.1-0.2 0.1-0.4 0.3-0.9 0.6-0.7 0.5-1.4 1-0.7 0.6-1.4 1.3-0.1 0-0.1 0.1-0.1 0.1-0.2 0.2-0.7 0.6-1.3 1.3c-0.4 0.4-0.7 0.9-1 1.4-0.4 0.5-0.8 0.9-1.1 1.5-0.2 0.2-0.4 0.3-0.5 0.5q-0.9 1.5-1.5 3-0.1 0.1-0.1 0.2c-0.5 1.2-0.9 2.4-1.2 3.5q-0.1 0.4-0.2 0.8c-0.1 0.4-0.2 0.7-0.3 1-0.1 0.6-0.1 1.2-0.2 1.8q0 0.2 0 0.4 0 0-0.1 0.1 0 0.8 0.1 1.6z"/>
						<path id="&lt;Path&gt;" class="s91" d="m1696.2 1690.6q0.2 0.3 0.3 0.6 5.2 9.2 24 15c2.1 0.7 4.6 1.5 7.6 2.3 3.1 0.9 5.7 1.6 7.8 2.2l-4.7-8.9c-2.1-0.5-4.6-1.3-7.7-2.1-3-0.8-5.6-1.6-7.6-2.3q-18.8-5.8-24-15-0.1-0.3-0.3-0.6 0 0 0 0z"/>
						<path id="&lt;Path&gt;" class="s92" d="m1823.4 1639.5l-8.7 20.3-2.1-0.1q-7.5-5.7-17.4-10.3-2.4-1.1-5.1-2.1-7.9-2.9-17.5-4.2l-18.9 44 4.6 8.9 18.9-44.1q12.8 1.8 22.7 6.4 9.8 4.6 17.4 10.2l2 0.1 8.7-20.2z"/>
						<path id="&lt;Path&gt;" class="s93" d="m1766.4 1715.1q-0.5-1-1.3-1.9c-3.1-3.4-9.4-6.3-18.9-8.6l-18.2 42.5 4.7 8.9 18.1-42.6c9.5 2.4 15.8 5.2 18.9 8.6q0.8 0.9 1.3 1.9 0 0 0 0z"/>
						<path id="&lt;Path&gt;" class="s94" d="m1710.4 1770.1l-4.6-8.8c-9.8-0.8-19.4-2.4-28.7-4.8q-10.5-2.7-18.4-6.2-2.6-1.1-5-2.4l4.7 8.8q9.3 5 23.3 8.6 3.5 0.9 7 1.7 10.6 2.2 21.7 3.1z"/>
						<path id="&lt;Path&gt;" class="s95" d="m1799.9 1723.8c0-0.3 0-0.7 0-1q0 0 0 0 0-0.3-0.1-0.5 0-0.8-0.2-1.6 0-0.1 0-0.2-0.1-0.3-0.2-0.6-0.1-0.5-0.3-1 0-0.2-0.1-0.4-0.1-0.4-0.3-0.7-0.1-0.3-0.2-0.6-0.2-0.6-0.5-1.2l-4.7-8.8q0.5 0.9 0.8 1.8 0.1 0.3 0.3 0.6 0.2 0.7 0.4 1.5 0.1 0.3 0.1 0.6 0.2 0.9 0.3 1.8 0 0.2 0.1 0.4c0 0.4 0 0.7 0 1.1 0 0.4 0 0.9 0 1.4q0 0.2 0 0.4-0.1 1.3-0.3 2.7-0.1 0.5-0.2 1-0.3 1.2-0.6 2.4-0.2 0.5-0.3 1-0.6 1.6-1.3 3.4c-0.1 0.2-0.2 0.4-0.3 0.7q-0.9 1.9-2 3.6-0.5 1-1.2 2-0.4 0.6-0.8 1.2-0.9 1.2-1.9 2.3-0.3 0.4-0.7 0.8c-0.5 0.6-1.1 1.2-1.7 1.8-0.5 0.5-0.9 0.9-1.4 1.4q-1.5 1.4-3.2 2.8-0.4 0.3-0.9 0.6-1.3 1-2.7 2-0.7 0.4-1.3 0.8-1.3 0.8-2.7 1.7-0.7 0.4-1.5 0.8-2 1.1-4.2 2.2c-1.1 0.5-2.3 1-3.4 1.5q-1 0.4-2 0.9c-0.7 0.3-1.5 0.5-2.3 0.8q-1.4 0.6-2.9 1.1-0.9 0.3-1.8 0.6-2 0.7-4 1.2-0.9 0.3-1.8 0.5-2.6 0.6-5.1 1.2-1 0.1-1.9 0.3-4.4 0.8-9.1 1.3-0.8 0.1-1.7 0.1c-2.8 0.3-5.6 0.5-8.4 0.5l-15.9 37.1-15.7-1.2 4.6 8.8 15.7 1.2 15.9-37.1c2.8 0 5.6-0.2 8.4-0.4 0.4-0.1 0.7 0 1-0.1 0.3 0 0.5-0.1 0.7-0.1q4.7-0.4 9.1-1.3c0.3 0 0.5 0 0.7-0.1 0.4 0 0.8-0.1 1.2-0.2q2.6-0.5 5.1-1.2c0.4-0.1 0.8-0.2 1.2-0.3q0.3-0.1 0.6-0.2 2-0.5 4-1.2c0.5-0.1 1-0.2 1.5-0.4q0.1-0.1 0.3-0.1 1.5-0.6 2.9-1.1c0.7-0.3 1.5-0.5 2.1-0.8q0.2-0.1 0.3-0.1 1-0.4 1.9-0.9c0.9-0.3 1.8-0.7 2.7-1.1q0.3-0.2 0.7-0.4 1.8-0.9 3.6-1.8 0.3-0.2 0.7-0.4 0.7-0.4 1.4-0.8c0.5-0.3 1-0.6 1.5-0.9 0.5-0.3 0.8-0.5 1.2-0.8q0.7-0.4 1.3-0.8 0.4-0.3 0.8-0.5c0.7-0.5 1.3-1 2-1.5q0.4-0.3 0.8-0.6 0.1-0.1 0.2-0.2 1.6-1.2 2.9-2.5 0.1 0 0.1-0.1c0.5-0.4 0.9-0.9 1.4-1.4 0.5-0.5 1.1-1 1.6-1.6q0.1-0.1 0.1-0.1c0.3-0.3 0.5-0.6 0.8-0.9q0.9-1.1 1.8-2.3 0.4-0.6 0.8-1.2c0.3-0.5 0.7-0.9 1-1.4 0.1-0.2 0.2-0.4 0.3-0.5q1-1.8 1.9-3.7c0.1-0.2 0.2-0.3 0.2-0.5q0.1-0.1 0.1-0.2 0.8-1.7 1.3-3.4 0.2-0.5 0.3-1 0.3-1.2 0.6-2.4c0-0.1 0.1-0.4 0.1-0.6q0.1-0.2 0.1-0.3 0.2-1.4 0.3-2.7 0-0.2 0-0.4 0 0 0 0c0.1-0.5 0-1 0-1.5z"/>
					</g>
					<path id="&lt;Compound Path&gt;" fill-rule="evenodd" class="s96" d="m1778.9 1628.2c8.3 0.8 16.5 2.4 24.8 4.6 8.2 2.2 14.8 4.4 19.7 6.7l-8.7 20.3-2.1-0.1q-7.5-5.7-17.4-10.3-9.8-4.5-22.6-6.3l-18.9 44c2.8 0.8 5.4 1.5 7.8 2.2 2.4 0.7 4.4 1.3 6.2 1.8q17.3 4.7 24 13.6c4.5 5.9 4.8 13.4 0.9 22.6-4.3 10-13.2 18.3-26.5 24.7q-20.1 9.6-44.4 10l-15.9 37.1-15.7-1.2 15.7-36.6c-9.8-0.8-19.4-2.4-28.7-4.8q-14-3.6-23.4-8.6l8.9-20.7 2.1 0.1c5.5 4.6 12.2 8.5 20.2 11.7 7.9 3.3 17.1 5.6 27.4 7.1l18.9-44.3c-2.1-0.5-4.6-1.3-7.7-2.1-3-0.8-5.6-1.6-7.6-2.3q-18.8-5.8-24-15-5.2-9.2 0.1-21.6c4.2-9.7 12.9-17.7 26.1-24.1q0.6-0.3 1.2-0.6c0.7-0.3 1-0.4 1.2-0.6 0.8-0.3 1-0.4 1.3-0.5q0.3-0.1 0.6-0.3 0.3-0.1 0.6-0.2 0.3-0.2 0.6-0.3 0.4-0.1 0.7-0.2 0.3-0.2 0.6-0.3 0.3-0.1 0.7-0.2 0.3-0.2 0.6-0.3 0.3-0.1 0.6-0.2 0.4-0.1 0.7-0.2 0.3-0.1 0.6-0.3 0.4-0.1 0.7-0.2 0.3-0.1 0.6-0.2 0.4-0.1 0.7-0.2 0.3-0.1 0.7-0.2 0.3-0.1 0.6-0.2 0.3-0.1 0.7-0.2 0.3-0.1 0.6-0.2 0.4-0.1 0.7-0.2 0.3-0.1 0.7-0.2 0.3-0.1 0.7-0.1 0.3-0.1 0.6-0.2 0.4-0.1 0.7-0.2 0.4-0.1 0.7-0.1 0.3-0.1 0.7-0.2 0.3-0.1 0.7-0.2 0.3 0 0.7-0.1 0.3-0.1 0.6-0.2 0.4 0 0.8-0.1 0.3-0.1 0.6-0.1 0.4-0.1 0.8-0.2 0.3 0 0.6-0.1 0.4-0.1 0.8-0.1 0.3-0.1 0.6-0.1 0.4-0.1 0.8-0.2 0.4 0 0.7-0.1 0.4 0 0.8-0.1c0.9-0.1 1.2-0.1 1.5-0.2 0.8-0.1 1.1-0.1 1.4-0.1 0.9-0.1 1.2-0.2 1.6-0.2 0.8-0.1 1.2-0.1 1.5-0.2 0.8 0 1.3-0.1 1.7-0.1 1.7-0.1 3.2-0.2 4.8-0.2 0.6 0 1.1-0.1 1.5-0.1 0.8 0 1.2 0 1.5 0q0.9 0 1.7 0l11.9-27.9 15.7 1.2zm-40.2 56.2l18.2-42.5q-0.5 0-1 0c-0.6 0.1-1.1 0.1-1.6 0.1-0.5 0-1 0-1.5 0-0.5 0.1-1 0.1-1.4 0.1-1.1 0.1-2 0.2-2.9 0.3-0.5 0.1-1 0.1-1.4 0.2-0.5 0.1-1 0.2-1.4 0.2q-0.1 0-0.2 0.1-0.6 0.1-1.2 0.2-0.1 0-0.2 0-0.6 0.1-1.1 0.3-0.2 0-0.3 0-0.6 0.2-1.1 0.3-0.1 0-0.2 0.1-0.6 0.1-1.2 0.3-0.1 0-0.2 0-0.6 0.2-1.1 0.4-0.1 0-0.2 0-0.6 0.2-1.2 0.4-0.1 0-0.1 0-0.6 0.2-1.2 0.5-0.1 0-0.1 0-0.6 0.2-1.2 0.5c-0.5 0.2-0.9 0.3-1.3 0.5-7 3-11.9 7.6-14.6 13.7-2.5 6.1-2.5 11 0.1 14.6 2.7 3.6 9.2 6.9 19.6 9.7zm26.3 28.8c-3-3.4-9.3-6.3-18.8-8.6l-18.2 42.5q14.5-0.1 23.9-4.7c6.2-3 10.8-7.8 13.6-14.4q4.1-9.7-0.5-14.8z"/>
				</g>
			</g>
		</g>
	</g>
</svg>