<svg version="1.2" xmlns="http://www.w3.org/2000/svg" viewBox="0 0 1000 1000" width="1000" height="1000">
	<title>2473536-ai</title>
	<style>
		.s0 { opacity: .1;fill: #332f2e } 
		.s1 { fill: #c2c3c8 } 
		.s2 { fill: #70a63b } 
		.s3 { fill: #a1bc31 } 
		.s4 { fill: #332f2e } 
		.s5 { fill: #9bcbee } 
		.s6 { fill: #f1e3b4 } 
		.s7 { fill: #d9a957 } 
		.s8 { fill: #be2d86 } 
		.s9 { fill: #e8bb37 } 
		.s10 { fill: #bb9d6c } 
		.s11 { fill: #211915 } 
		.s12 { fill: #7bbbe8 } 
		.s13 { fill: #ecedef } 
		.s14 { fill: #273a53 } 
		.s15 { fill: #e2a91f } 
		.s16 { fill: #39567d } 
		.s17 { fill: #d7d8dc } 
		.s18 { fill: #f7f7f8 } 
	</style>
	<g id="BACKGROUND">
		<g id="&lt;Group&gt;">
		</g>
	</g>
	<g id="OBJECTS">
		<g id="&lt;Group&gt;" style="opacity: .5">
			<path id="&lt;Path&gt;" class="s0" d="m913.4 796.5c0 7.1-156.6 12.8-399.2 12.8-242.6 0-439.3-5.7-439.3-12.8 0-7.1 196.7-12.8 439.3-12.8 242.6 0 399.2 5.7 399.2 12.8z"/>
		</g>
		<g id="&lt;Group&gt;">
			<g id="&lt;Group&gt;">
				<path id="&lt;Path&gt;" class="s1" d="m582.4 262c-4.2 0-8.1-2.7-9.5-6.9-1.7-5.2 1.2-10.8 6.4-12.5l49.1-15.8c5.9-1.9 12.3 1.4 14.2 7.3 1.9 6-1.4 12.3-7.3 14.2l-30.5 9.9c-0.7 0.2-1.5-0.2-1.7-0.9-0.2-0.7 0.2-1.5 0.9-1.7l30.5-9.8c4.5-1.5 7-6.3 5.5-10.9-0.7-2.1-2.2-3.9-4.2-5-2.1-1-4.4-1.2-6.6-0.5l-49.1 15.8c-3.7 1.2-5.8 5.3-4.6 9.1 1.2 3.8 5.3 5.8 9.1 4.6l36.1-11.6c3-1 4.7-4.3 3.8-7.3-1-3.1-4.3-4.8-7.4-3.8l-22.5 7.2c-0.7 0.2-1.4-0.1-1.7-0.9-0.2-0.7 0.2-1.4 0.9-1.6l22.5-7.3c4.5-1.4 9.3 1.1 10.7 5.5 1.5 4.5-1 9.3-5.5 10.8l-36.1 11.6q-1.5 0.5-3 0.5z"/>
			</g>
			<g id="&lt;Group&gt;">
				<g id="&lt;Group&gt;">
					<path id="&lt;Path&gt;" class="s2" d="m264.7 716.1c0 0-17.8-21.4-25.5-31.8-18.8-25.3-37.6-51.8-44.5-82.5 23.9 16.3 46.1 37 56.8 63.8 6.5 16.2 13.2 50.5 13.2 50.5z"/>
				</g>
				<g id="&lt;Group&gt;">
					<g id="&lt;Group&gt;">
						<path id="&lt;Path&gt;" class="s2" d="m343.5 769c-37.7-9.2-65.5-36.4-87.5-67-0.9-1.3-3.1-0.1-2.1 1.2 22.3 31.2 50.6 58.8 88.9 68.2 1.6 0.4 2.3-2 0.7-2.4z"/>
					</g>
				</g>
				<g id="&lt;Group&gt;">
					<path id="&lt;Path&gt;" class="s2" d="m271.3 723.8c-5.1-8.5-15.2-14.7-24.6-17.8-9.4-3-19.3-4.2-28.9-6.6-11.5-2.8-22.6-6.6-32.9-12.6 17.6 28.4 53.8 43.9 86.4 37z"/>
				</g>
				<g id="&lt;Group&gt;">
					<path id="&lt;Path&gt;" class="s2" d="m317.1 760.7c0 0-23.4-1.6-35.8-4.4-9.4-2-18.7-4.5-27.4-8.5-8.7-4-16.8-9.7-22.7-17.2 12.1 3.9 25.2 3.1 37.6 6.1 15.6 3.6 48.3 24 48.3 24z"/>
				</g>
				<g id="&lt;Group&gt;">
					<path id="&lt;Path&gt;" class="s2" d="m324.3 764.5c0 0-8.5-21.8-14.8-32.9-4.7-8.3-9.8-16.5-16.2-23.7-6.5-7.1-14.2-13.2-23.2-16.6 7.3 10.4 10.5 23.2 16.9 34.2 8.2 13.8 37.3 39 37.3 39z"/>
				</g>
			</g>
			<g id="&lt;Group&gt;">
				<path id="&lt;Path&gt;" class="s2" d="m375.3 447c2.9-15.1-2.3-32.8-10-46.2-7.7-13.4-17.9-25.1-26.6-37.9-10.4-15.2-19.3-31.2-24.9-48.8-9.3 51.2 16.5 106.9 61.5 132.9z"/>
			</g>
			<g id="&lt;Group&gt;">
				<g id="&lt;Group&gt;">
					<path id="&lt;Path&gt;" class="s2" d="m669.5 324.7c0 0 9.4-42.3 12.7-62.2 7.9-48.5 15.2-98.7 2.7-146.1-21.3 39.6-37.3 84.1-33.1 129 2.6 26.9 17.7 79.3 17.7 79.3z"/>
				</g>
				<g id="&lt;Group&gt;">
					<g id="&lt;Group&gt;">
						<path id="&lt;Path&gt;" class="s2" d="m605.9 480.3c2.9-17.6 8-34 18.8-48.3 8.3-10.9 17.6-20.6 24.1-32.8 9.1-17.4 13.4-36.8 16.5-56 3.1-18.8 5.9-38 6.8-57 0.1-1.6-2.4-1.6-2.5 0-1 20-3.9 40.1-7.3 59.8-3.3 19.9-8.2 40-18.8 57.3-6.6 10.9-15.6 19.8-22.9 30.1-9.8 13.8-14.4 29.7-17.1 46.2-0.3 1.6 2.1 2.2 2.4 0.7z"/>
					</g>
				</g>
				<g id="&lt;Group&gt;">
					<path id="&lt;Path&gt;" class="s2" d="m667.3 327.8c-0.5-15.4 7.5-32.1 17.2-44 9.8-12 21.8-22 32.4-33.2 12.7-13.4 24-27.7 32.3-44.2 1 52-33.3 102.9-81.9 121.4z"/>
				</g>
				<g id="&lt;Group&gt;">
					<path id="&lt;Path&gt;" class="s2" d="m638.5 414.8c0 0 29.2-21.9 43.2-36 10.5-10.6 20.7-21.7 28.7-34.3 8-12.6 13.9-26.9 15.2-41.8-12.6 15.4-30.4 25.5-44.2 39.8-17.3 18-42.9 72.3-42.9 72.3z"/>
				</g>
				<g id="&lt;Group&gt;">
					<path id="&lt;Path&gt;" class="s2" d="m643.6 407.4c0 0 10.5-36.2 11-56 0.3-15-7-43.9-30.5-72.3 1.4 19.8 0.9 26.5 0.8 46.4-0.2 25 18.7 81.9 18.7 81.9z"/>
				</g>
			</g>
			<g id="&lt;Group&gt;">
				<path id="&lt;Path&gt;" class="s3" d="m412.8 316.7c0 0-15.8-21.6-22.6-32-16.5-25.4-33-52-37.8-81.9 21.9 17.1 42 38.3 50.7 64.7 5.3 15.8 9.7 49.2 9.7 49.2z"/>
			</g>
			<g id="&lt;Group&gt;">
				<path id="&lt;Path&gt;" class="s2" d="m680.8 667.2c2.6-15.3 13.6-30 25.5-39.9 11.9-9.8 25.6-17.3 38.1-26.2 15.1-10.7 29-22.5 40.4-37.1-9.1 51.2-52.7 94.4-104 103.2z"/>
			</g>
			<g id="&lt;Group&gt;">
				<path id="&lt;Path&gt;" class="s3" d="m640.9 790.2c1.9-11.7 10.4-23 19.6-30.6 9.1-7.6 19.6-13.3 29.3-20.2 11.6-8.2 22.2-17.3 31-28.5-7 39.4-40.5 72.6-79.9 79.3z"/>
			</g>
			<g id="&lt;Group&gt;">
				<path id="&lt;Path&gt;" class="s3" d="m345.9 695.2c0 0-10.7-24.4-15.1-36.1-10.6-28.4-21-57.9-19.1-88.1 17.6 21.4 32.6 46.4 35.4 74.1 1.7 16.6-1.2 50.1-1.2 50.1z"/>
			</g>
			<g id="&lt;Group&gt;">
				<g id="&lt;Group&gt;">
					<path id="&lt;Path&gt;" class="s3" d="m753.1 449.8c0 0 28-55.2 42.4-80.2 35.1-60.7 72.6-122.7 129.4-163.8-12.4 63.2-35 126.8-80.4 172.4-27.3 27.5-91.4 71.6-91.4 71.6z"/>
				</g>
				<g id="&lt;Group&gt;">
					<g id="&lt;Group&gt;">
						<path id="&lt;Path&gt;" class="s3" d="m678.7 642c0.3-86.2 46.2-161.9 101.7-224.5 1-1.3-0.7-3-1.8-1.8-55.9 63.2-102.1 139.5-102.4 226.3 0 1.7 2.5 1.7 2.5 0z"/>
					</g>
				</g>
				<g id="&lt;Group&gt;">
					<path id="&lt;Path&gt;" class="s3" d="m741.8 462.8c15.8-15.3 24.1-40.3 26-62.3 2-22-0.5-44.1-0.2-66.1 0.3-26.4 2.9-52.4 10.7-77.6-52.7 52.4-68 138.7-36.5 206z"/>
				</g>
				<g id="&lt;Group&gt;">
					<path id="&lt;Path&gt;" class="s3" d="m684.8 580.7c0 0-8.2-51.4-8.6-79.8-0.2-21.4 0.4-42.9 4.7-63.8 4.4-20.9 12.5-41.3 25.9-58-2.3 28.3 5.9 56.4 5.8 84.8-0.1 35.7-27.8 116.8-27.8 116.8z"/>
				</g>
				<g id="&lt;Group&gt;">
					<path id="&lt;Path&gt;" class="s3" d="m661.1 549.5c0 0 50.5-12.9 76.7-23.8 19.7-8.2 39.2-17.4 56.7-29.6 17.4-12.3 33-27.9 42.9-46.8-25 13.4-54.1 17-80.1 28.3-32.7 14.3-96.2 71.9-96.2 71.9z"/>
				</g>
			</g>
			<g id="&lt;Group&gt;">
				<g id="&lt;Group&gt;">
					<path id="&lt;Path&gt;" class="s3" d="m256.7 561.9c0 0-17.4-39.7-24.5-58.5-17.2-46-34.1-93.9-31.1-142.9 28.7 34.8 53 75.3 57.5 120.2 2.7 26.9-1.9 81.2-1.9 81.2z"/>
				</g>
				<g id="&lt;Group&gt;">
					<g id="&lt;Group&gt;">
						<path id="&lt;Path&gt;" class="s3" d="m353.6 706.6c-5.8-15.7-13.5-30.3-25.1-42.4-9.9-10.3-21.5-18.5-30.8-29.2-14.3-16.4-23.4-36.4-31-56.6-6.6-17.8-13-35.9-17.6-54.3-0.4-1.6-2.8-0.9-2.4 0.6 4.6 18.5 11 36.5 17.6 54.3 6.9 18.4 14.9 36.6 27 52.1 8.8 11.3 19.7 20 30 29.6 14.1 13 23.2 28.7 29.9 46.6 0.6 1.4 3 0.8 2.4-0.7z"/>
					</g>
				</g>
				<g id="&lt;Group&gt;">
					<path id="&lt;Path&gt;" class="s3" d="m259.5 564.5c-2.5-15.2-13.6-29.9-25.5-39.8-11.9-9.9-25.5-17.3-38.1-26.2-15.1-10.7-29-22.6-40.4-37.1 9.2 51.2 52.7 94.4 104 103.1z"/>
				</g>
				<g id="&lt;Group&gt;">
					<path id="&lt;Path&gt;" class="s3" d="m304.6 644.3c0 0-32.9-15.8-49.3-26.9-12.4-8.3-24.5-17.3-34.9-28.1-10.3-10.9-18.8-23.7-23-38 15.3 12.6 34.8 19.1 51.1 30.4 20.5 14.3 56.1 62.6 56.1 62.6z"/>
				</g>
				<g id="&lt;Group&gt;">
					<path id="&lt;Path&gt;" class="s3" d="m298.2 638c0 0-17.3-33.4-21.7-52.8-3.2-14.6-1.6-44.4 15.9-76.9 2.4 19.7 4.3 26.3 8.2 45.7 5 24.5-2.4 84-2.4 84z"/>
				</g>
			</g>
			<g id="&lt;Group&gt;">
				<g id="&lt;Group&gt;">
					<path id="&lt;Path&gt;" class="s4" d="m663.7 475.9h-9.2v-76.1h9.2c0 0 15.3 28.6 15.3 38.2 0 9.5-15.3 37.9-15.3 37.9z"/>
				</g>
				<g id="&lt;Group&gt;">
					<path id="&lt;Path&gt;" class="s5" d="m662.6 482.9c-1.8 0-3.7-0.7-5-2.1-2.7-2.8-2.7-7.2 0.1-9.9 18.6-18 19-47.7 1-66.3-2.7-2.7-2.6-7.2 0.2-9.9 2.7-2.6 7.2-2.6 9.9 0.2 23.3 24.1 22.7 62.7-1.3 86.1-1.4 1.3-3.2 1.9-4.9 1.9z"/>
				</g>
				<g id="&lt;Group&gt;">
					<path id="&lt;Path&gt;" class="s6" d="m659.4 476.1h-333.8v-76.3h333.8z"/>
				</g>
				<g id="&lt;Group&gt;">
					<path id="&lt;Path&gt;" class="s5" d="m663.7 406.7h-349.5c-3.9 0-7-3.1-7-6.9 0-3.9 3.1-7 7-7h349.5c3.9 0 7 3.1 7 7 0 3.8-3.1 6.9-7 6.9z"/>
				</g>
				<g id="&lt;Group&gt;">
					<path id="&lt;Path&gt;" class="s5" d="m662.6 483.1h-348.4c-3.9 0-7-3.1-7-7 0-3.8 3.1-6.9 7-6.9h348.4c3.8 0 6.9 3.1 6.9 6.9 0 3.9-3.1 7-6.9 7z"/>
				</g>
				<g id="&lt;Group&gt;">
					<path id="&lt;Path&gt;" class="s7" d="m604.7 418.8h-268.7c-0.6 0-1-0.5-1-1 0-0.6 0.4-1 1-1h268.7c0.5 0 1 0.4 1 1 0 0.5-0.5 1-1 1z"/>
				</g>
				<g id="&lt;Group&gt;">
					<path id="&lt;Path&gt;" class="s7" d="m610.1 431.2h-268.8c-0.5 0-1-0.5-1-1 0-0.6 0.5-1 1-1h268.8c0.5 0 1 0.4 1 1 0 0.5-0.5 1-1 1z"/>
				</g>
				<g id="&lt;Group&gt;">
					<path id="&lt;Path&gt;" class="s7" d="m647.9 444.1h-268.7c-0.5 0-1-0.4-1-1 0-0.6 0.5-1 1-1h268.7c0.6 0 1 0.4 1 1 0 0.6-0.4 1-1 1z"/>
				</g>
			</g>
			<g id="&lt;Group&gt;">
				<g id="&lt;Group&gt;">
					<path id="&lt;Path&gt;" class="s4" d="m329.4 710.9h9.2v76.2h-9.2c0 0-15.2-28.7-15.2-38.2 0-9.5 15.2-38 15.2-38z"/>
				</g>
				<g id="&lt;Group&gt;">
					<path id="&lt;Path&gt;" class="s6" d="m333.7 710.7h333.9v76.4h-333.9z"/>
				</g>
				<g id="&lt;Group&gt;">
					<g id="&lt;Group&gt;">
						<path id="&lt;Path&gt;" class="s5" d="m329.4 794.1c-1.8 0-3.7-0.7-5-2.1-23.4-24.1-22.8-62.7 1.3-86.1 2.7-2.7 7.2-2.6 9.9 0.1 2.7 2.8 2.6 7.3-0.2 9.9-18.5 18-19 47.8-1 66.3 2.7 2.8 2.6 7.2-0.1 9.9-1.4 1.3-3.2 2-4.9 2z"/>
					</g>
					<g id="&lt;Group&gt;">
						<path id="&lt;Path&gt;" class="s5" d="m679 794h-349.6c-3.8 0-6.9-3.1-6.9-6.9 0-3.8 3.1-6.9 6.9-6.9h349.6c3.8 0 6.9 3.1 6.9 6.9 0 3.8-3.1 6.9-6.9 6.9z"/>
					</g>
					<g id="&lt;Group&gt;">
						<path id="&lt;Path&gt;" class="s5" d="m679 717.6h-348.5c-3.8 0-6.9-3.1-6.9-6.9 0-3.8 3.1-6.9 6.9-6.9h348.5c3.8 0 6.9 3.1 6.9 6.9 0 3.8-3.1 6.9-6.9 6.9z"/>
					</g>
					<g id="&lt;Group&gt;">
						<path id="&lt;Path&gt;" class="s7" d="m657.2 770.1h-268.8c-0.5 0-1-0.5-1-1 0-0.6 0.5-1 1-1h268.8c0.5 0 1 0.4 1 1 0 0.5-0.5 1-1 1z"/>
					</g>
					<g id="&lt;Group&gt;">
						<path id="&lt;Path&gt;" class="s7" d="m635.5 746.4h-268.7c-0.6 0-1-0.4-1-1 0-0.5 0.4-1 1-1h268.7c0.6 0 1 0.5 1 1 0 0.6-0.4 1-1 1z"/>
					</g>
					<g id="&lt;Group&gt;">
						<path id="&lt;Path&gt;" class="s7" d="m613.9 734.8h-268.7c-0.6 0-1-0.5-1-1 0-0.6 0.4-1 1-1h268.7c0.6 0 1 0.4 1 1 0 0.5-0.4 1-1 1z"/>
					</g>
				</g>
			</g>
			<g id="&lt;Group&gt;">
				<path id="&lt;Path&gt;" class="s8" d="m711.3 704.1h-353.3c-6.1 0-11-5-11-11 0-6.1 4.9-11 11-11h353.3c6.1 0 11 4.9 11 11 0 6-4.9 11-11 11z"/>
			</g>
			<g id="&lt;Group&gt;">
				<g id="&lt;Group&gt;">
					<path id="&lt;Path&gt;" class="s4" d="m741.1 585.2h-11.6v-95.4h11.6c0 0 19 35.9 19 47.8 0 11.9-19 47.6-19 47.6z"/>
				</g>
				<g id="&lt;Group&gt;">
					<path id="&lt;Path&gt;" class="s8" d="m739.6 592.2c-1.8 0-3.6-0.7-5-2.2-2.7-2.7-2.6-7.2 0.2-9.9 11.6-11.2 18.1-26.3 18.3-42.4 0.3-16.2-5.8-31.4-17-43-2.7-2.8-2.7-7.2 0.1-9.9 2.8-2.7 7.2-2.7 9.9 0.1 13.9 14.3 21.3 33.1 21 53-0.3 19.9-8.3 38.4-22.6 52.3-1.4 1.3-3.1 2-4.9 2z"/>
				</g>
				<g id="&lt;Group&gt;">
					<path id="&lt;Path&gt;" class="s6" d="m736.2 585.4h-418.6v-95.6h418.6z"/>
				</g>
				<g id="&lt;Group&gt;">
					<path id="&lt;Path&gt;" class="s8" d="m741.1 496.8h-437.8c-3.8 0-7-3.1-7-7 0-3.9 3.2-7 7-7h437.8c3.9 0 7 3.1 7 7 0 3.9-3.1 7-7 7z"/>
				</g>
				<g id="&lt;Group&gt;">
					<path id="&lt;Path&gt;" class="s8" d="m739.6 592.4h-436.3c-3.8 0-7-3.1-7-7 0-3.8 3.2-7 7-7h436.3c3.9 0 7 3.2 7 7 0 3.9-3.1 7-7 7z"/>
				</g>
				<g id="&lt;Group&gt;">
					<path id="&lt;Path&gt;" class="s7" d="m667.1 513.3h-336.5c-0.5 0-1-0.4-1-1 0-0.5 0.5-1 1-1h336.5c0.6 0 1 0.5 1 1 0 0.6-0.4 1-1 1z"/>
				</g>
				<g id="&lt;Group&gt;">
					<path id="&lt;Path&gt;" class="s7" d="m684.5 553h-336.5c-0.6 0-1-0.4-1-1 0-0.5 0.4-1 1-1h336.5c0.5 0 1 0.5 1 1 0 0.6-0.5 1-1 1z"/>
				</g>
				<g id="&lt;Group&gt;">
					<path id="&lt;Path&gt;" class="s7" d="m679.6 565.7h-336.5c-0.5 0-1-0.4-1-1 0-0.5 0.5-1 1-1h336.5c0.6 0 1 0.5 1 1 0 0.6-0.4 1-1 1z"/>
				</g>
			</g>
			<g id="&lt;Group&gt;">
				<g id="&lt;Group&gt;">
					<path id="&lt;Path&gt;" class="s4" d="m696.1 675.2h-9.2v-76.2h9.2c0 0 15.2 28.7 15.2 38.2 0 9.5-15.2 38-15.2 38z"/>
				</g>
				<g id="&lt;Group&gt;">
					<path id="&lt;Path&gt;" class="s9" d="m695 682.2c-1.9 0-3.7-0.7-5.1-2.1-2.6-2.8-2.6-7.2 0.2-9.9 18.5-18 19-47.8 1-66.3-2.7-2.8-2.6-7.2 0.2-9.9 2.7-2.7 7.2-2.6 9.9 0.1 23.3 24.1 22.7 62.7-1.4 86.1-1.3 1.3-3.1 2-4.8 2z"/>
				</g>
				<g id="&lt;Group&gt;">
					<path id="&lt;Path&gt;" class="s6" d="m691.8 675.4h-333.8v-76.4h333.8z"/>
				</g>
				<g id="&lt;Group&gt;">
					<path id="&lt;Path&gt;" class="s9" d="m696.1 606h-349.5c-3.9 0-7-3.1-7-7 0-3.8 3.1-7 7-7h349.5c3.9 0 7 3.2 7 7 0 3.9-3.1 7-7 7z"/>
				</g>
				<g id="&lt;Group&gt;">
					<path id="&lt;Path&gt;" class="s9" d="m695 682.4h-348.4c-3.9 0-7-3.1-7-7 0-3.9 3.1-7 7-7h348.4c3.8 0 7 3.1 7 7 0 3.9-3.2 7-7 7z"/>
				</g>
				<g id="&lt;Group&gt;">
					<path id="&lt;Path&gt;" class="s7" d="m637.1 618h-268.7c-0.6 0-1-0.4-1-1 0-0.5 0.4-1 1-1h268.7c0.5 0 1 0.5 1 1 0 0.6-0.5 1-1 1z"/>
				</g>
				<g id="&lt;Group&gt;">
					<path id="&lt;Path&gt;" class="s7" d="m642.5 630.4h-268.8c-0.5 0-1-0.4-1-1 0-0.5 0.5-1 1-1h268.8c0.5 0 1 0.5 1 1 0 0.6-0.5 1-1 1z"/>
				</g>
				<g id="&lt;Group&gt;">
					<path id="&lt;Path&gt;" class="s7" d="m680.3 643.3h-268.7c-0.6 0-1-0.4-1-1 0-0.5 0.4-1 1-1h268.7c0.6 0 1 0.5 1 1 0 0.6-0.4 1-1 1z"/>
				</g>
				<g id="&lt;Group&gt;">
					<g id="&lt;Group&gt;">
						<path id="&lt;Path&gt;" class="s2" d="m496.6 645.4l-15.6-20-15.6 20v-52.9c0-0.2 0.1-0.4 0.3-0.4 1.4-0.2 7-0.8 15.3-0.8 9.1 0 14.1 0.6 15.3 0.8 0.2 0 0.3 0.2 0.3 0.4z"/>
					</g>
				</g>
			</g>
			<g id="&lt;Group&gt;">
				<g id="&lt;Group&gt;">
					<path id="&lt;Path&gt;" class="s10" d="m290.3 450.2l-15.9 47.8 23.1 2.1z"/>
				</g>
				<g id="&lt;Group&gt;">
					<path id="&lt;Path&gt;" class="s11" d="m290.3 450.2l-4.1 12.2 5.9 0.5z"/>
				</g>
				<g id="&lt;Group&gt;">
					<path id="&lt;Path&gt;" class="s5" d="m297.5 500.5c0.2-2.1-1.4-4-3.5-4.2-2.2-0.2-4.1 1.4-4.2 3.5 0.1-2.1-1.4-4-3.6-4.2-2.1-0.2-4 1.4-4.2 3.5 0.2-2.1-1.3-4-3.5-4.2-2.1-0.1-4 1.4-4.2 3.6l-24.4 278.4h-0.1l-0.9 10.2c-0.3 3.9 2.5 7.3 6.4 7.7l9.1 0.8c3.9 0.3 7.3-2.5 7.6-6.4l0.4-3.8z"/>
				</g>
				<g id="&lt;Group&gt;">
					<path id="&lt;Path&gt;" class="s12" d="m297.5 500.5c0.2-2.1-1.4-4-3.5-4.2-2.2-0.2-4.1 1.4-4.2 3.5 0.1-2-23.9 264.2-26.6 295.7l1.2 0.1c3.9 0.3 7.3-2.5 7.6-6.4l0.4-3.8z"/>
				</g>
				<g id="&lt;Group&gt;">
					<path id="&lt;Path&gt;" class="s4" d="m254.3 726.9l-4.3 50-0.9 10.2c-0.4 3.9 2.5 7.3 6.4 7.7l9.1 0.8c3.9 0.3 7.3-2.5 7.6-6.4l0.4-3.8 4.8-56.6z"/>
				</g>
				<g id="&lt;Group&gt;">
					<path id="&lt;Path&gt;" class="s13" d="m254.3 726.9l-0.6 6.2 23.1 2 0.6-6.3z"/>
				</g>
				<g id="&lt;Group&gt;">
					<path id="&lt;Path&gt;" class="s4" d="m271 688.6l-3.2-0.3-1.9 23.2 3.1 0.3z"/>
				</g>
				<g id="&lt;Group&gt;">
					<path id="&lt;Path&gt;" class="s13" d="m266.4 742.9l-3.1-0.3-1 11.5 3.1 0.3z"/>
				</g>
			</g>
			<g id="&lt;Group&gt;">
				<path id="&lt;Path&gt;" class="s3" d="m342.6 679c-11.3 5.2-26.1 4.6-38.1 1.2-12-3.4-23.1-9.1-34.8-13.4-14-5.2-28.2-9-43-10 38.2-17.2 86.7-7.9 115.9 22.2z"/>
			</g>
			<g id="&lt;Group&gt;">
				<path id="&lt;Path&gt;" class="s1" d="m273.8 453.1c-1.4 0-2.8-0.3-4.2-0.9-2.4-1.1-4.2-3.1-5.1-5.6l-18-48.3c-2.1-5.8 0.8-12.3 6.7-14.5 2.8-1.1 5.9-0.9 8.6 0.3 2.8 1.3 4.9 3.5 5.9 6.3l11.2 30.1c0.2 0.7-0.1 1.4-0.8 1.7-0.7 0.2-1.5-0.1-1.7-0.8l-11.2-30c-0.8-2.2-2.4-3.9-4.5-4.8-2.1-1-4.4-1.1-6.6-0.3-4.4 1.7-6.7 6.6-5.1 11.1l18 48.3c1.4 3.7 5.6 5.6 9.3 4.2 3.7-1.4 5.6-5.5 4.2-9.3l-13.2-35.5c-1.1-3-4.5-4.6-7.5-3.5-3 1.2-4.5 4.5-3.4 7.6l8.2 22.1c0.3 0.7-0.1 1.5-0.8 1.7-0.7 0.3-1.5-0.1-1.7-0.8l-8.2-22.1c-1.7-4.4 0.6-9.3 5-11 4.4-1.6 9.3 0.6 11 5.1l13.2 35.5c1.9 5.1-0.7 10.8-5.9 12.8q-1.7 0.6-3.4 0.6z"/>
			</g>
			<g id="&lt;Group&gt;">
				<path id="&lt;Path&gt;" class="s1" d="m751.2 736.1c-2.2 0-4.4-0.7-6.3-1.9-2.5-1.7-4.2-4.3-4.8-7.2l-6.3-31.4c-0.1-0.7 0.3-1.4 1.1-1.6 0.7-0.1 1.4 0.3 1.6 1.1l6.3 31.4c0.4 2.2 1.7 4.1 3.6 5.4 2 1.3 4.3 1.8 6.5 1.3 4.7-0.9 7.7-5.5 6.7-10.1l-10.1-50.5c-0.8-3.9-4.6-6.5-8.5-5.7-3.9 0.8-6.4 4.6-5.7 8.5l7.5 37.2c0.3 1.5 1.2 2.8 2.5 3.7 1.3 0.9 2.9 1.2 4.4 0.9 1.5-0.3 2.8-1.2 3.7-2.5 0.9-1.3 1.2-2.9 0.9-4.4l-4.7-23.2c-0.1-0.7 0.3-1.4 1.1-1.5 0.7-0.2 1.4 0.3 1.6 1l4.6 23.2c0.4 2.2 0 4.5-1.3 6.4-1.2 1.9-3.2 3.2-5.4 3.6-2.2 0.5-4.5 0-6.4-1.3-1.9-1.2-3.2-3.2-3.6-5.4l-7.5-37.2c-1.1-5.3 2.4-10.6 7.8-11.6 2.6-0.6 5.2 0 7.4 1.4 2.2 1.5 3.7 3.7 4.3 6.3l10.1 50.5c1.2 6.2-2.8 12.1-8.9 13.4q-1.1 0.2-2.2 0.2z"/>
			</g>
			<g id="&lt;Group&gt;">
				<g id="&lt;Group&gt;">
					<g id="&lt;Group&gt;">
						<path id="&lt;Path&gt;" class="s14" d="m676.4 293.2l-54 10.8-228.2 13.9-65.4-25 180-59z"/>
					</g>
				</g>
				<g id="&lt;Group&gt;">
					<path id="&lt;Path&gt;" class="s9" d="m677.8 284.3l-166.3-54.6q-0.2-0.1-0.3-0.2-0.3-0.1-0.5-0.1-0.2-0.1-0.4-0.1-0.3-0.1-0.5-0.1-0.2 0-0.5 0-0.2 0-0.4 0-0.3 0-0.5 0.1-0.2 0-0.3 0l-180.5 54.4c-2.5 0.7-4 3.2-3.3 5.7 0.6 2.1 2.5 3.5 4.5 3.5q0.6 0 1.3-0.2l178.7-53.9 164.6 53.8q1.1 0.6 2.2 0.6c1.7 0 3.3-1 4.2-2.6 1.2-2.3 0.3-5.1-2-6.3z"/>
				</g>
				<g id="&lt;Group&gt;">
					<path id="&lt;Path&gt;" class="s15" d="m482 248.4v-9.8l-7.1 2.5v9.9z"/>
				</g>
				<g id="&lt;Group&gt;">
					<g id="&lt;Group&gt;">
						<path id="&lt;Path&gt;" class="s16" d="m622.4 390.4c0 0-68.3 7.4-113.6 7.4-53.4 0-114.6-7.4-114.6-7.4v-96.7c0 0 51.2-18.9 114.6-18.9 59.9 0 113.6 18.9 113.6 18.9z"/>
					</g>
				</g>
				<g id="&lt;Group&gt;">
					<g id="&lt;Group&gt;">
						<path id="&lt;Path&gt;" class="s14" d="m447.8 395.4c-33.1-2.2-53.6-5-53.6-5v-96.7c0 0 22-9.8 54.9-16.6z"/>
					</g>
				</g>
				<g id="&lt;Group&gt;">
					<g id="&lt;Group&gt;">
						<g id="&lt;Group&gt;">
							<path id="&lt;Path&gt;" class="s15" d="m509 399.4c-74 0-105.9-5.2-114.8-7v-8.3c4.5 1 35.2 7.2 114.8 7.2 41.5 0 102.9-6.2 113.4-7.3v8.2c-12.7 1.3-72.5 7.2-113.4 7.2z"/>
						</g>
					</g>
				</g>
				<g id="&lt;Group&gt;">
					<g id="&lt;Group&gt;">
						<g id="&lt;Group&gt;">
							<path id="&lt;Path&gt;" class="s9" d="m508.8 401.8c-86.3 0-114.4-7.2-115.6-7.5-2.1-0.6-3.4-2.8-2.8-4.9 0.5-2.2 2.7-3.4 4.8-2.9 0.3 0.1 28.7 7.3 113.6 7.3 44.6 0 112.5-7.3 113.2-7.4 2.2-0.2 4.2 1.4 4.4 3.6 0.2 2.2-1.3 4.1-3.5 4.4-0.7 0.1-69.1 7.4-114.1 7.4z"/>
						</g>
					</g>
				</g>
				<g id="&lt;Group&gt;">
					<path id="&lt;Path&gt;" class="s9" d="m480.8 285.2c-0.7-2.1-1.5-4.4-1.5-5.6q0 0 0-0.1v-39.6c0-1.9-1.6-3.5-3.5-3.5-1.9 0-3.5 1.6-3.5 3.5v39.7q0 0 0 0.1c-0.1 1.5-0.7 4.5-1.2 7.3-0.7 3.2-1.3 6.3-1.3 8.1 0 0.9 0.8 1.7 1.7 1.7 1 0 1.8-0.8 1.8-1.7 0-1.3 0.6-4.2 1.1-6.9q0 0 0 0c0.2 3.5 0.4 7 0.4 8.5 0 1 0.8 1.8 1.7 1.8 1 0 1.8-0.8 1.8-1.8 0-1.6-0.2-5-0.4-8.6q0-0.3 0-0.5c0.6 1.7 1.1 3.4 1.1 4.4 0 1 0.8 1.7 1.7 1.7 1 0 1.8-0.7 1.8-1.7 0-1.9-0.8-4.3-1.7-6.8z"/>
				</g>
				<g id="&lt;Group&gt;">
					<path id="&lt;Path&gt;" class="s14" d="m508.3 352.8c-0.5 0-1-0.4-1-1v-30.4c0-0.5 0.5-1 1-1 0.6 0 1 0.5 1 1v30.4c0 0.6-0.4 1-1 1z"/>
				</g>
			</g>
			<g id="&lt;Group&gt;">
				<g id="&lt;Group&gt;">
					<path id="&lt;Compound Path&gt;" fill-rule="evenodd" class="s9" d="m254.9 315.7c-21.7 0-45.1-4-45.1-13 0-8.9 23.4-13 45.1-13 21.8 0 45.2 4.1 45.2 13 0 9-23.4 13-45.2 13zm0-21.4c-26.2 0-40.5 5.6-40.5 8.4 0 2.9 14.3 8.4 40.5 8.4 26.3 0 40.6-5.5 40.6-8.4 0-2.8-14.3-8.4-40.6-8.4z"/>
				</g>
				<g id="&lt;Group&gt;">
					<path id="&lt;Compound Path&gt;" fill-rule="evenodd" class="s9" d="m274.8 342.5c-3.3 0-7.7-2.7-12.9-8.2-5.9-6.1-12.4-15-18.2-25.1-10.9-18.8-19.1-41.1-11.3-45.6 3.6-2 8.8 0.5 15.6 7.5 5.9 6.1 12.4 15.1 18.2 25.1 10.9 18.8 19 41.1 11.3 45.6q-1.2 0.7-2.7 0.7zm-39.7-75q-0.3 0-0.4 0.1c-2.5 1.4-0.2 16.6 12.9 39.3 5.7 9.8 11.9 18.4 17.6 24.3 6.3 6.5 9.4 7 10 6.6 2.5-1.4 0.1-16.6-13-39.3-5.6-9.7-11.8-18.3-17.5-24.2-5.4-5.6-8.5-6.8-9.6-6.8z"/>
				</g>
				<g id="&lt;Group&gt;">
					<path id="&lt;Compound Path&gt;" fill-rule="evenodd" class="s9" d="m235.1 342.5q-1.5 0-2.7-0.7c-3.6-2.1-4.1-7.9-1.4-17.3 2.4-8.2 6.9-18.2 12.7-28.3 10.8-18.8 26.1-37 33.8-32.6 7.7 4.5-0.4 26.8-11.3 45.6-5.8 10.1-12.3 19-18.2 25.1-5.3 5.5-9.6 8.2-12.9 8.2zm39.5-75c-3.4 0-14.7 9.8-27 31-5.6 9.8-9.9 19.5-12.2 27.3-2.5 8.7-1.3 11.7-0.7 12 0.6 0.4 3.7-0.1 10-6.6 5.7-5.9 11.9-14.5 17.5-24.3 13.1-22.7 15.5-37.9 13-39.3q-0.2-0.1-0.6-0.1z"/>
				</g>
				<g id="&lt;Group&gt;">
					<path id="&lt;Path&gt;" class="s8" d="m259 302.7c0 2.3-1.8 4.1-4.1 4.1-2.2 0-4.1-1.8-4.1-4.1 0-2.2 1.9-4.1 4.1-4.1 2.3 0 4.1 1.9 4.1 4.1z"/>
				</g>
			</g>
			<g id="&lt;Group&gt;">
				<path id="&lt;Compound Path&gt;" fill-rule="evenodd" class="s5" d="m890.8 534.9c-4 8-10.9 14.1-19.5 16.9-3.5 1.2-7.1 1.7-10.7 1.7-5.2 0-10.3-1.2-15.1-3.6-8-4-14-10.9-16.9-19.5-2.8-8.5-2.1-17.7 1.9-25.7 4-8.1 11-14.1 19.5-16.9 8.6-2.9 17.7-2.2 25.8 1.8 16.6 8.3 23.4 28.7 15 45.3zm-1-15l-4.9-2.5c-0.3 3.6-1.1 7.2-2.6 10.7l5.4 2.6c1.4-3.5 2.1-7.2 2.1-10.8zm-13.6 10.2l-14.5-7.3-4.8 9.6 11.8 5.9c3-2.1 5.5-4.9 7.5-8.2zm-39.8-8c0.3-3.6 1.1-7.1 2.6-10.6l-5.3-2.7c-1.5 3.5-2.2 7.2-2.2 10.9zm4.5 2.2l11.9 6 4.8-9.6-14.5-7.2c-1.5 3.5-2.2 7.2-2.2 10.8zm4.2-14.9l14.5 7.2 4.8-9.5-11.9-6c-2.9 2.2-5.4 5-7.4 8.3zm25.5-4.4l9.3 4.7c-0.8-4.3-2.6-8.5-5.4-12.5zm-0.2-9.8c-4.9 0.1-9.4 1.2-13.3 3.1l9.4 4.7zm-28.9 34.5c0.8 4.3 2.6 8.5 5.3 12.5l3.9-7.8zm9.5 14.5c4.8-0.2 9.3-1.3 13.2-3.2l-9.3-4.6zm27.3-18.3c1.5-3.5 2.2-7.2 2.2-10.8l-11.9-6-4.8 9.6zm2.4-27.5c2.4 4.4 3.8 9 4.2 13.7l4.5 2.2c-1.1-6-4.1-11.6-8.7-15.9zm-32.9-4.9l4.5 2.2c4-2.4 8.5-4.1 13.4-4.8-1.7-0.3-3.3-0.4-4.9-0.4-4.5 0-9 1-13 3zm-12 11l5.3 2.7c1.9-3.2 4.3-6.1 7-8.4l-4.9-2.5c-2.9 2.2-5.4 5-7.4 8.2zm5 36.4c-2.4-4.4-3.8-9.1-4.3-13.8l-4.4-2.2c0.2 1.3 0.5 2.6 1 3.9 1.5 4.7 4.2 8.8 7.7 12.1zm32.8 4.8l-4.4-2.2c-4 2.5-8.6 4.1-13.5 4.8 6.2 1.1 12.4 0.1 17.9-2.6zm12.1-11l-5.3-2.7c-1.9 3.3-4.3 6.1-7.1 8.5l4.9 2.4c3-2.2 5.5-4.9 7.5-8.2z"/>
			</g>
			<g id="&lt;Group&gt;">
				<g id="&lt;Group&gt;">
					<g id="&lt;Group&gt;">
						<path id="&lt;Path&gt;" class="s17" d="m802.7 766.5l9.3-1c0.7-0.1 1.3 0.5 1.2 1.2l-1.9 25.8c-0.1 1.2-1.9 1.4-2.3 0.2l-7.3-24.8c-0.2-0.6 0.3-1.3 1-1.4z"/>
					</g>
				</g>
				<g id="&lt;Group&gt;">
					<g id="&lt;Group&gt;">
						<path id="&lt;Path&gt;" class="s4" d="m778.8 500.4c-2 0.2-3.9-1.3-4.1-3.4l-3.1-28c-0.3-2.1 1.2-3.9 3.3-4.2q0 0 0 0c2.1-0.2 3.9 1.3 4.1 3.4l3.2 28c0.2 2.1-1.3 3.9-3.4 4.2q0 0 0 0z"/>
					</g>
				</g>
				<g id="&lt;Group&gt;">
					<g id="&lt;Group&gt;">
						<path id="&lt;Path&gt;" class="s17" d="m807.5 766.8c-7.7 0.9-14.7-4.8-15.6-12.5l-29.2-268c-0.8-7.7 27.3-10.8 28.1-3.1l29.2 268.1c0.8 7.7-4.8 14.7-12.5 15.5z"/>
					</g>
				</g>
				<g id="&lt;Group&gt;">
					<g id="&lt;Group&gt;">
						<path id="&lt;Path&gt;" class="s13" d="m807.5 766.8l-31.4-287.8c7.1-0.8 14.3 0.4 14.7 4.2l29.2 268.1c0.8 7.7-4.8 14.7-12.5 15.5z"/>
					</g>
				</g>
				<g id="&lt;Group&gt;">
					<g id="&lt;Group&gt;">
						<path id="&lt;Path&gt;" class="s4" d="m774.4 592.9c-1.5 0.2-2.8-0.9-3-2.4-0.2-1.5 0.9-2.8 2.4-2.9l28-3.2q0.1 0 0.1 0c1.4-0.1 2.8 0.9 2.9 2.4 0.2 1.5-0.9 2.8-2.4 3l-28 3.1q0 0 0 0z"/>
					</g>
				</g>
				<g id="&lt;Group&gt;">
					<g id="&lt;Group&gt;">
						<path id="&lt;Path&gt;" class="s4" d="m804.8 555.9c-1.4 0.2-2.8-0.9-2.9-2.3l-4.1-36.2c-0.2-1.5 0.9-2.8 2.4-3q0 0 0 0c1.5-0.2 2.8 0.9 2.9 2.4l4.1 36.2c0.2 1.4-0.9 2.8-2.4 2.9q0 0 0 0z"/>
					</g>
				</g>
				<g id="&lt;Group&gt;">
					<g id="&lt;Group&gt;">
						<path id="&lt;Path&gt;" class="s4" d="m792.8 501.8c-1.4 0.1-2.8-0.9-2.9-2.4-0.2-1.5 0.9-2.8 2.3-3l11-1.2q0 0 0 0c1.5-0.2 2.8 0.9 3 2.4 0.1 1.4-0.9 2.8-2.4 2.9l-11 1.3q0 0 0 0z"/>
					</g>
				</g>
				<g id="&lt;Group&gt;">
					<g id="&lt;Group&gt;">
						<path id="&lt;Path&gt;" class="s4" d="m764.9 506.2c-2.2 0.2-4.2-1.4-4.4-3.6-0.3-2.2 1.3-4.2 3.5-4.5l28.1-3q0 0 0 0c2.2-0.3 4.2 1.3 4.5 3.5 0.2 2.3-1.4 4.3-3.6 4.5l-28.1 3.1q0 0 0 0z"/>
					</g>
				</g>
				<g id="&lt;Group&gt;">
					<g id="&lt;Group&gt;">
						<path id="&lt;Path&gt;" class="s4" d="m800.7 519.8c-0.5 0-1.1-0.1-1.6-0.4-1.3-0.7-1.7-2.4-1-3.7l4.3-7.4c0.8-1.3 2.4-1.7 3.7-1 1.3 0.8 1.7 2.4 1 3.7l-4.3 7.4c-0.5 0.8-1.2 1.3-2.1 1.4z"/>
					</g>
				</g>
				<g id="&lt;Group&gt;">
					<g id="&lt;Group&gt;">
						<path id="&lt;Path&gt;" class="s4" d="m805 512.4c-1.5 0.1-2.8-1-2.9-2.4l-1.3-11.9c-0.2-1.4 0.9-2.8 2.4-2.9 1.5-0.2 2.8 0.9 3 2.4l1.2 11.8c0.2 1.5-0.9 2.8-2.4 3z"/>
					</g>
				</g>
				<g id="&lt;Group&gt;">
					<g id="&lt;Group&gt;">
						<path id="&lt;Path&gt;" class="s5" d="m816.3 742.6l-22.6 2.4c-1.7 0.2-2.6 1.8-2.4 3.6 3.7 35.2 15.1 34.8 15.1 34.8l5.5-0.6c0 0 11.2-1.9 7.4-37.2-0.1-1.7-1.3-3.2-3-3z"/>
					</g>
				</g>
				<g id="&lt;Group&gt;">
					<g id="&lt;Group&gt;">
						<path id="&lt;Path&gt;" class="s4" d="m790.8 747.3c-1.1 0.1-2-0.6-2.1-1.7-0.1-1 0.6-1.9 1.6-2l28.1-3.2q0 0 0 0c1-0.1 2 0.7 2.1 1.7 0.1 1-0.7 1.9-1.7 2.1l-28 3.1q0 0 0 0z"/>
					</g>
				</g>
				<g id="&lt;Group&gt;">
					<g id="&lt;Group&gt;">
						<path id="&lt;Path&gt;" class="s4" d="m810.2 793.5c-0.2 0-0.5-0.1-0.6-0.2q-0.3-0.3-0.4-0.7c0-0.2 0.1-0.5 0.2-0.6 0.3-0.4 0.9-0.5 1.3-0.2q0.2 0.1 0.3 0.3 0.1 0.2 0.1 0.3 0 0.4-0.2 0.7-0.1 0.2-0.3 0.3-0.2 0.1-0.4 0.1z"/>
					</g>
				</g>
			</g>
			<g id="&lt;Group&gt;">
				<g id="&lt;Group&gt;">
					<path id="&lt;Path&gt;" class="s10" d="m759.3 787.7l-49.1-11.6v23.2z"/>
				</g>
				<g id="&lt;Group&gt;">
					<path id="&lt;Path&gt;" class="s11" d="m759.3 787.7l-12.6-3v6z"/>
				</g>
				<g id="&lt;Group&gt;">
					<path id="&lt;Path&gt;" class="s2" d="m709.7 799.3c2.2 0 3.9-1.7 3.9-3.9 0-2.1-1.7-3.9-3.9-3.9 2.2 0 3.9-1.7 3.9-3.8 0-2.2-1.7-3.9-3.8-3.9 2.1 0 3.8-1.7 3.8-3.9 0.1-2.1-1.7-3.8-3.8-3.8l-319.5-0.3h-10.3c-3.9-0.1-7 3.1-7.1 7v9.1c0 3.9 3.2 7.1 7.1 7.1h3.8z"/>
				</g>
				<g id="&lt;Group&gt;">
					<path id="&lt;Path&gt;" class="s3" d="m709.7 799.3c2.2 0 3.9-1.7 3.9-3.9 0-2.1-1.7-3.9-3.9-3.9 2.1 0-305.2-0.8-336.8-0.8v1.2c0 3.9 3.2 7.1 7.1 7.1h3.8z"/>
				</g>
				<g id="&lt;Group&gt;">
					<path id="&lt;Path&gt;" class="s4" d="m440.5 775.9l-50.2 0.1-10.3-0.1c-3.9 0-7 3.2-7.1 7.1v9.1c0 3.9 3.2 7.1 7.1 7.1h3.8l56.7-0.1z"/>
				</g>
				<g id="&lt;Group&gt;">
					<path id="&lt;Path&gt;" class="s13" d="m440.5 775.9l-6.3-0.1 0.1 23.3h6.2z"/>
				</g>
				<g id="&lt;Group&gt;">
					<path id="&lt;Path&gt;" class="s4" d="m480 789.2l0.1-3.1h-23.3v3.2z"/>
				</g>
				<g id="&lt;Group&gt;">
					<path id="&lt;Path&gt;" class="s13" d="m425.6 789.4v-3.2h-11.6v3.2z"/>
				</g>
			</g>
			<g id="&lt;Group&gt;">
				<g id="&lt;Group&gt;">
					<g id="&lt;Group&gt;" style="opacity: .4">
						<g id="&lt;Group&gt;">
							<g id="&lt;Group&gt;">
								<path id="&lt;Path&gt;" class="s5" d="m662.6 230.7c7.8 28.3-8.9 57.6-37.3 65.4-28.3 7.8-57.7-8.9-65.4-37.3-7.8-28.3 8.9-57.6 37.2-65.4 28.4-7.8 57.7 8.9 65.5 37.3z"/>
							</g>
						</g>
					</g>
					<g id="&lt;Group&gt;">
						<g id="&lt;Group&gt;">
							<g id="&lt;Group&gt;">
								<path id="&lt;Compound Path&gt;" fill-rule="evenodd" class="s11" d="m582 296c-13.1-7.5-23.4-19.9-27.7-35.6-8.6-31.4 9.9-64 41.3-72.6 31.4-8.6 63.9 9.9 72.6 41.3 8.6 31.4-10 64-41.4 72.6-15.7 4.3-31.6 1.8-44.8-5.7zm52.7-92.5c-10.6-6-23.4-8-36-4.5-25.3 6.9-40.2 33.1-33.3 58.3 7 25.3 33.1 40.1 58.4 33.2 25.2-6.9 40.1-33.1 33.2-58.3-3.5-12.6-11.7-22.7-22.3-28.7z"/>
							</g>
						</g>
					</g>
					<g id="&lt;Group&gt;">
						<g id="&lt;Group&gt;">
							<g id="&lt;Group&gt;">
								<path id="&lt;Path&gt;" class="s18" d="m579.2 223.5q-0.1-0.1-0.2-0.2c-1.4-0.9-1.7-2.7-0.8-4 2.4-3.5 5.2-6.7 8.4-9.5 1.1-1.1 3-1 4 0.2 1.1 1.2 1 3-0.1 4.1-2.8 2.5-5.4 5.4-7.5 8.5-0.9 1.3-2.5 1.6-3.8 0.9z"/>
							</g>
						</g>
					</g>
					<g id="&lt;Group&gt;">
						<g id="&lt;Group&gt;">
							<g id="&lt;Group&gt;">
								<path id="&lt;Path&gt;" class="s18" d="m572.5 236.7c-1.2-0.7-1.7-2.2-1.3-3.5 0.8-2.3 1.7-4.5 2.8-6.6 0.7-1.5 2.4-2.1 3.8-1.4 1.4 0.7 2.1 2.5 1.4 3.9q-1.5 2.9-2.5 6c-0.5 1.5-2.2 2.3-3.7 1.8q-0.3-0.1-0.5-0.2z"/>
							</g>
						</g>
					</g>
					<g id="&lt;Group&gt;">
						<g id="&lt;Group&gt;">
							<g id="&lt;Group&gt;">
								<path id="&lt;Path&gt;" class="s11" d="m645.5 391.8c-1.9-1.1-3.4-2.9-4.1-5.2l-23.7-85.4c-1.3-4.6 1.5-9.4 6.1-10.7 4.6-1.2 9.4 1.5 10.6 6.1l23.8 85.4c1.2 4.6-1.5 9.4-6.1 10.7-2.3 0.6-4.7 0.2-6.6-0.9z"/>
							</g>
						</g>
					</g>
				</g>
				<g id="&lt;Group&gt;">
					<g id="&lt;Group&gt;">
						<path id="&lt;Path&gt;" class="s9" d="m617.9 313.3c-1-0.5-1.8-1.4-2.1-2.6-0.6-2.3 0.8-4.7 3.1-5.3l16.7-4.6c2.3-0.7 4.7 0.7 5.3 3 0.7 2.3-0.7 4.7-3 5.3l-16.7 4.6c-1.2 0.4-2.4 0.2-3.3-0.4z"/>
					</g>
				</g>
			</g>
			<g id="&lt;Group&gt;">
				<path id="&lt;Path&gt;" class="s9" d="m508.3 178.2c-1.6 0-3-1.4-3-3v-24c0-1.7 1.4-3 3-3 1.7 0 3 1.3 3 3v24c0 1.6-1.3 3-3 3z"/>
			</g>
			<g id="&lt;Group&gt;">
				<path id="&lt;Path&gt;" class="s9" d="m458.5 187.4c-0.8 0-1.6-0.2-2.1-0.8l-17-17c-1.2-1.2-1.2-3.1 0-4.3 1.1-1.1 3-1.1 4.2 0l17 17c1.2 1.2 1.2 3.1 0 4.3-0.6 0.6-1.4 0.8-2.1 0.8z"/>
			</g>
			<g id="&lt;Group&gt;">
				<path id="&lt;Path&gt;" class="s9" d="m558.2 187.4c-0.8 0-1.6-0.2-2.1-0.8-1.2-1.2-1.2-3.1 0-4.3l16.9-17c1.2-1.1 3.1-1.1 4.3 0 1.2 1.2 1.2 3.1 0 4.3l-17 17c-0.6 0.6-1.4 0.8-2.1 0.8z"/>
			</g>
		</g>
	</g>
	<g id="DESIGNED BY FREEPIK">
		<g id="&lt;Group&gt;">
			<g id="&lt;Group&gt;">
				<g id="&lt;Group&gt;">
				</g>
			</g>
			<g id="&lt;Group&gt;">
			</g>
		</g>
	</g>
</svg>